<svg xmlns="http://www.w3.org/2000/svg" width="800" height="800" color-interpolation-filters="sRGB" style="background: transparent;">
  <g transform="matrix(1 0 0 1 0 0)">
    <g fill="none" stroke="none" stroke-dashoffset="0" font-family="sans-serif" font-size="16" font-style="normal" font-variant="normal" font-weight="normal" text-anchor="left" transform="matrix(1 0 0 1 0 0)" visibility="visible">
      <g transform="matrix(1 0 0 1 208.6417 286.2559)">
        <line x1="33.9947" x2="0" y1="73.4974" y2="0" fill="none" stroke="rgba(190,190,190,1)"/>
      </g>
      <g transform="matrix(1 0 0 1 149.4492 205.3958)">
        <line x1="0" x2="42.8786" y1="0" y2="138.2733" fill="none" stroke="rgba(190,190,190,1)"/>
      </g>
      <g transform="matrix(1 0 0 1 149.4492 205.3958)">
        <line x1="0" x2="59.1925" y1="0" y2="80.86" fill="none" stroke="rgba(190,190,190,1)"/>
      </g>
      <g transform="matrix(1 0 0 1 192.3277 343.6692)">
        <line x1="50.3086" x2="0" y1="16.0841" y2="0" fill="none" stroke="rgba(190,190,190,1)"/>
      </g>
      <g transform="matrix(1 0 0 1 192.3277 286.2559)">
        <line x1="16.3139" x2="0" y1="0" y2="57.4133" fill="none" stroke="rgba(190,190,190,1)"/>
      </g>
      <g transform="matrix(1 0 0 1 149.4492 205.3958)">
        <line x1="0" x2="93.1872" y1="0" y2="154.3574" fill="none" stroke="rgba(190,190,190,1)"/>
      </g>
      <g transform="matrix(1 0 0 1 291.1122 213.4653)">
        <line x1="0" x2="13.6644" y1="0" y2="41.4868" fill="none" stroke="rgba(190,190,190,1)"/>
      </g>
      <g transform="matrix(1 0 0 1 243.0592 250)">
        <line x1="6.9408" x2="0" y1="0" y2="54.5603" fill="none" stroke="rgba(190,190,190,1)"/>
      </g>
      <g transform="matrix(1 0 0 1 243.0592 213.4653)">
        <line x1="48.053" x2="0" y1="0" y2="91.095" fill="none" stroke="rgba(190,190,190,1)"/>
      </g>
      <g transform="matrix(1 0 0 1 250 250)">
        <line x1="54.7766" x2="0" y1="4.9521" y2="0" fill="none" stroke="rgba(190,190,190,1)"/>
      </g>
      <g transform="matrix(1 0 0 1 243.0592 254.952)">
        <line x1="0" x2="61.7174" y1="49.6082" y2="0" fill="none" stroke="rgba(190,190,190,1)"/>
      </g>
      <g transform="matrix(1 0 0 1 250 213.4653)">
        <line x1="41.1122" x2="0" y1="0" y2="36.5347" fill="none" stroke="rgba(190,190,190,1)"/>
      </g>
      <g transform="matrix(1 0 0 1 37.1891 272.4442)">
        <line x1="0" x2="44.512" y1="47.2973" y2="0" fill="none" stroke="rgba(190,190,190,1)"/>
      </g>
      <g transform="matrix(1 0 0 1 103.9431 328.663)">
        <line x1="3.2331" x2="0" y1="89.7816" y2="0" fill="none" stroke="rgba(190,190,190,1)"/>
      </g>
      <g transform="matrix(1 0 0 1 37.1891 319.7415)">
        <line x1="0" x2="66.754" y1="0" y2="8.9215" fill="none" stroke="rgba(190,190,190,1)"/>
      </g>
      <g transform="matrix(1 0 0 1 81.7011 272.4442)">
        <line x1="25.4751" x2="0" y1="146.0004" y2="0" fill="none" stroke="rgba(190,190,190,1)"/>
      </g>
      <g transform="matrix(1 0 0 1 81.7011 272.4442)">
        <line x1="0" x2="22.242" y1="0" y2="56.2188" fill="none" stroke="rgba(190,190,190,1)"/>
      </g>
      <g transform="matrix(1 0 0 1 37.1891 319.7415)">
        <line x1="0" x2="69.9871" y1="0" y2="98.7031" fill="none" stroke="rgba(190,190,190,1)"/>
      </g>
      <g transform="matrix(1 0 0 1 84.8558 242.1346)">
        <line x1="0" x2="35.9497" y1="0" y2="112.301" fill="none" stroke="rgba(190,190,190,1)"/>
      </g>
      <g transform="matrix(1 0 0 1 89.2318 211.5425)">
        <line x1="0" x2="50.7793" y1="0" y2="36.8955" fill="none" stroke="rgba(190,190,190,1)"/>
      </g>
      <g transform="matrix(1 0 0 1 120.8055 248.438)">
        <line x1="0" x2="19.2056" y1="105.9976" y2="0" fill="none" stroke="rgba(190,190,190,1)"/>
      </g>
      <g transform="matrix(1 0 0 1 84.8558 211.5425)">
        <line x1="0" x2="4.376" y1="30.5921" y2="0" fill="none" stroke="rgba(190,190,190,1)"/>
      </g>
      <g transform="matrix(1 0 0 1 89.2318 211.5425)">
        <line x1="0" x2="31.5737" y1="0" y2="142.8931" fill="none" stroke="rgba(190,190,190,1)"/>
      </g>
      <g transform="matrix(1 0 0 1 84.8558 242.1346)">
        <line x1="0" x2="55.1553" y1="0" y2="6.3034" fill="none" stroke="rgba(190,190,190,1)"/>
      </g>
      <g transform="matrix(1 0 0 1 -19.7805 440.0486)">
        <line x1="0" x2="20.4616" y1="0" y2="26.146" fill="none" stroke="rgba(190,190,190,1)"/>
      </g>
      <g transform="matrix(1 0 0 1 10.6443 371.9813)">
        <line x1="8.2454" x2="0" y1="31.0643" y2="0" fill="none" stroke="rgba(190,190,190,1)"/>
      </g>
      <g transform="matrix(1 0 0 1 -19.7805 371.9813)">
        <line x1="0" x2="30.4248" y1="68.0673" y2="0" fill="none" stroke="rgba(190,190,190,1)"/>
      </g>
      <g transform="matrix(1 0 0 1 .6811 403.0457)">
        <line x1="0" x2="18.2086" y1="63.1489" y2="0" fill="none" stroke="rgba(190,190,190,1)"/>
      </g>
      <g transform="matrix(1 0 0 1 .6811 371.9813)">
        <line x1="0" x2="9.9632" y1="94.2133" y2="0" fill="none" stroke="rgba(190,190,190,1)"/>
      </g>
      <g transform="matrix(1 0 0 1 -19.7805 403.0457)">
        <line x1="0" x2="38.6703" y1="37.003" y2="0" fill="none" stroke="rgba(190,190,190,1)"/>
      </g>
      <g transform="matrix(1 0 0 1 -21.3565 332.4475)">
        <line x1="1.6177" x2="0" y1="31.8825" y2="0" fill="none" stroke="rgba(190,190,190,1)"/>
      </g>
      <g transform="matrix(1 0 0 1 -.226 307.876)">
        <line x1="0" x2="51.1605" y1="0" y2="39.9801" fill="none" stroke="rgba(190,190,190,1)"/>
      </g>
      <g transform="matrix(1 0 0 1 -21.3565 307.876)">
        <line x1="21.1306" x2="0" y1="0" y2="24.5716" fill="none" stroke="rgba(190,190,190,1)"/>
      </g>
      <g transform="matrix(1 0 0 1 -19.7388 347.856)">
        <line x1="70.6734" x2="0" y1="0" y2="16.4739" fill="none" stroke="rgba(190,190,190,1)"/>
      </g>
      <g transform="matrix(1 0 0 1 -19.7388 307.876)">
        <line x1="0" x2="19.5129" y1="56.454" y2="0" fill="none" stroke="rgba(190,190,190,1)"/>
      </g>
      <g transform="matrix(1 0 0 1 -21.3565 332.4475)">
        <line x1="0" x2="72.2911" y1="0" y2="15.4085" fill="none" stroke="rgba(190,190,190,1)"/>
      </g>
      <g transform="matrix(1 0 0 1 29.9416 287.5626)">
        <line x1="53.9539" x2="0" y1="111.3437" y2="0" fill="none" stroke="rgba(190,190,190,1)"/>
      </g>
      <g transform="matrix(1 0 0 1 64.1852 303.8345)">
        <line x1="0" x2="19.3091" y1="71.2982" y2="0" fill="none" stroke="rgba(190,190,190,1)"/>
      </g>
      <g transform="matrix(1 0 0 1 29.9416 287.5626)">
        <line x1="34.2436" x2="0" y1="87.5702" y2="0" fill="none" stroke="rgba(190,190,190,1)"/>
      </g>
      <g transform="matrix(1 0 0 1 83.4943 303.8345)">
        <line x1=".4011" x2="0" y1="95.0717" y2="0" fill="none" stroke="rgba(190,190,190,1)"/>
      </g>
      <g transform="matrix(1 0 0 1 29.9416 287.5626)">
        <line x1="53.5527" x2="0" y1="16.272" y2="0" fill="none" stroke="rgba(190,190,190,1)"/>
      </g>
      <g transform="matrix(1 0 0 1 64.1852 375.1328)">
        <line x1="19.7103" x2="0" y1="23.7735" y2="0" fill="none" stroke="rgba(190,190,190,1)"/>
      </g>
      <g transform="matrix(1 0 0 1 -37.7464 256.8561)">
        <line x1="66.9" x2="0" y1="0" y2="49.2408" fill="none" stroke="rgba(190,190,190,1)"/>
      </g>
      <g transform="matrix(1 0 0 1 -28.6 251.5533)">
        <line x1="11.5483" x2="0" y1="28.3661" y2="0" fill="none" stroke="rgba(190,190,190,1)"/>
      </g>
      <g transform="matrix(1 0 0 1 -37.7464 251.5533)">
        <line x1="9.1465" x2="0" y1="0" y2="54.5437" fill="none" stroke="rgba(190,190,190,1)"/>
      </g>
      <g transform="matrix(1 0 0 1 -17.0516 256.8561)">
        <line x1="0" x2="46.2052" y1="23.0633" y2="0" fill="none" stroke="rgba(190,190,190,1)"/>
      </g>
      <g transform="matrix(1 0 0 1 -37.7464 279.9194)">
        <line x1="0" x2="20.6948" y1="26.1776" y2="0" fill="none" stroke="rgba(190,190,190,1)"/>
      </g>
      <g transform="matrix(1 0 0 1 -28.6 251.5533)">
        <line x1="0" x2="57.7535" y1="0" y2="5.3029" fill="none" stroke="rgba(190,190,190,1)"/>
      </g>
      <g transform="matrix(1 0 0 1 192.3277 304.5603)">
        <line x1="50.7315" x2="0" y1="0" y2="39.1089" fill="none" stroke="rgba(190,190,190,1)"/>
      </g>
      <g transform="matrix(1 0 0 1 81.7011 272.4442)">
        <line x1="39.1043" x2="0" y1="81.9914" y2="0" fill="none" stroke="rgba(190,190,190,1)"/>
      </g>
      <g transform="matrix(1 0 0 1 208.6417 250)">
        <line x1="41.3583" x2="0" y1="0" y2="36.2559" fill="none" stroke="rgba(190,190,190,1)"/>
      </g>
      <g transform="matrix(1 0 0 1 103.9431 248.438)">
        <line x1="0" x2="36.068" y1="80.2251" y2="0" fill="none" stroke="rgba(190,190,190,1)"/>
      </g>
      <g transform="matrix(1 0 0 1 -21.3565 332.4475)">
        <line x1="0" x2="32.0008" y1="0" y2="39.5338" fill="none" stroke="rgba(190,190,190,1)"/>
      </g>
      <g transform="matrix(1 0 0 1 -37.7464 287.5626)">
        <line x1="0" x2="67.688" y1="18.5344" y2="0" fill="none" stroke="rgba(190,190,190,1)"/>
      </g>
      <g transform="matrix(1 0 0 1 18.8898 347.856)">
        <line x1="0" x2="32.0448" y1="55.1896" y2="0" fill="none" stroke="rgba(190,190,190,1)"/>
      </g>
      <g transform="matrix(1 0 0 1 29.1536 256.8561)">
        <line x1="0" x2="54.3407" y1="0" y2="46.9784" fill="none" stroke="rgba(190,190,190,1)"/>
      </g>
      <g transform="matrix(1 0 0 1 81.7011 272.4442)">
        <line x1="110.6266" x2="0" y1="71.2249" y2="0" fill="none" stroke="rgba(190,190,190,1)"/>
      </g>
      <g transform="matrix(1 0 0 1 10.6443 287.5626)">
        <line x1="0" x2="19.2972" y1="84.4188" y2="0" fill="none" stroke="rgba(190,190,190,1)"/>
      </g>
      <g transform="matrix(1 0 0 1 140.011 248.438)">
        <line x1="68.6306" x2="0" y1="37.8179" y2="0" fill="none" stroke="rgba(190,190,190,1)"/>
      </g>
      <g transform="matrix(1 0 0 1 50.9346 303.8345)">
        <line x1="0" x2="32.5597" y1="44.0215" y2="0" fill="none" stroke="rgba(190,190,190,1)"/>
      </g>
      <g transform="matrix(1 0 0 1 29.9416 272.4442)">
        <line x1="0" x2="51.7596" y1="15.1183" y2="0" fill="none" stroke="rgba(190,190,190,1)"/>
      </g>
      <g transform="matrix(1 0 0 1 83.4943 248.438)">
        <line x1="0" x2="56.5168" y1="55.3966" y2="0" fill="none" stroke="rgba(190,190,190,1)"/>
      </g>
      <g transform="matrix(1 0 0 1 29.9416 287.5626)">
        <line x1="53.5527" x2="0" y1="16.272" y2="0" fill="none" stroke="rgba(190,190,190,1)"/>
      </g>
      <g transform="matrix(1 0 0 1 81.7011 248.438)">
        <line x1="58.31" x2="0" y1="0" y2="24.0062" fill="none" stroke="rgba(190,190,190,1)"/>
      </g>
      <g stroke-width="2" transform="matrix(1 0 0 1 120.8055 354.4356)">
        <circle cx="10" cy="10" r="10" fill="rgba(65,201,226,1)" stroke="rgba(255,255,255,1)" transform="translate(-10 -10)"/>
      </g>
      <g stroke-width="2" transform="matrix(1 0 0 1 37.1891 319.7415)">
        <circle cx="10" cy="10" r="10" fill="rgba(65,201,226,1)" stroke="rgba(255,255,255,1)" transform="translate(-10 -10)"/>
      </g>
      <g stroke-width="2" transform="matrix(1 0 0 1 29.9416 287.5626)">
        <circle cx="10" cy="10" r="10" fill="rgba(65,201,226,1)" stroke="rgba(255,255,255,1)" transform="translate(-10 -10)"/>
      </g>
      <g stroke-width="2" transform="matrix(1 0 0 1 10.6443 371.9813)">
        <circle cx="10" cy="10" r="10" fill="rgba(65,201,226,1)" stroke="rgba(255,255,255,1)" transform="translate(-10 -10)"/>
      </g>
      <g stroke-width="2" transform="matrix(1 0 0 1 29.1536 256.8561)">
        <circle cx="10" cy="10" r="10" fill="rgba(65,201,226,1)" stroke="rgba(255,255,255,1)" transform="translate(-10 -10)"/>
      </g>
      <g stroke-width="2" transform="matrix(1 0 0 1 -19.7805 440.0486)">
        <circle cx="10" cy="10" r="10" fill="rgba(65,201,226,1)" stroke="rgba(255,255,255,1)" transform="translate(-10 -10)"/>
      </g>
      <g stroke-width="2" transform="matrix(1 0 0 1 140.011 248.438)">
        <circle cx="10" cy="10" r="10" fill="rgba(65,201,226,1)" stroke="rgba(255,255,255,1)" transform="translate(-10 -10)"/>
      </g>
      <g stroke-width="2" transform="matrix(1 0 0 1 103.9431 328.663)">
        <circle cx="10" cy="10" r="10" fill="rgba(65,201,226,1)" stroke="rgba(255,255,255,1)" transform="translate(-10 -10)"/>
      </g>
      <g stroke-width="2" transform="matrix(1 0 0 1 149.4492 205.3958)">
        <circle cx="10" cy="10" r="10" fill="rgba(65,201,226,1)" stroke="rgba(255,255,255,1)" transform="translate(-10 -10)"/>
      </g>
      <g stroke-width="2" transform="matrix(1 0 0 1 83.4943 303.8345)">
        <circle cx="10" cy="10" r="10" fill="rgba(65,201,226,1)" stroke="rgba(255,255,255,1)" transform="translate(-10 -10)"/>
      </g>
      <g stroke-width="2" transform="matrix(1 0 0 1 81.7011 272.4442)">
        <circle cx="10" cy="10" r="10" fill="rgba(65,201,226,1)" stroke="rgba(255,255,255,1)" transform="translate(-10 -10)"/>
      </g>
      <g stroke-width="2" transform="matrix(1 0 0 1 -19.7388 364.33)">
        <circle cx="10" cy="10" r="10" fill="rgba(65,201,226,1)" stroke="rgba(255,255,255,1)" transform="translate(-10 -10)"/>
      </g>
      <g stroke-width="2" transform="matrix(1 0 0 1 84.8558 242.1346)">
        <circle cx="10" cy="10" r="10" fill="rgba(65,201,226,1)" stroke="rgba(255,255,255,1)" transform="translate(-10 -10)"/>
      </g>
      <g stroke-width="2" transform="matrix(1 0 0 1 304.7766 254.952)">
        <circle cx="10" cy="10" r="10" fill="rgba(65,201,226,1)" stroke="rgba(255,255,255,1)" transform="translate(-10 -10)"/>
      </g>
      <g stroke-width="2" transform="matrix(1 0 0 1 -37.7464 306.097)">
        <circle cx="10" cy="10" r="10" fill="rgba(65,201,226,1)" stroke="rgba(255,255,255,1)" transform="translate(-10 -10)"/>
      </g>
      <g stroke-width="2" transform="matrix(1 0 0 1 -.226 307.876)">
        <circle cx="10" cy="10" r="10" fill="rgba(65,201,226,1)" stroke="rgba(255,255,255,1)" transform="translate(-10 -10)"/>
      </g>
      <g stroke-width="2" transform="matrix(1 0 0 1 -21.3565 332.4475)">
        <circle cx="10" cy="10" r="10" fill="rgba(65,201,226,1)" stroke="rgba(255,255,255,1)" transform="translate(-10 -10)"/>
      </g>
      <g stroke-width="2" transform="matrix(1 0 0 1 291.1122 213.4653)">
        <circle cx="10" cy="10" r="10" fill="rgba(65,201,226,1)" stroke="rgba(255,255,255,1)" transform="translate(-10 -10)"/>
      </g>
      <g stroke-width="2" transform="matrix(1 0 0 1 89.2318 211.5425)">
        <circle cx="10" cy="10" r="10" fill="rgba(65,201,226,1)" stroke="rgba(255,255,255,1)" transform="translate(-10 -10)"/>
      </g>
      <g stroke-width="2" transform="matrix(1 0 0 1 83.8954 398.9063)">
        <circle cx="10" cy="10" r="10" fill="rgba(65,201,226,1)" stroke="rgba(255,255,255,1)" transform="translate(-10 -10)"/>
      </g>
      <g stroke-width="2" transform="matrix(1 0 0 1 107.1762 418.4446)">
        <circle cx="10" cy="10" r="10" fill="rgba(65,201,226,1)" stroke="rgba(255,255,255,1)" transform="translate(-10 -10)"/>
      </g>
      <g stroke-width="2" transform="matrix(1 0 0 1 -17.0516 279.9194)">
        <circle cx="10" cy="10" r="10" fill="rgba(65,201,226,1)" stroke="rgba(255,255,255,1)" transform="translate(-10 -10)"/>
      </g>
      <g stroke-width="2" transform="matrix(1 0 0 1 243.0592 304.5603)">
        <circle cx="10" cy="10" r="10" fill="rgba(65,201,226,1)" stroke="rgba(255,255,255,1)" transform="translate(-10 -10)"/>
      </g>
      <g stroke-width="2" transform="matrix(1 0 0 1 208.6417 286.2559)">
        <circle cx="10" cy="10" r="10" fill="rgba(65,201,226,1)" stroke="rgba(255,255,255,1)" transform="translate(-10 -10)"/>
      </g>
      <g stroke-width="2" transform="matrix(1 0 0 1 242.6363 359.7533)">
        <circle cx="10" cy="10" r="10" fill="rgba(65,201,226,1)" stroke="rgba(255,255,255,1)" transform="translate(-10 -10)"/>
      </g>
      <g stroke-width="2" transform="matrix(1 0 0 1 -28.6 251.5533)">
        <circle cx="10" cy="10" r="10" fill="rgba(65,201,226,1)" stroke="rgba(255,255,255,1)" transform="translate(-10 -10)"/>
      </g>
      <g stroke-width="2" transform="matrix(1 0 0 1 .6811 466.1946)">
        <circle cx="10" cy="10" r="10" fill="rgba(65,201,226,1)" stroke="rgba(255,255,255,1)" transform="translate(-10 -10)"/>
      </g>
      <g stroke-width="2" transform="matrix(1 0 0 1 250 250)">
        <circle cx="10" cy="10" r="10" fill="rgba(65,201,226,1)" stroke="rgba(255,255,255,1)" transform="translate(-10 -10)"/>
      </g>
      <g stroke-width="2" transform="matrix(1 0 0 1 50.9346 347.856)">
        <circle cx="10" cy="10" r="10" fill="rgba(65,201,226,1)" stroke="rgba(255,255,255,1)" transform="translate(-10 -10)"/>
      </g>
      <g stroke-width="2" transform="matrix(1 0 0 1 18.8898 403.0457)">
        <circle cx="10" cy="10" r="10" fill="rgba(65,201,226,1)" stroke="rgba(255,255,255,1)" transform="translate(-10 -10)"/>
      </g>
      <g stroke-width="2" transform="matrix(1 0 0 1 64.1852 375.1328)">
        <circle cx="10" cy="10" r="10" fill="rgba(65,201,226,1)" stroke="rgba(255,255,255,1)" transform="translate(-10 -10)"/>
      </g>
      <g stroke-width="2" transform="matrix(1 0 0 1 192.3277 343.6692)">
        <circle cx="10" cy="10" r="10" fill="rgba(65,201,226,1)" stroke="rgba(255,255,255,1)" transform="translate(-10 -10)"/>
      </g>
      <g transform="matrix(1 0 0 1 208.6417 286.2559)">
        <line x1="33.9947" x2="0" y1="73.4974" y2="0" fill="none" stroke="rgba(190,190,190,1)"/>
      </g>
      <g transform="matrix(1 0 0 1 149.4492 205.3958)">
        <line x1="0" x2="42.8786" y1="0" y2="138.2733" fill="none" stroke="rgba(190,190,190,1)"/>
      </g>
      <g transform="matrix(1 0 0 1 149.4492 205.3958)">
        <line x1="0" x2="59.1925" y1="0" y2="80.86" fill="none" stroke="rgba(190,190,190,1)"/>
      </g>
      <g transform="matrix(1 0 0 1 192.3277 343.6692)">
        <line x1="50.3086" x2="0" y1="16.0841" y2="0" fill="none" stroke="rgba(190,190,190,1)"/>
      </g>
      <g transform="matrix(1 0 0 1 192.3277 286.2559)">
        <line x1="16.3139" x2="0" y1="0" y2="57.4133" fill="none" stroke="rgba(190,190,190,1)"/>
      </g>
      <g transform="matrix(1 0 0 1 149.4492 205.3958)">
        <line x1="0" x2="93.1872" y1="0" y2="154.3574" fill="none" stroke="rgba(190,190,190,1)"/>
      </g>
      <g transform="matrix(1 0 0 1 291.1122 213.4653)">
        <line x1="0" x2="13.6644" y1="0" y2="41.4868" fill="none" stroke="rgba(190,190,190,1)"/>
      </g>
      <g transform="matrix(1 0 0 1 243.0592 250)">
        <line x1="6.9408" x2="0" y1="0" y2="54.5603" fill="none" stroke="rgba(190,190,190,1)"/>
      </g>
      <g transform="matrix(1 0 0 1 243.0592 213.4653)">
        <line x1="48.053" x2="0" y1="0" y2="91.095" fill="none" stroke="rgba(190,190,190,1)"/>
      </g>
      <g transform="matrix(1 0 0 1 250 250)">
        <line x1="54.7766" x2="0" y1="4.9521" y2="0" fill="none" stroke="rgba(190,190,190,1)"/>
      </g>
      <g transform="matrix(1 0 0 1 243.0592 254.952)">
        <line x1="0" x2="61.7174" y1="49.6082" y2="0" fill="none" stroke="rgba(190,190,190,1)"/>
      </g>
      <g transform="matrix(1 0 0 1 250 213.4653)">
        <line x1="41.1122" x2="0" y1="0" y2="36.5347" fill="none" stroke="rgba(190,190,190,1)"/>
      </g>
      <g transform="matrix(1 0 0 1 37.1891 272.4442)">
        <line x1="0" x2="44.512" y1="47.2973" y2="0" fill="none" stroke="rgba(190,190,190,1)"/>
      </g>
      <g transform="matrix(1 0 0 1 103.9431 328.663)">
        <line x1="3.2331" x2="0" y1="89.7816" y2="0" fill="none" stroke="rgba(190,190,190,1)"/>
      </g>
      <g transform="matrix(1 0 0 1 37.1891 319.7415)">
        <line x1="0" x2="66.754" y1="0" y2="8.9215" fill="none" stroke="rgba(190,190,190,1)"/>
      </g>
      <g transform="matrix(1 0 0 1 81.7011 272.4442)">
        <line x1="25.4751" x2="0" y1="146.0004" y2="0" fill="none" stroke="rgba(190,190,190,1)"/>
      </g>
      <g transform="matrix(1 0 0 1 81.7011 272.4442)">
        <line x1="0" x2="22.242" y1="0" y2="56.2188" fill="none" stroke="rgba(190,190,190,1)"/>
      </g>
      <g transform="matrix(1 0 0 1 37.1891 319.7415)">
        <line x1="0" x2="69.9871" y1="0" y2="98.7031" fill="none" stroke="rgba(190,190,190,1)"/>
      </g>
      <g transform="matrix(1 0 0 1 84.8558 242.1346)">
        <line x1="0" x2="35.9497" y1="0" y2="112.301" fill="none" stroke="rgba(190,190,190,1)"/>
      </g>
      <g transform="matrix(1 0 0 1 89.2318 211.5425)">
        <line x1="0" x2="50.7793" y1="0" y2="36.8955" fill="none" stroke="rgba(190,190,190,1)"/>
      </g>
      <g transform="matrix(1 0 0 1 120.8055 248.438)">
        <line x1="0" x2="19.2056" y1="105.9976" y2="0" fill="none" stroke="rgba(190,190,190,1)"/>
      </g>
      <g transform="matrix(1 0 0 1 84.8558 211.5425)">
        <line x1="0" x2="4.376" y1="30.5921" y2="0" fill="none" stroke="rgba(190,190,190,1)"/>
      </g>
      <g transform="matrix(1 0 0 1 89.2318 211.5425)">
        <line x1="0" x2="31.5737" y1="0" y2="142.8931" fill="none" stroke="rgba(190,190,190,1)"/>
      </g>
      <g transform="matrix(1 0 0 1 84.8558 242.1346)">
        <line x1="0" x2="55.1553" y1="0" y2="6.3034" fill="none" stroke="rgba(190,190,190,1)"/>
      </g>
      <g transform="matrix(1 0 0 1 -19.7805 440.0486)">
        <line x1="0" x2="20.4616" y1="0" y2="26.146" fill="none" stroke="rgba(190,190,190,1)"/>
      </g>
      <g transform="matrix(1 0 0 1 10.6443 371.9813)">
        <line x1="8.2454" x2="0" y1="31.0643" y2="0" fill="none" stroke="rgba(190,190,190,1)"/>
      </g>
      <g transform="matrix(1 0 0 1 -19.7805 371.9813)">
        <line x1="0" x2="30.4248" y1="68.0673" y2="0" fill="none" stroke="rgba(190,190,190,1)"/>
      </g>
      <g transform="matrix(1 0 0 1 .6811 403.0457)">
        <line x1="0" x2="18.2086" y1="63.1489" y2="0" fill="none" stroke="rgba(190,190,190,1)"/>
      </g>
      <g transform="matrix(1 0 0 1 .6811 371.9813)">
        <line x1="0" x2="9.9632" y1="94.2133" y2="0" fill="none" stroke="rgba(190,190,190,1)"/>
      </g>
      <g transform="matrix(1 0 0 1 -19.7805 403.0457)">
        <line x1="0" x2="38.6703" y1="37.003" y2="0" fill="none" stroke="rgba(190,190,190,1)"/>
      </g>
      <g transform="matrix(1 0 0 1 -21.3565 332.4475)">
        <line x1="1.6177" x2="0" y1="31.8825" y2="0" fill="none" stroke="rgba(190,190,190,1)"/>
      </g>
      <g transform="matrix(1 0 0 1 -.226 307.876)">
        <line x1="0" x2="51.1605" y1="0" y2="39.9801" fill="none" stroke="rgba(190,190,190,1)"/>
      </g>
      <g transform="matrix(1 0 0 1 -21.3565 307.876)">
        <line x1="21.1306" x2="0" y1="0" y2="24.5716" fill="none" stroke="rgba(190,190,190,1)"/>
      </g>
      <g transform="matrix(1 0 0 1 -19.7388 347.856)">
        <line x1="70.6734" x2="0" y1="0" y2="16.4739" fill="none" stroke="rgba(190,190,190,1)"/>
      </g>
      <g transform="matrix(1 0 0 1 -19.7388 307.876)">
        <line x1="0" x2="19.5129" y1="56.454" y2="0" fill="none" stroke="rgba(190,190,190,1)"/>
      </g>
      <g transform="matrix(1 0 0 1 -21.3565 332.4475)">
        <line x1="0" x2="72.2911" y1="0" y2="15.4085" fill="none" stroke="rgba(190,190,190,1)"/>
      </g>
      <g transform="matrix(1 0 0 1 29.9416 287.5626)">
        <line x1="53.9539" x2="0" y1="111.3437" y2="0" fill="none" stroke="rgba(190,190,190,1)"/>
      </g>
      <g transform="matrix(1 0 0 1 64.1852 303.8345)">
        <line x1="0" x2="19.3091" y1="71.2982" y2="0" fill="none" stroke="rgba(190,190,190,1)"/>
      </g>
      <g transform="matrix(1 0 0 1 29.9416 287.5626)">
        <line x1="34.2436" x2="0" y1="87.5702" y2="0" fill="none" stroke="rgba(190,190,190,1)"/>
      </g>
      <g transform="matrix(1 0 0 1 83.4943 303.8345)">
        <line x1=".4011" x2="0" y1="95.0717" y2="0" fill="none" stroke="rgba(190,190,190,1)"/>
      </g>
      <g transform="matrix(1 0 0 1 29.9416 287.5626)">
        <line x1="53.5527" x2="0" y1="16.272" y2="0" fill="none" stroke="rgba(190,190,190,1)"/>
      </g>
      <g transform="matrix(1 0 0 1 64.1852 375.1328)">
        <line x1="19.7103" x2="0" y1="23.7735" y2="0" fill="none" stroke="rgba(190,190,190,1)"/>
      </g>
      <g transform="matrix(1 0 0 1 -37.7464 256.8561)">
        <line x1="66.9" x2="0" y1="0" y2="49.2408" fill="none" stroke="rgba(190,190,190,1)"/>
      </g>
      <g transform="matrix(1 0 0 1 -28.6 251.5533)">
        <line x1="11.5483" x2="0" y1="28.3661" y2="0" fill="none" stroke="rgba(190,190,190,1)"/>
      </g>
      <g transform="matrix(1 0 0 1 -37.7464 251.5533)">
        <line x1="9.1465" x2="0" y1="0" y2="54.5437" fill="none" stroke="rgba(190,190,190,1)"/>
      </g>
      <g transform="matrix(1 0 0 1 -17.0516 256.8561)">
        <line x1="0" x2="46.2052" y1="23.0633" y2="0" fill="none" stroke="rgba(190,190,190,1)"/>
      </g>
      <g transform="matrix(1 0 0 1 -37.7464 279.9194)">
        <line x1="0" x2="20.6948" y1="26.1776" y2="0" fill="none" stroke="rgba(190,190,190,1)"/>
      </g>
      <g transform="matrix(1 0 0 1 -28.6 251.5533)">
        <line x1="0" x2="57.7535" y1="0" y2="5.3029" fill="none" stroke="rgba(190,190,190,1)"/>
      </g>
      <g transform="matrix(1 0 0 1 192.3277 304.5603)">
        <line x1="50.7315" x2="0" y1="0" y2="39.1089" fill="none" stroke="rgba(190,190,190,1)"/>
      </g>
      <g transform="matrix(1 0 0 1 81.7011 272.4442)">
        <line x1="39.1043" x2="0" y1="81.9914" y2="0" fill="none" stroke="rgba(190,190,190,1)"/>
      </g>
      <g transform="matrix(1 0 0 1 208.6417 250)">
        <line x1="41.3583" x2="0" y1="0" y2="36.2559" fill="none" stroke="rgba(190,190,190,1)"/>
      </g>
      <g transform="matrix(1 0 0 1 103.9431 248.438)">
        <line x1="0" x2="36.068" y1="80.2251" y2="0" fill="none" stroke="rgba(190,190,190,1)"/>
      </g>
      <g transform="matrix(1 0 0 1 -21.3565 332.4475)">
        <line x1="0" x2="32.0008" y1="0" y2="39.5338" fill="none" stroke="rgba(190,190,190,1)"/>
      </g>
      <g transform="matrix(1 0 0 1 -37.7464 287.5626)">
        <line x1="0" x2="67.688" y1="18.5344" y2="0" fill="none" stroke="rgba(190,190,190,1)"/>
      </g>
      <g transform="matrix(1 0 0 1 18.8898 347.856)">
        <line x1="0" x2="32.0448" y1="55.1896" y2="0" fill="none" stroke="rgba(190,190,190,1)"/>
      </g>
      <g transform="matrix(1 0 0 1 29.1536 256.8561)">
        <line x1="0" x2="54.3407" y1="0" y2="46.9784" fill="none" stroke="rgba(190,190,190,1)"/>
      </g>
      <g transform="matrix(1 0 0 1 81.7011 272.4442)">
        <line x1="110.6266" x2="0" y1="71.2249" y2="0" fill="none" stroke="rgba(190,190,190,1)"/>
      </g>
      <g transform="matrix(1 0 0 1 10.6443 287.5626)">
        <line x1="0" x2="19.2972" y1="84.4188" y2="0" fill="none" stroke="rgba(190,190,190,1)"/>
      </g>
      <g transform="matrix(1 0 0 1 140.011 248.438)">
        <line x1="68.6306" x2="0" y1="37.8179" y2="0" fill="none" stroke="rgba(190,190,190,1)"/>
      </g>
      <g transform="matrix(1 0 0 1 50.9346 303.8345)">
        <line x1="0" x2="32.5597" y1="44.0215" y2="0" fill="none" stroke="rgba(190,190,190,1)"/>
      </g>
      <g transform="matrix(1 0 0 1 29.9416 272.4442)">
        <line x1="0" x2="51.7596" y1="15.1183" y2="0" fill="none" stroke="rgba(190,190,190,1)"/>
      </g>
      <g transform="matrix(1 0 0 1 83.4943 248.438)">
        <line x1="0" x2="56.5168" y1="55.3966" y2="0" fill="none" stroke="rgba(190,190,190,1)"/>
      </g>
      <g transform="matrix(1 0 0 1 29.9416 287.5626)">
        <line x1="53.5527" x2="0" y1="16.272" y2="0" fill="none" stroke="rgba(190,190,190,1)"/>
      </g>
      <g transform="matrix(1 0 0 1 81.7011 248.438)">
        <line x1="58.31" x2="0" y1="0" y2="24.0062" fill="none" stroke="rgba(190,190,190,1)"/>
      </g>
      <g stroke-width="2" transform="matrix(1 0 0 1 120.8055 354.4356)">
        <circle cx="10" cy="10" r="10" fill="rgba(65,201,226,1)" stroke="rgba(255,255,255,1)" transform="translate(-10 -10)"/>
      </g>
      <g stroke-width="2" transform="matrix(1 0 0 1 37.1891 319.7415)">
        <circle cx="10" cy="10" r="10" fill="rgba(65,201,226,1)" stroke="rgba(255,255,255,1)" transform="translate(-10 -10)"/>
      </g>
      <g stroke-width="2" transform="matrix(1 0 0 1 29.9416 287.5626)">
        <circle cx="10" cy="10" r="10" fill="rgba(65,201,226,1)" stroke="rgba(255,255,255,1)" transform="translate(-10 -10)"/>
      </g>
      <g stroke-width="2" transform="matrix(1 0 0 1 10.6443 371.9813)">
        <circle cx="10" cy="10" r="10" fill="rgba(65,201,226,1)" stroke="rgba(255,255,255,1)" transform="translate(-10 -10)"/>
      </g>
      <g stroke-width="2" transform="matrix(1 0 0 1 29.1536 256.8561)">
        <circle cx="10" cy="10" r="10" fill="rgba(65,201,226,1)" stroke="rgba(255,255,255,1)" transform="translate(-10 -10)"/>
      </g>
      <g stroke-width="2" transform="matrix(1 0 0 1 -19.7805 440.0486)">
        <circle cx="10" cy="10" r="10" fill="rgba(65,201,226,1)" stroke="rgba(255,255,255,1)" transform="translate(-10 -10)"/>
      </g>
      <g stroke-width="2" transform="matrix(1 0 0 1 140.011 248.438)">
        <circle cx="10" cy="10" r="10" fill="rgba(65,201,226,1)" stroke="rgba(255,255,255,1)" transform="translate(-10 -10)"/>
      </g>
      <g stroke-width="2" transform="matrix(1 0 0 1 103.9431 328.663)">
        <circle cx="10" cy="10" r="10" fill="rgba(65,201,226,1)" stroke="rgba(255,255,255,1)" transform="translate(-10 -10)"/>
      </g>
      <g stroke-width="2" transform="matrix(1 0 0 1 149.4492 205.3958)">
        <circle cx="10" cy="10" r="10" fill="rgba(65,201,226,1)" stroke="rgba(255,255,255,1)" transform="translate(-10 -10)"/>
      </g>
      <g stroke-width="2" transform="matrix(1 0 0 1 83.4943 303.8345)">
        <circle cx="10" cy="10" r="10" fill="rgba(65,201,226,1)" stroke="rgba(255,255,255,1)" transform="translate(-10 -10)"/>
      </g>
      <g stroke-width="2" transform="matrix(1 0 0 1 81.7011 272.4442)">
        <circle cx="10" cy="10" r="10" fill="rgba(65,201,226,1)" stroke="rgba(255,255,255,1)" transform="translate(-10 -10)"/>
      </g>
      <g stroke-width="2" transform="matrix(1 0 0 1 -19.7388 364.33)">
        <circle cx="10" cy="10" r="10" fill="rgba(65,201,226,1)" stroke="rgba(255,255,255,1)" transform="translate(-10 -10)"/>
      </g>
      <g stroke-width="2" transform="matrix(1 0 0 1 84.8558 242.1346)">
        <circle cx="10" cy="10" r="10" fill="rgba(65,201,226,1)" stroke="rgba(255,255,255,1)" transform="translate(-10 -10)"/>
      </g>
      <g stroke-width="2" transform="matrix(1 0 0 1 304.7766 254.952)">
        <circle cx="10" cy="10" r="10" fill="rgba(65,201,226,1)" stroke="rgba(255,255,255,1)" transform="translate(-10 -10)"/>
      </g>
      <g stroke-width="2" transform="matrix(1 0 0 1 -37.7464 306.097)">
        <circle cx="10" cy="10" r="10" fill="rgba(65,201,226,1)" stroke="rgba(255,255,255,1)" transform="translate(-10 -10)"/>
      </g>
      <g stroke-width="2" transform="matrix(1 0 0 1 -.226 307.876)">
        <circle cx="10" cy="10" r="10" fill="rgba(65,201,226,1)" stroke="rgba(255,255,255,1)" transform="translate(-10 -10)"/>
      </g>
      <g stroke-width="2" transform="matrix(1 0 0 1 -21.3565 332.4475)">
        <circle cx="10" cy="10" r="10" fill="rgba(65,201,226,1)" stroke="rgba(255,255,255,1)" transform="translate(-10 -10)"/>
      </g>
      <g stroke-width="2" transform="matrix(1 0 0 1 291.1122 213.4653)">
        <circle cx="10" cy="10" r="10" fill="rgba(65,201,226,1)" stroke="rgba(255,255,255,1)" transform="translate(-10 -10)"/>
      </g>
      <g stroke-width="2" transform="matrix(1 0 0 1 89.2318 211.5425)">
        <circle cx="10" cy="10" r="10" fill="rgba(65,201,226,1)" stroke="rgba(255,255,255,1)" transform="translate(-10 -10)"/>
      </g>
      <g stroke-width="2" transform="matrix(1 0 0 1 83.8954 398.9063)">
        <circle cx="10" cy="10" r="10" fill="rgba(65,201,226,1)" stroke="rgba(255,255,255,1)" transform="translate(-10 -10)"/>
      </g>
      <g stroke-width="2" transform="matrix(1 0 0 1 107.1762 418.4446)">
        <circle cx="10" cy="10" r="10" fill="rgba(65,201,226,1)" stroke="rgba(255,255,255,1)" transform="translate(-10 -10)"/>
      </g>
      <g stroke-width="2" transform="matrix(1 0 0 1 -17.0516 279.9194)">
        <circle cx="10" cy="10" r="10" fill="rgba(65,201,226,1)" stroke="rgba(255,255,255,1)" transform="translate(-10 -10)"/>
      </g>
      <g stroke-width="2" transform="matrix(1 0 0 1 243.0592 304.5603)">
        <circle cx="10" cy="10" r="10" fill="rgba(65,201,226,1)" stroke="rgba(255,255,255,1)" transform="translate(-10 -10)"/>
      </g>
      <g stroke-width="2" transform="matrix(1 0 0 1 208.6417 286.2559)">
        <circle cx="10" cy="10" r="10" fill="rgba(65,201,226,1)" stroke="rgba(255,255,255,1)" transform="translate(-10 -10)"/>
      </g>
      <g stroke-width="2" transform="matrix(1 0 0 1 242.6363 359.7533)">
        <circle cx="10" cy="10" r="10" fill="rgba(65,201,226,1)" stroke="rgba(255,255,255,1)" transform="translate(-10 -10)"/>
      </g>
      <g stroke-width="2" transform="matrix(1 0 0 1 -28.6 251.5533)">
        <circle cx="10" cy="10" r="10" fill="rgba(65,201,226,1)" stroke="rgba(255,255,255,1)" transform="translate(-10 -10)"/>
      </g>
      <g stroke-width="2" transform="matrix(1 0 0 1 .6811 466.1946)">
        <circle cx="10" cy="10" r="10" fill="rgba(65,201,226,1)" stroke="rgba(255,255,255,1)" transform="translate(-10 -10)"/>
      </g>
      <g stroke-width="2" transform="matrix(1 0 0 1 250 250)">
        <circle cx="10" cy="10" r="10" fill="rgba(65,201,226,1)" stroke="rgba(255,255,255,1)" transform="translate(-10 -10)"/>
      </g>
      <g stroke-width="2" transform="matrix(1 0 0 1 50.9346 347.856)">
        <circle cx="10" cy="10" r="10" fill="rgba(65,201,226,1)" stroke="rgba(255,255,255,1)" transform="translate(-10 -10)"/>
      </g>
      <g stroke-width="2" transform="matrix(1 0 0 1 18.8898 403.0457)">
        <circle cx="10" cy="10" r="10" fill="rgba(65,201,226,1)" stroke="rgba(255,255,255,1)" transform="translate(-10 -10)"/>
      </g>
      <g stroke-width="2" transform="matrix(1 0 0 1 64.1852 375.1328)">
        <circle cx="10" cy="10" r="10" fill="rgba(65,201,226,1)" stroke="rgba(255,255,255,1)" transform="translate(-10 -10)"/>
      </g>
      <g stroke-width="2" transform="matrix(1 0 0 1 192.3277 343.6692)">
        <circle cx="10" cy="10" r="10" fill="rgba(65,201,226,1)" stroke="rgba(255,255,255,1)" transform="translate(-10 -10)"/>
      </g>
    </g>
  </g>
</svg>
