<svg xmlns="http://www.w3.org/2000/svg" width="800" height="800" color-interpolation-filters="sRGB" style="background: transparent;">
  <g transform="matrix(1 0 0 1 0 0)">
    <g fill="none" stroke="none" stroke-dashoffset="0" font-family="sans-serif" font-size="16" font-style="normal" font-variant="normal" font-weight="normal" text-anchor="left" transform="matrix(1 0 0 1 0 0)" visibility="visible">
      <g transform="matrix(1 0 0 1 448.597 226.3513)">
        <line x1="0" x2=".4052" y1="0" y2="3.695" fill="none" stroke="rgba(190,190,190,1)"/>
      </g>
      <g transform="matrix(1 0 0 1 393.118 205.086)">
        <line x1="54.0751" x2="0" y1="11.5234" y2="0" fill="none" stroke="rgba(190,190,190,1)"/>
      </g>
      <g transform="matrix(1 0 0 1 447.193 216.6095)">
        <line x1="0" x2="1.8092" y1="0" y2="13.4369" fill="none" stroke="rgba(190,190,190,1)"/>
      </g>
      <g transform="matrix(1 0 0 1 393.118 205.086)">
        <line x1="55.479" x2="0" y1="21.2653" y2="0" fill="none" stroke="rgba(190,190,190,1)"/>
      </g>
      <g transform="matrix(1 0 0 1 393.118 205.086)">
        <line x1="55.8842" x2="0" y1="24.9603" y2="0" fill="none" stroke="rgba(190,190,190,1)"/>
      </g>
      <g transform="matrix(1 0 0 1 447.193 216.6095)">
        <line x1="0" x2="1.404" y1="0" y2="9.7419" fill="none" stroke="rgba(190,190,190,1)"/>
      </g>
      <g transform="matrix(1 0 0 1 497.0655 279.3707)">
        <line x1="0" x2="1.2033" y1="8.8217" y2="0" fill="none" stroke="rgba(190,190,190,1)"/>
      </g>
      <g transform="matrix(1 0 0 1 449.9998 250.2442)">
        <line x1="48.4057" x2="0" y1="27.9463" y2="0" fill="none" stroke="rgba(190,190,190,1)"/>
      </g>
      <g transform="matrix(1 0 0 1 449.9998 250.2442)">
        <line x1="47.0656" x2="0" y1="37.9483" y2="0" fill="none" stroke="rgba(190,190,190,1)"/>
      </g>
      <g transform="matrix(1 0 0 1 498.2687 278.1905)">
        <line x1="0" x2=".1368" y1="1.1802" y2="0" fill="none" stroke="rgba(190,190,190,1)"/>
      </g>
      <g transform="matrix(1 0 0 1 449.9998 250.2442)">
        <line x1="0" x2="48.2689" y1="0" y2="29.1265" fill="none" stroke="rgba(190,190,190,1)"/>
      </g>
      <g transform="matrix(1 0 0 1 497.0655 278.1905)">
        <line x1="0" x2="1.3401" y1="10.0019" y2="0" fill="none" stroke="rgba(190,190,190,1)"/>
      </g>
      <g transform="matrix(1 0 0 1 347.4945 160.3098)">
        <line x1="22.7372" x2="0" y1="0" y2="67.4457" fill="none" stroke="rgba(190,190,190,1)"/>
      </g>
      <g transform="matrix(1 0 0 1 374.7663 166.7331)">
        <line x1="0" x2="4.7532" y1="0" y2="7.6052" fill="none" stroke="rgba(190,190,190,1)"/>
      </g>
      <g transform="matrix(1 0 0 1 370.2317 160.3098)">
        <line x1="0" x2="9.2878" y1="0" y2="14.0285" fill="none" stroke="rgba(190,190,190,1)"/>
      </g>
      <g transform="matrix(1 0 0 1 347.4945 166.7331)">
        <line x1="27.2717" x2="0" y1="0" y2="61.0224" fill="none" stroke="rgba(190,190,190,1)"/>
      </g>
      <g transform="matrix(1 0 0 1 347.4945 174.3383)">
        <line x1="0" x2="32.025" y1="53.4172" y2="0" fill="none" stroke="rgba(190,190,190,1)"/>
      </g>
      <g transform="matrix(1 0 0 1 370.2317 160.3098)">
        <line x1="0" x2="4.5346" y1="0" y2="6.4233" fill="none" stroke="rgba(190,190,190,1)"/>
      </g>
      <g transform="matrix(1 0 0 1 386.113 186.9663)">
        <line x1="59.8718" x2="0" y1="23.1596" y2="0" fill="none" stroke="rgba(190,190,190,1)"/>
      </g>
      <g transform="matrix(1 0 0 1 387.0995 189.1418)">
        <line x1="61.1444" x2="0" y1="34.4133" y2="0" fill="none" stroke="rgba(190,190,190,1)"/>
      </g>
      <g transform="matrix(1 0 0 1 386.113 186.9663)">
        <line x1="0" x2=".9865" y1="0" y2="2.1755" fill="none" stroke="rgba(190,190,190,1)"/>
      </g>
      <g transform="matrix(1 0 0 1 445.9848 210.1259)">
        <line x1="0" x2="2.2591" y1="0" y2="13.4292" fill="none" stroke="rgba(190,190,190,1)"/>
      </g>
      <g transform="matrix(1 0 0 1 386.113 186.9663)">
        <line x1="62.1309" x2="0" y1="36.5888" y2="0" fill="none" stroke="rgba(190,190,190,1)"/>
      </g>
      <g transform="matrix(1 0 0 1 387.0995 189.1418)">
        <line x1="58.8853" x2="0" y1="20.984" y2="0" fill="none" stroke="rgba(190,190,190,1)"/>
      </g>
      <g transform="matrix(1 0 0 1 201.6032 237.4402)">
        <line x1="0" x2="2.1815" y1="0" y2="31.6425" fill="none" stroke="rgba(190,190,190,1)"/>
      </g>
      <g transform="matrix(1 0 0 1 234.3602 250)">
        <line x1="0" x2="15.6398" y1="47.491" y2="0" fill="none" stroke="rgba(190,190,190,1)"/>
      </g>
      <g transform="matrix(1 0 0 1 201.6032 237.4402)">
        <line x1="0" x2="48.3968" y1="0" y2="12.5598" fill="none" stroke="rgba(190,190,190,1)"/>
      </g>
      <g transform="matrix(1 0 0 1 203.7847 269.0826)">
        <line x1="0" x2="30.5754" y1="0" y2="28.4084" fill="none" stroke="rgba(190,190,190,1)"/>
      </g>
      <g transform="matrix(1 0 0 1 203.7847 250)">
        <line x1="0" x2="46.2153" y1="19.0826" y2="0" fill="none" stroke="rgba(190,190,190,1)"/>
      </g>
      <g transform="matrix(1 0 0 1 201.6032 237.4402)">
        <line x1="0" x2="32.757" y1="0" y2="60.0508" fill="none" stroke="rgba(190,190,190,1)"/>
      </g>
      <g transform="matrix(1 0 0 1 262.1957 298.4898)">
        <line x1="52.5931" x2="0" y1="27.6837" y2="0" fill="none" stroke="rgba(190,190,190,1)"/>
      </g>
      <g transform="matrix(1 0 0 1 303.7986 309.8576)">
        <line x1="0" x2="26.308" y1="24.4378" y2="0" fill="none" stroke="rgba(190,190,190,1)"/>
      </g>
      <g transform="matrix(1 0 0 1 262.1957 298.4898)">
        <line x1="41.603" x2="0" y1="35.8055" y2="0" fill="none" stroke="rgba(190,190,190,1)"/>
      </g>
      <g transform="matrix(1 0 0 1 314.7888 309.8576)">
        <line x1="15.3179" x2="0" y1="0" y2="16.316" fill="none" stroke="rgba(190,190,190,1)"/>
      </g>
      <g transform="matrix(1 0 0 1 303.7986 326.1736)">
        <line x1="10.9901" x2="0" y1="0" y2="8.1218" fill="none" stroke="rgba(190,190,190,1)"/>
      </g>
      <g transform="matrix(1 0 0 1 262.1957 298.4898)">
        <line x1="0" x2="67.9109" y1="0" y2="11.3677" fill="none" stroke="rgba(190,190,190,1)"/>
      </g>
      <g transform="matrix(1 0 0 1 298.2614 236.9296)">
        <line x1="44.9832" x2="0" y1="49.2012" y2="0" fill="none" stroke="rgba(190,190,190,1)"/>
      </g>
      <g transform="matrix(1 0 0 1 346.9156 263.556)">
        <line x1="0" x2="2.1613" y1="11.0889" y2="0" fill="none" stroke="rgba(190,190,190,1)"/>
      </g>
      <g transform="matrix(1 0 0 1 298.2614 236.9296)">
        <line x1="48.6541" x2="0" y1="37.7153" y2="0" fill="none" stroke="rgba(190,190,190,1)"/>
      </g>
      <g transform="matrix(1 0 0 1 343.2447 263.556)">
        <line x1="0" x2="5.8323" y1="22.5748" y2="0" fill="none" stroke="rgba(190,190,190,1)"/>
      </g>
      <g transform="matrix(1 0 0 1 298.2614 236.9296)">
        <line x1="50.8155" x2="0" y1="26.6264" y2="0" fill="none" stroke="rgba(190,190,190,1)"/>
      </g>
      <g transform="matrix(1 0 0 1 343.2447 274.645)">
        <line x1="0" x2="3.6709" y1="11.4859" y2="0" fill="none" stroke="rgba(190,190,190,1)"/>
      </g>
      <g transform="matrix(1 0 0 1 337.5986 144.5767)">
        <line x1="19.1063" x2="0" y1="0" y2="57.1896" fill="none" stroke="rgba(190,190,190,1)"/>
      </g>
      <g transform="matrix(1 0 0 1 339.4749 129.608)">
        <line x1="7.4497" x2="0" y1="5.9123" y2="0" fill="none" stroke="rgba(190,190,190,1)"/>
      </g>
      <g transform="matrix(1 0 0 1 337.5986 129.608)">
        <line x1="1.8763" x2="0" y1="0" y2="72.1584" fill="none" stroke="rgba(190,190,190,1)"/>
      </g>
      <g transform="matrix(1 0 0 1 346.9246 135.5202)">
        <line x1="0" x2="9.7803" y1="0" y2="9.0565" fill="none" stroke="rgba(190,190,190,1)"/>
      </g>
      <g transform="matrix(1 0 0 1 337.5986 135.5202)">
        <line x1="0" x2="9.326" y1="66.2461" y2="0" fill="none" stroke="rgba(190,190,190,1)"/>
      </g>
      <g transform="matrix(1 0 0 1 339.4749 129.608)">
        <line x1="0" x2="17.23" y1="0" y2="14.9688" fill="none" stroke="rgba(190,190,190,1)"/>
      </g>
      <g transform="matrix(1 0 0 1 393.118 205.086)">
        <line x1="56.8819" x2="0" y1="45.1581" y2="0" fill="none" stroke="rgba(190,190,190,1)"/>
      </g>
      <g transform="matrix(1 0 0 1 347.4945 186.9663)">
        <line x1="38.6185" x2="0" y1="0" y2="40.7892" fill="none" stroke="rgba(190,190,190,1)"/>
      </g>
      <g transform="matrix(1 0 0 1 449.0021 230.0464)">
        <line x1="49.4034" x2="0" y1="48.1442" y2="0" fill="none" stroke="rgba(190,190,190,1)"/>
      </g>
      <g transform="matrix(1 0 0 1 379.5195 174.3383)">
        <line x1="0" x2="7.58" y1="0" y2="14.8036" fill="none" stroke="rgba(190,190,190,1)"/>
      </g>
      <g transform="matrix(1 0 0 1 250 250)">
        <line x1="12.1957" x2="0" y1="48.4898" y2="0" fill="none" stroke="rgba(190,190,190,1)"/>
      </g>
      <g transform="matrix(1 0 0 1 298.2614 201.7664)">
        <line x1="39.3372" x2="0" y1="0" y2="35.1632" fill="none" stroke="rgba(190,190,190,1)"/>
      </g>
      <g transform="matrix(1 0 0 1 234.3602 297.491)">
        <line x1="0" x2="95.7465" y1="0" y2="12.3666" fill="none" stroke="rgba(190,190,190,1)"/>
      </g>
      <g transform="matrix(1 0 0 1 349.0769 144.5767)">
        <line x1="7.628" x2="0" y1="0" y2="118.9793" fill="none" stroke="rgba(190,190,190,1)"/>
      </g>
      <g transform="matrix(1 0 0 1 347.4945 205.086)">
        <line x1="45.6234" x2="0" y1="0" y2="22.6695" fill="none" stroke="rgba(190,190,190,1)"/>
      </g>
      <g transform="matrix(1 0 0 1 250 236.9296)">
        <line x1="0" x2="48.2614" y1="13.0704" y2="0" fill="none" stroke="rgba(190,190,190,1)"/>
      </g>
      <g transform="matrix(1 0 0 1 387.0995 189.1418)">
        <line x1="61.9026" x2="0" y1="40.9045" y2="0" fill="none" stroke="rgba(190,190,190,1)"/>
      </g>
      <g transform="matrix(1 0 0 1 330.1066 263.556)">
        <line x1="0" x2="18.9703" y1="46.3016" y2="0" fill="none" stroke="rgba(190,190,190,1)"/>
      </g>
      <g transform="matrix(1 0 0 1 298.2614 227.7555)">
        <line x1="0" x2="49.2331" y1="9.1741" y2="0" fill="none" stroke="rgba(190,190,190,1)"/>
      </g>
      <g transform="matrix(1 0 0 1 349.0769 189.1418)">
        <line x1="0" x2="38.0226" y1="74.4142" y2="0" fill="none" stroke="rgba(190,190,190,1)"/>
      </g>
      <g transform="matrix(1 0 0 1 298.2614 236.9296)">
        <line x1="50.8155" x2="0" y1="26.6264" y2="0" fill="none" stroke="rgba(190,190,190,1)"/>
      </g>
      <g transform="matrix(1 0 0 1 347.4945 189.1418)">
        <line x1="39.605" x2="0" y1="0" y2="38.6137" fill="none" stroke="rgba(190,190,190,1)"/>
      </g>
      <g stroke-width="2" transform="matrix(1 0 0 1 386.113 186.9663)">
        <circle cx="10" cy="10" r="10" fill="rgba(65,201,226,1)" stroke="rgba(255,255,255,1)" transform="translate(-10 -10)"/>
      </g>
      <g stroke-width="2" transform="matrix(1 0 0 1 370.2317 160.3098)">
        <circle cx="10" cy="10" r="10" fill="rgba(65,201,226,1)" stroke="rgba(255,255,255,1)" transform="translate(-10 -10)"/>
      </g>
      <g stroke-width="2" transform="matrix(1 0 0 1 298.2614 236.9296)">
        <circle cx="10" cy="10" r="10" fill="rgba(65,201,226,1)" stroke="rgba(255,255,255,1)" transform="translate(-10 -10)"/>
      </g>
      <g stroke-width="2" transform="matrix(1 0 0 1 250 250)">
        <circle cx="10" cy="10" r="10" fill="rgba(65,201,226,1)" stroke="rgba(255,255,255,1)" transform="translate(-10 -10)"/>
      </g>
      <g stroke-width="2" transform="matrix(1 0 0 1 356.7049 144.5767)">
        <circle cx="10" cy="10" r="10" fill="rgba(65,201,226,1)" stroke="rgba(255,255,255,1)" transform="translate(-10 -10)"/>
      </g>
      <g stroke-width="2" transform="matrix(1 0 0 1 201.6032 237.4402)">
        <circle cx="10" cy="10" r="10" fill="rgba(65,201,226,1)" stroke="rgba(255,255,255,1)" transform="translate(-10 -10)"/>
      </g>
      <g stroke-width="2" transform="matrix(1 0 0 1 387.0995 189.1418)">
        <circle cx="10" cy="10" r="10" fill="rgba(65,201,226,1)" stroke="rgba(255,255,255,1)" transform="translate(-10 -10)"/>
      </g>
      <g stroke-width="2" transform="matrix(1 0 0 1 379.5195 174.3383)">
        <circle cx="10" cy="10" r="10" fill="rgba(65,201,226,1)" stroke="rgba(255,255,255,1)" transform="translate(-10 -10)"/>
      </g>
      <g stroke-width="2" transform="matrix(1 0 0 1 447.193 216.6095)">
        <circle cx="10" cy="10" r="10" fill="rgba(65,201,226,1)" stroke="rgba(255,255,255,1)" transform="translate(-10 -10)"/>
      </g>
      <g stroke-width="2" transform="matrix(1 0 0 1 349.0769 263.556)">
        <circle cx="10" cy="10" r="10" fill="rgba(65,201,226,1)" stroke="rgba(255,255,255,1)" transform="translate(-10 -10)"/>
      </g>
      <g stroke-width="2" transform="matrix(1 0 0 1 347.4945 227.7555)">
        <circle cx="10" cy="10" r="10" fill="rgba(65,201,226,1)" stroke="rgba(255,255,255,1)" transform="translate(-10 -10)"/>
      </g>
      <g stroke-width="2" transform="matrix(1 0 0 1 314.7888 326.1736)">
        <circle cx="10" cy="10" r="10" fill="rgba(65,201,226,1)" stroke="rgba(255,255,255,1)" transform="translate(-10 -10)"/>
      </g>
      <g stroke-width="2" transform="matrix(1 0 0 1 445.9848 210.1259)">
        <circle cx="10" cy="10" r="10" fill="rgba(65,201,226,1)" stroke="rgba(255,255,255,1)" transform="translate(-10 -10)"/>
      </g>
      <g stroke-width="2" transform="matrix(1 0 0 1 498.2687 279.3707)">
        <circle cx="10" cy="10" r="10" fill="rgba(65,201,226,1)" stroke="rgba(255,255,255,1)" transform="translate(-10 -10)"/>
      </g>
      <g stroke-width="2" transform="matrix(1 0 0 1 337.5986 201.7664)">
        <circle cx="10" cy="10" r="10" fill="rgba(65,201,226,1)" stroke="rgba(255,255,255,1)" transform="translate(-10 -10)"/>
      </g>
      <g stroke-width="2" transform="matrix(1 0 0 1 303.7986 334.2953)">
        <circle cx="10" cy="10" r="10" fill="rgba(65,201,226,1)" stroke="rgba(255,255,255,1)" transform="translate(-10 -10)"/>
      </g>
      <g stroke-width="2" transform="matrix(1 0 0 1 262.1957 298.4898)">
        <circle cx="10" cy="10" r="10" fill="rgba(65,201,226,1)" stroke="rgba(255,255,255,1)" transform="translate(-10 -10)"/>
      </g>
      <g stroke-width="2" transform="matrix(1 0 0 1 497.0655 288.1924)">
        <circle cx="10" cy="10" r="10" fill="rgba(65,201,226,1)" stroke="rgba(255,255,255,1)" transform="translate(-10 -10)"/>
      </g>
      <g stroke-width="2" transform="matrix(1 0 0 1 448.244 223.5551)">
        <circle cx="10" cy="10" r="10" fill="rgba(65,201,226,1)" stroke="rgba(255,255,255,1)" transform="translate(-10 -10)"/>
      </g>
      <g stroke-width="2" transform="matrix(1 0 0 1 343.2447 286.1308)">
        <circle cx="10" cy="10" r="10" fill="rgba(65,201,226,1)" stroke="rgba(255,255,255,1)" transform="translate(-10 -10)"/>
      </g>
      <g stroke-width="2" transform="matrix(1 0 0 1 374.7663 166.7331)">
        <circle cx="10" cy="10" r="10" fill="rgba(65,201,226,1)" stroke="rgba(255,255,255,1)" transform="translate(-10 -10)"/>
      </g>
      <g stroke-width="2" transform="matrix(1 0 0 1 346.9246 135.5202)">
        <circle cx="10" cy="10" r="10" fill="rgba(65,201,226,1)" stroke="rgba(255,255,255,1)" transform="translate(-10 -10)"/>
      </g>
      <g stroke-width="2" transform="matrix(1 0 0 1 449.9998 250.2442)">
        <circle cx="10" cy="10" r="10" fill="rgba(65,201,226,1)" stroke="rgba(255,255,255,1)" transform="translate(-10 -10)"/>
      </g>
      <g stroke-width="2" transform="matrix(1 0 0 1 449.0021 230.0464)">
        <circle cx="10" cy="10" r="10" fill="rgba(65,201,226,1)" stroke="rgba(255,255,255,1)" transform="translate(-10 -10)"/>
      </g>
      <g stroke-width="2" transform="matrix(1 0 0 1 448.597 226.3513)">
        <circle cx="10" cy="10" r="10" fill="rgba(65,201,226,1)" stroke="rgba(255,255,255,1)" transform="translate(-10 -10)"/>
      </g>
      <g stroke-width="2" transform="matrix(1 0 0 1 339.4749 129.608)">
        <circle cx="10" cy="10" r="10" fill="rgba(65,201,226,1)" stroke="rgba(255,255,255,1)" transform="translate(-10 -10)"/>
      </g>
      <g stroke-width="2" transform="matrix(1 0 0 1 203.7847 269.0826)">
        <circle cx="10" cy="10" r="10" fill="rgba(65,201,226,1)" stroke="rgba(255,255,255,1)" transform="translate(-10 -10)"/>
      </g>
      <g stroke-width="2" transform="matrix(1 0 0 1 498.4055 278.1905)">
        <circle cx="10" cy="10" r="10" fill="rgba(65,201,226,1)" stroke="rgba(255,255,255,1)" transform="translate(-10 -10)"/>
      </g>
      <g stroke-width="2" transform="matrix(1 0 0 1 330.1066 309.8576)">
        <circle cx="10" cy="10" r="10" fill="rgba(65,201,226,1)" stroke="rgba(255,255,255,1)" transform="translate(-10 -10)"/>
      </g>
      <g stroke-width="2" transform="matrix(1 0 0 1 234.3602 297.491)">
        <circle cx="10" cy="10" r="10" fill="rgba(65,201,226,1)" stroke="rgba(255,255,255,1)" transform="translate(-10 -10)"/>
      </g>
      <g stroke-width="2" transform="matrix(1 0 0 1 346.9156 274.645)">
        <circle cx="10" cy="10" r="10" fill="rgba(65,201,226,1)" stroke="rgba(255,255,255,1)" transform="translate(-10 -10)"/>
      </g>
      <g stroke-width="2" transform="matrix(1 0 0 1 393.118 205.086)">
        <circle cx="10" cy="10" r="10" fill="rgba(65,201,226,1)" stroke="rgba(255,255,255,1)" transform="translate(-10 -10)"/>
      </g>
      <g transform="matrix(1 0 0 1 448.597 226.3513)">
        <line x1="0" x2=".4052" y1="0" y2="3.695" fill="none" stroke="rgba(190,190,190,1)"/>
      </g>
      <g transform="matrix(1 0 0 1 393.118 205.086)">
        <line x1="54.0751" x2="0" y1="11.5234" y2="0" fill="none" stroke="rgba(190,190,190,1)"/>
      </g>
      <g transform="matrix(1 0 0 1 447.193 216.6095)">
        <line x1="0" x2="1.8092" y1="0" y2="13.4369" fill="none" stroke="rgba(190,190,190,1)"/>
      </g>
      <g transform="matrix(1 0 0 1 393.118 205.086)">
        <line x1="55.479" x2="0" y1="21.2653" y2="0" fill="none" stroke="rgba(190,190,190,1)"/>
      </g>
      <g transform="matrix(1 0 0 1 393.118 205.086)">
        <line x1="55.8842" x2="0" y1="24.9603" y2="0" fill="none" stroke="rgba(190,190,190,1)"/>
      </g>
      <g transform="matrix(1 0 0 1 447.193 216.6095)">
        <line x1="0" x2="1.404" y1="0" y2="9.7419" fill="none" stroke="rgba(190,190,190,1)"/>
      </g>
      <g transform="matrix(1 0 0 1 497.0655 279.3707)">
        <line x1="0" x2="1.2033" y1="8.8217" y2="0" fill="none" stroke="rgba(190,190,190,1)"/>
      </g>
      <g transform="matrix(1 0 0 1 449.9998 250.2442)">
        <line x1="48.4057" x2="0" y1="27.9463" y2="0" fill="none" stroke="rgba(190,190,190,1)"/>
      </g>
      <g transform="matrix(1 0 0 1 449.9998 250.2442)">
        <line x1="47.0656" x2="0" y1="37.9483" y2="0" fill="none" stroke="rgba(190,190,190,1)"/>
      </g>
      <g transform="matrix(1 0 0 1 498.2687 278.1905)">
        <line x1="0" x2=".1368" y1="1.1802" y2="0" fill="none" stroke="rgba(190,190,190,1)"/>
      </g>
      <g transform="matrix(1 0 0 1 449.9998 250.2442)">
        <line x1="0" x2="48.2689" y1="0" y2="29.1265" fill="none" stroke="rgba(190,190,190,1)"/>
      </g>
      <g transform="matrix(1 0 0 1 497.0655 278.1905)">
        <line x1="0" x2="1.3401" y1="10.0019" y2="0" fill="none" stroke="rgba(190,190,190,1)"/>
      </g>
      <g transform="matrix(1 0 0 1 347.4945 160.3098)">
        <line x1="22.7372" x2="0" y1="0" y2="67.4457" fill="none" stroke="rgba(190,190,190,1)"/>
      </g>
      <g transform="matrix(1 0 0 1 374.7663 166.7331)">
        <line x1="0" x2="4.7532" y1="0" y2="7.6052" fill="none" stroke="rgba(190,190,190,1)"/>
      </g>
      <g transform="matrix(1 0 0 1 370.2317 160.3098)">
        <line x1="0" x2="9.2878" y1="0" y2="14.0285" fill="none" stroke="rgba(190,190,190,1)"/>
      </g>
      <g transform="matrix(1 0 0 1 347.4945 166.7331)">
        <line x1="27.2717" x2="0" y1="0" y2="61.0224" fill="none" stroke="rgba(190,190,190,1)"/>
      </g>
      <g transform="matrix(1 0 0 1 347.4945 174.3383)">
        <line x1="0" x2="32.025" y1="53.4172" y2="0" fill="none" stroke="rgba(190,190,190,1)"/>
      </g>
      <g transform="matrix(1 0 0 1 370.2317 160.3098)">
        <line x1="0" x2="4.5346" y1="0" y2="6.4233" fill="none" stroke="rgba(190,190,190,1)"/>
      </g>
      <g transform="matrix(1 0 0 1 386.113 186.9663)">
        <line x1="59.8718" x2="0" y1="23.1596" y2="0" fill="none" stroke="rgba(190,190,190,1)"/>
      </g>
      <g transform="matrix(1 0 0 1 387.0995 189.1418)">
        <line x1="61.1444" x2="0" y1="34.4133" y2="0" fill="none" stroke="rgba(190,190,190,1)"/>
      </g>
      <g transform="matrix(1 0 0 1 386.113 186.9663)">
        <line x1="0" x2=".9865" y1="0" y2="2.1755" fill="none" stroke="rgba(190,190,190,1)"/>
      </g>
      <g transform="matrix(1 0 0 1 445.9848 210.1259)">
        <line x1="0" x2="2.2591" y1="0" y2="13.4292" fill="none" stroke="rgba(190,190,190,1)"/>
      </g>
      <g transform="matrix(1 0 0 1 386.113 186.9663)">
        <line x1="62.1309" x2="0" y1="36.5888" y2="0" fill="none" stroke="rgba(190,190,190,1)"/>
      </g>
      <g transform="matrix(1 0 0 1 387.0995 189.1418)">
        <line x1="58.8853" x2="0" y1="20.984" y2="0" fill="none" stroke="rgba(190,190,190,1)"/>
      </g>
      <g transform="matrix(1 0 0 1 201.6032 237.4402)">
        <line x1="0" x2="2.1815" y1="0" y2="31.6425" fill="none" stroke="rgba(190,190,190,1)"/>
      </g>
      <g transform="matrix(1 0 0 1 234.3602 250)">
        <line x1="0" x2="15.6398" y1="47.491" y2="0" fill="none" stroke="rgba(190,190,190,1)"/>
      </g>
      <g transform="matrix(1 0 0 1 201.6032 237.4402)">
        <line x1="0" x2="48.3968" y1="0" y2="12.5598" fill="none" stroke="rgba(190,190,190,1)"/>
      </g>
      <g transform="matrix(1 0 0 1 203.7847 269.0826)">
        <line x1="0" x2="30.5754" y1="0" y2="28.4084" fill="none" stroke="rgba(190,190,190,1)"/>
      </g>
      <g transform="matrix(1 0 0 1 203.7847 250)">
        <line x1="0" x2="46.2153" y1="19.0826" y2="0" fill="none" stroke="rgba(190,190,190,1)"/>
      </g>
      <g transform="matrix(1 0 0 1 201.6032 237.4402)">
        <line x1="0" x2="32.757" y1="0" y2="60.0508" fill="none" stroke="rgba(190,190,190,1)"/>
      </g>
      <g transform="matrix(1 0 0 1 262.1957 298.4898)">
        <line x1="52.5931" x2="0" y1="27.6837" y2="0" fill="none" stroke="rgba(190,190,190,1)"/>
      </g>
      <g transform="matrix(1 0 0 1 303.7986 309.8576)">
        <line x1="0" x2="26.308" y1="24.4378" y2="0" fill="none" stroke="rgba(190,190,190,1)"/>
      </g>
      <g transform="matrix(1 0 0 1 262.1957 298.4898)">
        <line x1="41.603" x2="0" y1="35.8055" y2="0" fill="none" stroke="rgba(190,190,190,1)"/>
      </g>
      <g transform="matrix(1 0 0 1 314.7888 309.8576)">
        <line x1="15.3179" x2="0" y1="0" y2="16.316" fill="none" stroke="rgba(190,190,190,1)"/>
      </g>
      <g transform="matrix(1 0 0 1 303.7986 326.1736)">
        <line x1="10.9901" x2="0" y1="0" y2="8.1218" fill="none" stroke="rgba(190,190,190,1)"/>
      </g>
      <g transform="matrix(1 0 0 1 262.1957 298.4898)">
        <line x1="0" x2="67.9109" y1="0" y2="11.3677" fill="none" stroke="rgba(190,190,190,1)"/>
      </g>
      <g transform="matrix(1 0 0 1 298.2614 236.9296)">
        <line x1="44.9832" x2="0" y1="49.2012" y2="0" fill="none" stroke="rgba(190,190,190,1)"/>
      </g>
      <g transform="matrix(1 0 0 1 346.9156 263.556)">
        <line x1="0" x2="2.1613" y1="11.0889" y2="0" fill="none" stroke="rgba(190,190,190,1)"/>
      </g>
      <g transform="matrix(1 0 0 1 298.2614 236.9296)">
        <line x1="48.6541" x2="0" y1="37.7153" y2="0" fill="none" stroke="rgba(190,190,190,1)"/>
      </g>
      <g transform="matrix(1 0 0 1 343.2447 263.556)">
        <line x1="0" x2="5.8323" y1="22.5748" y2="0" fill="none" stroke="rgba(190,190,190,1)"/>
      </g>
      <g transform="matrix(1 0 0 1 298.2614 236.9296)">
        <line x1="50.8155" x2="0" y1="26.6264" y2="0" fill="none" stroke="rgba(190,190,190,1)"/>
      </g>
      <g transform="matrix(1 0 0 1 343.2447 274.645)">
        <line x1="0" x2="3.6709" y1="11.4859" y2="0" fill="none" stroke="rgba(190,190,190,1)"/>
      </g>
      <g transform="matrix(1 0 0 1 337.5986 144.5767)">
        <line x1="19.1063" x2="0" y1="0" y2="57.1896" fill="none" stroke="rgba(190,190,190,1)"/>
      </g>
      <g transform="matrix(1 0 0 1 339.4749 129.608)">
        <line x1="7.4497" x2="0" y1="5.9123" y2="0" fill="none" stroke="rgba(190,190,190,1)"/>
      </g>
      <g transform="matrix(1 0 0 1 337.5986 129.608)">
        <line x1="1.8763" x2="0" y1="0" y2="72.1584" fill="none" stroke="rgba(190,190,190,1)"/>
      </g>
      <g transform="matrix(1 0 0 1 346.9246 135.5202)">
        <line x1="0" x2="9.7803" y1="0" y2="9.0565" fill="none" stroke="rgba(190,190,190,1)"/>
      </g>
      <g transform="matrix(1 0 0 1 337.5986 135.5202)">
        <line x1="0" x2="9.326" y1="66.2461" y2="0" fill="none" stroke="rgba(190,190,190,1)"/>
      </g>
      <g transform="matrix(1 0 0 1 339.4749 129.608)">
        <line x1="0" x2="17.23" y1="0" y2="14.9688" fill="none" stroke="rgba(190,190,190,1)"/>
      </g>
      <g transform="matrix(1 0 0 1 393.118 205.086)">
        <line x1="56.8819" x2="0" y1="45.1581" y2="0" fill="none" stroke="rgba(190,190,190,1)"/>
      </g>
      <g transform="matrix(1 0 0 1 347.4945 186.9663)">
        <line x1="38.6185" x2="0" y1="0" y2="40.7892" fill="none" stroke="rgba(190,190,190,1)"/>
      </g>
      <g transform="matrix(1 0 0 1 449.0021 230.0464)">
        <line x1="49.4034" x2="0" y1="48.1442" y2="0" fill="none" stroke="rgba(190,190,190,1)"/>
      </g>
      <g transform="matrix(1 0 0 1 379.5195 174.3383)">
        <line x1="0" x2="7.58" y1="0" y2="14.8036" fill="none" stroke="rgba(190,190,190,1)"/>
      </g>
      <g transform="matrix(1 0 0 1 250 250)">
        <line x1="12.1957" x2="0" y1="48.4898" y2="0" fill="none" stroke="rgba(190,190,190,1)"/>
      </g>
      <g transform="matrix(1 0 0 1 298.2614 201.7664)">
        <line x1="39.3372" x2="0" y1="0" y2="35.1632" fill="none" stroke="rgba(190,190,190,1)"/>
      </g>
      <g transform="matrix(1 0 0 1 234.3602 297.491)">
        <line x1="0" x2="95.7465" y1="0" y2="12.3666" fill="none" stroke="rgba(190,190,190,1)"/>
      </g>
      <g transform="matrix(1 0 0 1 349.0769 144.5767)">
        <line x1="7.628" x2="0" y1="0" y2="118.9793" fill="none" stroke="rgba(190,190,190,1)"/>
      </g>
      <g transform="matrix(1 0 0 1 347.4945 205.086)">
        <line x1="45.6234" x2="0" y1="0" y2="22.6695" fill="none" stroke="rgba(190,190,190,1)"/>
      </g>
      <g transform="matrix(1 0 0 1 250 236.9296)">
        <line x1="0" x2="48.2614" y1="13.0704" y2="0" fill="none" stroke="rgba(190,190,190,1)"/>
      </g>
      <g transform="matrix(1 0 0 1 387.0995 189.1418)">
        <line x1="61.9026" x2="0" y1="40.9045" y2="0" fill="none" stroke="rgba(190,190,190,1)"/>
      </g>
      <g transform="matrix(1 0 0 1 330.1066 263.556)">
        <line x1="0" x2="18.9703" y1="46.3016" y2="0" fill="none" stroke="rgba(190,190,190,1)"/>
      </g>
      <g transform="matrix(1 0 0 1 298.2614 227.7555)">
        <line x1="0" x2="49.2331" y1="9.1741" y2="0" fill="none" stroke="rgba(190,190,190,1)"/>
      </g>
      <g transform="matrix(1 0 0 1 349.0769 189.1418)">
        <line x1="0" x2="38.0226" y1="74.4142" y2="0" fill="none" stroke="rgba(190,190,190,1)"/>
      </g>
      <g transform="matrix(1 0 0 1 298.2614 236.9296)">
        <line x1="50.8155" x2="0" y1="26.6264" y2="0" fill="none" stroke="rgba(190,190,190,1)"/>
      </g>
      <g transform="matrix(1 0 0 1 347.4945 189.1418)">
        <line x1="39.605" x2="0" y1="0" y2="38.6137" fill="none" stroke="rgba(190,190,190,1)"/>
      </g>
      <g stroke-width="2" transform="matrix(1 0 0 1 386.113 186.9663)">
        <circle cx="10" cy="10" r="10" fill="rgba(65,201,226,1)" stroke="rgba(255,255,255,1)" transform="translate(-10 -10)"/>
      </g>
      <g stroke-width="2" transform="matrix(1 0 0 1 370.2317 160.3098)">
        <circle cx="10" cy="10" r="10" fill="rgba(65,201,226,1)" stroke="rgba(255,255,255,1)" transform="translate(-10 -10)"/>
      </g>
      <g stroke-width="2" transform="matrix(1 0 0 1 298.2614 236.9296)">
        <circle cx="10" cy="10" r="10" fill="rgba(65,201,226,1)" stroke="rgba(255,255,255,1)" transform="translate(-10 -10)"/>
      </g>
      <g stroke-width="2" transform="matrix(1 0 0 1 250 250)">
        <circle cx="10" cy="10" r="10" fill="rgba(65,201,226,1)" stroke="rgba(255,255,255,1)" transform="translate(-10 -10)"/>
      </g>
      <g stroke-width="2" transform="matrix(1 0 0 1 356.7049 144.5767)">
        <circle cx="10" cy="10" r="10" fill="rgba(65,201,226,1)" stroke="rgba(255,255,255,1)" transform="translate(-10 -10)"/>
      </g>
      <g stroke-width="2" transform="matrix(1 0 0 1 201.6032 237.4402)">
        <circle cx="10" cy="10" r="10" fill="rgba(65,201,226,1)" stroke="rgba(255,255,255,1)" transform="translate(-10 -10)"/>
      </g>
      <g stroke-width="2" transform="matrix(1 0 0 1 387.0995 189.1418)">
        <circle cx="10" cy="10" r="10" fill="rgba(65,201,226,1)" stroke="rgba(255,255,255,1)" transform="translate(-10 -10)"/>
      </g>
      <g stroke-width="2" transform="matrix(1 0 0 1 379.5195 174.3383)">
        <circle cx="10" cy="10" r="10" fill="rgba(65,201,226,1)" stroke="rgba(255,255,255,1)" transform="translate(-10 -10)"/>
      </g>
      <g stroke-width="2" transform="matrix(1 0 0 1 447.193 216.6095)">
        <circle cx="10" cy="10" r="10" fill="rgba(65,201,226,1)" stroke="rgba(255,255,255,1)" transform="translate(-10 -10)"/>
      </g>
      <g stroke-width="2" transform="matrix(1 0 0 1 349.0769 263.556)">
        <circle cx="10" cy="10" r="10" fill="rgba(65,201,226,1)" stroke="rgba(255,255,255,1)" transform="translate(-10 -10)"/>
      </g>
      <g stroke-width="2" transform="matrix(1 0 0 1 347.4945 227.7555)">
        <circle cx="10" cy="10" r="10" fill="rgba(65,201,226,1)" stroke="rgba(255,255,255,1)" transform="translate(-10 -10)"/>
      </g>
      <g stroke-width="2" transform="matrix(1 0 0 1 314.7888 326.1736)">
        <circle cx="10" cy="10" r="10" fill="rgba(65,201,226,1)" stroke="rgba(255,255,255,1)" transform="translate(-10 -10)"/>
      </g>
      <g stroke-width="2" transform="matrix(1 0 0 1 445.9848 210.1259)">
        <circle cx="10" cy="10" r="10" fill="rgba(65,201,226,1)" stroke="rgba(255,255,255,1)" transform="translate(-10 -10)"/>
      </g>
      <g stroke-width="2" transform="matrix(1 0 0 1 498.2687 279.3707)">
        <circle cx="10" cy="10" r="10" fill="rgba(65,201,226,1)" stroke="rgba(255,255,255,1)" transform="translate(-10 -10)"/>
      </g>
      <g stroke-width="2" transform="matrix(1 0 0 1 337.5986 201.7664)">
        <circle cx="10" cy="10" r="10" fill="rgba(65,201,226,1)" stroke="rgba(255,255,255,1)" transform="translate(-10 -10)"/>
      </g>
      <g stroke-width="2" transform="matrix(1 0 0 1 303.7986 334.2953)">
        <circle cx="10" cy="10" r="10" fill="rgba(65,201,226,1)" stroke="rgba(255,255,255,1)" transform="translate(-10 -10)"/>
      </g>
      <g stroke-width="2" transform="matrix(1 0 0 1 262.1957 298.4898)">
        <circle cx="10" cy="10" r="10" fill="rgba(65,201,226,1)" stroke="rgba(255,255,255,1)" transform="translate(-10 -10)"/>
      </g>
      <g stroke-width="2" transform="matrix(1 0 0 1 497.0655 288.1924)">
        <circle cx="10" cy="10" r="10" fill="rgba(65,201,226,1)" stroke="rgba(255,255,255,1)" transform="translate(-10 -10)"/>
      </g>
      <g stroke-width="2" transform="matrix(1 0 0 1 448.244 223.5551)">
        <circle cx="10" cy="10" r="10" fill="rgba(65,201,226,1)" stroke="rgba(255,255,255,1)" transform="translate(-10 -10)"/>
      </g>
      <g stroke-width="2" transform="matrix(1 0 0 1 343.2447 286.1308)">
        <circle cx="10" cy="10" r="10" fill="rgba(65,201,226,1)" stroke="rgba(255,255,255,1)" transform="translate(-10 -10)"/>
      </g>
      <g stroke-width="2" transform="matrix(1 0 0 1 374.7663 166.7331)">
        <circle cx="10" cy="10" r="10" fill="rgba(65,201,226,1)" stroke="rgba(255,255,255,1)" transform="translate(-10 -10)"/>
      </g>
      <g stroke-width="2" transform="matrix(1 0 0 1 346.9246 135.5202)">
        <circle cx="10" cy="10" r="10" fill="rgba(65,201,226,1)" stroke="rgba(255,255,255,1)" transform="translate(-10 -10)"/>
      </g>
      <g stroke-width="2" transform="matrix(1 0 0 1 449.9998 250.2442)">
        <circle cx="10" cy="10" r="10" fill="rgba(65,201,226,1)" stroke="rgba(255,255,255,1)" transform="translate(-10 -10)"/>
      </g>
      <g stroke-width="2" transform="matrix(1 0 0 1 449.0021 230.0464)">
        <circle cx="10" cy="10" r="10" fill="rgba(65,201,226,1)" stroke="rgba(255,255,255,1)" transform="translate(-10 -10)"/>
      </g>
      <g stroke-width="2" transform="matrix(1 0 0 1 448.597 226.3513)">
        <circle cx="10" cy="10" r="10" fill="rgba(65,201,226,1)" stroke="rgba(255,255,255,1)" transform="translate(-10 -10)"/>
      </g>
      <g stroke-width="2" transform="matrix(1 0 0 1 339.4749 129.608)">
        <circle cx="10" cy="10" r="10" fill="rgba(65,201,226,1)" stroke="rgba(255,255,255,1)" transform="translate(-10 -10)"/>
      </g>
      <g stroke-width="2" transform="matrix(1 0 0 1 203.7847 269.0826)">
        <circle cx="10" cy="10" r="10" fill="rgba(65,201,226,1)" stroke="rgba(255,255,255,1)" transform="translate(-10 -10)"/>
      </g>
      <g stroke-width="2" transform="matrix(1 0 0 1 498.4055 278.1905)">
        <circle cx="10" cy="10" r="10" fill="rgba(65,201,226,1)" stroke="rgba(255,255,255,1)" transform="translate(-10 -10)"/>
      </g>
      <g stroke-width="2" transform="matrix(1 0 0 1 330.1066 309.8576)">
        <circle cx="10" cy="10" r="10" fill="rgba(65,201,226,1)" stroke="rgba(255,255,255,1)" transform="translate(-10 -10)"/>
      </g>
      <g stroke-width="2" transform="matrix(1 0 0 1 234.3602 297.491)">
        <circle cx="10" cy="10" r="10" fill="rgba(65,201,226,1)" stroke="rgba(255,255,255,1)" transform="translate(-10 -10)"/>
      </g>
      <g stroke-width="2" transform="matrix(1 0 0 1 346.9156 274.645)">
        <circle cx="10" cy="10" r="10" fill="rgba(65,201,226,1)" stroke="rgba(255,255,255,1)" transform="translate(-10 -10)"/>
      </g>
      <g stroke-width="2" transform="matrix(1 0 0 1 393.118 205.086)">
        <circle cx="10" cy="10" r="10" fill="rgba(65,201,226,1)" stroke="rgba(255,255,255,1)" transform="translate(-10 -10)"/>
      </g>
    </g>
  </g>
</svg>
