<svg xmlns="http://www.w3.org/2000/svg" width="800" height="800" color-interpolation-filters="sRGB" style="background: transparent;">
  <g transform="matrix(1 0 0 1 0 0)">
    <g fill="none" stroke="none" stroke-dashoffset="0" font-family="sans-serif" font-size="16" font-style="normal" font-variant="normal" font-weight="normal" text-anchor="left" transform="matrix(1 0 0 1 0 0)" visibility="visible">
      <g transform="matrix(1 0 0 1 439.2813 185.4043)">
        <line x1="55.6348" x2="0" y1="14.4349" y2="0" fill="none" stroke="rgba(190,190,190,1)"/>
      </g>
      <g transform="matrix(1 0 0 1 496.4467 208)">
        <line x1="0" x2=".1386" y1="0" y2=".8215" fill="none" stroke="rgba(190,190,190,1)"/>
      </g>
      <g transform="matrix(1 0 0 1 439.2813 185.4043)">
        <line x1="57.1655" x2="0" y1="22.5957" y2="0" fill="none" stroke="rgba(190,190,190,1)"/>
      </g>
      <g transform="matrix(1 0 0 1 494.916 199.8392)">
        <line x1="0" x2="1.6692" y1="0" y2="8.9823" fill="none" stroke="rgba(190,190,190,1)"/>
      </g>
      <g transform="matrix(1 0 0 1 439.2813 185.4043)">
        <line x1="0" x2="57.3041" y1="0" y2="23.4172" fill="none" stroke="rgba(190,190,190,1)"/>
      </g>
      <g transform="matrix(1 0 0 1 494.916 199.8392)">
        <line x1="1.5307" x2="0" y1="8.1608" y2="0" fill="none" stroke="rgba(190,190,190,1)"/>
      </g>
      <g transform="matrix(1 0 0 1 549.7868 254.0297)">
        <line x1="0" x2=".1862" y1="7.2791" y2="0" fill="none" stroke="rgba(190,190,190,1)"/>
      </g>
      <g transform="matrix(1 0 0 1 498.8875 226.441)">
        <line x1="0" x2="51.0936" y1="0" y2="26.9324" fill="none" stroke="rgba(190,190,190,1)"/>
      </g>
      <g transform="matrix(1 0 0 1 549.7868 253.3734)">
        <line x1="0" x2=".1943" y1="7.9354" y2="0" fill="none" stroke="rgba(190,190,190,1)"/>
      </g>
      <g transform="matrix(1 0 0 1 498.8875 226.441)">
        <line x1="51.0855" x2="0" y1="27.5888" y2="0" fill="none" stroke="rgba(190,190,190,1)"/>
      </g>
      <g transform="matrix(1 0 0 1 549.973 253.3734)">
        <line x1=".0081" x2="0" y1="0" y2=".6563" fill="none" stroke="rgba(190,190,190,1)"/>
      </g>
      <g transform="matrix(1 0 0 1 498.8875 226.441)">
        <line x1="50.8993" x2="0" y1="34.8678" y2="0" fill="none" stroke="rgba(190,190,190,1)"/>
      </g>
      <g transform="matrix(1 0 0 1 435.5076 175.2542)">
        <line x1="59.6501" x2="0" y1="25.7792" y2="0" fill="none" stroke="rgba(190,190,190,1)"/>
      </g>
      <g transform="matrix(1 0 0 1 438.3391 182.7069)">
        <line x1="58.7494" x2="0" y1="29.2502" y2="0" fill="none" stroke="rgba(190,190,190,1)"/>
      </g>
      <g transform="matrix(1 0 0 1 438.3391 182.7069)">
        <line x1="56.8185" x2="0" y1="18.3265" y2="0" fill="none" stroke="rgba(190,190,190,1)"/>
      </g>
      <g transform="matrix(1 0 0 1 435.5076 175.2542)">
        <line x1="61.5809" x2="0" y1="36.7029" y2="0" fill="none" stroke="rgba(190,190,190,1)"/>
      </g>
      <g transform="matrix(1 0 0 1 435.5076 175.2542)">
        <line x1="0" x2="2.8316" y1="0" y2="7.4527" fill="none" stroke="rgba(190,190,190,1)"/>
      </g>
      <g transform="matrix(1 0 0 1 495.1577 201.0334)">
        <line x1="0" x2="1.9309" y1="0" y2="10.9237" fill="none" stroke="rgba(190,190,190,1)"/>
      </g>
      <g transform="matrix(1 0 0 1 426.5173 155.97)">
        <line x1="0" x2="4.9123" y1="0" y2="9.8676" fill="none" stroke="rgba(190,190,190,1)"/>
      </g>
      <g transform="matrix(1 0 0 1 398.4722 161.7087)">
        <line x1="30.9844" x2="0" y1="0" y2="66.9368" fill="none" stroke="rgba(190,190,190,1)"/>
      </g>
      <g transform="matrix(1 0 0 1 398.4722 165.8377)">
        <line x1="32.9574" x2="0" y1="0" y2="62.8078" fill="none" stroke="rgba(190,190,190,1)"/>
      </g>
      <g transform="matrix(1 0 0 1 426.5173 155.97)">
        <line x1="0" x2="2.9392" y1="0" y2="5.7387" fill="none" stroke="rgba(190,190,190,1)"/>
      </g>
      <g transform="matrix(1 0 0 1 429.4565 161.7087)">
        <line x1="0" x2="1.9731" y1="0" y2="4.129" fill="none" stroke="rgba(190,190,190,1)"/>
      </g>
      <g transform="matrix(1 0 0 1 398.4722 155.97)">
        <line x1="28.0452" x2="0" y1="0" y2="72.6754" fill="none" stroke="rgba(190,190,190,1)"/>
      </g>
      <g transform="matrix(1 0 0 1 385.207 303.4413)">
        <line x1="4.9501" x2="0" y1="0" y2="11.5129" fill="none" stroke="rgba(190,190,190,1)"/>
      </g>
      <g transform="matrix(1 0 0 1 330.459 287.9235)">
        <line x1="0" x2="12.071" y1="21.4595" y2="0" fill="none" stroke="rgba(190,190,190,1)"/>
      </g>
      <g transform="matrix(1 0 0 1 342.53 287.9235)">
        <line x1="47.6271" x2="0" y1="15.5178" y2="0" fill="none" stroke="rgba(190,190,190,1)"/>
      </g>
      <g transform="matrix(1 0 0 1 330.459 309.383)">
        <line x1="54.748" x2="0" y1="5.5712" y2="0" fill="none" stroke="rgba(190,190,190,1)"/>
      </g>
      <g transform="matrix(1 0 0 1 342.53 287.9235)">
        <line x1="42.677" x2="0" y1="27.0307" y2="0" fill="none" stroke="rgba(190,190,190,1)"/>
      </g>
      <g transform="matrix(1 0 0 1 330.459 303.4413)">
        <line x1="59.6981" x2="0" y1="0" y2="5.9417" fill="none" stroke="rgba(190,190,190,1)"/>
      </g>
      <g transform="matrix(1 0 0 1 250 250)">
        <line x1="0" x2="36.9274" y1="0" y2="33.7101" fill="none" stroke="rgba(190,190,190,1)"/>
      </g>
      <g transform="matrix(1 0 0 1 269.2249 203.8437)">
        <line x1="0" x2="30.6219" y1="0" y2="42.2455" fill="none" stroke="rgba(190,190,190,1)"/>
      </g>
      <g transform="matrix(1 0 0 1 269.2249 203.8437)">
        <line x1="0" x2="17.7025" y1="0" y2="79.8663" fill="none" stroke="rgba(190,190,190,1)"/>
      </g>
      <g transform="matrix(1 0 0 1 250 246.0892)">
        <line x1="49.8468" x2="0" y1="0" y2="3.9108" fill="none" stroke="rgba(190,190,190,1)"/>
      </g>
      <g transform="matrix(1 0 0 1 250 203.8437)">
        <line x1="0" x2="19.2249" y1="46.1563" y2="0" fill="none" stroke="rgba(190,190,190,1)"/>
      </g>
      <g transform="matrix(1 0 0 1 286.9274 246.0892)">
        <line x1="0" x2="12.9194" y1="37.6209" y2="0" fill="none" stroke="rgba(190,190,190,1)"/>
      </g>
      <g transform="matrix(1 0 0 1 398.9428 254.1213)">
        <line x1="0" x2="1.0005" y1="13.6559" y2="0" fill="none" stroke="rgba(190,190,190,1)"/>
      </g>
      <g transform="matrix(1 0 0 1 349.358 238.686)">
        <line x1="49.6927" x2="0" y1="28.1638" y2="0" fill="none" stroke="rgba(190,190,190,1)"/>
      </g>
      <g transform="matrix(1 0 0 1 399.0506 254.1213)">
        <line x1="0" x2=".8928" y1="12.7286" y2="0" fill="none" stroke="rgba(190,190,190,1)"/>
      </g>
      <g transform="matrix(1 0 0 1 349.358 238.686)">
        <line x1="49.5849" x2="0" y1="29.0912" y2="0" fill="none" stroke="rgba(190,190,190,1)"/>
      </g>
      <g transform="matrix(1 0 0 1 349.358 238.686)">
        <line x1="0" x2="50.5855" y1="0" y2="15.4353" fill="none" stroke="rgba(190,190,190,1)"/>
      </g>
      <g transform="matrix(1 0 0 1 398.9428 266.8499)">
        <line x1="0" x2=".1078" y1=".9273" y2="0" fill="none" stroke="rgba(190,190,190,1)"/>
      </g>
      <g transform="matrix(1 0 0 1 396.8204 143.6716)">
        <line x1="0" x2="22.5734" y1="75.6076" y2="0" fill="none" stroke="rgba(190,190,190,1)"/>
      </g>
      <g transform="matrix(1 0 0 1 411.0814 131.4556)">
        <line x1="2.0719" x2="0" y1="2.8682" y2="0" fill="none" stroke="rgba(190,190,190,1)"/>
      </g>
      <g transform="matrix(1 0 0 1 411.0814 131.4556)">
        <line x1="0" x2="8.3124" y1="0" y2="12.216" fill="none" stroke="rgba(190,190,190,1)"/>
      </g>
      <g transform="matrix(1 0 0 1 396.8204 134.3238)">
        <line x1="16.333" x2="0" y1="0" y2="84.9553" fill="none" stroke="rgba(190,190,190,1)"/>
      </g>
      <g transform="matrix(1 0 0 1 413.1534 134.3238)">
        <line x1="6.2405" x2="0" y1="9.3478" y2="0" fill="none" stroke="rgba(190,190,190,1)"/>
      </g>
      <g transform="matrix(1 0 0 1 396.8204 131.4556)">
        <line x1="14.261" x2="0" y1="0" y2="87.8235" fill="none" stroke="rgba(190,190,190,1)"/>
      </g>
      <g transform="matrix(1 0 0 1 496.5853 208.8214)">
        <line x1="53.3957" x2="0" y1="44.5519" y2="0" fill="none" stroke="rgba(190,190,190,1)"/>
      </g>
      <g transform="matrix(1 0 0 1 431.4296 165.8377)">
        <line x1="0" x2="4.078" y1="0" y2="9.4165" fill="none" stroke="rgba(190,190,190,1)"/>
      </g>
      <g transform="matrix(1 0 0 1 439.2813 185.4043)">
        <line x1="59.6062" x2="0" y1="41.0367" y2="0" fill="none" stroke="rgba(190,190,190,1)"/>
      </g>
      <g transform="matrix(1 0 0 1 398.4722 182.7069)">
        <line x1="39.867" x2="0" y1="0" y2="45.9386" fill="none" stroke="rgba(190,190,190,1)"/>
      </g>
      <g transform="matrix(1 0 0 1 286.9274 283.71)">
        <line x1="0" x2="55.6027" y1="0" y2="4.2134" fill="none" stroke="rgba(190,190,190,1)"/>
      </g>
      <g transform="matrix(1 0 0 1 399.9434 143.6716)">
        <line x1="19.4504" x2="0" y1="0" y2="110.4497" fill="none" stroke="rgba(190,190,190,1)"/>
      </g>
      <g transform="matrix(1 0 0 1 299.8468 246.0892)">
        <line x1="30.6123" x2="0" y1="63.2938" y2="0" fill="none" stroke="rgba(190,190,190,1)"/>
      </g>
      <g transform="matrix(1 0 0 1 349.358 219.2791)">
        <line x1="47.4625" x2="0" y1="0" y2="19.4069" fill="none" stroke="rgba(190,190,190,1)"/>
      </g>
      <g transform="matrix(1 0 0 1 435.5076 175.2542)">
        <line x1="61.0777" x2="0" y1="33.5673" y2="0" fill="none" stroke="rgba(190,190,190,1)"/>
      </g>
      <g transform="matrix(1 0 0 1 342.53 254.1213)">
        <line x1="0" x2="57.4133" y1="33.8022" y2="0" fill="none" stroke="rgba(190,190,190,1)"/>
      </g>
      <g transform="matrix(1 0 0 1 398.4722 185.4043)">
        <line x1="40.8091" x2="0" y1="0" y2="43.2412" fill="none" stroke="rgba(190,190,190,1)"/>
      </g>
      <g transform="matrix(1 0 0 1 299.8468 238.686)">
        <line x1="0" x2="49.5111" y1="7.4031" y2="0" fill="none" stroke="rgba(190,190,190,1)"/>
      </g>
      <g transform="matrix(1 0 0 1 399.9434 175.2542)">
        <line x1="0" x2="35.5642" y1="78.8671" y2="0" fill="none" stroke="rgba(190,190,190,1)"/>
      </g>
      <g transform="matrix(1 0 0 1 349.358 228.6455)">
        <line x1="0" x2="49.1143" y1="10.0406" y2="0" fill="none" stroke="rgba(190,190,190,1)"/>
      </g>
      <g transform="matrix(1 0 0 1 349.358 238.686)">
        <line x1="0" x2="50.5855" y1="0" y2="15.4353" fill="none" stroke="rgba(190,190,190,1)"/>
      </g>
      <g transform="matrix(1 0 0 1 398.4722 175.2542)">
        <line x1="0" x2="37.0354" y1="53.3913" y2="0" fill="none" stroke="rgba(190,190,190,1)"/>
      </g>
      <g stroke-width="2" transform="matrix(1 0 0 1 431.4296 165.8377)">
        <circle cx="10" cy="10" r="10" fill="rgba(65,201,226,1)" stroke="rgba(255,255,255,1)" transform="translate(-10 -10)"/>
      </g>
      <g font-size="12" text-anchor="middle" transform="matrix(1 0 0 1 431.4296 165.8377)">
        <text fill="rgba(0,0,0,1)" stroke="none" dominant-baseline="central" dx=".5" paint-order="stroke">Argentina</text>
      </g>
      <g stroke-width="2" transform="matrix(1 0 0 1 495.1577 201.0334)">
        <circle cx="10" cy="10" r="10" fill="rgba(65,201,226,1)" stroke="rgba(255,255,255,1)" transform="translate(-10 -10)"/>
      </g>
      <g font-size="12" text-anchor="middle" transform="matrix(1 0 0 1 495.1577 201.0334)">
        <text fill="rgba(0,0,0,1)" stroke="none" dominant-baseline="central" dx=".5" paint-order="stroke">Australia</text>
      </g>
      <g stroke-width="2" transform="matrix(1 0 0 1 399.9434 254.1213)">
        <circle cx="10" cy="10" r="10" fill="rgba(65,201,226,1)" stroke="rgba(255,255,255,1)" transform="translate(-10 -10)"/>
      </g>
      <g font-size="12" text-anchor="middle" transform="matrix(1 0 0 1 399.9434 254.1213)">
        <text fill="rgba(0,0,0,1)" stroke="none" dominant-baseline="central" dx=".5" paint-order="stroke">Belgium</text>
      </g>
      <g stroke-width="2" transform="matrix(1 0 0 1 342.53 287.9235)">
        <circle cx="10" cy="10" r="10" fill="rgba(65,201,226,1)" stroke="rgba(255,255,255,1)" transform="translate(-10 -10)"/>
      </g>
      <g font-size="12" text-anchor="middle" transform="matrix(1 0 0 1 342.53 287.9235)">
        <text fill="rgba(0,0,0,1)" stroke="none" dominant-baseline="central" dx=".5" paint-order="stroke">Brazil</text>
      </g>
      <g stroke-width="2" transform="matrix(1 0 0 1 396.8204 219.2791)">
        <circle cx="10" cy="10" r="10" fill="rgba(65,201,226,1)" stroke="rgba(255,255,255,1)" transform="translate(-10 -10)"/>
      </g>
      <g font-size="12" text-anchor="middle" transform="matrix(1 0 0 1 396.8204 219.2791)">
        <text fill="rgba(0,0,0,1)" stroke="none" dominant-baseline="central" dx=".5" paint-order="stroke">Colombia</text>
      </g>
      <g stroke-width="2" transform="matrix(1 0 0 1 390.1572 303.4413)">
        <circle cx="10" cy="10" r="10" fill="rgba(65,201,226,1)" stroke="rgba(255,255,255,1)" transform="translate(-10 -10)"/>
      </g>
      <g font-size="12" text-anchor="middle" transform="matrix(1 0 0 1 390.1572 303.4413)">
        <text fill="rgba(0,0,0,1)" stroke="none" dominant-baseline="central" dx=".5" paint-order="stroke">Costa Rica</text>
      </g>
      <g stroke-width="2" transform="matrix(1 0 0 1 398.4722 228.6455)">
        <circle cx="10" cy="10" r="10" fill="rgba(65,201,226,1)" stroke="rgba(255,255,255,1)" transform="translate(-10 -10)"/>
      </g>
      <g font-size="12" text-anchor="middle" transform="matrix(1 0 0 1 398.4722 228.6455)">
        <text fill="rgba(0,0,0,1)" stroke="none" dominant-baseline="central" dx=".5" paint-order="stroke">Croatia</text>
      </g>
      <g stroke-width="2" transform="matrix(1 0 0 1 438.3391 182.7069)">
        <circle cx="10" cy="10" r="10" fill="rgba(65,201,226,1)" stroke="rgba(255,255,255,1)" transform="translate(-10 -10)"/>
      </g>
      <g font-size="12" text-anchor="middle" transform="matrix(1 0 0 1 438.3391 182.7069)">
        <text fill="rgba(0,0,0,1)" stroke="none" dominant-baseline="central" dx=".5" paint-order="stroke">Denmark</text>
      </g>
      <g stroke-width="2" transform="matrix(1 0 0 1 496.4467 208)">
        <circle cx="10" cy="10" r="10" fill="rgba(65,201,226,1)" stroke="rgba(255,255,255,1)" transform="translate(-10 -10)"/>
      </g>
      <g font-size="12" text-anchor="middle" transform="matrix(1 0 0 1 496.4467 208)">
        <text fill="rgba(0,0,0,1)" stroke="none" dominant-baseline="central" dx=".5" paint-order="stroke">Egypt</text>
      </g>
      <g stroke-width="2" transform="matrix(1 0 0 1 349.358 238.686)">
        <circle cx="10" cy="10" r="10" fill="rgba(65,201,226,1)" stroke="rgba(255,255,255,1)" transform="translate(-10 -10)"/>
      </g>
      <g font-size="12" text-anchor="middle" transform="matrix(1 0 0 1 349.358 238.686)">
        <text fill="rgba(0,0,0,1)" stroke="none" dominant-baseline="central" dx=".5" paint-order="stroke">England</text>
      </g>
      <g stroke-width="2" transform="matrix(1 0 0 1 435.5076 175.2542)">
        <circle cx="10" cy="10" r="10" fill="rgba(65,201,226,1)" stroke="rgba(255,255,255,1)" transform="translate(-10 -10)"/>
      </g>
      <g font-size="12" text-anchor="middle" transform="matrix(1 0 0 1 435.5076 175.2542)">
        <text fill="rgba(0,0,0,1)" stroke="none" dominant-baseline="central" dx=".5" paint-order="stroke">France</text>
      </g>
      <g stroke-width="2" transform="matrix(1 0 0 1 250 250)">
        <circle cx="10" cy="10" r="10" fill="rgba(65,201,226,1)" stroke="rgba(255,255,255,1)" transform="translate(-10 -10)"/>
      </g>
      <g font-size="12" text-anchor="middle" transform="matrix(1 0 0 1 250 250)">
        <text fill="rgba(0,0,0,1)" stroke="none" dominant-baseline="central" dx=".5" paint-order="stroke">Germany</text>
      </g>
      <g stroke-width="2" transform="matrix(1 0 0 1 426.5173 155.97)">
        <circle cx="10" cy="10" r="10" fill="rgba(65,201,226,1)" stroke="rgba(255,255,255,1)" transform="translate(-10 -10)"/>
      </g>
      <g font-size="12" text-anchor="middle" transform="matrix(1 0 0 1 426.5173 155.97)">
        <text fill="rgba(0,0,0,1)" stroke="none" dominant-baseline="central" dx=".5" paint-order="stroke">Iceland</text>
      </g>
      <g stroke-width="2" transform="matrix(1 0 0 1 549.973 254.0297)">
        <circle cx="10" cy="10" r="10" fill="rgba(65,201,226,1)" stroke="rgba(255,255,255,1)" transform="translate(-10 -10)"/>
      </g>
      <g font-size="12" text-anchor="middle" transform="matrix(1 0 0 1 549.973 254.0297)">
        <text fill="rgba(0,0,0,1)" stroke="none" dominant-baseline="central" dx=".5" paint-order="stroke">IR Iran</text>
      </g>
      <g stroke-width="2" transform="matrix(1 0 0 1 419.3938 143.6716)">
        <circle cx="10" cy="10" r="10" fill="rgba(65,201,226,1)" stroke="rgba(255,255,255,1)" transform="translate(-10 -10)"/>
      </g>
      <g font-size="12" text-anchor="middle" transform="matrix(1 0 0 1 419.3938 143.6716)">
        <text fill="rgba(0,0,0,1)" stroke="none" dominant-baseline="central" dx=".5" paint-order="stroke">Japan</text>
      </g>
      <g stroke-width="2" transform="matrix(1 0 0 1 269.2249 203.8437)">
        <circle cx="10" cy="10" r="10" fill="rgba(65,201,226,1)" stroke="rgba(255,255,255,1)" transform="translate(-10 -10)"/>
      </g>
      <g font-size="12" text-anchor="middle" transform="matrix(1 0 0 1 269.2249 203.8437)">
        <text fill="rgba(0,0,0,1)" stroke="none" dominant-baseline="central" dx=".5" paint-order="stroke">Korea Republic</text>
      </g>
      <g stroke-width="2" transform="matrix(1 0 0 1 286.9274 283.71)">
        <circle cx="10" cy="10" r="10" fill="rgba(65,201,226,1)" stroke="rgba(255,255,255,1)" transform="translate(-10 -10)"/>
      </g>
      <g font-size="12" text-anchor="middle" transform="matrix(1 0 0 1 286.9274 283.71)">
        <text fill="rgba(0,0,0,1)" stroke="none" dominant-baseline="central" dx=".5" paint-order="stroke">Mexico</text>
      </g>
      <g stroke-width="2" transform="matrix(1 0 0 1 549.7868 261.3088)">
        <circle cx="10" cy="10" r="10" fill="rgba(65,201,226,1)" stroke="rgba(255,255,255,1)" transform="translate(-10 -10)"/>
      </g>
      <g font-size="12" text-anchor="middle" transform="matrix(1 0 0 1 549.7868 261.3088)">
        <text fill="rgba(0,0,0,1)" stroke="none" dominant-baseline="central" dx=".5" paint-order="stroke">Morocco</text>
      </g>
      <g stroke-width="2" transform="matrix(1 0 0 1 429.4565 161.7087)">
        <circle cx="10" cy="10" r="10" fill="rgba(65,201,226,1)" stroke="rgba(255,255,255,1)" transform="translate(-10 -10)"/>
      </g>
      <g font-size="12" text-anchor="middle" transform="matrix(1 0 0 1 429.4565 161.7087)">
        <text fill="rgba(0,0,0,1)" stroke="none" dominant-baseline="central" dx=".5" paint-order="stroke">Nigeria</text>
      </g>
      <g stroke-width="2" transform="matrix(1 0 0 1 398.9428 267.7772)">
        <circle cx="10" cy="10" r="10" fill="rgba(65,201,226,1)" stroke="rgba(255,255,255,1)" transform="translate(-10 -10)"/>
      </g>
      <g font-size="12" text-anchor="middle" transform="matrix(1 0 0 1 398.9428 267.7772)">
        <text fill="rgba(0,0,0,1)" stroke="none" dominant-baseline="central" dx=".5" paint-order="stroke">Panama</text>
      </g>
      <g stroke-width="2" transform="matrix(1 0 0 1 497.0885 211.957)">
        <circle cx="10" cy="10" r="10" fill="rgba(65,201,226,1)" stroke="rgba(255,255,255,1)" transform="translate(-10 -10)"/>
      </g>
      <g font-size="12" text-anchor="middle" transform="matrix(1 0 0 1 497.0885 211.957)">
        <text fill="rgba(0,0,0,1)" stroke="none" dominant-baseline="central" dx=".5" paint-order="stroke">Peru</text>
      </g>
      <g stroke-width="2" transform="matrix(1 0 0 1 413.1534 134.3238)">
        <circle cx="10" cy="10" r="10" fill="rgba(65,201,226,1)" stroke="rgba(255,255,255,1)" transform="translate(-10 -10)"/>
      </g>
      <g font-size="12" text-anchor="middle" transform="matrix(1 0 0 1 413.1534 134.3238)">
        <text fill="rgba(0,0,0,1)" stroke="none" dominant-baseline="central" dx=".5" paint-order="stroke">Poland</text>
      </g>
      <g stroke-width="2" transform="matrix(1 0 0 1 549.981 253.3734)">
        <circle cx="10" cy="10" r="10" fill="rgba(65,201,226,1)" stroke="rgba(255,255,255,1)" transform="translate(-10 -10)"/>
      </g>
      <g font-size="12" text-anchor="middle" transform="matrix(1 0 0 1 549.981 253.3734)">
        <text fill="rgba(0,0,0,1)" stroke="none" dominant-baseline="central" dx=".5" paint-order="stroke">Portugal</text>
      </g>
      <g stroke-width="2" transform="matrix(1 0 0 1 439.2813 185.4043)">
        <circle cx="10" cy="10" r="10" fill="rgba(65,201,226,1)" stroke="rgba(255,255,255,1)" transform="translate(-10 -10)"/>
      </g>
      <g font-size="12" text-anchor="middle" transform="matrix(1 0 0 1 439.2813 185.4043)">
        <text fill="rgba(0,0,0,1)" stroke="none" dominant-baseline="central" dx=".5" paint-order="stroke">Russia</text>
      </g>
      <g stroke-width="2" transform="matrix(1 0 0 1 494.916 199.8392)">
        <circle cx="10" cy="10" r="10" fill="rgba(65,201,226,1)" stroke="rgba(255,255,255,1)" transform="translate(-10 -10)"/>
      </g>
      <g font-size="12" text-anchor="middle" transform="matrix(1 0 0 1 494.916 199.8392)">
        <text fill="rgba(0,0,0,1)" stroke="none" dominant-baseline="central" dx=".5" paint-order="stroke">Saudi Arabia</text>
      </g>
      <g stroke-width="2" transform="matrix(1 0 0 1 411.0814 131.4556)">
        <circle cx="10" cy="10" r="10" fill="rgba(65,201,226,1)" stroke="rgba(255,255,255,1)" transform="translate(-10 -10)"/>
      </g>
      <g font-size="12" text-anchor="middle" transform="matrix(1 0 0 1 411.0814 131.4556)">
        <text fill="rgba(0,0,0,1)" stroke="none" dominant-baseline="central" dx=".5" paint-order="stroke">Senegal</text>
      </g>
      <g stroke-width="2" transform="matrix(1 0 0 1 385.207 314.9542)">
        <circle cx="10" cy="10" r="10" fill="rgba(65,201,226,1)" stroke="rgba(255,255,255,1)" transform="translate(-10 -10)"/>
      </g>
      <g font-size="12" text-anchor="middle" transform="matrix(1 0 0 1 385.207 314.9542)">
        <text fill="rgba(0,0,0,1)" stroke="none" dominant-baseline="central" dx=".5" paint-order="stroke">Serbia</text>
      </g>
      <g stroke-width="2" transform="matrix(1 0 0 1 498.8875 226.441)">
        <circle cx="10" cy="10" r="10" fill="rgba(65,201,226,1)" stroke="rgba(255,255,255,1)" transform="translate(-10 -10)"/>
      </g>
      <g font-size="12" text-anchor="middle" transform="matrix(1 0 0 1 498.8875 226.441)">
        <text fill="rgba(0,0,0,1)" stroke="none" dominant-baseline="central" dx=".5" paint-order="stroke">Spain</text>
      </g>
      <g stroke-width="2" transform="matrix(1 0 0 1 299.8468 246.0892)">
        <circle cx="10" cy="10" r="10" fill="rgba(65,201,226,1)" stroke="rgba(255,255,255,1)" transform="translate(-10 -10)"/>
      </g>
      <g font-size="12" text-anchor="middle" transform="matrix(1 0 0 1 299.8468 246.0892)">
        <text fill="rgba(0,0,0,1)" stroke="none" dominant-baseline="central" dx=".5" paint-order="stroke">Sweden</text>
      </g>
      <g stroke-width="2" transform="matrix(1 0 0 1 330.459 309.383)">
        <circle cx="10" cy="10" r="10" fill="rgba(65,201,226,1)" stroke="rgba(255,255,255,1)" transform="translate(-10 -10)"/>
      </g>
      <g font-size="12" text-anchor="middle" transform="matrix(1 0 0 1 330.459 309.383)">
        <text fill="rgba(0,0,0,1)" stroke="none" dominant-baseline="central" dx=".5" paint-order="stroke">Switzerland</text>
      </g>
      <g stroke-width="2" transform="matrix(1 0 0 1 399.0506 266.8499)">
        <circle cx="10" cy="10" r="10" fill="rgba(65,201,226,1)" stroke="rgba(255,255,255,1)" transform="translate(-10 -10)"/>
      </g>
      <g font-size="12" text-anchor="middle" transform="matrix(1 0 0 1 399.0506 266.8499)">
        <text fill="rgba(0,0,0,1)" stroke="none" dominant-baseline="central" dx=".5" paint-order="stroke">Tunisia</text>
      </g>
      <g stroke-width="2" transform="matrix(1 0 0 1 496.5853 208.8214)">
        <circle cx="10" cy="10" r="10" fill="rgba(65,201,226,1)" stroke="rgba(255,255,255,1)" transform="translate(-10 -10)"/>
      </g>
      <g font-size="12" text-anchor="middle" transform="matrix(1 0 0 1 496.5853 208.8214)">
        <text fill="rgba(0,0,0,1)" stroke="none" dominant-baseline="central" dx=".5" paint-order="stroke">Uruguay</text>
      </g>
      <g transform="matrix(1 0 0 1 439.2813 185.4043)">
        <line x1="55.6348" x2="0" y1="14.4349" y2="0" fill="none" stroke="rgba(190,190,190,1)"/>
      </g>
      <g transform="matrix(1 0 0 1 496.4467 208)">
        <line x1="0" x2=".1386" y1="0" y2=".8215" fill="none" stroke="rgba(190,190,190,1)"/>
      </g>
      <g transform="matrix(1 0 0 1 439.2813 185.4043)">
        <line x1="57.1655" x2="0" y1="22.5957" y2="0" fill="none" stroke="rgba(190,190,190,1)"/>
      </g>
      <g transform="matrix(1 0 0 1 494.916 199.8392)">
        <line x1="0" x2="1.6692" y1="0" y2="8.9823" fill="none" stroke="rgba(190,190,190,1)"/>
      </g>
      <g transform="matrix(1 0 0 1 439.2813 185.4043)">
        <line x1="0" x2="57.3041" y1="0" y2="23.4172" fill="none" stroke="rgba(190,190,190,1)"/>
      </g>
      <g transform="matrix(1 0 0 1 494.916 199.8392)">
        <line x1="1.5307" x2="0" y1="8.1608" y2="0" fill="none" stroke="rgba(190,190,190,1)"/>
      </g>
      <g transform="matrix(1 0 0 1 549.7868 254.0297)">
        <line x1="0" x2=".1862" y1="7.2791" y2="0" fill="none" stroke="rgba(190,190,190,1)"/>
      </g>
      <g transform="matrix(1 0 0 1 498.8875 226.441)">
        <line x1="0" x2="51.0936" y1="0" y2="26.9324" fill="none" stroke="rgba(190,190,190,1)"/>
      </g>
      <g transform="matrix(1 0 0 1 549.7868 253.3734)">
        <line x1="0" x2=".1943" y1="7.9354" y2="0" fill="none" stroke="rgba(190,190,190,1)"/>
      </g>
      <g transform="matrix(1 0 0 1 498.8875 226.441)">
        <line x1="51.0855" x2="0" y1="27.5888" y2="0" fill="none" stroke="rgba(190,190,190,1)"/>
      </g>
      <g transform="matrix(1 0 0 1 549.973 253.3734)">
        <line x1=".0081" x2="0" y1="0" y2=".6563" fill="none" stroke="rgba(190,190,190,1)"/>
      </g>
      <g transform="matrix(1 0 0 1 498.8875 226.441)">
        <line x1="50.8993" x2="0" y1="34.8678" y2="0" fill="none" stroke="rgba(190,190,190,1)"/>
      </g>
      <g transform="matrix(1 0 0 1 435.5076 175.2542)">
        <line x1="59.6501" x2="0" y1="25.7792" y2="0" fill="none" stroke="rgba(190,190,190,1)"/>
      </g>
      <g transform="matrix(1 0 0 1 438.3391 182.7069)">
        <line x1="58.7494" x2="0" y1="29.2502" y2="0" fill="none" stroke="rgba(190,190,190,1)"/>
      </g>
      <g transform="matrix(1 0 0 1 438.3391 182.7069)">
        <line x1="56.8185" x2="0" y1="18.3265" y2="0" fill="none" stroke="rgba(190,190,190,1)"/>
      </g>
      <g transform="matrix(1 0 0 1 435.5076 175.2542)">
        <line x1="61.5809" x2="0" y1="36.7029" y2="0" fill="none" stroke="rgba(190,190,190,1)"/>
      </g>
      <g transform="matrix(1 0 0 1 435.5076 175.2542)">
        <line x1="0" x2="2.8316" y1="0" y2="7.4527" fill="none" stroke="rgba(190,190,190,1)"/>
      </g>
      <g transform="matrix(1 0 0 1 495.1577 201.0334)">
        <line x1="0" x2="1.9309" y1="0" y2="10.9237" fill="none" stroke="rgba(190,190,190,1)"/>
      </g>
      <g transform="matrix(1 0 0 1 426.5173 155.97)">
        <line x1="0" x2="4.9123" y1="0" y2="9.8676" fill="none" stroke="rgba(190,190,190,1)"/>
      </g>
      <g transform="matrix(1 0 0 1 398.4722 161.7087)">
        <line x1="30.9844" x2="0" y1="0" y2="66.9368" fill="none" stroke="rgba(190,190,190,1)"/>
      </g>
      <g transform="matrix(1 0 0 1 398.4722 165.8377)">
        <line x1="32.9574" x2="0" y1="0" y2="62.8078" fill="none" stroke="rgba(190,190,190,1)"/>
      </g>
      <g transform="matrix(1 0 0 1 426.5173 155.97)">
        <line x1="0" x2="2.9392" y1="0" y2="5.7387" fill="none" stroke="rgba(190,190,190,1)"/>
      </g>
      <g transform="matrix(1 0 0 1 429.4565 161.7087)">
        <line x1="0" x2="1.9731" y1="0" y2="4.129" fill="none" stroke="rgba(190,190,190,1)"/>
      </g>
      <g transform="matrix(1 0 0 1 398.4722 155.97)">
        <line x1="28.0452" x2="0" y1="0" y2="72.6754" fill="none" stroke="rgba(190,190,190,1)"/>
      </g>
      <g transform="matrix(1 0 0 1 385.207 303.4413)">
        <line x1="4.9501" x2="0" y1="0" y2="11.5129" fill="none" stroke="rgba(190,190,190,1)"/>
      </g>
      <g transform="matrix(1 0 0 1 330.459 287.9235)">
        <line x1="0" x2="12.071" y1="21.4595" y2="0" fill="none" stroke="rgba(190,190,190,1)"/>
      </g>
      <g transform="matrix(1 0 0 1 342.53 287.9235)">
        <line x1="47.6271" x2="0" y1="15.5178" y2="0" fill="none" stroke="rgba(190,190,190,1)"/>
      </g>
      <g transform="matrix(1 0 0 1 330.459 309.383)">
        <line x1="54.748" x2="0" y1="5.5712" y2="0" fill="none" stroke="rgba(190,190,190,1)"/>
      </g>
      <g transform="matrix(1 0 0 1 342.53 287.9235)">
        <line x1="42.677" x2="0" y1="27.0307" y2="0" fill="none" stroke="rgba(190,190,190,1)"/>
      </g>
      <g transform="matrix(1 0 0 1 330.459 303.4413)">
        <line x1="59.6981" x2="0" y1="0" y2="5.9417" fill="none" stroke="rgba(190,190,190,1)"/>
      </g>
      <g transform="matrix(1 0 0 1 250 250)">
        <line x1="0" x2="36.9274" y1="0" y2="33.7101" fill="none" stroke="rgba(190,190,190,1)"/>
      </g>
      <g transform="matrix(1 0 0 1 269.2249 203.8437)">
        <line x1="0" x2="30.6219" y1="0" y2="42.2455" fill="none" stroke="rgba(190,190,190,1)"/>
      </g>
      <g transform="matrix(1 0 0 1 269.2249 203.8437)">
        <line x1="0" x2="17.7025" y1="0" y2="79.8663" fill="none" stroke="rgba(190,190,190,1)"/>
      </g>
      <g transform="matrix(1 0 0 1 250 246.0892)">
        <line x1="49.8468" x2="0" y1="0" y2="3.9108" fill="none" stroke="rgba(190,190,190,1)"/>
      </g>
      <g transform="matrix(1 0 0 1 250 203.8437)">
        <line x1="0" x2="19.2249" y1="46.1563" y2="0" fill="none" stroke="rgba(190,190,190,1)"/>
      </g>
      <g transform="matrix(1 0 0 1 286.9274 246.0892)">
        <line x1="0" x2="12.9194" y1="37.6209" y2="0" fill="none" stroke="rgba(190,190,190,1)"/>
      </g>
      <g transform="matrix(1 0 0 1 398.9428 254.1213)">
        <line x1="0" x2="1.0005" y1="13.6559" y2="0" fill="none" stroke="rgba(190,190,190,1)"/>
      </g>
      <g transform="matrix(1 0 0 1 349.358 238.686)">
        <line x1="49.6927" x2="0" y1="28.1638" y2="0" fill="none" stroke="rgba(190,190,190,1)"/>
      </g>
      <g transform="matrix(1 0 0 1 399.0506 254.1213)">
        <line x1="0" x2=".8928" y1="12.7286" y2="0" fill="none" stroke="rgba(190,190,190,1)"/>
      </g>
      <g transform="matrix(1 0 0 1 349.358 238.686)">
        <line x1="49.5849" x2="0" y1="29.0912" y2="0" fill="none" stroke="rgba(190,190,190,1)"/>
      </g>
      <g transform="matrix(1 0 0 1 349.358 238.686)">
        <line x1="0" x2="50.5855" y1="0" y2="15.4353" fill="none" stroke="rgba(190,190,190,1)"/>
      </g>
      <g transform="matrix(1 0 0 1 398.9428 266.8499)">
        <line x1="0" x2=".1078" y1=".9273" y2="0" fill="none" stroke="rgba(190,190,190,1)"/>
      </g>
      <g transform="matrix(1 0 0 1 396.8204 143.6716)">
        <line x1="0" x2="22.5734" y1="75.6076" y2="0" fill="none" stroke="rgba(190,190,190,1)"/>
      </g>
      <g transform="matrix(1 0 0 1 411.0814 131.4556)">
        <line x1="2.0719" x2="0" y1="2.8682" y2="0" fill="none" stroke="rgba(190,190,190,1)"/>
      </g>
      <g transform="matrix(1 0 0 1 411.0814 131.4556)">
        <line x1="0" x2="8.3124" y1="0" y2="12.216" fill="none" stroke="rgba(190,190,190,1)"/>
      </g>
      <g transform="matrix(1 0 0 1 396.8204 134.3238)">
        <line x1="16.333" x2="0" y1="0" y2="84.9553" fill="none" stroke="rgba(190,190,190,1)"/>
      </g>
      <g transform="matrix(1 0 0 1 413.1534 134.3238)">
        <line x1="6.2405" x2="0" y1="9.3478" y2="0" fill="none" stroke="rgba(190,190,190,1)"/>
      </g>
      <g transform="matrix(1 0 0 1 396.8204 131.4556)">
        <line x1="14.261" x2="0" y1="0" y2="87.8235" fill="none" stroke="rgba(190,190,190,1)"/>
      </g>
      <g transform="matrix(1 0 0 1 496.5853 208.8214)">
        <line x1="53.3957" x2="0" y1="44.5519" y2="0" fill="none" stroke="rgba(190,190,190,1)"/>
      </g>
      <g transform="matrix(1 0 0 1 431.4296 165.8377)">
        <line x1="0" x2="4.078" y1="0" y2="9.4165" fill="none" stroke="rgba(190,190,190,1)"/>
      </g>
      <g transform="matrix(1 0 0 1 439.2813 185.4043)">
        <line x1="59.6062" x2="0" y1="41.0367" y2="0" fill="none" stroke="rgba(190,190,190,1)"/>
      </g>
      <g transform="matrix(1 0 0 1 398.4722 182.7069)">
        <line x1="39.867" x2="0" y1="0" y2="45.9386" fill="none" stroke="rgba(190,190,190,1)"/>
      </g>
      <g transform="matrix(1 0 0 1 286.9274 283.71)">
        <line x1="0" x2="55.6027" y1="0" y2="4.2134" fill="none" stroke="rgba(190,190,190,1)"/>
      </g>
      <g transform="matrix(1 0 0 1 399.9434 143.6716)">
        <line x1="19.4504" x2="0" y1="0" y2="110.4497" fill="none" stroke="rgba(190,190,190,1)"/>
      </g>
      <g transform="matrix(1 0 0 1 299.8468 246.0892)">
        <line x1="30.6123" x2="0" y1="63.2938" y2="0" fill="none" stroke="rgba(190,190,190,1)"/>
      </g>
      <g transform="matrix(1 0 0 1 349.358 219.2791)">
        <line x1="47.4625" x2="0" y1="0" y2="19.4069" fill="none" stroke="rgba(190,190,190,1)"/>
      </g>
      <g transform="matrix(1 0 0 1 435.5076 175.2542)">
        <line x1="61.0777" x2="0" y1="33.5673" y2="0" fill="none" stroke="rgba(190,190,190,1)"/>
      </g>
      <g transform="matrix(1 0 0 1 342.53 254.1213)">
        <line x1="0" x2="57.4133" y1="33.8022" y2="0" fill="none" stroke="rgba(190,190,190,1)"/>
      </g>
      <g transform="matrix(1 0 0 1 398.4722 185.4043)">
        <line x1="40.8091" x2="0" y1="0" y2="43.2412" fill="none" stroke="rgba(190,190,190,1)"/>
      </g>
      <g transform="matrix(1 0 0 1 299.8468 238.686)">
        <line x1="0" x2="49.5111" y1="7.4031" y2="0" fill="none" stroke="rgba(190,190,190,1)"/>
      </g>
      <g transform="matrix(1 0 0 1 399.9434 175.2542)">
        <line x1="0" x2="35.5642" y1="78.8671" y2="0" fill="none" stroke="rgba(190,190,190,1)"/>
      </g>
      <g transform="matrix(1 0 0 1 349.358 228.6455)">
        <line x1="0" x2="49.1143" y1="10.0406" y2="0" fill="none" stroke="rgba(190,190,190,1)"/>
      </g>
      <g transform="matrix(1 0 0 1 349.358 238.686)">
        <line x1="0" x2="50.5855" y1="0" y2="15.4353" fill="none" stroke="rgba(190,190,190,1)"/>
      </g>
      <g transform="matrix(1 0 0 1 398.4722 175.2542)">
        <line x1="0" x2="37.0354" y1="53.3913" y2="0" fill="none" stroke="rgba(190,190,190,1)"/>
      </g>
      <g stroke-width="2" transform="matrix(1 0 0 1 431.4296 165.8377)">
        <circle cx="10" cy="10" r="10" fill="rgba(65,201,226,1)" stroke="rgba(255,255,255,1)" transform="translate(-10 -10)"/>
      </g>
      <g font-size="12" text-anchor="middle" transform="matrix(1 0 0 1 431.4296 165.8377)">
        <text fill="rgba(0,0,0,1)" stroke="none" dominant-baseline="central" dx=".5" paint-order="stroke">Argentina</text>
      </g>
      <g stroke-width="2" transform="matrix(1 0 0 1 495.1577 201.0334)">
        <circle cx="10" cy="10" r="10" fill="rgba(65,201,226,1)" stroke="rgba(255,255,255,1)" transform="translate(-10 -10)"/>
      </g>
      <g font-size="12" text-anchor="middle" transform="matrix(1 0 0 1 495.1577 201.0334)">
        <text fill="rgba(0,0,0,1)" stroke="none" dominant-baseline="central" dx=".5" paint-order="stroke">Australia</text>
      </g>
      <g stroke-width="2" transform="matrix(1 0 0 1 399.9434 254.1213)">
        <circle cx="10" cy="10" r="10" fill="rgba(65,201,226,1)" stroke="rgba(255,255,255,1)" transform="translate(-10 -10)"/>
      </g>
      <g font-size="12" text-anchor="middle" transform="matrix(1 0 0 1 399.9434 254.1213)">
        <text fill="rgba(0,0,0,1)" stroke="none" dominant-baseline="central" dx=".5" paint-order="stroke">Belgium</text>
      </g>
      <g stroke-width="2" transform="matrix(1 0 0 1 342.53 287.9235)">
        <circle cx="10" cy="10" r="10" fill="rgba(65,201,226,1)" stroke="rgba(255,255,255,1)" transform="translate(-10 -10)"/>
      </g>
      <g font-size="12" text-anchor="middle" transform="matrix(1 0 0 1 342.53 287.9235)">
        <text fill="rgba(0,0,0,1)" stroke="none" dominant-baseline="central" dx=".5" paint-order="stroke">Brazil</text>
      </g>
      <g stroke-width="2" transform="matrix(1 0 0 1 396.8204 219.2791)">
        <circle cx="10" cy="10" r="10" fill="rgba(65,201,226,1)" stroke="rgba(255,255,255,1)" transform="translate(-10 -10)"/>
      </g>
      <g font-size="12" text-anchor="middle" transform="matrix(1 0 0 1 396.8204 219.2791)">
        <text fill="rgba(0,0,0,1)" stroke="none" dominant-baseline="central" dx=".5" paint-order="stroke">Colombia</text>
      </g>
      <g stroke-width="2" transform="matrix(1 0 0 1 390.1572 303.4413)">
        <circle cx="10" cy="10" r="10" fill="rgba(65,201,226,1)" stroke="rgba(255,255,255,1)" transform="translate(-10 -10)"/>
      </g>
      <g font-size="12" text-anchor="middle" transform="matrix(1 0 0 1 390.1572 303.4413)">
        <text fill="rgba(0,0,0,1)" stroke="none" dominant-baseline="central" dx=".5" paint-order="stroke">Costa Rica</text>
      </g>
      <g stroke-width="2" transform="matrix(1 0 0 1 398.4722 228.6455)">
        <circle cx="10" cy="10" r="10" fill="rgba(65,201,226,1)" stroke="rgba(255,255,255,1)" transform="translate(-10 -10)"/>
      </g>
      <g font-size="12" text-anchor="middle" transform="matrix(1 0 0 1 398.4722 228.6455)">
        <text fill="rgba(0,0,0,1)" stroke="none" dominant-baseline="central" dx=".5" paint-order="stroke">Croatia</text>
      </g>
      <g stroke-width="2" transform="matrix(1 0 0 1 438.3391 182.7069)">
        <circle cx="10" cy="10" r="10" fill="rgba(65,201,226,1)" stroke="rgba(255,255,255,1)" transform="translate(-10 -10)"/>
      </g>
      <g font-size="12" text-anchor="middle" transform="matrix(1 0 0 1 438.3391 182.7069)">
        <text fill="rgba(0,0,0,1)" stroke="none" dominant-baseline="central" dx=".5" paint-order="stroke">Denmark</text>
      </g>
      <g stroke-width="2" transform="matrix(1 0 0 1 496.4467 208)">
        <circle cx="10" cy="10" r="10" fill="rgba(65,201,226,1)" stroke="rgba(255,255,255,1)" transform="translate(-10 -10)"/>
      </g>
      <g font-size="12" text-anchor="middle" transform="matrix(1 0 0 1 496.4467 208)">
        <text fill="rgba(0,0,0,1)" stroke="none" dominant-baseline="central" dx=".5" paint-order="stroke">Egypt</text>
      </g>
      <g stroke-width="2" transform="matrix(1 0 0 1 349.358 238.686)">
        <circle cx="10" cy="10" r="10" fill="rgba(65,201,226,1)" stroke="rgba(255,255,255,1)" transform="translate(-10 -10)"/>
      </g>
      <g font-size="12" text-anchor="middle" transform="matrix(1 0 0 1 349.358 238.686)">
        <text fill="rgba(0,0,0,1)" stroke="none" dominant-baseline="central" dx=".5" paint-order="stroke">England</text>
      </g>
      <g stroke-width="2" transform="matrix(1 0 0 1 435.5076 175.2542)">
        <circle cx="10" cy="10" r="10" fill="rgba(65,201,226,1)" stroke="rgba(255,255,255,1)" transform="translate(-10 -10)"/>
      </g>
      <g font-size="12" text-anchor="middle" transform="matrix(1 0 0 1 435.5076 175.2542)">
        <text fill="rgba(0,0,0,1)" stroke="none" dominant-baseline="central" dx=".5" paint-order="stroke">France</text>
      </g>
      <g stroke-width="2" transform="matrix(1 0 0 1 250 250)">
        <circle cx="10" cy="10" r="10" fill="rgba(65,201,226,1)" stroke="rgba(255,255,255,1)" transform="translate(-10 -10)"/>
      </g>
      <g font-size="12" text-anchor="middle" transform="matrix(1 0 0 1 250 250)">
        <text fill="rgba(0,0,0,1)" stroke="none" dominant-baseline="central" dx=".5" paint-order="stroke">Germany</text>
      </g>
      <g stroke-width="2" transform="matrix(1 0 0 1 426.5173 155.97)">
        <circle cx="10" cy="10" r="10" fill="rgba(65,201,226,1)" stroke="rgba(255,255,255,1)" transform="translate(-10 -10)"/>
      </g>
      <g font-size="12" text-anchor="middle" transform="matrix(1 0 0 1 426.5173 155.97)">
        <text fill="rgba(0,0,0,1)" stroke="none" dominant-baseline="central" dx=".5" paint-order="stroke">Iceland</text>
      </g>
      <g stroke-width="2" transform="matrix(1 0 0 1 549.973 254.0297)">
        <circle cx="10" cy="10" r="10" fill="rgba(65,201,226,1)" stroke="rgba(255,255,255,1)" transform="translate(-10 -10)"/>
      </g>
      <g font-size="12" text-anchor="middle" transform="matrix(1 0 0 1 549.973 254.0297)">
        <text fill="rgba(0,0,0,1)" stroke="none" dominant-baseline="central" dx=".5" paint-order="stroke">IR Iran</text>
      </g>
      <g stroke-width="2" transform="matrix(1 0 0 1 419.3938 143.6716)">
        <circle cx="10" cy="10" r="10" fill="rgba(65,201,226,1)" stroke="rgba(255,255,255,1)" transform="translate(-10 -10)"/>
      </g>
      <g font-size="12" text-anchor="middle" transform="matrix(1 0 0 1 419.3938 143.6716)">
        <text fill="rgba(0,0,0,1)" stroke="none" dominant-baseline="central" dx=".5" paint-order="stroke">Japan</text>
      </g>
      <g stroke-width="2" transform="matrix(1 0 0 1 269.2249 203.8437)">
        <circle cx="10" cy="10" r="10" fill="rgba(65,201,226,1)" stroke="rgba(255,255,255,1)" transform="translate(-10 -10)"/>
      </g>
      <g font-size="12" text-anchor="middle" transform="matrix(1 0 0 1 269.2249 203.8437)">
        <text fill="rgba(0,0,0,1)" stroke="none" dominant-baseline="central" dx=".5" paint-order="stroke">Korea Republic</text>
      </g>
      <g stroke-width="2" transform="matrix(1 0 0 1 286.9274 283.71)">
        <circle cx="10" cy="10" r="10" fill="rgba(65,201,226,1)" stroke="rgba(255,255,255,1)" transform="translate(-10 -10)"/>
      </g>
      <g font-size="12" text-anchor="middle" transform="matrix(1 0 0 1 286.9274 283.71)">
        <text fill="rgba(0,0,0,1)" stroke="none" dominant-baseline="central" dx=".5" paint-order="stroke">Mexico</text>
      </g>
      <g stroke-width="2" transform="matrix(1 0 0 1 549.7868 261.3088)">
        <circle cx="10" cy="10" r="10" fill="rgba(65,201,226,1)" stroke="rgba(255,255,255,1)" transform="translate(-10 -10)"/>
      </g>
      <g font-size="12" text-anchor="middle" transform="matrix(1 0 0 1 549.7868 261.3088)">
        <text fill="rgba(0,0,0,1)" stroke="none" dominant-baseline="central" dx=".5" paint-order="stroke">Morocco</text>
      </g>
      <g stroke-width="2" transform="matrix(1 0 0 1 429.4565 161.7087)">
        <circle cx="10" cy="10" r="10" fill="rgba(65,201,226,1)" stroke="rgba(255,255,255,1)" transform="translate(-10 -10)"/>
      </g>
      <g font-size="12" text-anchor="middle" transform="matrix(1 0 0 1 429.4565 161.7087)">
        <text fill="rgba(0,0,0,1)" stroke="none" dominant-baseline="central" dx=".5" paint-order="stroke">Nigeria</text>
      </g>
      <g stroke-width="2" transform="matrix(1 0 0 1 398.9428 267.7772)">
        <circle cx="10" cy="10" r="10" fill="rgba(65,201,226,1)" stroke="rgba(255,255,255,1)" transform="translate(-10 -10)"/>
      </g>
      <g font-size="12" text-anchor="middle" transform="matrix(1 0 0 1 398.9428 267.7772)">
        <text fill="rgba(0,0,0,1)" stroke="none" dominant-baseline="central" dx=".5" paint-order="stroke">Panama</text>
      </g>
      <g stroke-width="2" transform="matrix(1 0 0 1 497.0885 211.957)">
        <circle cx="10" cy="10" r="10" fill="rgba(65,201,226,1)" stroke="rgba(255,255,255,1)" transform="translate(-10 -10)"/>
      </g>
      <g font-size="12" text-anchor="middle" transform="matrix(1 0 0 1 497.0885 211.957)">
        <text fill="rgba(0,0,0,1)" stroke="none" dominant-baseline="central" dx=".5" paint-order="stroke">Peru</text>
      </g>
      <g stroke-width="2" transform="matrix(1 0 0 1 413.1534 134.3238)">
        <circle cx="10" cy="10" r="10" fill="rgba(65,201,226,1)" stroke="rgba(255,255,255,1)" transform="translate(-10 -10)"/>
      </g>
      <g font-size="12" text-anchor="middle" transform="matrix(1 0 0 1 413.1534 134.3238)">
        <text fill="rgba(0,0,0,1)" stroke="none" dominant-baseline="central" dx=".5" paint-order="stroke">Poland</text>
      </g>
      <g stroke-width="2" transform="matrix(1 0 0 1 549.981 253.3734)">
        <circle cx="10" cy="10" r="10" fill="rgba(65,201,226,1)" stroke="rgba(255,255,255,1)" transform="translate(-10 -10)"/>
      </g>
      <g font-size="12" text-anchor="middle" transform="matrix(1 0 0 1 549.981 253.3734)">
        <text fill="rgba(0,0,0,1)" stroke="none" dominant-baseline="central" dx=".5" paint-order="stroke">Portugal</text>
      </g>
      <g stroke-width="2" transform="matrix(1 0 0 1 439.2813 185.4043)">
        <circle cx="10" cy="10" r="10" fill="rgba(65,201,226,1)" stroke="rgba(255,255,255,1)" transform="translate(-10 -10)"/>
      </g>
      <g font-size="12" text-anchor="middle" transform="matrix(1 0 0 1 439.2813 185.4043)">
        <text fill="rgba(0,0,0,1)" stroke="none" dominant-baseline="central" dx=".5" paint-order="stroke">Russia</text>
      </g>
      <g stroke-width="2" transform="matrix(1 0 0 1 494.916 199.8392)">
        <circle cx="10" cy="10" r="10" fill="rgba(65,201,226,1)" stroke="rgba(255,255,255,1)" transform="translate(-10 -10)"/>
      </g>
      <g font-size="12" text-anchor="middle" transform="matrix(1 0 0 1 494.916 199.8392)">
        <text fill="rgba(0,0,0,1)" stroke="none" dominant-baseline="central" dx=".5" paint-order="stroke">Saudi Arabia</text>
      </g>
      <g stroke-width="2" transform="matrix(1 0 0 1 411.0814 131.4556)">
        <circle cx="10" cy="10" r="10" fill="rgba(65,201,226,1)" stroke="rgba(255,255,255,1)" transform="translate(-10 -10)"/>
      </g>
      <g font-size="12" text-anchor="middle" transform="matrix(1 0 0 1 411.0814 131.4556)">
        <text fill="rgba(0,0,0,1)" stroke="none" dominant-baseline="central" dx=".5" paint-order="stroke">Senegal</text>
      </g>
      <g stroke-width="2" transform="matrix(1 0 0 1 385.207 314.9542)">
        <circle cx="10" cy="10" r="10" fill="rgba(65,201,226,1)" stroke="rgba(255,255,255,1)" transform="translate(-10 -10)"/>
      </g>
      <g font-size="12" text-anchor="middle" transform="matrix(1 0 0 1 385.207 314.9542)">
        <text fill="rgba(0,0,0,1)" stroke="none" dominant-baseline="central" dx=".5" paint-order="stroke">Serbia</text>
      </g>
      <g stroke-width="2" transform="matrix(1 0 0 1 498.8875 226.441)">
        <circle cx="10" cy="10" r="10" fill="rgba(65,201,226,1)" stroke="rgba(255,255,255,1)" transform="translate(-10 -10)"/>
      </g>
      <g font-size="12" text-anchor="middle" transform="matrix(1 0 0 1 498.8875 226.441)">
        <text fill="rgba(0,0,0,1)" stroke="none" dominant-baseline="central" dx=".5" paint-order="stroke">Spain</text>
      </g>
      <g stroke-width="2" transform="matrix(1 0 0 1 299.8468 246.0892)">
        <circle cx="10" cy="10" r="10" fill="rgba(65,201,226,1)" stroke="rgba(255,255,255,1)" transform="translate(-10 -10)"/>
      </g>
      <g font-size="12" text-anchor="middle" transform="matrix(1 0 0 1 299.8468 246.0892)">
        <text fill="rgba(0,0,0,1)" stroke="none" dominant-baseline="central" dx=".5" paint-order="stroke">Sweden</text>
      </g>
      <g stroke-width="2" transform="matrix(1 0 0 1 330.459 309.383)">
        <circle cx="10" cy="10" r="10" fill="rgba(65,201,226,1)" stroke="rgba(255,255,255,1)" transform="translate(-10 -10)"/>
      </g>
      <g font-size="12" text-anchor="middle" transform="matrix(1 0 0 1 330.459 309.383)">
        <text fill="rgba(0,0,0,1)" stroke="none" dominant-baseline="central" dx=".5" paint-order="stroke">Switzerland</text>
      </g>
      <g stroke-width="2" transform="matrix(1 0 0 1 399.0506 266.8499)">
        <circle cx="10" cy="10" r="10" fill="rgba(65,201,226,1)" stroke="rgba(255,255,255,1)" transform="translate(-10 -10)"/>
      </g>
      <g font-size="12" text-anchor="middle" transform="matrix(1 0 0 1 399.0506 266.8499)">
        <text fill="rgba(0,0,0,1)" stroke="none" dominant-baseline="central" dx=".5" paint-order="stroke">Tunisia</text>
      </g>
      <g stroke-width="2" transform="matrix(1 0 0 1 496.5853 208.8214)">
        <circle cx="10" cy="10" r="10" fill="rgba(65,201,226,1)" stroke="rgba(255,255,255,1)" transform="translate(-10 -10)"/>
      </g>
      <g font-size="12" text-anchor="middle" transform="matrix(1 0 0 1 496.5853 208.8214)">
        <text fill="rgba(0,0,0,1)" stroke="none" dominant-baseline="central" dx=".5" paint-order="stroke">Uruguay</text>
      </g>
    </g>
  </g>
</svg>
