<svg xmlns="http://www.w3.org/2000/svg" width="500" height="500" color-interpolation-filters="sRGB" style="background: transparent;">
  <g transform="matrix(1 0 0 1 0 0)">
    <g fill="none" stroke="none" stroke-dashoffset="0" font-family="sans-serif" font-size="16" font-style="normal" font-variant="normal" font-weight="normal" text-anchor="left" transform="matrix(1 0 0 1 0 0)" visibility="visible">
      <g transform="matrix(1 0 0 1 260.982 100)">
        <line x1="39.0181" x2="0" y1="0" y2="3.8429" fill="none" stroke="rgba(190,190,190,1)"/>
      </g>
      <g transform="matrix(1 0 0 1 300 260.982)">
        <line x1="0" x2="196.1571" y1="239.0181" y2="0" fill="none" stroke="rgba(190,190,190,1)"/>
      </g>
      <g transform="matrix(1 0 0 1 260.982 103.843)">
        <line x1="39.0181" x2="0" y1="396.1571" y2="0" fill="none" stroke="rgba(190,190,190,1)"/>
      </g>
      <g transform="matrix(1 0 0 1 300 100)">
        <line x1="0" x2="196.1571" y1="0" y2="160.9819" fill="none" stroke="rgba(190,190,190,1)"/>
      </g>
      <g transform="matrix(1 0 0 1 260.982 103.843)">
        <line x1="0" x2="235.1751" y1="0" y2="157.139" fill="none" stroke="rgba(190,190,190,1)"/>
      </g>
      <g transform="matrix(1 0 0 1 300 100)">
        <line x1="0" x2="0" y1="400" y2="0" fill="none" stroke="rgba(190,190,190,1)"/>
      </g>
      <g transform="matrix(1 0 0 1 103.843 260.982)">
        <line x1="0" x2="29.8631" y1="0" y2="150.1321" fill="none" stroke="rgba(190,190,190,1)"/>
      </g>
      <g transform="matrix(1 0 0 1 223.4633 115.224)">
        <line x1="187.6507" x2="0" y1="18.482" y2="0" fill="none" stroke="rgba(190,190,190,1)"/>
      </g>
      <g transform="matrix(1 0 0 1 103.843 115.224)">
        <line x1="0" x2="119.6204" y1="145.7578" y2="0" fill="none" stroke="rgba(190,190,190,1)"/>
      </g>
      <g transform="matrix(1 0 0 1 133.706 133.706)">
        <line x1="0" x2="277.408" y1="277.408" y2="0" fill="none" stroke="rgba(190,190,190,1)"/>
      </g>
      <g transform="matrix(1 0 0 1 133.706 115.224)">
        <line x1="89.7572" x2="0" y1="0" y2="295.89" fill="none" stroke="rgba(190,190,190,1)"/>
      </g>
      <g transform="matrix(1 0 0 1 103.843 133.706)">
        <line x1="0" x2="307.2711" y1="127.2759" y2="0" fill="none" stroke="rgba(190,190,190,1)"/>
      </g>
      <g transform="matrix(1 0 0 1 223.4633 339.018)">
        <line x1="272.6937" x2="0" y1="0" y2="145.7578" fill="none" stroke="rgba(190,190,190,1)"/>
      </g>
      <g transform="matrix(1 0 0 1 158.5786 158.5786)">
        <line x1="0" x2="180.4394" y1="0" y2="337.5784" fill="none" stroke="rgba(190,190,190,1)"/>
      </g>
      <g transform="matrix(1 0 0 1 339.018 339.018)">
        <line x1="157.139" x2="0" y1="0" y2="157.139" fill="none" stroke="rgba(190,190,190,1)"/>
      </g>
      <g transform="matrix(1 0 0 1 158.5786 158.5786)">
        <line x1="0" x2="64.8847" y1="0" y2="326.1973" fill="none" stroke="rgba(190,190,190,1)"/>
      </g>
      <g transform="matrix(1 0 0 1 223.4633 484.776)">
        <line x1="0" x2="115.5548" y1="0" y2="11.3811" fill="none" stroke="rgba(190,190,190,1)"/>
      </g>
      <g transform="matrix(1 0 0 1 158.5786 158.5786)">
        <line x1="337.5784" x2="0" y1="180.4394" y2="0" fill="none" stroke="rgba(190,190,190,1)"/>
      </g>
      <g transform="matrix(1 0 0 1 158.5786 300)">
        <line x1="0" x2="341.4214" y1="141.4214" y2="0" fill="none" stroke="rgba(190,190,190,1)"/>
      </g>
      <g transform="matrix(1 0 0 1 115.224 223.4633)">
        <line x1="0" x2="261.3126" y1="0" y2="261.3126" fill="none" stroke="rgba(190,190,190,1)"/>
      </g>
      <g transform="matrix(1 0 0 1 376.5367 300)">
        <line x1="123.4633" x2="0" y1="0" y2="184.7759" fill="none" stroke="rgba(190,190,190,1)"/>
      </g>
      <g transform="matrix(1 0 0 1 115.224 223.4633)">
        <line x1="43.3546" x2="0" y1="217.958" y2="0" fill="none" stroke="rgba(190,190,190,1)"/>
      </g>
      <g transform="matrix(1 0 0 1 115.224 223.4633)">
        <line x1="0" x2="384.7759" y1="0" y2="76.5367" fill="none" stroke="rgba(190,190,190,1)"/>
      </g>
      <g transform="matrix(1 0 0 1 158.5786 441.4214)">
        <line x1="0" x2="217.958" y1="0" y2="43.3546" fill="none" stroke="rgba(190,190,190,1)"/>
      </g>
      <g transform="matrix(1 0 0 1 376.5367 115.224)">
        <line x1="34.5774" x2="0" y1="351.0698" y2="0" fill="none" stroke="rgba(190,190,190,1)"/>
      </g>
      <g transform="matrix(1 0 0 1 466.294 188.886)">
        <line x1="0" x2="0" y1="0" y2="222.2281" fill="none" stroke="rgba(190,190,190,1)"/>
      </g>
      <g transform="matrix(1 0 0 1 411.114 411.114)">
        <line x1="0" x2="55.1799" y1="55.1799" y2="0" fill="none" stroke="rgba(190,190,190,1)"/>
      </g>
      <g transform="matrix(1 0 0 1 376.5367 115.224)">
        <line x1="0" x2="89.7572" y1="0" y2="73.6619" fill="none" stroke="rgba(190,190,190,1)"/>
      </g>
      <g transform="matrix(1 0 0 1 376.5367 115.224)">
        <line x1="0" x2="89.7572" y1="0" y2="295.89" fill="none" stroke="rgba(190,190,190,1)"/>
      </g>
      <g transform="matrix(1 0 0 1 411.114 188.886)">
        <line x1="0" x2="55.1799" y1="277.408" y2="0" fill="none" stroke="rgba(190,190,190,1)"/>
      </g>
      <g transform="matrix(1 0 0 1 100 300)">
        <line x1="88.886" x2="0" y1="166.2939" y2="0" fill="none" stroke="rgba(190,190,190,1)"/>
      </g>
      <g transform="matrix(1 0 0 1 103.843 158.5786)">
        <line x1="0" x2="337.5784" y1="180.4394" y2="0" fill="none" stroke="rgba(190,190,190,1)"/>
      </g>
      <g transform="matrix(1 0 0 1 100 300)">
        <line x1="3.8429" x2="0" y1="39.0181" y2="0" fill="none" stroke="rgba(190,190,190,1)"/>
      </g>
      <g transform="matrix(1 0 0 1 188.886 158.5786)">
        <line x1="252.5354" x2="0" y1="0" y2="307.7153" fill="none" stroke="rgba(190,190,190,1)"/>
      </g>
      <g transform="matrix(1 0 0 1 103.843 339.018)">
        <line x1="85.043" x2="0" y1="127.2759" y2="0" fill="none" stroke="rgba(190,190,190,1)"/>
      </g>
      <g transform="matrix(1 0 0 1 100 158.5786)">
        <line x1="0" x2="341.4214" y1="141.4214" y2="0" fill="none" stroke="rgba(190,190,190,1)"/>
      </g>
      <g transform="matrix(1 0 0 1 133.706 188.886)">
        <line x1="0" x2="351.0698" y1="0" y2="187.6507" fill="none" stroke="rgba(190,190,190,1)"/>
      </g>
      <g transform="matrix(1 0 0 1 260.982 223.4633)">
        <line x1="223.794" x2="0" y1="0" y2="272.6937" fill="none" stroke="rgba(190,190,190,1)"/>
      </g>
      <g transform="matrix(1 0 0 1 484.776 223.4633)">
        <line x1="0" x2="0" y1="0" y2="153.0734" fill="none" stroke="rgba(190,190,190,1)"/>
      </g>
      <g transform="matrix(1 0 0 1 133.706 188.886)">
        <line x1="0" x2="127.2759" y1="0" y2="307.2711" fill="none" stroke="rgba(190,190,190,1)"/>
      </g>
      <g transform="matrix(1 0 0 1 260.982 376.5367)">
        <line x1="0" x2="223.794" y1="119.6204" y2="0" fill="none" stroke="rgba(190,190,190,1)"/>
      </g>
      <g transform="matrix(1 0 0 1 133.706 188.886)">
        <line x1="0" x2="351.0698" y1="0" y2="34.5774" fill="none" stroke="rgba(190,190,190,1)"/>
      </g>
      <g transform="matrix(1 0 0 1 115.224 376.5367)">
        <line x1="326.1973" x2="0" y1="64.8847" y2="0" fill="none" stroke="rgba(190,190,190,1)"/>
      </g>
      <g transform="matrix(1 0 0 1 188.886 103.843)">
        <line x1="0" x2="150.1321" y1="29.8631" y2="0" fill="none" stroke="rgba(190,190,190,1)"/>
      </g>
      <g transform="matrix(1 0 0 1 115.224 103.843)">
        <line x1="223.794" x2="0" y1="0" y2="272.6937" fill="none" stroke="rgba(190,190,190,1)"/>
      </g>
      <g transform="matrix(1 0 0 1 188.886 133.706)">
        <line x1="0" x2="252.5354" y1="0" y2="307.7153" fill="none" stroke="rgba(190,190,190,1)"/>
      </g>
      <g transform="matrix(1 0 0 1 115.224 133.706)">
        <line x1="0" x2="73.6619" y1="242.8306" y2="0" fill="none" stroke="rgba(190,190,190,1)"/>
      </g>
      <g transform="matrix(1 0 0 1 339.018 103.843)">
        <line x1="0" x2="102.4033" y1="0" y2="337.5784" fill="none" stroke="rgba(190,190,190,1)"/>
      </g>
      <g transform="matrix(1 0 0 1 223.4633 115.224)">
        <line x1="0" x2="272.6937" y1="0" y2="145.7578" fill="none" stroke="rgba(190,190,190,1)"/>
      </g>
      <g transform="matrix(1 0 0 1 223.4633 300)">
        <line x1="276.5367" x2="0" y1="0" y2="184.7759" fill="none" stroke="rgba(190,190,190,1)"/>
      </g>
      <g transform="matrix(1 0 0 1 260.982 103.843)">
        <line x1="150.1321" x2="0" y1="29.8631" y2="0" fill="none" stroke="rgba(190,190,190,1)"/>
      </g>
      <g transform="matrix(1 0 0 1 339.018 484.776)">
        <line x1="0" x2="37.5186" y1="11.3811" y2="0" fill="none" stroke="rgba(190,190,190,1)"/>
      </g>
      <g transform="matrix(1 0 0 1 100 300)">
        <line x1="0" x2="366.2939" y1="0" y2="111.114" fill="none" stroke="rgba(190,190,190,1)"/>
      </g>
      <g transform="matrix(1 0 0 1 115.224 376.5367)">
        <line x1="0" x2="369.5518" y1="0" y2="0" fill="none" stroke="rgba(190,190,190,1)"/>
      </g>
      <g transform="matrix(1 0 0 1 441.4214 158.5786)">
        <line x1="24.8726" x2="0" y1="30.3073" y2="0" fill="none" stroke="rgba(190,190,190,1)"/>
      </g>
      <g transform="matrix(1 0 0 1 260.982 441.4214)">
        <line x1="180.4394" x2="0" y1="0" y2="54.7357" fill="none" stroke="rgba(190,190,190,1)"/>
      </g>
      <g transform="matrix(1 0 0 1 223.4633 260.982)">
        <line x1="272.6937" x2="0" y1="0" y2="223.794" fill="none" stroke="rgba(190,190,190,1)"/>
      </g>
      <g transform="matrix(1 0 0 1 466.294 376.5367)">
        <line x1="0" x2="18.482" y1="34.5774" y2="0" fill="none" stroke="rgba(190,190,190,1)"/>
      </g>
      <g transform="matrix(1 0 0 1 260.982 103.843)">
        <line x1="0" x2="115.5548" y1="0" y2="380.933" fill="none" stroke="rgba(190,190,190,1)"/>
      </g>
      <g transform="matrix(1 0 0 1 260.982 158.5786)">
        <line x1="180.4394" x2="0" y1="0" y2="337.5784" fill="none" stroke="rgba(190,190,190,1)"/>
      </g>
      <g transform="matrix(1 0 0 1 223.4633 376.5367)">
        <line x1="261.3126" x2="0" y1="0" y2="108.2392" fill="none" stroke="rgba(190,190,190,1)"/>
      </g>
      <g transform="matrix(1 0 0 1 260.982 484.776)">
        <line x1="0" x2="115.5548" y1="11.3811" y2="0" fill="none" stroke="rgba(190,190,190,1)"/>
      </g>
      <g transform="matrix(1 0 0 1 260.982 376.5367)">
        <line x1="0" x2="223.794" y1="119.6204" y2="0" fill="none" stroke="rgba(190,190,190,1)"/>
      </g>
      <g transform="matrix(1 0 0 1 223.4633 484.776)">
        <line x1="153.0734" x2="0" y1="0" y2="0" fill="none" stroke="rgba(190,190,190,1)"/>
      </g>
      <g stroke-width="2" transform="matrix(1 0 0 1 500 300)">
        <circle cx="10" cy="10" r="10" fill="rgba(65,201,226,1)" stroke="rgba(255,255,255,1)" transform="translate(-10 -10)"/>
      </g>
      <g stroke-width="2" transform="matrix(1 0 0 1 496.157 339.018)">
        <circle cx="10" cy="10" r="10" fill="rgba(65,201,226,1)" stroke="rgba(255,255,255,1)" transform="translate(-10 -10)"/>
      </g>
      <g stroke-width="2" transform="matrix(1 0 0 1 484.776 376.5367)">
        <circle cx="10" cy="10" r="10" fill="rgba(65,201,226,1)" stroke="rgba(255,255,255,1)" transform="translate(-10 -10)"/>
      </g>
      <g stroke-width="2" transform="matrix(1 0 0 1 466.294 411.114)">
        <circle cx="10" cy="10" r="10" fill="rgba(65,201,226,1)" stroke="rgba(255,255,255,1)" transform="translate(-10 -10)"/>
      </g>
      <g stroke-width="2" transform="matrix(1 0 0 1 441.4214 441.4214)">
        <circle cx="10" cy="10" r="10" fill="rgba(65,201,226,1)" stroke="rgba(255,255,255,1)" transform="translate(-10 -10)"/>
      </g>
      <g stroke-width="2" transform="matrix(1 0 0 1 411.114 466.294)">
        <circle cx="10" cy="10" r="10" fill="rgba(65,201,226,1)" stroke="rgba(255,255,255,1)" transform="translate(-10 -10)"/>
      </g>
      <g stroke-width="2" transform="matrix(1 0 0 1 376.5367 484.776)">
        <circle cx="10" cy="10" r="10" fill="rgba(65,201,226,1)" stroke="rgba(255,255,255,1)" transform="translate(-10 -10)"/>
      </g>
      <g stroke-width="2" transform="matrix(1 0 0 1 339.018 496.157)">
        <circle cx="10" cy="10" r="10" fill="rgba(65,201,226,1)" stroke="rgba(255,255,255,1)" transform="translate(-10 -10)"/>
      </g>
      <g stroke-width="2" transform="matrix(1 0 0 1 300 500)">
        <circle cx="10" cy="10" r="10" fill="rgba(65,201,226,1)" stroke="rgba(255,255,255,1)" transform="translate(-10 -10)"/>
      </g>
      <g stroke-width="2" transform="matrix(1 0 0 1 260.982 496.157)">
        <circle cx="10" cy="10" r="10" fill="rgba(65,201,226,1)" stroke="rgba(255,255,255,1)" transform="translate(-10 -10)"/>
      </g>
      <g stroke-width="2" transform="matrix(1 0 0 1 223.4633 484.776)">
        <circle cx="10" cy="10" r="10" fill="rgba(65,201,226,1)" stroke="rgba(255,255,255,1)" transform="translate(-10 -10)"/>
      </g>
      <g stroke-width="2" transform="matrix(1 0 0 1 188.886 466.294)">
        <circle cx="10" cy="10" r="10" fill="rgba(65,201,226,1)" stroke="rgba(255,255,255,1)" transform="translate(-10 -10)"/>
      </g>
      <g stroke-width="2" transform="matrix(1 0 0 1 158.5786 441.4214)">
        <circle cx="10" cy="10" r="10" fill="rgba(65,201,226,1)" stroke="rgba(255,255,255,1)" transform="translate(-10 -10)"/>
      </g>
      <g stroke-width="2" transform="matrix(1 0 0 1 133.706 411.114)">
        <circle cx="10" cy="10" r="10" fill="rgba(65,201,226,1)" stroke="rgba(255,255,255,1)" transform="translate(-10 -10)"/>
      </g>
      <g stroke-width="2" transform="matrix(1 0 0 1 115.224 376.5367)">
        <circle cx="10" cy="10" r="10" fill="rgba(65,201,226,1)" stroke="rgba(255,255,255,1)" transform="translate(-10 -10)"/>
      </g>
      <g stroke-width="2" transform="matrix(1 0 0 1 103.843 339.018)">
        <circle cx="10" cy="10" r="10" fill="rgba(65,201,226,1)" stroke="rgba(255,255,255,1)" transform="translate(-10 -10)"/>
      </g>
      <g stroke-width="2" transform="matrix(1 0 0 1 100 300)">
        <circle cx="10" cy="10" r="10" fill="rgba(65,201,226,1)" stroke="rgba(255,255,255,1)" transform="translate(-10 -10)"/>
      </g>
      <g stroke-width="2" transform="matrix(1 0 0 1 103.843 260.982)">
        <circle cx="10" cy="10" r="10" fill="rgba(65,201,226,1)" stroke="rgba(255,255,255,1)" transform="translate(-10 -10)"/>
      </g>
      <g stroke-width="2" transform="matrix(1 0 0 1 115.224 223.4633)">
        <circle cx="10" cy="10" r="10" fill="rgba(65,201,226,1)" stroke="rgba(255,255,255,1)" transform="translate(-10 -10)"/>
      </g>
      <g stroke-width="2" transform="matrix(1 0 0 1 133.706 188.886)">
        <circle cx="10" cy="10" r="10" fill="rgba(65,201,226,1)" stroke="rgba(255,255,255,1)" transform="translate(-10 -10)"/>
      </g>
      <g stroke-width="2" transform="matrix(1 0 0 1 158.5786 158.5786)">
        <circle cx="10" cy="10" r="10" fill="rgba(65,201,226,1)" stroke="rgba(255,255,255,1)" transform="translate(-10 -10)"/>
      </g>
      <g stroke-width="2" transform="matrix(1 0 0 1 188.886 133.706)">
        <circle cx="10" cy="10" r="10" fill="rgba(65,201,226,1)" stroke="rgba(255,255,255,1)" transform="translate(-10 -10)"/>
      </g>
      <g stroke-width="2" transform="matrix(1 0 0 1 223.4633 115.224)">
        <circle cx="10" cy="10" r="10" fill="rgba(65,201,226,1)" stroke="rgba(255,255,255,1)" transform="translate(-10 -10)"/>
      </g>
      <g stroke-width="2" transform="matrix(1 0 0 1 260.982 103.843)">
        <circle cx="10" cy="10" r="10" fill="rgba(65,201,226,1)" stroke="rgba(255,255,255,1)" transform="translate(-10 -10)"/>
      </g>
      <g stroke-width="2" transform="matrix(1 0 0 1 300 100)">
        <circle cx="10" cy="10" r="10" fill="rgba(65,201,226,1)" stroke="rgba(255,255,255,1)" transform="translate(-10 -10)"/>
      </g>
      <g stroke-width="2" transform="matrix(1 0 0 1 339.018 103.843)">
        <circle cx="10" cy="10" r="10" fill="rgba(65,201,226,1)" stroke="rgba(255,255,255,1)" transform="translate(-10 -10)"/>
      </g>
      <g stroke-width="2" transform="matrix(1 0 0 1 376.5367 115.224)">
        <circle cx="10" cy="10" r="10" fill="rgba(65,201,226,1)" stroke="rgba(255,255,255,1)" transform="translate(-10 -10)"/>
      </g>
      <g stroke-width="2" transform="matrix(1 0 0 1 411.114 133.706)">
        <circle cx="10" cy="10" r="10" fill="rgba(65,201,226,1)" stroke="rgba(255,255,255,1)" transform="translate(-10 -10)"/>
      </g>
      <g stroke-width="2" transform="matrix(1 0 0 1 441.4214 158.5786)">
        <circle cx="10" cy="10" r="10" fill="rgba(65,201,226,1)" stroke="rgba(255,255,255,1)" transform="translate(-10 -10)"/>
      </g>
      <g stroke-width="2" transform="matrix(1 0 0 1 466.294 188.886)">
        <circle cx="10" cy="10" r="10" fill="rgba(65,201,226,1)" stroke="rgba(255,255,255,1)" transform="translate(-10 -10)"/>
      </g>
      <g stroke-width="2" transform="matrix(1 0 0 1 484.776 223.4633)">
        <circle cx="10" cy="10" r="10" fill="rgba(65,201,226,1)" stroke="rgba(255,255,255,1)" transform="translate(-10 -10)"/>
      </g>
      <g stroke-width="2" transform="matrix(1 0 0 1 496.157 260.982)">
        <circle cx="10" cy="10" r="10" fill="rgba(65,201,226,1)" stroke="rgba(255,255,255,1)" transform="translate(-10 -10)"/>
      </g>
      <g transform="matrix(1 0 0 1 260.982 100)">
        <line x1="39.0181" x2="0" y1="0" y2="3.8429" fill="none" stroke="rgba(190,190,190,1)"/>
      </g>
      <g transform="matrix(1 0 0 1 300 260.982)">
        <line x1="0" x2="196.1571" y1="239.0181" y2="0" fill="none" stroke="rgba(190,190,190,1)"/>
      </g>
      <g transform="matrix(1 0 0 1 260.982 103.843)">
        <line x1="39.0181" x2="0" y1="396.1571" y2="0" fill="none" stroke="rgba(190,190,190,1)"/>
      </g>
      <g transform="matrix(1 0 0 1 300 100)">
        <line x1="0" x2="196.1571" y1="0" y2="160.9819" fill="none" stroke="rgba(190,190,190,1)"/>
      </g>
      <g transform="matrix(1 0 0 1 260.982 103.843)">
        <line x1="0" x2="235.1751" y1="0" y2="157.139" fill="none" stroke="rgba(190,190,190,1)"/>
      </g>
      <g transform="matrix(1 0 0 1 300 100)">
        <line x1="0" x2="0" y1="400" y2="0" fill="none" stroke="rgba(190,190,190,1)"/>
      </g>
      <g transform="matrix(1 0 0 1 103.843 260.982)">
        <line x1="0" x2="29.8631" y1="0" y2="150.1321" fill="none" stroke="rgba(190,190,190,1)"/>
      </g>
      <g transform="matrix(1 0 0 1 223.4633 115.224)">
        <line x1="187.6507" x2="0" y1="18.482" y2="0" fill="none" stroke="rgba(190,190,190,1)"/>
      </g>
      <g transform="matrix(1 0 0 1 103.843 115.224)">
        <line x1="0" x2="119.6204" y1="145.7578" y2="0" fill="none" stroke="rgba(190,190,190,1)"/>
      </g>
      <g transform="matrix(1 0 0 1 133.706 133.706)">
        <line x1="0" x2="277.408" y1="277.408" y2="0" fill="none" stroke="rgba(190,190,190,1)"/>
      </g>
      <g transform="matrix(1 0 0 1 133.706 115.224)">
        <line x1="89.7572" x2="0" y1="0" y2="295.89" fill="none" stroke="rgba(190,190,190,1)"/>
      </g>
      <g transform="matrix(1 0 0 1 103.843 133.706)">
        <line x1="0" x2="307.2711" y1="127.2759" y2="0" fill="none" stroke="rgba(190,190,190,1)"/>
      </g>
      <g transform="matrix(1 0 0 1 223.4633 339.018)">
        <line x1="272.6937" x2="0" y1="0" y2="145.7578" fill="none" stroke="rgba(190,190,190,1)"/>
      </g>
      <g transform="matrix(1 0 0 1 158.5786 158.5786)">
        <line x1="0" x2="180.4394" y1="0" y2="337.5784" fill="none" stroke="rgba(190,190,190,1)"/>
      </g>
      <g transform="matrix(1 0 0 1 339.018 339.018)">
        <line x1="157.139" x2="0" y1="0" y2="157.139" fill="none" stroke="rgba(190,190,190,1)"/>
      </g>
      <g transform="matrix(1 0 0 1 158.5786 158.5786)">
        <line x1="0" x2="64.8847" y1="0" y2="326.1973" fill="none" stroke="rgba(190,190,190,1)"/>
      </g>
      <g transform="matrix(1 0 0 1 223.4633 484.776)">
        <line x1="0" x2="115.5548" y1="0" y2="11.3811" fill="none" stroke="rgba(190,190,190,1)"/>
      </g>
      <g transform="matrix(1 0 0 1 158.5786 158.5786)">
        <line x1="337.5784" x2="0" y1="180.4394" y2="0" fill="none" stroke="rgba(190,190,190,1)"/>
      </g>
      <g transform="matrix(1 0 0 1 158.5786 300)">
        <line x1="0" x2="341.4214" y1="141.4214" y2="0" fill="none" stroke="rgba(190,190,190,1)"/>
      </g>
      <g transform="matrix(1 0 0 1 115.224 223.4633)">
        <line x1="0" x2="261.3126" y1="0" y2="261.3126" fill="none" stroke="rgba(190,190,190,1)"/>
      </g>
      <g transform="matrix(1 0 0 1 376.5367 300)">
        <line x1="123.4633" x2="0" y1="0" y2="184.7759" fill="none" stroke="rgba(190,190,190,1)"/>
      </g>
      <g transform="matrix(1 0 0 1 115.224 223.4633)">
        <line x1="43.3546" x2="0" y1="217.958" y2="0" fill="none" stroke="rgba(190,190,190,1)"/>
      </g>
      <g transform="matrix(1 0 0 1 115.224 223.4633)">
        <line x1="0" x2="384.7759" y1="0" y2="76.5367" fill="none" stroke="rgba(190,190,190,1)"/>
      </g>
      <g transform="matrix(1 0 0 1 158.5786 441.4214)">
        <line x1="0" x2="217.958" y1="0" y2="43.3546" fill="none" stroke="rgba(190,190,190,1)"/>
      </g>
      <g transform="matrix(1 0 0 1 376.5367 115.224)">
        <line x1="34.5774" x2="0" y1="351.0698" y2="0" fill="none" stroke="rgba(190,190,190,1)"/>
      </g>
      <g transform="matrix(1 0 0 1 466.294 188.886)">
        <line x1="0" x2="0" y1="0" y2="222.2281" fill="none" stroke="rgba(190,190,190,1)"/>
      </g>
      <g transform="matrix(1 0 0 1 411.114 411.114)">
        <line x1="0" x2="55.1799" y1="55.1799" y2="0" fill="none" stroke="rgba(190,190,190,1)"/>
      </g>
      <g transform="matrix(1 0 0 1 376.5367 115.224)">
        <line x1="0" x2="89.7572" y1="0" y2="73.6619" fill="none" stroke="rgba(190,190,190,1)"/>
      </g>
      <g transform="matrix(1 0 0 1 376.5367 115.224)">
        <line x1="0" x2="89.7572" y1="0" y2="295.89" fill="none" stroke="rgba(190,190,190,1)"/>
      </g>
      <g transform="matrix(1 0 0 1 411.114 188.886)">
        <line x1="0" x2="55.1799" y1="277.408" y2="0" fill="none" stroke="rgba(190,190,190,1)"/>
      </g>
      <g transform="matrix(1 0 0 1 100 300)">
        <line x1="88.886" x2="0" y1="166.2939" y2="0" fill="none" stroke="rgba(190,190,190,1)"/>
      </g>
      <g transform="matrix(1 0 0 1 103.843 158.5786)">
        <line x1="0" x2="337.5784" y1="180.4394" y2="0" fill="none" stroke="rgba(190,190,190,1)"/>
      </g>
      <g transform="matrix(1 0 0 1 100 300)">
        <line x1="3.8429" x2="0" y1="39.0181" y2="0" fill="none" stroke="rgba(190,190,190,1)"/>
      </g>
      <g transform="matrix(1 0 0 1 188.886 158.5786)">
        <line x1="252.5354" x2="0" y1="0" y2="307.7153" fill="none" stroke="rgba(190,190,190,1)"/>
      </g>
      <g transform="matrix(1 0 0 1 103.843 339.018)">
        <line x1="85.043" x2="0" y1="127.2759" y2="0" fill="none" stroke="rgba(190,190,190,1)"/>
      </g>
      <g transform="matrix(1 0 0 1 100 158.5786)">
        <line x1="0" x2="341.4214" y1="141.4214" y2="0" fill="none" stroke="rgba(190,190,190,1)"/>
      </g>
      <g transform="matrix(1 0 0 1 133.706 188.886)">
        <line x1="0" x2="351.0698" y1="0" y2="187.6507" fill="none" stroke="rgba(190,190,190,1)"/>
      </g>
      <g transform="matrix(1 0 0 1 260.982 223.4633)">
        <line x1="223.794" x2="0" y1="0" y2="272.6937" fill="none" stroke="rgba(190,190,190,1)"/>
      </g>
      <g transform="matrix(1 0 0 1 484.776 223.4633)">
        <line x1="0" x2="0" y1="0" y2="153.0734" fill="none" stroke="rgba(190,190,190,1)"/>
      </g>
      <g transform="matrix(1 0 0 1 133.706 188.886)">
        <line x1="0" x2="127.2759" y1="0" y2="307.2711" fill="none" stroke="rgba(190,190,190,1)"/>
      </g>
      <g transform="matrix(1 0 0 1 260.982 376.5367)">
        <line x1="0" x2="223.794" y1="119.6204" y2="0" fill="none" stroke="rgba(190,190,190,1)"/>
      </g>
      <g transform="matrix(1 0 0 1 133.706 188.886)">
        <line x1="0" x2="351.0698" y1="0" y2="34.5774" fill="none" stroke="rgba(190,190,190,1)"/>
      </g>
      <g transform="matrix(1 0 0 1 115.224 376.5367)">
        <line x1="326.1973" x2="0" y1="64.8847" y2="0" fill="none" stroke="rgba(190,190,190,1)"/>
      </g>
      <g transform="matrix(1 0 0 1 188.886 103.843)">
        <line x1="0" x2="150.1321" y1="29.8631" y2="0" fill="none" stroke="rgba(190,190,190,1)"/>
      </g>
      <g transform="matrix(1 0 0 1 115.224 103.843)">
        <line x1="223.794" x2="0" y1="0" y2="272.6937" fill="none" stroke="rgba(190,190,190,1)"/>
      </g>
      <g transform="matrix(1 0 0 1 188.886 133.706)">
        <line x1="0" x2="252.5354" y1="0" y2="307.7153" fill="none" stroke="rgba(190,190,190,1)"/>
      </g>
      <g transform="matrix(1 0 0 1 115.224 133.706)">
        <line x1="0" x2="73.6619" y1="242.8306" y2="0" fill="none" stroke="rgba(190,190,190,1)"/>
      </g>
      <g transform="matrix(1 0 0 1 339.018 103.843)">
        <line x1="0" x2="102.4033" y1="0" y2="337.5784" fill="none" stroke="rgba(190,190,190,1)"/>
      </g>
      <g transform="matrix(1 0 0 1 223.4633 115.224)">
        <line x1="0" x2="272.6937" y1="0" y2="145.7578" fill="none" stroke="rgba(190,190,190,1)"/>
      </g>
      <g transform="matrix(1 0 0 1 223.4633 300)">
        <line x1="276.5367" x2="0" y1="0" y2="184.7759" fill="none" stroke="rgba(190,190,190,1)"/>
      </g>
      <g transform="matrix(1 0 0 1 260.982 103.843)">
        <line x1="150.1321" x2="0" y1="29.8631" y2="0" fill="none" stroke="rgba(190,190,190,1)"/>
      </g>
      <g transform="matrix(1 0 0 1 339.018 484.776)">
        <line x1="0" x2="37.5186" y1="11.3811" y2="0" fill="none" stroke="rgba(190,190,190,1)"/>
      </g>
      <g transform="matrix(1 0 0 1 100 300)">
        <line x1="0" x2="366.2939" y1="0" y2="111.114" fill="none" stroke="rgba(190,190,190,1)"/>
      </g>
      <g transform="matrix(1 0 0 1 115.224 376.5367)">
        <line x1="0" x2="369.5518" y1="0" y2="0" fill="none" stroke="rgba(190,190,190,1)"/>
      </g>
      <g transform="matrix(1 0 0 1 441.4214 158.5786)">
        <line x1="24.8726" x2="0" y1="30.3073" y2="0" fill="none" stroke="rgba(190,190,190,1)"/>
      </g>
      <g transform="matrix(1 0 0 1 260.982 441.4214)">
        <line x1="180.4394" x2="0" y1="0" y2="54.7357" fill="none" stroke="rgba(190,190,190,1)"/>
      </g>
      <g transform="matrix(1 0 0 1 223.4633 260.982)">
        <line x1="272.6937" x2="0" y1="0" y2="223.794" fill="none" stroke="rgba(190,190,190,1)"/>
      </g>
      <g transform="matrix(1 0 0 1 466.294 376.5367)">
        <line x1="0" x2="18.482" y1="34.5774" y2="0" fill="none" stroke="rgba(190,190,190,1)"/>
      </g>
      <g transform="matrix(1 0 0 1 260.982 103.843)">
        <line x1="0" x2="115.5548" y1="0" y2="380.933" fill="none" stroke="rgba(190,190,190,1)"/>
      </g>
      <g transform="matrix(1 0 0 1 260.982 158.5786)">
        <line x1="180.4394" x2="0" y1="0" y2="337.5784" fill="none" stroke="rgba(190,190,190,1)"/>
      </g>
      <g transform="matrix(1 0 0 1 223.4633 376.5367)">
        <line x1="261.3126" x2="0" y1="0" y2="108.2392" fill="none" stroke="rgba(190,190,190,1)"/>
      </g>
      <g transform="matrix(1 0 0 1 260.982 484.776)">
        <line x1="0" x2="115.5548" y1="11.3811" y2="0" fill="none" stroke="rgba(190,190,190,1)"/>
      </g>
      <g transform="matrix(1 0 0 1 260.982 376.5367)">
        <line x1="0" x2="223.794" y1="119.6204" y2="0" fill="none" stroke="rgba(190,190,190,1)"/>
      </g>
      <g transform="matrix(1 0 0 1 223.4633 484.776)">
        <line x1="153.0734" x2="0" y1="0" y2="0" fill="none" stroke="rgba(190,190,190,1)"/>
      </g>
      <g stroke-width="2" transform="matrix(1 0 0 1 500 300)">
        <circle cx="10" cy="10" r="10" fill="rgba(65,201,226,1)" stroke="rgba(255,255,255,1)" transform="translate(-10 -10)"/>
      </g>
      <g stroke-width="2" transform="matrix(1 0 0 1 496.157 339.018)">
        <circle cx="10" cy="10" r="10" fill="rgba(65,201,226,1)" stroke="rgba(255,255,255,1)" transform="translate(-10 -10)"/>
      </g>
      <g stroke-width="2" transform="matrix(1 0 0 1 484.776 376.5367)">
        <circle cx="10" cy="10" r="10" fill="rgba(65,201,226,1)" stroke="rgba(255,255,255,1)" transform="translate(-10 -10)"/>
      </g>
      <g stroke-width="2" transform="matrix(1 0 0 1 466.294 411.114)">
        <circle cx="10" cy="10" r="10" fill="rgba(65,201,226,1)" stroke="rgba(255,255,255,1)" transform="translate(-10 -10)"/>
      </g>
      <g stroke-width="2" transform="matrix(1 0 0 1 441.4214 441.4214)">
        <circle cx="10" cy="10" r="10" fill="rgba(65,201,226,1)" stroke="rgba(255,255,255,1)" transform="translate(-10 -10)"/>
      </g>
      <g stroke-width="2" transform="matrix(1 0 0 1 411.114 466.294)">
        <circle cx="10" cy="10" r="10" fill="rgba(65,201,226,1)" stroke="rgba(255,255,255,1)" transform="translate(-10 -10)"/>
      </g>
      <g stroke-width="2" transform="matrix(1 0 0 1 376.5367 484.776)">
        <circle cx="10" cy="10" r="10" fill="rgba(65,201,226,1)" stroke="rgba(255,255,255,1)" transform="translate(-10 -10)"/>
      </g>
      <g stroke-width="2" transform="matrix(1 0 0 1 339.018 496.157)">
        <circle cx="10" cy="10" r="10" fill="rgba(65,201,226,1)" stroke="rgba(255,255,255,1)" transform="translate(-10 -10)"/>
      </g>
      <g stroke-width="2" transform="matrix(1 0 0 1 300 500)">
        <circle cx="10" cy="10" r="10" fill="rgba(65,201,226,1)" stroke="rgba(255,255,255,1)" transform="translate(-10 -10)"/>
      </g>
      <g stroke-width="2" transform="matrix(1 0 0 1 260.982 496.157)">
        <circle cx="10" cy="10" r="10" fill="rgba(65,201,226,1)" stroke="rgba(255,255,255,1)" transform="translate(-10 -10)"/>
      </g>
      <g stroke-width="2" transform="matrix(1 0 0 1 223.4633 484.776)">
        <circle cx="10" cy="10" r="10" fill="rgba(65,201,226,1)" stroke="rgba(255,255,255,1)" transform="translate(-10 -10)"/>
      </g>
      <g stroke-width="2" transform="matrix(1 0 0 1 188.886 466.294)">
        <circle cx="10" cy="10" r="10" fill="rgba(65,201,226,1)" stroke="rgba(255,255,255,1)" transform="translate(-10 -10)"/>
      </g>
      <g stroke-width="2" transform="matrix(1 0 0 1 158.5786 441.4214)">
        <circle cx="10" cy="10" r="10" fill="rgba(65,201,226,1)" stroke="rgba(255,255,255,1)" transform="translate(-10 -10)"/>
      </g>
      <g stroke-width="2" transform="matrix(1 0 0 1 133.706 411.114)">
        <circle cx="10" cy="10" r="10" fill="rgba(65,201,226,1)" stroke="rgba(255,255,255,1)" transform="translate(-10 -10)"/>
      </g>
      <g stroke-width="2" transform="matrix(1 0 0 1 115.224 376.5367)">
        <circle cx="10" cy="10" r="10" fill="rgba(65,201,226,1)" stroke="rgba(255,255,255,1)" transform="translate(-10 -10)"/>
      </g>
      <g stroke-width="2" transform="matrix(1 0 0 1 103.843 339.018)">
        <circle cx="10" cy="10" r="10" fill="rgba(65,201,226,1)" stroke="rgba(255,255,255,1)" transform="translate(-10 -10)"/>
      </g>
      <g stroke-width="2" transform="matrix(1 0 0 1 100 300)">
        <circle cx="10" cy="10" r="10" fill="rgba(65,201,226,1)" stroke="rgba(255,255,255,1)" transform="translate(-10 -10)"/>
      </g>
      <g stroke-width="2" transform="matrix(1 0 0 1 103.843 260.982)">
        <circle cx="10" cy="10" r="10" fill="rgba(65,201,226,1)" stroke="rgba(255,255,255,1)" transform="translate(-10 -10)"/>
      </g>
      <g stroke-width="2" transform="matrix(1 0 0 1 115.224 223.4633)">
        <circle cx="10" cy="10" r="10" fill="rgba(65,201,226,1)" stroke="rgba(255,255,255,1)" transform="translate(-10 -10)"/>
      </g>
      <g stroke-width="2" transform="matrix(1 0 0 1 133.706 188.886)">
        <circle cx="10" cy="10" r="10" fill="rgba(65,201,226,1)" stroke="rgba(255,255,255,1)" transform="translate(-10 -10)"/>
      </g>
      <g stroke-width="2" transform="matrix(1 0 0 1 158.5786 158.5786)">
        <circle cx="10" cy="10" r="10" fill="rgba(65,201,226,1)" stroke="rgba(255,255,255,1)" transform="translate(-10 -10)"/>
      </g>
      <g stroke-width="2" transform="matrix(1 0 0 1 188.886 133.706)">
        <circle cx="10" cy="10" r="10" fill="rgba(65,201,226,1)" stroke="rgba(255,255,255,1)" transform="translate(-10 -10)"/>
      </g>
      <g stroke-width="2" transform="matrix(1 0 0 1 223.4633 115.224)">
        <circle cx="10" cy="10" r="10" fill="rgba(65,201,226,1)" stroke="rgba(255,255,255,1)" transform="translate(-10 -10)"/>
      </g>
      <g stroke-width="2" transform="matrix(1 0 0 1 260.982 103.843)">
        <circle cx="10" cy="10" r="10" fill="rgba(65,201,226,1)" stroke="rgba(255,255,255,1)" transform="translate(-10 -10)"/>
      </g>
      <g stroke-width="2" transform="matrix(1 0 0 1 300 100)">
        <circle cx="10" cy="10" r="10" fill="rgba(65,201,226,1)" stroke="rgba(255,255,255,1)" transform="translate(-10 -10)"/>
      </g>
      <g stroke-width="2" transform="matrix(1 0 0 1 339.018 103.843)">
        <circle cx="10" cy="10" r="10" fill="rgba(65,201,226,1)" stroke="rgba(255,255,255,1)" transform="translate(-10 -10)"/>
      </g>
      <g stroke-width="2" transform="matrix(1 0 0 1 376.5367 115.224)">
        <circle cx="10" cy="10" r="10" fill="rgba(65,201,226,1)" stroke="rgba(255,255,255,1)" transform="translate(-10 -10)"/>
      </g>
      <g stroke-width="2" transform="matrix(1 0 0 1 411.114 133.706)">
        <circle cx="10" cy="10" r="10" fill="rgba(65,201,226,1)" stroke="rgba(255,255,255,1)" transform="translate(-10 -10)"/>
      </g>
      <g stroke-width="2" transform="matrix(1 0 0 1 441.4214 158.5786)">
        <circle cx="10" cy="10" r="10" fill="rgba(65,201,226,1)" stroke="rgba(255,255,255,1)" transform="translate(-10 -10)"/>
      </g>
      <g stroke-width="2" transform="matrix(1 0 0 1 466.294 188.886)">
        <circle cx="10" cy="10" r="10" fill="rgba(65,201,226,1)" stroke="rgba(255,255,255,1)" transform="translate(-10 -10)"/>
      </g>
      <g stroke-width="2" transform="matrix(1 0 0 1 484.776 223.4633)">
        <circle cx="10" cy="10" r="10" fill="rgba(65,201,226,1)" stroke="rgba(255,255,255,1)" transform="translate(-10 -10)"/>
      </g>
      <g stroke-width="2" transform="matrix(1 0 0 1 496.157 260.982)">
        <circle cx="10" cy="10" r="10" fill="rgba(65,201,226,1)" stroke="rgba(255,255,255,1)" transform="translate(-10 -10)"/>
      </g>
    </g>
  </g>
</svg>
