<svg xmlns="http://www.w3.org/2000/svg" width="500" height="500" color-interpolation-filters="sRGB" style="background: transparent;">
  <g transform="matrix(1 0 0 1 0 0)">
    <g fill="none" stroke="none" stroke-dashoffset="0" font-family="sans-serif" font-size="16" font-style="normal" font-variant="normal" font-weight="normal" text-anchor="left" transform="matrix(1 0 0 1 0 0)" visibility="visible">
      <g stroke-width="4" transform="matrix(1 0 0 1 450 250)">
        <circle cx="10" cy="10" r="10" fill="rgba(24,144,255,1)" stroke="rgba(240,72,100,1)" transform="translate(-10 -10)"/>
      </g>
      <g stroke-width="4" transform="matrix(1 0 0 1 446.157 289.018)">
        <circle cx="10" cy="10" r="10" fill="rgba(24,144,255,1)" stroke="rgba(240,72,100,1)" transform="translate(-10 -10)"/>
      </g>
      <g stroke-width="4" transform="matrix(1 0 0 1 434.776 326.5367)">
        <circle cx="10" cy="10" r="10" fill="rgba(24,144,255,1)" stroke="rgba(240,72,100,1)" transform="translate(-10 -10)"/>
      </g>
      <g stroke-width="4" transform="matrix(1 0 0 1 416.294 361.114)">
        <circle cx="10" cy="10" r="10" fill="rgba(24,144,255,1)" stroke="rgba(240,72,100,1)" transform="translate(-10 -10)"/>
      </g>
      <g stroke-width="4" transform="matrix(1 0 0 1 391.4214 391.4214)">
        <circle cx="10" cy="10" r="10" fill="rgba(24,144,255,1)" stroke="rgba(240,72,100,1)" transform="translate(-10 -10)"/>
      </g>
      <g stroke-width="4" transform="matrix(1 0 0 1 361.114 416.294)">
        <circle cx="10" cy="10" r="10" fill="rgba(24,144,255,1)" stroke="rgba(240,72,100,1)" transform="translate(-10 -10)"/>
      </g>
      <g stroke-width="4" transform="matrix(1 0 0 1 326.5367 434.776)">
        <circle cx="10" cy="10" r="10" fill="rgba(24,144,255,1)" stroke="rgba(240,72,100,1)" transform="translate(-10 -10)"/>
      </g>
      <g stroke-width="4" transform="matrix(1 0 0 1 289.018 446.157)">
        <circle cx="10" cy="10" r="10" fill="rgba(24,144,255,1)" stroke="rgba(240,72,100,1)" transform="translate(-10 -10)"/>
      </g>
      <g stroke-width="4" transform="matrix(1 0 0 1 250 450)">
        <circle cx="10" cy="10" r="10" fill="rgba(24,144,255,1)" stroke="rgba(240,72,100,1)" transform="translate(-10 -10)"/>
      </g>
      <g stroke-width="4" transform="matrix(1 0 0 1 210.982 446.157)">
        <circle cx="10" cy="10" r="10" fill="rgba(24,144,255,1)" stroke="rgba(240,72,100,1)" transform="translate(-10 -10)"/>
      </g>
      <g stroke-width="4" transform="matrix(1 0 0 1 173.4633 434.776)">
        <circle cx="10" cy="10" r="10" fill="rgba(24,144,255,1)" stroke="rgba(240,72,100,1)" transform="translate(-10 -10)"/>
      </g>
      <g stroke-width="4" transform="matrix(1 0 0 1 138.886 416.294)">
        <circle cx="10" cy="10" r="10" fill="rgba(24,144,255,1)" stroke="rgba(240,72,100,1)" transform="translate(-10 -10)"/>
      </g>
      <g stroke-width="4" transform="matrix(1 0 0 1 108.5786 391.4214)">
        <circle cx="10" cy="10" r="10" fill="rgba(24,144,255,1)" stroke="rgba(240,72,100,1)" transform="translate(-10 -10)"/>
      </g>
      <g stroke-width="4" transform="matrix(1 0 0 1 83.706 361.114)">
        <circle cx="10" cy="10" r="10" fill="rgba(24,144,255,1)" stroke="rgba(240,72,100,1)" transform="translate(-10 -10)"/>
      </g>
      <g stroke-width="4" transform="matrix(1 0 0 1 65.224 326.5367)">
        <circle cx="10" cy="10" r="10" fill="rgba(24,144,255,1)" stroke="rgba(240,72,100,1)" transform="translate(-10 -10)"/>
      </g>
      <g stroke-width="4" transform="matrix(1 0 0 1 53.843 289.018)">
        <circle cx="10" cy="10" r="10" fill="rgba(24,144,255,1)" stroke="rgba(240,72,100,1)" transform="translate(-10 -10)"/>
      </g>
      <g stroke-width="4" transform="matrix(1 0 0 1 50 250)">
        <circle cx="10" cy="10" r="10" fill="rgba(24,144,255,1)" stroke="rgba(240,72,100,1)" transform="translate(-10 -10)"/>
      </g>
      <g stroke-width="4" transform="matrix(1 0 0 1 53.843 210.982)">
        <circle cx="10" cy="10" r="10" fill="rgba(24,144,255,1)" stroke="rgba(240,72,100,1)" transform="translate(-10 -10)"/>
      </g>
      <g stroke-width="4" transform="matrix(1 0 0 1 65.224 173.4633)">
        <circle cx="10" cy="10" r="10" fill="rgba(24,144,255,1)" stroke="rgba(240,72,100,1)" transform="translate(-10 -10)"/>
      </g>
      <g stroke-width="4" transform="matrix(1 0 0 1 83.706 138.886)">
        <circle cx="10" cy="10" r="10" fill="rgba(24,144,255,1)" stroke="rgba(240,72,100,1)" transform="translate(-10 -10)"/>
      </g>
      <g stroke-width="4" transform="matrix(1 0 0 1 108.5786 108.5786)">
        <circle cx="10" cy="10" r="10" fill="rgba(24,144,255,1)" stroke="rgba(240,72,100,1)" transform="translate(-10 -10)"/>
      </g>
      <g stroke-width="4" transform="matrix(1 0 0 1 138.886 83.706)">
        <circle cx="10" cy="10" r="10" fill="rgba(24,144,255,1)" stroke="rgba(240,72,100,1)" transform="translate(-10 -10)"/>
      </g>
      <g stroke-width="4" transform="matrix(1 0 0 1 173.4633 65.224)">
        <circle cx="10" cy="10" r="10" fill="rgba(24,144,255,1)" stroke="rgba(240,72,100,1)" transform="translate(-10 -10)"/>
      </g>
      <g stroke-width="4" transform="matrix(1 0 0 1 210.982 53.843)">
        <circle cx="10" cy="10" r="10" fill="rgba(24,144,255,1)" stroke="rgba(240,72,100,1)" transform="translate(-10 -10)"/>
      </g>
      <g stroke-width="4" transform="matrix(1 0 0 1 250 50)">
        <circle cx="10" cy="10" r="10" fill="rgba(24,144,255,1)" stroke="rgba(240,72,100,1)" transform="translate(-10 -10)"/>
      </g>
      <g stroke-width="4" transform="matrix(1 0 0 1 289.018 53.843)">
        <circle cx="10" cy="10" r="10" fill="rgba(24,144,255,1)" stroke="rgba(240,72,100,1)" transform="translate(-10 -10)"/>
      </g>
      <g stroke-width="4" transform="matrix(1 0 0 1 326.5367 65.224)">
        <circle cx="10" cy="10" r="10" fill="rgba(24,144,255,1)" stroke="rgba(240,72,100,1)" transform="translate(-10 -10)"/>
      </g>
      <g stroke-width="4" transform="matrix(1 0 0 1 361.114 83.706)">
        <circle cx="10" cy="10" r="10" fill="rgba(24,144,255,1)" stroke="rgba(240,72,100,1)" transform="translate(-10 -10)"/>
      </g>
      <g stroke-width="4" transform="matrix(1 0 0 1 391.4214 108.5786)">
        <circle cx="10" cy="10" r="10" fill="rgba(24,144,255,1)" stroke="rgba(240,72,100,1)" transform="translate(-10 -10)"/>
      </g>
      <g stroke-width="4" transform="matrix(1 0 0 1 416.294 138.886)">
        <circle cx="10" cy="10" r="10" fill="rgba(24,144,255,1)" stroke="rgba(240,72,100,1)" transform="translate(-10 -10)"/>
      </g>
      <g stroke-width="4" transform="matrix(1 0 0 1 434.776 173.4633)">
        <circle cx="10" cy="10" r="10" fill="rgba(24,144,255,1)" stroke="rgba(240,72,100,1)" transform="translate(-10 -10)"/>
      </g>
      <g stroke-width="4" transform="matrix(1 0 0 1 446.157 210.982)">
        <circle cx="10" cy="10" r="10" fill="rgba(24,144,255,1)" stroke="rgba(240,72,100,1)" transform="translate(-10 -10)"/>
      </g>
      <g stroke-width="4" transform="matrix(1 0 0 1 450 250)">
        <circle cx="10" cy="10" r="10" fill="rgba(24,144,255,1)" stroke="rgba(240,72,100,1)" transform="translate(-10 -10)"/>
      </g>
      <g stroke-width="4" transform="matrix(1 0 0 1 446.157 289.018)">
        <circle cx="10" cy="10" r="10" fill="rgba(24,144,255,1)" stroke="rgba(240,72,100,1)" transform="translate(-10 -10)"/>
      </g>
      <g stroke-width="4" transform="matrix(1 0 0 1 434.776 326.5367)">
        <circle cx="10" cy="10" r="10" fill="rgba(24,144,255,1)" stroke="rgba(240,72,100,1)" transform="translate(-10 -10)"/>
      </g>
      <g stroke-width="4" transform="matrix(1 0 0 1 416.294 361.114)">
        <circle cx="10" cy="10" r="10" fill="rgba(24,144,255,1)" stroke="rgba(240,72,100,1)" transform="translate(-10 -10)"/>
      </g>
      <g stroke-width="4" transform="matrix(1 0 0 1 391.4214 391.4214)">
        <circle cx="10" cy="10" r="10" fill="rgba(24,144,255,1)" stroke="rgba(240,72,100,1)" transform="translate(-10 -10)"/>
      </g>
      <g stroke-width="4" transform="matrix(1 0 0 1 361.114 416.294)">
        <circle cx="10" cy="10" r="10" fill="rgba(24,144,255,1)" stroke="rgba(240,72,100,1)" transform="translate(-10 -10)"/>
      </g>
      <g stroke-width="4" transform="matrix(1 0 0 1 326.5367 434.776)">
        <circle cx="10" cy="10" r="10" fill="rgba(24,144,255,1)" stroke="rgba(240,72,100,1)" transform="translate(-10 -10)"/>
      </g>
      <g stroke-width="4" transform="matrix(1 0 0 1 289.018 446.157)">
        <circle cx="10" cy="10" r="10" fill="rgba(24,144,255,1)" stroke="rgba(240,72,100,1)" transform="translate(-10 -10)"/>
      </g>
      <g stroke-width="4" transform="matrix(1 0 0 1 250 450)">
        <circle cx="10" cy="10" r="10" fill="rgba(24,144,255,1)" stroke="rgba(240,72,100,1)" transform="translate(-10 -10)"/>
      </g>
      <g stroke-width="4" transform="matrix(1 0 0 1 210.982 446.157)">
        <circle cx="10" cy="10" r="10" fill="rgba(24,144,255,1)" stroke="rgba(240,72,100,1)" transform="translate(-10 -10)"/>
      </g>
      <g stroke-width="4" transform="matrix(1 0 0 1 173.4633 434.776)">
        <circle cx="10" cy="10" r="10" fill="rgba(24,144,255,1)" stroke="rgba(240,72,100,1)" transform="translate(-10 -10)"/>
      </g>
      <g stroke-width="4" transform="matrix(1 0 0 1 138.886 416.294)">
        <circle cx="10" cy="10" r="10" fill="rgba(24,144,255,1)" stroke="rgba(240,72,100,1)" transform="translate(-10 -10)"/>
      </g>
      <g stroke-width="4" transform="matrix(1 0 0 1 108.5786 391.4214)">
        <circle cx="10" cy="10" r="10" fill="rgba(24,144,255,1)" stroke="rgba(240,72,100,1)" transform="translate(-10 -10)"/>
      </g>
      <g stroke-width="4" transform="matrix(1 0 0 1 83.706 361.114)">
        <circle cx="10" cy="10" r="10" fill="rgba(24,144,255,1)" stroke="rgba(240,72,100,1)" transform="translate(-10 -10)"/>
      </g>
      <g stroke-width="4" transform="matrix(1 0 0 1 65.224 326.5367)">
        <circle cx="10" cy="10" r="10" fill="rgba(24,144,255,1)" stroke="rgba(240,72,100,1)" transform="translate(-10 -10)"/>
      </g>
      <g stroke-width="4" transform="matrix(1 0 0 1 53.843 289.018)">
        <circle cx="10" cy="10" r="10" fill="rgba(24,144,255,1)" stroke="rgba(240,72,100,1)" transform="translate(-10 -10)"/>
      </g>
      <g stroke-width="4" transform="matrix(1 0 0 1 50 250)">
        <circle cx="10" cy="10" r="10" fill="rgba(24,144,255,1)" stroke="rgba(240,72,100,1)" transform="translate(-10 -10)"/>
      </g>
      <g stroke-width="4" transform="matrix(1 0 0 1 53.843 210.982)">
        <circle cx="10" cy="10" r="10" fill="rgba(24,144,255,1)" stroke="rgba(240,72,100,1)" transform="translate(-10 -10)"/>
      </g>
      <g stroke-width="4" transform="matrix(1 0 0 1 65.224 173.4633)">
        <circle cx="10" cy="10" r="10" fill="rgba(24,144,255,1)" stroke="rgba(240,72,100,1)" transform="translate(-10 -10)"/>
      </g>
      <g stroke-width="4" transform="matrix(1 0 0 1 83.706 138.886)">
        <circle cx="10" cy="10" r="10" fill="rgba(24,144,255,1)" stroke="rgba(240,72,100,1)" transform="translate(-10 -10)"/>
      </g>
      <g stroke-width="4" transform="matrix(1 0 0 1 108.5786 108.5786)">
        <circle cx="10" cy="10" r="10" fill="rgba(24,144,255,1)" stroke="rgba(240,72,100,1)" transform="translate(-10 -10)"/>
      </g>
      <g stroke-width="4" transform="matrix(1 0 0 1 138.886 83.706)">
        <circle cx="10" cy="10" r="10" fill="rgba(24,144,255,1)" stroke="rgba(240,72,100,1)" transform="translate(-10 -10)"/>
      </g>
      <g stroke-width="4" transform="matrix(1 0 0 1 173.4633 65.224)">
        <circle cx="10" cy="10" r="10" fill="rgba(24,144,255,1)" stroke="rgba(240,72,100,1)" transform="translate(-10 -10)"/>
      </g>
      <g stroke-width="4" transform="matrix(1 0 0 1 210.982 53.843)">
        <circle cx="10" cy="10" r="10" fill="rgba(24,144,255,1)" stroke="rgba(240,72,100,1)" transform="translate(-10 -10)"/>
      </g>
      <g stroke-width="4" transform="matrix(1 0 0 1 250 50)">
        <circle cx="10" cy="10" r="10" fill="rgba(24,144,255,1)" stroke="rgba(240,72,100,1)" transform="translate(-10 -10)"/>
      </g>
      <g stroke-width="4" transform="matrix(1 0 0 1 289.018 53.843)">
        <circle cx="10" cy="10" r="10" fill="rgba(24,144,255,1)" stroke="rgba(240,72,100,1)" transform="translate(-10 -10)"/>
      </g>
      <g stroke-width="4" transform="matrix(1 0 0 1 326.5367 65.224)">
        <circle cx="10" cy="10" r="10" fill="rgba(24,144,255,1)" stroke="rgba(240,72,100,1)" transform="translate(-10 -10)"/>
      </g>
      <g stroke-width="4" transform="matrix(1 0 0 1 361.114 83.706)">
        <circle cx="10" cy="10" r="10" fill="rgba(24,144,255,1)" stroke="rgba(240,72,100,1)" transform="translate(-10 -10)"/>
      </g>
      <g stroke-width="4" transform="matrix(1 0 0 1 391.4214 108.5786)">
        <circle cx="10" cy="10" r="10" fill="rgba(24,144,255,1)" stroke="rgba(240,72,100,1)" transform="translate(-10 -10)"/>
      </g>
      <g stroke-width="4" transform="matrix(1 0 0 1 416.294 138.886)">
        <circle cx="10" cy="10" r="10" fill="rgba(24,144,255,1)" stroke="rgba(240,72,100,1)" transform="translate(-10 -10)"/>
      </g>
      <g stroke-width="4" transform="matrix(1 0 0 1 434.776 173.4633)">
        <circle cx="10" cy="10" r="10" fill="rgba(24,144,255,1)" stroke="rgba(240,72,100,1)" transform="translate(-10 -10)"/>
      </g>
      <g stroke-width="4" transform="matrix(1 0 0 1 446.157 210.982)">
        <circle cx="10" cy="10" r="10" fill="rgba(24,144,255,1)" stroke="rgba(240,72,100,1)" transform="translate(-10 -10)"/>
      </g>
    </g>
  </g>
</svg>
