<svg xmlns="http://www.w3.org/2000/svg" width="500" height="500" color-interpolation-filters="sRGB" style="background: transparent;">
  <g transform="matrix(1 0 0 1 0 0)">
    <g fill="none" stroke="none" stroke-dashoffset="0" font-family="sans-serif" font-size="16" font-style="normal" font-variant="normal" font-weight="normal" text-anchor="left" transform="matrix(1 0 0 1 0 0)" visibility="visible">
      <g transform="matrix(1 0 0 1 220 265.359)">
        <line x1="0" x2="100" y1="34.641" y2="0" fill="none" stroke="rgba(128,128,128,1)"/>
      </g>
      <g transform="matrix(1 0 0 1 340 243.4315)">
        <line x1="16.5685" x2="0" y1="0" y2="56.5685" fill="none" stroke="rgba(128,128,128,1)"/>
      </g>
      <g transform="matrix(1 0 0 1 320 243.4315)">
        <line x1="36.5685" x2="0" y1="0" y2="21.9275" fill="none" stroke="rgba(128,128,128,1)"/>
      </g>
      <g transform="matrix(1 0 0 1 220 300)">
        <line x1="0" x2="120" y1="0" y2="0" fill="none" stroke="rgba(128,128,128,1)"/>
      </g>
      <g transform="matrix(1 0 0 1 320 265.359)">
        <line x1="0" x2="20" y1="0" y2="34.641" fill="none" stroke="rgba(128,128,128,1)"/>
      </g>
      <g transform="matrix(1 0 0 1 220 243.4315)">
        <line x1="136.5685" x2="0" y1="0" y2="56.5685" fill="none" stroke="rgba(128,128,128,1)"/>
      </g>
      <g transform="matrix(1 0 0 1 330.6147 330.6147)">
        <line x1="0" x2="43.2957" y1="43.2957" y2="0" fill="none" stroke="rgba(128,128,128,1)"/>
      </g>
      <g transform="matrix(1 0 0 1 260 280)">
        <line x1="5.359" x2="0" y1="0" y2="20" fill="none" stroke="rgba(128,128,128,1)"/>
      </g>
      <g transform="matrix(1 0 0 1 260 300)">
        <line x1="70.6147" x2="0" y1="73.9104" y2="0" fill="none" stroke="rgba(128,128,128,1)"/>
      </g>
      <g transform="matrix(1 0 0 1 265.359 280)">
        <line x1="108.5514" x2="0" y1="50.6147" y2="0" fill="none" stroke="rgba(128,128,128,1)"/>
      </g>
      <g transform="matrix(1 0 0 1 260 300)">
        <line x1="0" x2="113.9104" y1="0" y2="30.6147" fill="none" stroke="rgba(128,128,128,1)"/>
      </g>
      <g transform="matrix(1 0 0 1 265.359 280)">
        <line x1="65.2557" x2="0" y1="93.9104" y2="0" fill="none" stroke="rgba(128,128,128,1)"/>
      </g>
      <g transform="matrix(1 0 0 1 300 220)">
        <line x1="0" x2="0" y1="0" y2="80" fill="none" stroke="rgba(128,128,128,1)"/>
      </g>
      <g transform="matrix(1 0 0 1 243.4315 340)">
        <line x1="0" x2="56.5685" y1="16.5685" y2="0" fill="none" stroke="rgba(128,128,128,1)"/>
      </g>
      <g transform="matrix(1 0 0 1 300 220)">
        <line x1="0" x2="0" y1="0" y2="120" fill="none" stroke="rgba(128,128,128,1)"/>
      </g>
      <g transform="matrix(1 0 0 1 243.4315 300)">
        <line x1="0" x2="56.5685" y1="56.5685" y2="0" fill="none" stroke="rgba(128,128,128,1)"/>
      </g>
      <g transform="matrix(1 0 0 1 300 300)">
        <line x1="0" x2="0" y1="0" y2="40" fill="none" stroke="rgba(128,128,128,1)"/>
      </g>
      <g transform="matrix(1 0 0 1 243.4315 220)">
        <line x1="56.5685" x2="0" y1="0" y2="136.5685" fill="none" stroke="rgba(128,128,128,1)"/>
      </g>
      <g transform="matrix(1 0 0 1 334.641 300)">
        <line x1="45.359" x2="0" y1="0" y2="20" fill="none" stroke="rgba(128,128,128,1)"/>
      </g>
      <g transform="matrix(1 0 0 1 300 300)">
        <line x1="0" x2="0" y1="80" y2="0" fill="none" stroke="rgba(128,128,128,1)"/>
      </g>
      <g transform="matrix(1 0 0 1 300 300)">
        <line x1="34.641" x2="0" y1="20" y2="0" fill="none" stroke="rgba(128,128,128,1)"/>
      </g>
      <g transform="matrix(1 0 0 1 300 300)">
        <line x1="80" x2="0" y1="0" y2="80" fill="none" stroke="rgba(128,128,128,1)"/>
      </g>
      <g transform="matrix(1 0 0 1 300 320)">
        <line x1="0" x2="34.641" y1="60" y2="0" fill="none" stroke="rgba(128,128,128,1)"/>
      </g>
      <g transform="matrix(1 0 0 1 300 300)">
        <line x1="80" x2="0" y1="0" y2="0" fill="none" stroke="rgba(128,128,128,1)"/>
      </g>
      <g transform="matrix(1 0 0 1 243.4315 226.0896)">
        <line x1="87.1832" x2="0" y1="0" y2="17.3418" fill="none" stroke="rgba(128,128,128,1)"/>
      </g>
      <g transform="matrix(1 0 0 1 280 260)">
        <line x1="0" x2="20" y1="5.359" y2="0" fill="none" stroke="rgba(128,128,128,1)"/>
      </g>
      <g transform="matrix(1 0 0 1 300 226.0896)">
        <line x1="30.6147" x2="0" y1="0" y2="33.9104" fill="none" stroke="rgba(128,128,128,1)"/>
      </g>
      <g transform="matrix(1 0 0 1 243.4315 243.4315)">
        <line x1="0" x2="36.5685" y1="0" y2="21.9275" fill="none" stroke="rgba(128,128,128,1)"/>
      </g>
      <g transform="matrix(1 0 0 1 243.4315 243.4315)">
        <line x1="0" x2="56.5685" y1="0" y2="16.5685" fill="none" stroke="rgba(128,128,128,1)"/>
      </g>
      <g transform="matrix(1 0 0 1 280 226.0896)">
        <line x1="50.6147" x2="0" y1="0" y2="39.2693" fill="none" stroke="rgba(128,128,128,1)"/>
      </g>
      <g transform="matrix(1 0 0 1 265.359 269.3853)">
        <line x1="108.5514" x2="0" y1="0" y2="50.6147" fill="none" stroke="rgba(128,128,128,1)"/>
      </g>
      <g transform="matrix(1 0 0 1 334.641 280)">
        <line x1="21.9275" x2="0" y1="76.5685" y2="0" fill="none" stroke="rgba(128,128,128,1)"/>
      </g>
      <g transform="matrix(1 0 0 1 265.359 320)">
        <line x1="91.2096" x2="0" y1="36.5685" y2="0" fill="none" stroke="rgba(128,128,128,1)"/>
      </g>
      <g transform="matrix(1 0 0 1 334.641 269.3853)">
        <line x1="0" x2="39.2693" y1="10.6147" y2="0" fill="none" stroke="rgba(128,128,128,1)"/>
      </g>
      <g transform="matrix(1 0 0 1 356.5685 269.3853)">
        <line x1="17.3418" x2="0" y1="0" y2="87.1832" fill="none" stroke="rgba(128,128,128,1)"/>
      </g>
      <g transform="matrix(1 0 0 1 265.359 280)">
        <line x1="0" x2="69.282" y1="40" y2="0" fill="none" stroke="rgba(128,128,128,1)"/>
      </g>
      <g transform="matrix(1 0 0 1 269.3853 300)">
        <line x1="0" x2="30.6147" y1="73.9104" y2="0" fill="none" stroke="rgba(128,128,128,1)"/>
      </g>
      <g transform="matrix(1 0 0 1 269.3853 226.0896)">
        <line x1="0" x2="30.6147" y1="0" y2="73.9104" fill="none" stroke="rgba(128,128,128,1)"/>
      </g>
      <g transform="matrix(1 0 0 1 269.3853 226.0896)">
        <line x1="0" x2="30.6147" y1="0" y2="73.9104" fill="none" stroke="rgba(128,128,128,1)"/>
      </g>
      <g transform="matrix(1 0 0 1 269.3853 300)">
        <line x1="0" x2="30.6147" y1="73.9104" y2="0" fill="none" stroke="rgba(128,128,128,1)"/>
      </g>
      <g transform="matrix(1 0 0 1 300 300)">
        <line x1="0" x2="0" y1="0" y2="0" fill="none" stroke="rgba(128,128,128,1)"/>
      </g>
      <g transform="matrix(1 0 0 1 269.3853 226.0896)">
        <line x1="0" x2="0" y1="147.8207" y2="0" fill="none" stroke="rgba(128,128,128,1)"/>
      </g>
      <g transform="matrix(1 0 0 1 280 334.641)">
        <line x1="40" x2="0" y1="0" y2="0" fill="none" stroke="rgba(128,128,128,1)"/>
      </g>
      <g transform="matrix(1 0 0 1 226.0896 269.3853)">
        <line x1="0" x2="0" y1="61.2293" y2="0" fill="none" stroke="rgba(128,128,128,1)"/>
      </g>
      <g transform="matrix(1 0 0 1 226.0896 269.3853)">
        <line x1="0" x2="53.9104" y1="0" y2="65.2557" fill="none" stroke="rgba(128,128,128,1)"/>
      </g>
      <g transform="matrix(1 0 0 1 226.0896 330.6147)">
        <line x1="0" x2="93.9104" y1="0" y2="4.0263" fill="none" stroke="rgba(128,128,128,1)"/>
      </g>
      <g transform="matrix(1 0 0 1 226.0896 330.6147)">
        <line x1="53.9104" x2="0" y1="4.0263" y2="0" fill="none" stroke="rgba(128,128,128,1)"/>
      </g>
      <g transform="matrix(1 0 0 1 226.0896 269.3853)">
        <line x1="0" x2="93.9104" y1="0" y2="65.2557" fill="none" stroke="rgba(128,128,128,1)"/>
      </g>
      <g transform="matrix(1 0 0 1 260 300)">
        <line x1="0" x2="80" y1="0" y2="0" fill="none" stroke="rgba(128,128,128,1)"/>
      </g>
      <g transform="matrix(1 0 0 1 300 300)">
        <line x1="34.641" x2="0" y1="20" y2="0" fill="none" stroke="rgba(128,128,128,1)"/>
      </g>
      <g transform="matrix(1 0 0 1 265.359 265.359)">
        <line x1="0" x2="54.641" y1="14.641" y2="0" fill="none" stroke="rgba(128,128,128,1)"/>
      </g>
      <g transform="matrix(1 0 0 1 300 300)">
        <line x1="0" x2="0" y1="40" y2="0" fill="none" stroke="rgba(128,128,128,1)"/>
      </g>
      <g transform="matrix(1 0 0 1 265.359 260)">
        <line x1="0" x2="34.641" y1="60" y2="0" fill="none" stroke="rgba(128,128,128,1)"/>
      </g>
      <g transform="matrix(1 0 0 1 280 300)">
        <line x1="0" x2="20" y1="34.641" y2="0" fill="none" stroke="rgba(128,128,128,1)"/>
      </g>
      <g transform="matrix(1 0 0 1 280 265.359)">
        <line x1="0" x2="54.641" y1="0" y2="14.641" fill="none" stroke="rgba(128,128,128,1)"/>
      </g>
      <g transform="matrix(1 0 0 1 300 300)">
        <line x1="20" x2="0" y1="34.641" y2="0" fill="none" stroke="rgba(128,128,128,1)"/>
      </g>
      <g transform="matrix(1 0 0 1 300 300)">
        <line x1="40" x2="0" y1="0" y2="0" fill="none" stroke="rgba(128,128,128,1)"/>
      </g>
      <g transform="matrix(1 0 0 1 300 260)">
        <line x1="0" x2="0" y1="0" y2="40" fill="none" stroke="rgba(128,128,128,1)"/>
      </g>
      <g transform="matrix(1 0 0 1 300 265.359)">
        <line x1="20" x2="0" y1="0" y2="34.641" fill="none" stroke="rgba(128,128,128,1)"/>
      </g>
      <g transform="matrix(1 0 0 1 300 280)">
        <line x1="34.641" x2="0" y1="0" y2="20" fill="none" stroke="rgba(128,128,128,1)"/>
      </g>
      <g transform="matrix(1 0 0 1 300 300)">
        <line x1="0" x2="0" y1="0" y2="0" fill="none" stroke="rgba(128,128,128,1)"/>
      </g>
      <g transform="matrix(1 0 0 1 300 300)">
        <line x1="0" x2="0" y1="0" y2="0" fill="none" stroke="rgba(128,128,128,1)"/>
      </g>
      <g transform="matrix(1 0 0 1 300 300)">
        <line x1="0" x2="0" y1="0" y2="0" fill="none" stroke="rgba(128,128,128,1)"/>
      </g>
      <g transform="matrix(1 0 0 1 300 300)">
        <line x1="0" x2="0" y1="0" y2="0" fill="none" stroke="rgba(128,128,128,1)"/>
      </g>
      <g stroke-width="2" transform="matrix(1 0 0 1 300 300)">
        <circle cx="10" cy="10" r="10" fill="rgba(207,226,252,1)" stroke="rgba(118,145,241,1)" transform="translate(-10 -10)"/>
      </g>
      <g stroke-width="2" transform="matrix(1 0 0 1 300 300)">
        <circle cx="10" cy="10" r="10" fill="rgba(207,226,252,1)" stroke="rgba(118,145,241,1)" transform="translate(-10 -10)"/>
      </g>
      <g stroke-width="2" transform="matrix(1 0 0 1 300 300)">
        <circle cx="10" cy="10" r="10" fill="rgba(207,226,252,1)" stroke="rgba(118,145,241,1)" transform="translate(-10 -10)"/>
      </g>
      <g stroke-width="2" transform="matrix(1 0 0 1 300 300)">
        <circle cx="10" cy="10" r="10" fill="rgba(207,226,252,1)" stroke="rgba(118,145,241,1)" transform="translate(-10 -10)"/>
      </g>
      <g stroke-width="2" transform="matrix(1 0 0 1 300 260)">
        <circle cx="10" cy="10" r="10" fill="rgba(207,226,252,1)" stroke="rgba(118,145,241,1)" transform="translate(-10 -10)"/>
      </g>
      <g stroke-width="2" transform="matrix(1 0 0 1 320 265.359)">
        <circle cx="10" cy="10" r="10" fill="rgba(207,226,252,1)" stroke="rgba(118,145,241,1)" transform="translate(-10 -10)"/>
      </g>
      <g stroke-width="2" transform="matrix(1 0 0 1 334.641 280)">
        <circle cx="10" cy="10" r="10" fill="rgba(207,226,252,1)" stroke="rgba(118,145,241,1)" transform="translate(-10 -10)"/>
      </g>
      <g stroke-width="2" transform="matrix(1 0 0 1 340 300)">
        <circle cx="10" cy="10" r="10" fill="rgba(207,226,252,1)" stroke="rgba(118,145,241,1)" transform="translate(-10 -10)"/>
      </g>
      <g stroke-width="2" transform="matrix(1 0 0 1 334.641 320)">
        <circle cx="10" cy="10" r="10" fill="rgba(207,226,252,1)" stroke="rgba(118,145,241,1)" transform="translate(-10 -10)"/>
      </g>
      <g stroke-width="2" transform="matrix(1 0 0 1 320 334.641)">
        <circle cx="10" cy="10" r="10" fill="rgba(207,226,252,1)" stroke="rgba(118,145,241,1)" transform="translate(-10 -10)"/>
      </g>
      <g stroke-width="2" transform="matrix(1 0 0 1 300 340)">
        <circle cx="10" cy="10" r="10" fill="rgba(207,226,252,1)" stroke="rgba(118,145,241,1)" transform="translate(-10 -10)"/>
      </g>
      <g stroke-width="2" transform="matrix(1 0 0 1 280 334.641)">
        <circle cx="10" cy="10" r="10" fill="rgba(207,226,252,1)" stroke="rgba(118,145,241,1)" transform="translate(-10 -10)"/>
      </g>
      <g stroke-width="2" transform="matrix(1 0 0 1 265.359 320)">
        <circle cx="10" cy="10" r="10" fill="rgba(207,226,252,1)" stroke="rgba(118,145,241,1)" transform="translate(-10 -10)"/>
      </g>
      <g stroke-width="2" transform="matrix(1 0 0 1 260 300)">
        <circle cx="10" cy="10" r="10" fill="rgba(207,226,252,1)" stroke="rgba(118,145,241,1)" transform="translate(-10 -10)"/>
      </g>
      <g stroke-width="2" transform="matrix(1 0 0 1 265.359 280)">
        <circle cx="10" cy="10" r="10" fill="rgba(207,226,252,1)" stroke="rgba(118,145,241,1)" transform="translate(-10 -10)"/>
      </g>
      <g stroke-width="2" transform="matrix(1 0 0 1 280 265.359)">
        <circle cx="10" cy="10" r="10" fill="rgba(207,226,252,1)" stroke="rgba(118,145,241,1)" transform="translate(-10 -10)"/>
      </g>
      <g stroke-width="2" transform="matrix(1 0 0 1 300 220)">
        <circle cx="10" cy="10" r="10" fill="rgba(207,226,252,1)" stroke="rgba(118,145,241,1)" transform="translate(-10 -10)"/>
      </g>
      <g stroke-width="2" transform="matrix(1 0 0 1 330.6147 226.0896)">
        <circle cx="10" cy="10" r="10" fill="rgba(207,226,252,1)" stroke="rgba(118,145,241,1)" transform="translate(-10 -10)"/>
      </g>
      <g stroke-width="2" transform="matrix(1 0 0 1 356.5685 243.4315)">
        <circle cx="10" cy="10" r="10" fill="rgba(207,226,252,1)" stroke="rgba(118,145,241,1)" transform="translate(-10 -10)"/>
      </g>
      <g stroke-width="2" transform="matrix(1 0 0 1 373.9104 269.3853)">
        <circle cx="10" cy="10" r="10" fill="rgba(207,226,252,1)" stroke="rgba(118,145,241,1)" transform="translate(-10 -10)"/>
      </g>
      <g stroke-width="2" transform="matrix(1 0 0 1 380 300)">
        <circle cx="10" cy="10" r="10" fill="rgba(207,226,252,1)" stroke="rgba(118,145,241,1)" transform="translate(-10 -10)"/>
      </g>
      <g stroke-width="2" transform="matrix(1 0 0 1 373.9104 330.6147)">
        <circle cx="10" cy="10" r="10" fill="rgba(207,226,252,1)" stroke="rgba(118,145,241,1)" transform="translate(-10 -10)"/>
      </g>
      <g stroke-width="2" transform="matrix(1 0 0 1 356.5685 356.5685)">
        <circle cx="10" cy="10" r="10" fill="rgba(207,226,252,1)" stroke="rgba(118,145,241,1)" transform="translate(-10 -10)"/>
      </g>
      <g stroke-width="2" transform="matrix(1 0 0 1 330.6147 373.9104)">
        <circle cx="10" cy="10" r="10" fill="rgba(207,226,252,1)" stroke="rgba(118,145,241,1)" transform="translate(-10 -10)"/>
      </g>
      <g stroke-width="2" transform="matrix(1 0 0 1 300 380)">
        <circle cx="10" cy="10" r="10" fill="rgba(207,226,252,1)" stroke="rgba(118,145,241,1)" transform="translate(-10 -10)"/>
      </g>
      <g stroke-width="2" transform="matrix(1 0 0 1 269.3853 373.9104)">
        <circle cx="10" cy="10" r="10" fill="rgba(207,226,252,1)" stroke="rgba(118,145,241,1)" transform="translate(-10 -10)"/>
      </g>
      <g stroke-width="2" transform="matrix(1 0 0 1 243.4315 356.5685)">
        <circle cx="10" cy="10" r="10" fill="rgba(207,226,252,1)" stroke="rgba(118,145,241,1)" transform="translate(-10 -10)"/>
      </g>
      <g stroke-width="2" transform="matrix(1 0 0 1 226.0896 330.6147)">
        <circle cx="10" cy="10" r="10" fill="rgba(207,226,252,1)" stroke="rgba(118,145,241,1)" transform="translate(-10 -10)"/>
      </g>
      <g stroke-width="2" transform="matrix(1 0 0 1 220 300)">
        <circle cx="10" cy="10" r="10" fill="rgba(207,226,252,1)" stroke="rgba(118,145,241,1)" transform="translate(-10 -10)"/>
      </g>
      <g stroke-width="2" transform="matrix(1 0 0 1 226.0896 269.3853)">
        <circle cx="10" cy="10" r="10" fill="rgba(207,226,252,1)" stroke="rgba(118,145,241,1)" transform="translate(-10 -10)"/>
      </g>
      <g stroke-width="2" transform="matrix(1 0 0 1 243.4315 243.4315)">
        <circle cx="10" cy="10" r="10" fill="rgba(207,226,252,1)" stroke="rgba(118,145,241,1)" transform="translate(-10 -10)"/>
      </g>
      <g stroke-width="2" transform="matrix(1 0 0 1 269.3853 226.0896)">
        <circle cx="10" cy="10" r="10" fill="rgba(207,226,252,1)" stroke="rgba(118,145,241,1)" transform="translate(-10 -10)"/>
      </g>
      <g transform="matrix(1 0 0 1 220 265.359)">
        <line x1="0" x2="100" y1="34.641" y2="0" fill="none" stroke="rgba(128,128,128,1)"/>
      </g>
      <g transform="matrix(1 0 0 1 340 243.4315)">
        <line x1="16.5685" x2="0" y1="0" y2="56.5685" fill="none" stroke="rgba(128,128,128,1)"/>
      </g>
      <g transform="matrix(1 0 0 1 320 243.4315)">
        <line x1="36.5685" x2="0" y1="0" y2="21.9275" fill="none" stroke="rgba(128,128,128,1)"/>
      </g>
      <g transform="matrix(1 0 0 1 220 300)">
        <line x1="0" x2="120" y1="0" y2="0" fill="none" stroke="rgba(128,128,128,1)"/>
      </g>
      <g transform="matrix(1 0 0 1 320 265.359)">
        <line x1="0" x2="20" y1="0" y2="34.641" fill="none" stroke="rgba(128,128,128,1)"/>
      </g>
      <g transform="matrix(1 0 0 1 220 243.4315)">
        <line x1="136.5685" x2="0" y1="0" y2="56.5685" fill="none" stroke="rgba(128,128,128,1)"/>
      </g>
      <g transform="matrix(1 0 0 1 330.6147 330.6147)">
        <line x1="0" x2="43.2957" y1="43.2957" y2="0" fill="none" stroke="rgba(128,128,128,1)"/>
      </g>
      <g transform="matrix(1 0 0 1 260 280)">
        <line x1="5.359" x2="0" y1="0" y2="20" fill="none" stroke="rgba(128,128,128,1)"/>
      </g>
      <g transform="matrix(1 0 0 1 260 300)">
        <line x1="70.6147" x2="0" y1="73.9104" y2="0" fill="none" stroke="rgba(128,128,128,1)"/>
      </g>
      <g transform="matrix(1 0 0 1 265.359 280)">
        <line x1="108.5514" x2="0" y1="50.6147" y2="0" fill="none" stroke="rgba(128,128,128,1)"/>
      </g>
      <g transform="matrix(1 0 0 1 260 300)">
        <line x1="0" x2="113.9104" y1="0" y2="30.6147" fill="none" stroke="rgba(128,128,128,1)"/>
      </g>
      <g transform="matrix(1 0 0 1 265.359 280)">
        <line x1="65.2557" x2="0" y1="93.9104" y2="0" fill="none" stroke="rgba(128,128,128,1)"/>
      </g>
      <g transform="matrix(1 0 0 1 300 220)">
        <line x1="0" x2="0" y1="0" y2="80" fill="none" stroke="rgba(128,128,128,1)"/>
      </g>
      <g transform="matrix(1 0 0 1 243.4315 340)">
        <line x1="0" x2="56.5685" y1="16.5685" y2="0" fill="none" stroke="rgba(128,128,128,1)"/>
      </g>
      <g transform="matrix(1 0 0 1 300 220)">
        <line x1="0" x2="0" y1="0" y2="120" fill="none" stroke="rgba(128,128,128,1)"/>
      </g>
      <g transform="matrix(1 0 0 1 243.4315 300)">
        <line x1="0" x2="56.5685" y1="56.5685" y2="0" fill="none" stroke="rgba(128,128,128,1)"/>
      </g>
      <g transform="matrix(1 0 0 1 300 300)">
        <line x1="0" x2="0" y1="0" y2="40" fill="none" stroke="rgba(128,128,128,1)"/>
      </g>
      <g transform="matrix(1 0 0 1 243.4315 220)">
        <line x1="56.5685" x2="0" y1="0" y2="136.5685" fill="none" stroke="rgba(128,128,128,1)"/>
      </g>
      <g transform="matrix(1 0 0 1 334.641 300)">
        <line x1="45.359" x2="0" y1="0" y2="20" fill="none" stroke="rgba(128,128,128,1)"/>
      </g>
      <g transform="matrix(1 0 0 1 300 300)">
        <line x1="0" x2="0" y1="80" y2="0" fill="none" stroke="rgba(128,128,128,1)"/>
      </g>
      <g transform="matrix(1 0 0 1 300 300)">
        <line x1="34.641" x2="0" y1="20" y2="0" fill="none" stroke="rgba(128,128,128,1)"/>
      </g>
      <g transform="matrix(1 0 0 1 300 300)">
        <line x1="80" x2="0" y1="0" y2="80" fill="none" stroke="rgba(128,128,128,1)"/>
      </g>
      <g transform="matrix(1 0 0 1 300 320)">
        <line x1="0" x2="34.641" y1="60" y2="0" fill="none" stroke="rgba(128,128,128,1)"/>
      </g>
      <g transform="matrix(1 0 0 1 300 300)">
        <line x1="80" x2="0" y1="0" y2="0" fill="none" stroke="rgba(128,128,128,1)"/>
      </g>
      <g transform="matrix(1 0 0 1 243.4315 226.0896)">
        <line x1="87.1832" x2="0" y1="0" y2="17.3418" fill="none" stroke="rgba(128,128,128,1)"/>
      </g>
      <g transform="matrix(1 0 0 1 280 260)">
        <line x1="0" x2="20" y1="5.359" y2="0" fill="none" stroke="rgba(128,128,128,1)"/>
      </g>
      <g transform="matrix(1 0 0 1 300 226.0896)">
        <line x1="30.6147" x2="0" y1="0" y2="33.9104" fill="none" stroke="rgba(128,128,128,1)"/>
      </g>
      <g transform="matrix(1 0 0 1 243.4315 243.4315)">
        <line x1="0" x2="36.5685" y1="0" y2="21.9275" fill="none" stroke="rgba(128,128,128,1)"/>
      </g>
      <g transform="matrix(1 0 0 1 243.4315 243.4315)">
        <line x1="0" x2="56.5685" y1="0" y2="16.5685" fill="none" stroke="rgba(128,128,128,1)"/>
      </g>
      <g transform="matrix(1 0 0 1 280 226.0896)">
        <line x1="50.6147" x2="0" y1="0" y2="39.2693" fill="none" stroke="rgba(128,128,128,1)"/>
      </g>
      <g transform="matrix(1 0 0 1 265.359 269.3853)">
        <line x1="108.5514" x2="0" y1="0" y2="50.6147" fill="none" stroke="rgba(128,128,128,1)"/>
      </g>
      <g transform="matrix(1 0 0 1 334.641 280)">
        <line x1="21.9275" x2="0" y1="76.5685" y2="0" fill="none" stroke="rgba(128,128,128,1)"/>
      </g>
      <g transform="matrix(1 0 0 1 265.359 320)">
        <line x1="91.2096" x2="0" y1="36.5685" y2="0" fill="none" stroke="rgba(128,128,128,1)"/>
      </g>
      <g transform="matrix(1 0 0 1 334.641 269.3853)">
        <line x1="0" x2="39.2693" y1="10.6147" y2="0" fill="none" stroke="rgba(128,128,128,1)"/>
      </g>
      <g transform="matrix(1 0 0 1 356.5685 269.3853)">
        <line x1="17.3418" x2="0" y1="0" y2="87.1832" fill="none" stroke="rgba(128,128,128,1)"/>
      </g>
      <g transform="matrix(1 0 0 1 265.359 280)">
        <line x1="0" x2="69.282" y1="40" y2="0" fill="none" stroke="rgba(128,128,128,1)"/>
      </g>
      <g transform="matrix(1 0 0 1 269.3853 300)">
        <line x1="0" x2="30.6147" y1="73.9104" y2="0" fill="none" stroke="rgba(128,128,128,1)"/>
      </g>
      <g transform="matrix(1 0 0 1 269.3853 226.0896)">
        <line x1="0" x2="30.6147" y1="0" y2="73.9104" fill="none" stroke="rgba(128,128,128,1)"/>
      </g>
      <g transform="matrix(1 0 0 1 269.3853 226.0896)">
        <line x1="0" x2="30.6147" y1="0" y2="73.9104" fill="none" stroke="rgba(128,128,128,1)"/>
      </g>
      <g transform="matrix(1 0 0 1 269.3853 300)">
        <line x1="0" x2="30.6147" y1="73.9104" y2="0" fill="none" stroke="rgba(128,128,128,1)"/>
      </g>
      <g transform="matrix(1 0 0 1 300 300)">
        <line x1="0" x2="0" y1="0" y2="0" fill="none" stroke="rgba(128,128,128,1)"/>
      </g>
      <g transform="matrix(1 0 0 1 269.3853 226.0896)">
        <line x1="0" x2="0" y1="147.8207" y2="0" fill="none" stroke="rgba(128,128,128,1)"/>
      </g>
      <g transform="matrix(1 0 0 1 280 334.641)">
        <line x1="40" x2="0" y1="0" y2="0" fill="none" stroke="rgba(128,128,128,1)"/>
      </g>
      <g transform="matrix(1 0 0 1 226.0896 269.3853)">
        <line x1="0" x2="0" y1="61.2293" y2="0" fill="none" stroke="rgba(128,128,128,1)"/>
      </g>
      <g transform="matrix(1 0 0 1 226.0896 269.3853)">
        <line x1="0" x2="53.9104" y1="0" y2="65.2557" fill="none" stroke="rgba(128,128,128,1)"/>
      </g>
      <g transform="matrix(1 0 0 1 226.0896 330.6147)">
        <line x1="0" x2="93.9104" y1="0" y2="4.0263" fill="none" stroke="rgba(128,128,128,1)"/>
      </g>
      <g transform="matrix(1 0 0 1 226.0896 330.6147)">
        <line x1="53.9104" x2="0" y1="4.0263" y2="0" fill="none" stroke="rgba(128,128,128,1)"/>
      </g>
      <g transform="matrix(1 0 0 1 226.0896 269.3853)">
        <line x1="0" x2="93.9104" y1="0" y2="65.2557" fill="none" stroke="rgba(128,128,128,1)"/>
      </g>
      <g transform="matrix(1 0 0 1 260 300)">
        <line x1="0" x2="80" y1="0" y2="0" fill="none" stroke="rgba(128,128,128,1)"/>
      </g>
      <g transform="matrix(1 0 0 1 300 300)">
        <line x1="34.641" x2="0" y1="20" y2="0" fill="none" stroke="rgba(128,128,128,1)"/>
      </g>
      <g transform="matrix(1 0 0 1 265.359 265.359)">
        <line x1="0" x2="54.641" y1="14.641" y2="0" fill="none" stroke="rgba(128,128,128,1)"/>
      </g>
      <g transform="matrix(1 0 0 1 300 300)">
        <line x1="0" x2="0" y1="40" y2="0" fill="none" stroke="rgba(128,128,128,1)"/>
      </g>
      <g transform="matrix(1 0 0 1 265.359 260)">
        <line x1="0" x2="34.641" y1="60" y2="0" fill="none" stroke="rgba(128,128,128,1)"/>
      </g>
      <g transform="matrix(1 0 0 1 280 300)">
        <line x1="0" x2="20" y1="34.641" y2="0" fill="none" stroke="rgba(128,128,128,1)"/>
      </g>
      <g transform="matrix(1 0 0 1 280 265.359)">
        <line x1="0" x2="54.641" y1="0" y2="14.641" fill="none" stroke="rgba(128,128,128,1)"/>
      </g>
      <g transform="matrix(1 0 0 1 300 300)">
        <line x1="20" x2="0" y1="34.641" y2="0" fill="none" stroke="rgba(128,128,128,1)"/>
      </g>
      <g transform="matrix(1 0 0 1 300 300)">
        <line x1="40" x2="0" y1="0" y2="0" fill="none" stroke="rgba(128,128,128,1)"/>
      </g>
      <g transform="matrix(1 0 0 1 300 260)">
        <line x1="0" x2="0" y1="0" y2="40" fill="none" stroke="rgba(128,128,128,1)"/>
      </g>
      <g transform="matrix(1 0 0 1 300 265.359)">
        <line x1="20" x2="0" y1="0" y2="34.641" fill="none" stroke="rgba(128,128,128,1)"/>
      </g>
      <g transform="matrix(1 0 0 1 300 280)">
        <line x1="34.641" x2="0" y1="0" y2="20" fill="none" stroke="rgba(128,128,128,1)"/>
      </g>
      <g transform="matrix(1 0 0 1 300 300)">
        <line x1="0" x2="0" y1="0" y2="0" fill="none" stroke="rgba(128,128,128,1)"/>
      </g>
      <g transform="matrix(1 0 0 1 300 300)">
        <line x1="0" x2="0" y1="0" y2="0" fill="none" stroke="rgba(128,128,128,1)"/>
      </g>
      <g transform="matrix(1 0 0 1 300 300)">
        <line x1="0" x2="0" y1="0" y2="0" fill="none" stroke="rgba(128,128,128,1)"/>
      </g>
      <g transform="matrix(1 0 0 1 300 300)">
        <line x1="0" x2="0" y1="0" y2="0" fill="none" stroke="rgba(128,128,128,1)"/>
      </g>
      <g stroke-width="2" transform="matrix(1 0 0 1 300 300)">
        <circle cx="10" cy="10" r="10" fill="rgba(207,226,252,1)" stroke="rgba(118,145,241,1)" transform="translate(-10 -10)"/>
      </g>
      <g stroke-width="2" transform="matrix(1 0 0 1 300 300)">
        <circle cx="10" cy="10" r="10" fill="rgba(207,226,252,1)" stroke="rgba(118,145,241,1)" transform="translate(-10 -10)"/>
      </g>
      <g stroke-width="2" transform="matrix(1 0 0 1 300 300)">
        <circle cx="10" cy="10" r="10" fill="rgba(207,226,252,1)" stroke="rgba(118,145,241,1)" transform="translate(-10 -10)"/>
      </g>
      <g stroke-width="2" transform="matrix(1 0 0 1 300 300)">
        <circle cx="10" cy="10" r="10" fill="rgba(207,226,252,1)" stroke="rgba(118,145,241,1)" transform="translate(-10 -10)"/>
      </g>
      <g stroke-width="2" transform="matrix(1 0 0 1 300 260)">
        <circle cx="10" cy="10" r="10" fill="rgba(207,226,252,1)" stroke="rgba(118,145,241,1)" transform="translate(-10 -10)"/>
      </g>
      <g stroke-width="2" transform="matrix(1 0 0 1 320 265.359)">
        <circle cx="10" cy="10" r="10" fill="rgba(207,226,252,1)" stroke="rgba(118,145,241,1)" transform="translate(-10 -10)"/>
      </g>
      <g stroke-width="2" transform="matrix(1 0 0 1 334.641 280)">
        <circle cx="10" cy="10" r="10" fill="rgba(207,226,252,1)" stroke="rgba(118,145,241,1)" transform="translate(-10 -10)"/>
      </g>
      <g stroke-width="2" transform="matrix(1 0 0 1 340 300)">
        <circle cx="10" cy="10" r="10" fill="rgba(207,226,252,1)" stroke="rgba(118,145,241,1)" transform="translate(-10 -10)"/>
      </g>
      <g stroke-width="2" transform="matrix(1 0 0 1 334.641 320)">
        <circle cx="10" cy="10" r="10" fill="rgba(207,226,252,1)" stroke="rgba(118,145,241,1)" transform="translate(-10 -10)"/>
      </g>
      <g stroke-width="2" transform="matrix(1 0 0 1 320 334.641)">
        <circle cx="10" cy="10" r="10" fill="rgba(207,226,252,1)" stroke="rgba(118,145,241,1)" transform="translate(-10 -10)"/>
      </g>
      <g stroke-width="2" transform="matrix(1 0 0 1 300 340)">
        <circle cx="10" cy="10" r="10" fill="rgba(207,226,252,1)" stroke="rgba(118,145,241,1)" transform="translate(-10 -10)"/>
      </g>
      <g stroke-width="2" transform="matrix(1 0 0 1 280 334.641)">
        <circle cx="10" cy="10" r="10" fill="rgba(207,226,252,1)" stroke="rgba(118,145,241,1)" transform="translate(-10 -10)"/>
      </g>
      <g stroke-width="2" transform="matrix(1 0 0 1 265.359 320)">
        <circle cx="10" cy="10" r="10" fill="rgba(207,226,252,1)" stroke="rgba(118,145,241,1)" transform="translate(-10 -10)"/>
      </g>
      <g stroke-width="2" transform="matrix(1 0 0 1 260 300)">
        <circle cx="10" cy="10" r="10" fill="rgba(207,226,252,1)" stroke="rgba(118,145,241,1)" transform="translate(-10 -10)"/>
      </g>
      <g stroke-width="2" transform="matrix(1 0 0 1 265.359 280)">
        <circle cx="10" cy="10" r="10" fill="rgba(207,226,252,1)" stroke="rgba(118,145,241,1)" transform="translate(-10 -10)"/>
      </g>
      <g stroke-width="2" transform="matrix(1 0 0 1 280 265.359)">
        <circle cx="10" cy="10" r="10" fill="rgba(207,226,252,1)" stroke="rgba(118,145,241,1)" transform="translate(-10 -10)"/>
      </g>
      <g stroke-width="2" transform="matrix(1 0 0 1 300 220)">
        <circle cx="10" cy="10" r="10" fill="rgba(207,226,252,1)" stroke="rgba(118,145,241,1)" transform="translate(-10 -10)"/>
      </g>
      <g stroke-width="2" transform="matrix(1 0 0 1 330.6147 226.0896)">
        <circle cx="10" cy="10" r="10" fill="rgba(207,226,252,1)" stroke="rgba(118,145,241,1)" transform="translate(-10 -10)"/>
      </g>
      <g stroke-width="2" transform="matrix(1 0 0 1 356.5685 243.4315)">
        <circle cx="10" cy="10" r="10" fill="rgba(207,226,252,1)" stroke="rgba(118,145,241,1)" transform="translate(-10 -10)"/>
      </g>
      <g stroke-width="2" transform="matrix(1 0 0 1 373.9104 269.3853)">
        <circle cx="10" cy="10" r="10" fill="rgba(207,226,252,1)" stroke="rgba(118,145,241,1)" transform="translate(-10 -10)"/>
      </g>
      <g stroke-width="2" transform="matrix(1 0 0 1 380 300)">
        <circle cx="10" cy="10" r="10" fill="rgba(207,226,252,1)" stroke="rgba(118,145,241,1)" transform="translate(-10 -10)"/>
      </g>
      <g stroke-width="2" transform="matrix(1 0 0 1 373.9104 330.6147)">
        <circle cx="10" cy="10" r="10" fill="rgba(207,226,252,1)" stroke="rgba(118,145,241,1)" transform="translate(-10 -10)"/>
      </g>
      <g stroke-width="2" transform="matrix(1 0 0 1 356.5685 356.5685)">
        <circle cx="10" cy="10" r="10" fill="rgba(207,226,252,1)" stroke="rgba(118,145,241,1)" transform="translate(-10 -10)"/>
      </g>
      <g stroke-width="2" transform="matrix(1 0 0 1 330.6147 373.9104)">
        <circle cx="10" cy="10" r="10" fill="rgba(207,226,252,1)" stroke="rgba(118,145,241,1)" transform="translate(-10 -10)"/>
      </g>
      <g stroke-width="2" transform="matrix(1 0 0 1 300 380)">
        <circle cx="10" cy="10" r="10" fill="rgba(207,226,252,1)" stroke="rgba(118,145,241,1)" transform="translate(-10 -10)"/>
      </g>
      <g stroke-width="2" transform="matrix(1 0 0 1 269.3853 373.9104)">
        <circle cx="10" cy="10" r="10" fill="rgba(207,226,252,1)" stroke="rgba(118,145,241,1)" transform="translate(-10 -10)"/>
      </g>
      <g stroke-width="2" transform="matrix(1 0 0 1 243.4315 356.5685)">
        <circle cx="10" cy="10" r="10" fill="rgba(207,226,252,1)" stroke="rgba(118,145,241,1)" transform="translate(-10 -10)"/>
      </g>
      <g stroke-width="2" transform="matrix(1 0 0 1 226.0896 330.6147)">
        <circle cx="10" cy="10" r="10" fill="rgba(207,226,252,1)" stroke="rgba(118,145,241,1)" transform="translate(-10 -10)"/>
      </g>
      <g stroke-width="2" transform="matrix(1 0 0 1 220 300)">
        <circle cx="10" cy="10" r="10" fill="rgba(207,226,252,1)" stroke="rgba(118,145,241,1)" transform="translate(-10 -10)"/>
      </g>
      <g stroke-width="2" transform="matrix(1 0 0 1 226.0896 269.3853)">
        <circle cx="10" cy="10" r="10" fill="rgba(207,226,252,1)" stroke="rgba(118,145,241,1)" transform="translate(-10 -10)"/>
      </g>
      <g stroke-width="2" transform="matrix(1 0 0 1 243.4315 243.4315)">
        <circle cx="10" cy="10" r="10" fill="rgba(207,226,252,1)" stroke="rgba(118,145,241,1)" transform="translate(-10 -10)"/>
      </g>
      <g stroke-width="2" transform="matrix(1 0 0 1 269.3853 226.0896)">
        <circle cx="10" cy="10" r="10" fill="rgba(207,226,252,1)" stroke="rgba(118,145,241,1)" transform="translate(-10 -10)"/>
      </g>
    </g>
  </g>
</svg>
