<svg xmlns="http://www.w3.org/2000/svg" width="500" height="500" color-interpolation-filters="sRGB" style="background: transparent;">
  <g transform="matrix(1 0 0 1 0 0)">
    <g fill="none" stroke="none" stroke-dashoffset="0" font-family="sans-serif" font-size="16" font-style="normal" font-variant="normal" font-weight="normal" text-anchor="left" transform="matrix(1 0 0 1 0 0)" visibility="visible">
      <g transform="matrix(1 0 0 1 420 500)">
        <line x1="0" x2="100" y1="0" y2="34.641" fill="none" stroke="rgba(128,128,128,1)"/>
      </g>
      <g transform="matrix(1 0 0 1 540 500)">
        <line x1="16.5685" x2="0" y1="56.5685" y2="0" fill="none" stroke="rgba(128,128,128,1)"/>
      </g>
      <g transform="matrix(1 0 0 1 520 534.641)">
        <line x1="36.5685" x2="0" y1="21.9275" y2="0" fill="none" stroke="rgba(128,128,128,1)"/>
      </g>
      <g transform="matrix(1 0 0 1 420 500)">
        <line x1="0" x2="120" y1="0" y2="0" fill="none" stroke="rgba(128,128,128,1)"/>
      </g>
      <g transform="matrix(1 0 0 1 520 500)">
        <line x1="0" x2="20" y1="34.641" y2="0" fill="none" stroke="rgba(128,128,128,1)"/>
      </g>
      <g transform="matrix(1 0 0 1 420 500)">
        <line x1="136.5685" x2="0" y1="56.5685" y2="0" fill="none" stroke="rgba(128,128,128,1)"/>
      </g>
      <g transform="matrix(1 0 0 1 530.6147 426.0896)">
        <line x1="0" x2="43.2957" y1="0" y2="43.2957" fill="none" stroke="rgba(128,128,128,1)"/>
      </g>
      <g transform="matrix(1 0 0 1 460 500)">
        <line x1="5.359" x2="0" y1="20" y2="0" fill="none" stroke="rgba(128,128,128,1)"/>
      </g>
      <g transform="matrix(1 0 0 1 460 426.0896)">
        <line x1="70.6147" x2="0" y1="0" y2="73.9104" fill="none" stroke="rgba(128,128,128,1)"/>
      </g>
      <g transform="matrix(1 0 0 1 465.359 469.3853)">
        <line x1="108.5514" x2="0" y1="0" y2="50.6147" fill="none" stroke="rgba(128,128,128,1)"/>
      </g>
      <g transform="matrix(1 0 0 1 460 469.3853)">
        <line x1="0" x2="113.9104" y1="30.6147" y2="0" fill="none" stroke="rgba(128,128,128,1)"/>
      </g>
      <g transform="matrix(1 0 0 1 465.359 426.0896)">
        <line x1="65.2557" x2="0" y1="0" y2="93.9104" fill="none" stroke="rgba(128,128,128,1)"/>
      </g>
      <g transform="matrix(1 0 0 1 500 500)">
        <line x1="0" x2="0" y1="80" y2="0" fill="none" stroke="rgba(128,128,128,1)"/>
      </g>
      <g transform="matrix(1 0 0 1 443.4315 443.4315)">
        <line x1="0" x2="56.5685" y1="0" y2="16.5685" fill="none" stroke="rgba(128,128,128,1)"/>
      </g>
      <g transform="matrix(1 0 0 1 500 460)">
        <line x1="0" x2="0" y1="120" y2="0" fill="none" stroke="rgba(128,128,128,1)"/>
      </g>
      <g transform="matrix(1 0 0 1 443.4315 443.4315)">
        <line x1="0" x2="56.5685" y1="0" y2="56.5685" fill="none" stroke="rgba(128,128,128,1)"/>
      </g>
      <g transform="matrix(1 0 0 1 500 460)">
        <line x1="0" x2="0" y1="40" y2="0" fill="none" stroke="rgba(128,128,128,1)"/>
      </g>
      <g transform="matrix(1 0 0 1 443.4315 443.4315)">
        <line x1="56.5685" x2="0" y1="136.5685" y2="0" fill="none" stroke="rgba(128,128,128,1)"/>
      </g>
      <g transform="matrix(1 0 0 1 534.641 480)">
        <line x1="45.359" x2="0" y1="20" y2="0" fill="none" stroke="rgba(128,128,128,1)"/>
      </g>
      <g transform="matrix(1 0 0 1 500 420)">
        <line x1="0" x2="0" y1="0" y2="80" fill="none" stroke="rgba(128,128,128,1)"/>
      </g>
      <g transform="matrix(1 0 0 1 500 480)">
        <line x1="34.641" x2="0" y1="0" y2="20" fill="none" stroke="rgba(128,128,128,1)"/>
      </g>
      <g transform="matrix(1 0 0 1 500 420)">
        <line x1="80" x2="0" y1="80" y2="0" fill="none" stroke="rgba(128,128,128,1)"/>
      </g>
      <g transform="matrix(1 0 0 1 500 420)">
        <line x1="0" x2="34.641" y1="0" y2="60" fill="none" stroke="rgba(128,128,128,1)"/>
      </g>
      <g transform="matrix(1 0 0 1 500 500)">
        <line x1="80" x2="0" y1="0" y2="0" fill="none" stroke="rgba(128,128,128,1)"/>
      </g>
      <g transform="matrix(1 0 0 1 443.4315 556.5685)">
        <line x1="87.1832" x2="0" y1="17.3418" y2="0" fill="none" stroke="rgba(128,128,128,1)"/>
      </g>
      <g transform="matrix(1 0 0 1 480 534.641)">
        <line x1="0" x2="20" y1="0" y2="5.359" fill="none" stroke="rgba(128,128,128,1)"/>
      </g>
      <g transform="matrix(1 0 0 1 500 540)">
        <line x1="30.6147" x2="0" y1="33.9104" y2="0" fill="none" stroke="rgba(128,128,128,1)"/>
      </g>
      <g transform="matrix(1 0 0 1 443.4315 534.641)">
        <line x1="0" x2="36.5685" y1="21.9275" y2="0" fill="none" stroke="rgba(128,128,128,1)"/>
      </g>
      <g transform="matrix(1 0 0 1 443.4315 540)">
        <line x1="0" x2="56.5685" y1="16.5685" y2="0" fill="none" stroke="rgba(128,128,128,1)"/>
      </g>
      <g transform="matrix(1 0 0 1 480 534.641)">
        <line x1="50.6147" x2="0" y1="39.2693" y2="0" fill="none" stroke="rgba(128,128,128,1)"/>
      </g>
      <g transform="matrix(1 0 0 1 465.359 480)">
        <line x1="108.5514" x2="0" y1="50.6147" y2="0" fill="none" stroke="rgba(128,128,128,1)"/>
      </g>
      <g transform="matrix(1 0 0 1 534.641 443.4315)">
        <line x1="21.9275" x2="0" y1="0" y2="76.5685" fill="none" stroke="rgba(128,128,128,1)"/>
      </g>
      <g transform="matrix(1 0 0 1 465.359 443.4315)">
        <line x1="91.2096" x2="0" y1="0" y2="36.5685" fill="none" stroke="rgba(128,128,128,1)"/>
      </g>
      <g transform="matrix(1 0 0 1 534.641 520)">
        <line x1="0" x2="39.2693" y1="0" y2="10.6147" fill="none" stroke="rgba(128,128,128,1)"/>
      </g>
      <g transform="matrix(1 0 0 1 556.5685 443.4315)">
        <line x1="17.3418" x2="0" y1="87.1832" y2="0" fill="none" stroke="rgba(128,128,128,1)"/>
      </g>
      <g transform="matrix(1 0 0 1 465.359 480)">
        <line x1="0" x2="69.282" y1="0" y2="40" fill="none" stroke="rgba(128,128,128,1)"/>
      </g>
      <g transform="matrix(1 0 0 1 469.3853 426.0896)">
        <line x1="0" x2="30.6147" y1="0" y2="73.9104" fill="none" stroke="rgba(128,128,128,1)"/>
      </g>
      <g transform="matrix(1 0 0 1 469.3853 500)">
        <line x1="0" x2="30.6147" y1="73.9104" y2="0" fill="none" stroke="rgba(128,128,128,1)"/>
      </g>
      <g transform="matrix(1 0 0 1 469.3853 500)">
        <line x1="0" x2="30.6147" y1="73.9104" y2="0" fill="none" stroke="rgba(128,128,128,1)"/>
      </g>
      <g transform="matrix(1 0 0 1 469.3853 426.0896)">
        <line x1="0" x2="30.6147" y1="0" y2="73.9104" fill="none" stroke="rgba(128,128,128,1)"/>
      </g>
      <g transform="matrix(1 0 0 1 500 500)">
        <line x1="0" x2="0" y1="0" y2="0" fill="none" stroke="rgba(128,128,128,1)"/>
      </g>
      <g transform="matrix(1 0 0 1 469.3853 426.0896)">
        <line x1="0" x2="0" y1="0" y2="147.8207" fill="none" stroke="rgba(128,128,128,1)"/>
      </g>
      <g transform="matrix(1 0 0 1 480 465.359)">
        <line x1="40" x2="0" y1="0" y2="0" fill="none" stroke="rgba(128,128,128,1)"/>
      </g>
      <g transform="matrix(1 0 0 1 426.0896 469.3853)">
        <line x1="0" x2="0" y1="0" y2="61.2293" fill="none" stroke="rgba(128,128,128,1)"/>
      </g>
      <g transform="matrix(1 0 0 1 426.0896 465.359)">
        <line x1="0" x2="53.9104" y1="65.2557" y2="0" fill="none" stroke="rgba(128,128,128,1)"/>
      </g>
      <g transform="matrix(1 0 0 1 426.0896 465.359)">
        <line x1="0" x2="93.9104" y1="4.0263" y2="0" fill="none" stroke="rgba(128,128,128,1)"/>
      </g>
      <g transform="matrix(1 0 0 1 426.0896 465.359)">
        <line x1="53.9104" x2="0" y1="0" y2="4.0263" fill="none" stroke="rgba(128,128,128,1)"/>
      </g>
      <g transform="matrix(1 0 0 1 426.0896 465.359)">
        <line x1="0" x2="93.9104" y1="65.2557" y2="0" fill="none" stroke="rgba(128,128,128,1)"/>
      </g>
      <g transform="matrix(1 0 0 1 460 500)">
        <line x1="0" x2="80" y1="0" y2="0" fill="none" stroke="rgba(128,128,128,1)"/>
      </g>
      <g transform="matrix(1 0 0 1 500 480)">
        <line x1="34.641" x2="0" y1="0" y2="20" fill="none" stroke="rgba(128,128,128,1)"/>
      </g>
      <g transform="matrix(1 0 0 1 465.359 520)">
        <line x1="0" x2="54.641" y1="0" y2="14.641" fill="none" stroke="rgba(128,128,128,1)"/>
      </g>
      <g transform="matrix(1 0 0 1 500 460)">
        <line x1="0" x2="0" y1="0" y2="40" fill="none" stroke="rgba(128,128,128,1)"/>
      </g>
      <g transform="matrix(1 0 0 1 465.359 480)">
        <line x1="0" x2="34.641" y1="0" y2="60" fill="none" stroke="rgba(128,128,128,1)"/>
      </g>
      <g transform="matrix(1 0 0 1 480 465.359)">
        <line x1="0" x2="20" y1="0" y2="34.641" fill="none" stroke="rgba(128,128,128,1)"/>
      </g>
      <g transform="matrix(1 0 0 1 480 520)">
        <line x1="0" x2="54.641" y1="14.641" y2="0" fill="none" stroke="rgba(128,128,128,1)"/>
      </g>
      <g transform="matrix(1 0 0 1 500 465.359)">
        <line x1="20" x2="0" y1="0" y2="34.641" fill="none" stroke="rgba(128,128,128,1)"/>
      </g>
      <g transform="matrix(1 0 0 1 500 500)">
        <line x1="40" x2="0" y1="0" y2="0" fill="none" stroke="rgba(128,128,128,1)"/>
      </g>
      <g transform="matrix(1 0 0 1 500 500)">
        <line x1="0" x2="0" y1="40" y2="0" fill="none" stroke="rgba(128,128,128,1)"/>
      </g>
      <g transform="matrix(1 0 0 1 500 500)">
        <line x1="20" x2="0" y1="34.641" y2="0" fill="none" stroke="rgba(128,128,128,1)"/>
      </g>
      <g transform="matrix(1 0 0 1 500 500)">
        <line x1="34.641" x2="0" y1="20" y2="0" fill="none" stroke="rgba(128,128,128,1)"/>
      </g>
      <g transform="matrix(1 0 0 1 500 500)">
        <line x1="0" x2="0" y1="0" y2="0" fill="none" stroke="rgba(128,128,128,1)"/>
      </g>
      <g transform="matrix(1 0 0 1 500 500)">
        <line x1="0" x2="0" y1="0" y2="0" fill="none" stroke="rgba(128,128,128,1)"/>
      </g>
      <g transform="matrix(1 0 0 1 500 500)">
        <line x1="0" x2="0" y1="0" y2="0" fill="none" stroke="rgba(128,128,128,1)"/>
      </g>
      <g transform="matrix(1 0 0 1 500 500)">
        <line x1="0" x2="0" y1="0" y2="0" fill="none" stroke="rgba(128,128,128,1)"/>
      </g>
      <g stroke-width="2" transform="matrix(1 0 0 1 500 500)">
        <circle cx="10" cy="10" r="10" fill="rgba(207,226,252,1)" stroke="rgba(118,145,241,1)" transform="translate(-10 -10)"/>
      </g>
      <g stroke-width="2" transform="matrix(1 0 0 1 500 500)">
        <circle cx="10" cy="10" r="10" fill="rgba(207,226,252,1)" stroke="rgba(118,145,241,1)" transform="translate(-10 -10)"/>
      </g>
      <g stroke-width="2" transform="matrix(1 0 0 1 500 500)">
        <circle cx="10" cy="10" r="10" fill="rgba(207,226,252,1)" stroke="rgba(118,145,241,1)" transform="translate(-10 -10)"/>
      </g>
      <g stroke-width="2" transform="matrix(1 0 0 1 500 500)">
        <circle cx="10" cy="10" r="10" fill="rgba(207,226,252,1)" stroke="rgba(118,145,241,1)" transform="translate(-10 -10)"/>
      </g>
      <g stroke-width="2" transform="matrix(1 0 0 1 500 540)">
        <circle cx="10" cy="10" r="10" fill="rgba(207,226,252,1)" stroke="rgba(118,145,241,1)" transform="translate(-10 -10)"/>
      </g>
      <g stroke-width="2" transform="matrix(1 0 0 1 520 534.641)">
        <circle cx="10" cy="10" r="10" fill="rgba(207,226,252,1)" stroke="rgba(118,145,241,1)" transform="translate(-10 -10)"/>
      </g>
      <g stroke-width="2" transform="matrix(1 0 0 1 534.641 520)">
        <circle cx="10" cy="10" r="10" fill="rgba(207,226,252,1)" stroke="rgba(118,145,241,1)" transform="translate(-10 -10)"/>
      </g>
      <g stroke-width="2" transform="matrix(1 0 0 1 540 500)">
        <circle cx="10" cy="10" r="10" fill="rgba(207,226,252,1)" stroke="rgba(118,145,241,1)" transform="translate(-10 -10)"/>
      </g>
      <g stroke-width="2" transform="matrix(1 0 0 1 534.641 480)">
        <circle cx="10" cy="10" r="10" fill="rgba(207,226,252,1)" stroke="rgba(118,145,241,1)" transform="translate(-10 -10)"/>
      </g>
      <g stroke-width="2" transform="matrix(1 0 0 1 520 465.359)">
        <circle cx="10" cy="10" r="10" fill="rgba(207,226,252,1)" stroke="rgba(118,145,241,1)" transform="translate(-10 -10)"/>
      </g>
      <g stroke-width="2" transform="matrix(1 0 0 1 500 460)">
        <circle cx="10" cy="10" r="10" fill="rgba(207,226,252,1)" stroke="rgba(118,145,241,1)" transform="translate(-10 -10)"/>
      </g>
      <g stroke-width="2" transform="matrix(1 0 0 1 480 465.359)">
        <circle cx="10" cy="10" r="10" fill="rgba(207,226,252,1)" stroke="rgba(118,145,241,1)" transform="translate(-10 -10)"/>
      </g>
      <g stroke-width="2" transform="matrix(1 0 0 1 465.359 480)">
        <circle cx="10" cy="10" r="10" fill="rgba(207,226,252,1)" stroke="rgba(118,145,241,1)" transform="translate(-10 -10)"/>
      </g>
      <g stroke-width="2" transform="matrix(1 0 0 1 460 500)">
        <circle cx="10" cy="10" r="10" fill="rgba(207,226,252,1)" stroke="rgba(118,145,241,1)" transform="translate(-10 -10)"/>
      </g>
      <g stroke-width="2" transform="matrix(1 0 0 1 465.359 520)">
        <circle cx="10" cy="10" r="10" fill="rgba(207,226,252,1)" stroke="rgba(118,145,241,1)" transform="translate(-10 -10)"/>
      </g>
      <g stroke-width="2" transform="matrix(1 0 0 1 480 534.641)">
        <circle cx="10" cy="10" r="10" fill="rgba(207,226,252,1)" stroke="rgba(118,145,241,1)" transform="translate(-10 -10)"/>
      </g>
      <g stroke-width="2" transform="matrix(1 0 0 1 500 580)">
        <circle cx="10" cy="10" r="10" fill="rgba(207,226,252,1)" stroke="rgba(118,145,241,1)" transform="translate(-10 -10)"/>
      </g>
      <g stroke-width="2" transform="matrix(1 0 0 1 530.6147 573.9103)">
        <circle cx="10" cy="10" r="10" fill="rgba(207,226,252,1)" stroke="rgba(118,145,241,1)" transform="translate(-10 -10)"/>
      </g>
      <g stroke-width="2" transform="matrix(1 0 0 1 556.5685 556.5685)">
        <circle cx="10" cy="10" r="10" fill="rgba(207,226,252,1)" stroke="rgba(118,145,241,1)" transform="translate(-10 -10)"/>
      </g>
      <g stroke-width="2" transform="matrix(1 0 0 1 573.9103 530.6147)">
        <circle cx="10" cy="10" r="10" fill="rgba(207,226,252,1)" stroke="rgba(118,145,241,1)" transform="translate(-10 -10)"/>
      </g>
      <g stroke-width="2" transform="matrix(1 0 0 1 580 500)">
        <circle cx="10" cy="10" r="10" fill="rgba(207,226,252,1)" stroke="rgba(118,145,241,1)" transform="translate(-10 -10)"/>
      </g>
      <g stroke-width="2" transform="matrix(1 0 0 1 573.9103 469.3853)">
        <circle cx="10" cy="10" r="10" fill="rgba(207,226,252,1)" stroke="rgba(118,145,241,1)" transform="translate(-10 -10)"/>
      </g>
      <g stroke-width="2" transform="matrix(1 0 0 1 556.5685 443.4315)">
        <circle cx="10" cy="10" r="10" fill="rgba(207,226,252,1)" stroke="rgba(118,145,241,1)" transform="translate(-10 -10)"/>
      </g>
      <g stroke-width="2" transform="matrix(1 0 0 1 530.6147 426.0896)">
        <circle cx="10" cy="10" r="10" fill="rgba(207,226,252,1)" stroke="rgba(118,145,241,1)" transform="translate(-10 -10)"/>
      </g>
      <g stroke-width="2" transform="matrix(1 0 0 1 500 420)">
        <circle cx="10" cy="10" r="10" fill="rgba(207,226,252,1)" stroke="rgba(118,145,241,1)" transform="translate(-10 -10)"/>
      </g>
      <g stroke-width="2" transform="matrix(1 0 0 1 469.3853 426.0896)">
        <circle cx="10" cy="10" r="10" fill="rgba(207,226,252,1)" stroke="rgba(118,145,241,1)" transform="translate(-10 -10)"/>
      </g>
      <g stroke-width="2" transform="matrix(1 0 0 1 443.4315 443.4315)">
        <circle cx="10" cy="10" r="10" fill="rgba(207,226,252,1)" stroke="rgba(118,145,241,1)" transform="translate(-10 -10)"/>
      </g>
      <g stroke-width="2" transform="matrix(1 0 0 1 426.0896 469.3853)">
        <circle cx="10" cy="10" r="10" fill="rgba(207,226,252,1)" stroke="rgba(118,145,241,1)" transform="translate(-10 -10)"/>
      </g>
      <g stroke-width="2" transform="matrix(1 0 0 1 420 500)">
        <circle cx="10" cy="10" r="10" fill="rgba(207,226,252,1)" stroke="rgba(118,145,241,1)" transform="translate(-10 -10)"/>
      </g>
      <g stroke-width="2" transform="matrix(1 0 0 1 426.0896 530.6147)">
        <circle cx="10" cy="10" r="10" fill="rgba(207,226,252,1)" stroke="rgba(118,145,241,1)" transform="translate(-10 -10)"/>
      </g>
      <g stroke-width="2" transform="matrix(1 0 0 1 443.4315 556.5685)">
        <circle cx="10" cy="10" r="10" fill="rgba(207,226,252,1)" stroke="rgba(118,145,241,1)" transform="translate(-10 -10)"/>
      </g>
      <g stroke-width="2" transform="matrix(1 0 0 1 469.3853 573.9103)">
        <circle cx="10" cy="10" r="10" fill="rgba(207,226,252,1)" stroke="rgba(118,145,241,1)" transform="translate(-10 -10)"/>
      </g>
      <g transform="matrix(1 0 0 1 420 500)">
        <line x1="0" x2="100" y1="0" y2="34.641" fill="none" stroke="rgba(128,128,128,1)"/>
      </g>
      <g transform="matrix(1 0 0 1 540 500)">
        <line x1="16.5685" x2="0" y1="56.5685" y2="0" fill="none" stroke="rgba(128,128,128,1)"/>
      </g>
      <g transform="matrix(1 0 0 1 520 534.641)">
        <line x1="36.5685" x2="0" y1="21.9275" y2="0" fill="none" stroke="rgba(128,128,128,1)"/>
      </g>
      <g transform="matrix(1 0 0 1 420 500)">
        <line x1="0" x2="120" y1="0" y2="0" fill="none" stroke="rgba(128,128,128,1)"/>
      </g>
      <g transform="matrix(1 0 0 1 520 500)">
        <line x1="0" x2="20" y1="34.641" y2="0" fill="none" stroke="rgba(128,128,128,1)"/>
      </g>
      <g transform="matrix(1 0 0 1 420 500)">
        <line x1="136.5685" x2="0" y1="56.5685" y2="0" fill="none" stroke="rgba(128,128,128,1)"/>
      </g>
      <g transform="matrix(1 0 0 1 530.6147 426.0896)">
        <line x1="0" x2="43.2957" y1="0" y2="43.2957" fill="none" stroke="rgba(128,128,128,1)"/>
      </g>
      <g transform="matrix(1 0 0 1 460 500)">
        <line x1="5.359" x2="0" y1="20" y2="0" fill="none" stroke="rgba(128,128,128,1)"/>
      </g>
      <g transform="matrix(1 0 0 1 460 426.0896)">
        <line x1="70.6147" x2="0" y1="0" y2="73.9104" fill="none" stroke="rgba(128,128,128,1)"/>
      </g>
      <g transform="matrix(1 0 0 1 465.359 469.3853)">
        <line x1="108.5514" x2="0" y1="0" y2="50.6147" fill="none" stroke="rgba(128,128,128,1)"/>
      </g>
      <g transform="matrix(1 0 0 1 460 469.3853)">
        <line x1="0" x2="113.9104" y1="30.6147" y2="0" fill="none" stroke="rgba(128,128,128,1)"/>
      </g>
      <g transform="matrix(1 0 0 1 465.359 426.0896)">
        <line x1="65.2557" x2="0" y1="0" y2="93.9104" fill="none" stroke="rgba(128,128,128,1)"/>
      </g>
      <g transform="matrix(1 0 0 1 500 500)">
        <line x1="0" x2="0" y1="80" y2="0" fill="none" stroke="rgba(128,128,128,1)"/>
      </g>
      <g transform="matrix(1 0 0 1 443.4315 443.4315)">
        <line x1="0" x2="56.5685" y1="0" y2="16.5685" fill="none" stroke="rgba(128,128,128,1)"/>
      </g>
      <g transform="matrix(1 0 0 1 500 460)">
        <line x1="0" x2="0" y1="120" y2="0" fill="none" stroke="rgba(128,128,128,1)"/>
      </g>
      <g transform="matrix(1 0 0 1 443.4315 443.4315)">
        <line x1="0" x2="56.5685" y1="0" y2="56.5685" fill="none" stroke="rgba(128,128,128,1)"/>
      </g>
      <g transform="matrix(1 0 0 1 500 460)">
        <line x1="0" x2="0" y1="40" y2="0" fill="none" stroke="rgba(128,128,128,1)"/>
      </g>
      <g transform="matrix(1 0 0 1 443.4315 443.4315)">
        <line x1="56.5685" x2="0" y1="136.5685" y2="0" fill="none" stroke="rgba(128,128,128,1)"/>
      </g>
      <g transform="matrix(1 0 0 1 534.641 480)">
        <line x1="45.359" x2="0" y1="20" y2="0" fill="none" stroke="rgba(128,128,128,1)"/>
      </g>
      <g transform="matrix(1 0 0 1 500 420)">
        <line x1="0" x2="0" y1="0" y2="80" fill="none" stroke="rgba(128,128,128,1)"/>
      </g>
      <g transform="matrix(1 0 0 1 500 480)">
        <line x1="34.641" x2="0" y1="0" y2="20" fill="none" stroke="rgba(128,128,128,1)"/>
      </g>
      <g transform="matrix(1 0 0 1 500 420)">
        <line x1="80" x2="0" y1="80" y2="0" fill="none" stroke="rgba(128,128,128,1)"/>
      </g>
      <g transform="matrix(1 0 0 1 500 420)">
        <line x1="0" x2="34.641" y1="0" y2="60" fill="none" stroke="rgba(128,128,128,1)"/>
      </g>
      <g transform="matrix(1 0 0 1 500 500)">
        <line x1="80" x2="0" y1="0" y2="0" fill="none" stroke="rgba(128,128,128,1)"/>
      </g>
      <g transform="matrix(1 0 0 1 443.4315 556.5685)">
        <line x1="87.1832" x2="0" y1="17.3418" y2="0" fill="none" stroke="rgba(128,128,128,1)"/>
      </g>
      <g transform="matrix(1 0 0 1 480 534.641)">
        <line x1="0" x2="20" y1="0" y2="5.359" fill="none" stroke="rgba(128,128,128,1)"/>
      </g>
      <g transform="matrix(1 0 0 1 500 540)">
        <line x1="30.6147" x2="0" y1="33.9104" y2="0" fill="none" stroke="rgba(128,128,128,1)"/>
      </g>
      <g transform="matrix(1 0 0 1 443.4315 534.641)">
        <line x1="0" x2="36.5685" y1="21.9275" y2="0" fill="none" stroke="rgba(128,128,128,1)"/>
      </g>
      <g transform="matrix(1 0 0 1 443.4315 540)">
        <line x1="0" x2="56.5685" y1="16.5685" y2="0" fill="none" stroke="rgba(128,128,128,1)"/>
      </g>
      <g transform="matrix(1 0 0 1 480 534.641)">
        <line x1="50.6147" x2="0" y1="39.2693" y2="0" fill="none" stroke="rgba(128,128,128,1)"/>
      </g>
      <g transform="matrix(1 0 0 1 465.359 480)">
        <line x1="108.5514" x2="0" y1="50.6147" y2="0" fill="none" stroke="rgba(128,128,128,1)"/>
      </g>
      <g transform="matrix(1 0 0 1 534.641 443.4315)">
        <line x1="21.9275" x2="0" y1="0" y2="76.5685" fill="none" stroke="rgba(128,128,128,1)"/>
      </g>
      <g transform="matrix(1 0 0 1 465.359 443.4315)">
        <line x1="91.2096" x2="0" y1="0" y2="36.5685" fill="none" stroke="rgba(128,128,128,1)"/>
      </g>
      <g transform="matrix(1 0 0 1 534.641 520)">
        <line x1="0" x2="39.2693" y1="0" y2="10.6147" fill="none" stroke="rgba(128,128,128,1)"/>
      </g>
      <g transform="matrix(1 0 0 1 556.5685 443.4315)">
        <line x1="17.3418" x2="0" y1="87.1832" y2="0" fill="none" stroke="rgba(128,128,128,1)"/>
      </g>
      <g transform="matrix(1 0 0 1 465.359 480)">
        <line x1="0" x2="69.282" y1="0" y2="40" fill="none" stroke="rgba(128,128,128,1)"/>
      </g>
      <g transform="matrix(1 0 0 1 469.3853 426.0896)">
        <line x1="0" x2="30.6147" y1="0" y2="73.9104" fill="none" stroke="rgba(128,128,128,1)"/>
      </g>
      <g transform="matrix(1 0 0 1 469.3853 500)">
        <line x1="0" x2="30.6147" y1="73.9104" y2="0" fill="none" stroke="rgba(128,128,128,1)"/>
      </g>
      <g transform="matrix(1 0 0 1 469.3853 500)">
        <line x1="0" x2="30.6147" y1="73.9104" y2="0" fill="none" stroke="rgba(128,128,128,1)"/>
      </g>
      <g transform="matrix(1 0 0 1 469.3853 426.0896)">
        <line x1="0" x2="30.6147" y1="0" y2="73.9104" fill="none" stroke="rgba(128,128,128,1)"/>
      </g>
      <g transform="matrix(1 0 0 1 500 500)">
        <line x1="0" x2="0" y1="0" y2="0" fill="none" stroke="rgba(128,128,128,1)"/>
      </g>
      <g transform="matrix(1 0 0 1 469.3853 426.0896)">
        <line x1="0" x2="0" y1="0" y2="147.8207" fill="none" stroke="rgba(128,128,128,1)"/>
      </g>
      <g transform="matrix(1 0 0 1 480 465.359)">
        <line x1="40" x2="0" y1="0" y2="0" fill="none" stroke="rgba(128,128,128,1)"/>
      </g>
      <g transform="matrix(1 0 0 1 426.0896 469.3853)">
        <line x1="0" x2="0" y1="0" y2="61.2293" fill="none" stroke="rgba(128,128,128,1)"/>
      </g>
      <g transform="matrix(1 0 0 1 426.0896 465.359)">
        <line x1="0" x2="53.9104" y1="65.2557" y2="0" fill="none" stroke="rgba(128,128,128,1)"/>
      </g>
      <g transform="matrix(1 0 0 1 426.0896 465.359)">
        <line x1="0" x2="93.9104" y1="4.0263" y2="0" fill="none" stroke="rgba(128,128,128,1)"/>
      </g>
      <g transform="matrix(1 0 0 1 426.0896 465.359)">
        <line x1="53.9104" x2="0" y1="0" y2="4.0263" fill="none" stroke="rgba(128,128,128,1)"/>
      </g>
      <g transform="matrix(1 0 0 1 426.0896 465.359)">
        <line x1="0" x2="93.9104" y1="65.2557" y2="0" fill="none" stroke="rgba(128,128,128,1)"/>
      </g>
      <g transform="matrix(1 0 0 1 460 500)">
        <line x1="0" x2="80" y1="0" y2="0" fill="none" stroke="rgba(128,128,128,1)"/>
      </g>
      <g transform="matrix(1 0 0 1 500 480)">
        <line x1="34.641" x2="0" y1="0" y2="20" fill="none" stroke="rgba(128,128,128,1)"/>
      </g>
      <g transform="matrix(1 0 0 1 465.359 520)">
        <line x1="0" x2="54.641" y1="0" y2="14.641" fill="none" stroke="rgba(128,128,128,1)"/>
      </g>
      <g transform="matrix(1 0 0 1 500 460)">
        <line x1="0" x2="0" y1="0" y2="40" fill="none" stroke="rgba(128,128,128,1)"/>
      </g>
      <g transform="matrix(1 0 0 1 465.359 480)">
        <line x1="0" x2="34.641" y1="0" y2="60" fill="none" stroke="rgba(128,128,128,1)"/>
      </g>
      <g transform="matrix(1 0 0 1 480 465.359)">
        <line x1="0" x2="20" y1="0" y2="34.641" fill="none" stroke="rgba(128,128,128,1)"/>
      </g>
      <g transform="matrix(1 0 0 1 480 520)">
        <line x1="0" x2="54.641" y1="14.641" y2="0" fill="none" stroke="rgba(128,128,128,1)"/>
      </g>
      <g transform="matrix(1 0 0 1 500 465.359)">
        <line x1="20" x2="0" y1="0" y2="34.641" fill="none" stroke="rgba(128,128,128,1)"/>
      </g>
      <g transform="matrix(1 0 0 1 500 500)">
        <line x1="40" x2="0" y1="0" y2="0" fill="none" stroke="rgba(128,128,128,1)"/>
      </g>
      <g transform="matrix(1 0 0 1 500 500)">
        <line x1="0" x2="0" y1="40" y2="0" fill="none" stroke="rgba(128,128,128,1)"/>
      </g>
      <g transform="matrix(1 0 0 1 500 500)">
        <line x1="20" x2="0" y1="34.641" y2="0" fill="none" stroke="rgba(128,128,128,1)"/>
      </g>
      <g transform="matrix(1 0 0 1 500 500)">
        <line x1="34.641" x2="0" y1="20" y2="0" fill="none" stroke="rgba(128,128,128,1)"/>
      </g>
      <g transform="matrix(1 0 0 1 500 500)">
        <line x1="0" x2="0" y1="0" y2="0" fill="none" stroke="rgba(128,128,128,1)"/>
      </g>
      <g transform="matrix(1 0 0 1 500 500)">
        <line x1="0" x2="0" y1="0" y2="0" fill="none" stroke="rgba(128,128,128,1)"/>
      </g>
      <g transform="matrix(1 0 0 1 500 500)">
        <line x1="0" x2="0" y1="0" y2="0" fill="none" stroke="rgba(128,128,128,1)"/>
      </g>
      <g transform="matrix(1 0 0 1 500 500)">
        <line x1="0" x2="0" y1="0" y2="0" fill="none" stroke="rgba(128,128,128,1)"/>
      </g>
      <g stroke-width="2" transform="matrix(1 0 0 1 500 500)">
        <circle cx="10" cy="10" r="10" fill="rgba(207,226,252,1)" stroke="rgba(118,145,241,1)" transform="translate(-10 -10)"/>
      </g>
      <g stroke-width="2" transform="matrix(1 0 0 1 500 500)">
        <circle cx="10" cy="10" r="10" fill="rgba(207,226,252,1)" stroke="rgba(118,145,241,1)" transform="translate(-10 -10)"/>
      </g>
      <g stroke-width="2" transform="matrix(1 0 0 1 500 500)">
        <circle cx="10" cy="10" r="10" fill="rgba(207,226,252,1)" stroke="rgba(118,145,241,1)" transform="translate(-10 -10)"/>
      </g>
      <g stroke-width="2" transform="matrix(1 0 0 1 500 500)">
        <circle cx="10" cy="10" r="10" fill="rgba(207,226,252,1)" stroke="rgba(118,145,241,1)" transform="translate(-10 -10)"/>
      </g>
      <g stroke-width="2" transform="matrix(1 0 0 1 500 540)">
        <circle cx="10" cy="10" r="10" fill="rgba(207,226,252,1)" stroke="rgba(118,145,241,1)" transform="translate(-10 -10)"/>
      </g>
      <g stroke-width="2" transform="matrix(1 0 0 1 520 534.641)">
        <circle cx="10" cy="10" r="10" fill="rgba(207,226,252,1)" stroke="rgba(118,145,241,1)" transform="translate(-10 -10)"/>
      </g>
      <g stroke-width="2" transform="matrix(1 0 0 1 534.641 520)">
        <circle cx="10" cy="10" r="10" fill="rgba(207,226,252,1)" stroke="rgba(118,145,241,1)" transform="translate(-10 -10)"/>
      </g>
      <g stroke-width="2" transform="matrix(1 0 0 1 540 500)">
        <circle cx="10" cy="10" r="10" fill="rgba(207,226,252,1)" stroke="rgba(118,145,241,1)" transform="translate(-10 -10)"/>
      </g>
      <g stroke-width="2" transform="matrix(1 0 0 1 534.641 480)">
        <circle cx="10" cy="10" r="10" fill="rgba(207,226,252,1)" stroke="rgba(118,145,241,1)" transform="translate(-10 -10)"/>
      </g>
      <g stroke-width="2" transform="matrix(1 0 0 1 520 465.359)">
        <circle cx="10" cy="10" r="10" fill="rgba(207,226,252,1)" stroke="rgba(118,145,241,1)" transform="translate(-10 -10)"/>
      </g>
      <g stroke-width="2" transform="matrix(1 0 0 1 500 460)">
        <circle cx="10" cy="10" r="10" fill="rgba(207,226,252,1)" stroke="rgba(118,145,241,1)" transform="translate(-10 -10)"/>
      </g>
      <g stroke-width="2" transform="matrix(1 0 0 1 480 465.359)">
        <circle cx="10" cy="10" r="10" fill="rgba(207,226,252,1)" stroke="rgba(118,145,241,1)" transform="translate(-10 -10)"/>
      </g>
      <g stroke-width="2" transform="matrix(1 0 0 1 465.359 480)">
        <circle cx="10" cy="10" r="10" fill="rgba(207,226,252,1)" stroke="rgba(118,145,241,1)" transform="translate(-10 -10)"/>
      </g>
      <g stroke-width="2" transform="matrix(1 0 0 1 460 500)">
        <circle cx="10" cy="10" r="10" fill="rgba(207,226,252,1)" stroke="rgba(118,145,241,1)" transform="translate(-10 -10)"/>
      </g>
      <g stroke-width="2" transform="matrix(1 0 0 1 465.359 520)">
        <circle cx="10" cy="10" r="10" fill="rgba(207,226,252,1)" stroke="rgba(118,145,241,1)" transform="translate(-10 -10)"/>
      </g>
      <g stroke-width="2" transform="matrix(1 0 0 1 480 534.641)">
        <circle cx="10" cy="10" r="10" fill="rgba(207,226,252,1)" stroke="rgba(118,145,241,1)" transform="translate(-10 -10)"/>
      </g>
      <g stroke-width="2" transform="matrix(1 0 0 1 500 580)">
        <circle cx="10" cy="10" r="10" fill="rgba(207,226,252,1)" stroke="rgba(118,145,241,1)" transform="translate(-10 -10)"/>
      </g>
      <g stroke-width="2" transform="matrix(1 0 0 1 530.6147 573.9103)">
        <circle cx="10" cy="10" r="10" fill="rgba(207,226,252,1)" stroke="rgba(118,145,241,1)" transform="translate(-10 -10)"/>
      </g>
      <g stroke-width="2" transform="matrix(1 0 0 1 556.5685 556.5685)">
        <circle cx="10" cy="10" r="10" fill="rgba(207,226,252,1)" stroke="rgba(118,145,241,1)" transform="translate(-10 -10)"/>
      </g>
      <g stroke-width="2" transform="matrix(1 0 0 1 573.9103 530.6147)">
        <circle cx="10" cy="10" r="10" fill="rgba(207,226,252,1)" stroke="rgba(118,145,241,1)" transform="translate(-10 -10)"/>
      </g>
      <g stroke-width="2" transform="matrix(1 0 0 1 580 500)">
        <circle cx="10" cy="10" r="10" fill="rgba(207,226,252,1)" stroke="rgba(118,145,241,1)" transform="translate(-10 -10)"/>
      </g>
      <g stroke-width="2" transform="matrix(1 0 0 1 573.9103 469.3853)">
        <circle cx="10" cy="10" r="10" fill="rgba(207,226,252,1)" stroke="rgba(118,145,241,1)" transform="translate(-10 -10)"/>
      </g>
      <g stroke-width="2" transform="matrix(1 0 0 1 556.5685 443.4315)">
        <circle cx="10" cy="10" r="10" fill="rgba(207,226,252,1)" stroke="rgba(118,145,241,1)" transform="translate(-10 -10)"/>
      </g>
      <g stroke-width="2" transform="matrix(1 0 0 1 530.6147 426.0896)">
        <circle cx="10" cy="10" r="10" fill="rgba(207,226,252,1)" stroke="rgba(118,145,241,1)" transform="translate(-10 -10)"/>
      </g>
      <g stroke-width="2" transform="matrix(1 0 0 1 500 420)">
        <circle cx="10" cy="10" r="10" fill="rgba(207,226,252,1)" stroke="rgba(118,145,241,1)" transform="translate(-10 -10)"/>
      </g>
      <g stroke-width="2" transform="matrix(1 0 0 1 469.3853 426.0896)">
        <circle cx="10" cy="10" r="10" fill="rgba(207,226,252,1)" stroke="rgba(118,145,241,1)" transform="translate(-10 -10)"/>
      </g>
      <g stroke-width="2" transform="matrix(1 0 0 1 443.4315 443.4315)">
        <circle cx="10" cy="10" r="10" fill="rgba(207,226,252,1)" stroke="rgba(118,145,241,1)" transform="translate(-10 -10)"/>
      </g>
      <g stroke-width="2" transform="matrix(1 0 0 1 426.0896 469.3853)">
        <circle cx="10" cy="10" r="10" fill="rgba(207,226,252,1)" stroke="rgba(118,145,241,1)" transform="translate(-10 -10)"/>
      </g>
      <g stroke-width="2" transform="matrix(1 0 0 1 420 500)">
        <circle cx="10" cy="10" r="10" fill="rgba(207,226,252,1)" stroke="rgba(118,145,241,1)" transform="translate(-10 -10)"/>
      </g>
      <g stroke-width="2" transform="matrix(1 0 0 1 426.0896 530.6147)">
        <circle cx="10" cy="10" r="10" fill="rgba(207,226,252,1)" stroke="rgba(118,145,241,1)" transform="translate(-10 -10)"/>
      </g>
      <g stroke-width="2" transform="matrix(1 0 0 1 443.4315 556.5685)">
        <circle cx="10" cy="10" r="10" fill="rgba(207,226,252,1)" stroke="rgba(118,145,241,1)" transform="translate(-10 -10)"/>
      </g>
      <g stroke-width="2" transform="matrix(1 0 0 1 469.3853 573.9103)">
        <circle cx="10" cy="10" r="10" fill="rgba(207,226,252,1)" stroke="rgba(118,145,241,1)" transform="translate(-10 -10)"/>
      </g>
    </g>
  </g>
</svg>
