<svg xmlns="http://www.w3.org/2000/svg" width="500" height="500" color-interpolation-filters="sRGB" style="background: transparent;">
  <g transform="matrix(1 0 0 1 0 0)">
    <g fill="none" stroke="none" stroke-dashoffset="0" font-family="sans-serif" font-size="16" font-style="normal" font-variant="normal" font-weight="normal" text-anchor="left" transform="matrix(1 0 0 1 0 0)" visibility="visible">
      <g transform="matrix(1 0 0 1 94.6805 221.4536)">
        <line x1="253.5464" x2="0" y1="0" y2="196.4536" fill="none" stroke="rgba(190,190,190,1)"/>
      </g>
      <g transform="matrix(1 0 0 1 37.5878 164.361)">
        <line x1="253.5464" x2="0" y1="0" y2="196.4536" fill="none" stroke="rgba(190,190,190,1)"/>
      </g>
      <g stroke-width="2" transform="matrix(1 0 0 1 348.2268 221.4536)">
        <circle cx="10" cy="10" r="10" fill="rgba(65,201,226,1)" stroke="rgba(255,255,255,1)" transform="translate(-10 -10)"/>
      </g>
      <g stroke-width="2" transform="matrix(1 0 0 1 94.6805 417.9073)">
        <circle cx="10" cy="10" r="10" fill="rgba(65,201,226,1)" stroke="rgba(255,255,255,1)" transform="translate(-10 -10)"/>
      </g>
      <g stroke-width="2" transform="matrix(1 0 0 1 291.1341 164.361)">
        <circle cx="10" cy="10" r="10" fill="rgba(65,201,226,1)" stroke="rgba(255,255,255,1)" transform="translate(-10 -10)"/>
      </g>
      <g stroke-width="2" transform="matrix(1 0 0 1 37.5878 360.8146)">
        <circle cx="10" cy="10" r="10" fill="rgba(65,201,226,1)" stroke="rgba(255,255,255,1)" transform="translate(-10 -10)"/>
      </g>
      <g transform="matrix(1 0 0 1 94.6805 221.4536)">
        <line x1="253.5464" x2="0" y1="0" y2="196.4536" fill="none" stroke="rgba(190,190,190,1)"/>
      </g>
      <g transform="matrix(1 0 0 1 37.5878 164.361)">
        <line x1="253.5464" x2="0" y1="0" y2="196.4536" fill="none" stroke="rgba(190,190,190,1)"/>
      </g>
      <g stroke-width="2" transform="matrix(1 0 0 1 348.2268 221.4536)">
        <circle cx="10" cy="10" r="10" fill="rgba(65,201,226,1)" stroke="rgba(255,255,255,1)" transform="translate(-10 -10)"/>
      </g>
      <g stroke-width="2" transform="matrix(1 0 0 1 94.6805 417.9073)">
        <circle cx="10" cy="10" r="10" fill="rgba(65,201,226,1)" stroke="rgba(255,255,255,1)" transform="translate(-10 -10)"/>
      </g>
      <g stroke-width="2" transform="matrix(1 0 0 1 291.1341 164.361)">
        <circle cx="10" cy="10" r="10" fill="rgba(65,201,226,1)" stroke="rgba(255,255,255,1)" transform="translate(-10 -10)"/>
      </g>
      <g stroke-width="2" transform="matrix(1 0 0 1 37.5878 360.8146)">
        <circle cx="10" cy="10" r="10" fill="rgba(65,201,226,1)" stroke="rgba(255,255,255,1)" transform="translate(-10 -10)"/>
      </g>
    </g>
  </g>
</svg>
