<svg xmlns="http://www.w3.org/2000/svg" width="500" height="500" color-interpolation-filters="sRGB" style="background: transparent;">
  <g transform="matrix(1 0 0 1 0 0)">
    <g fill="none" stroke="none" stroke-dashoffset="0" font-family="sans-serif" font-size="16" font-style="normal" font-variant="normal" font-weight="normal" text-anchor="left" transform="matrix(1 0 0 1 0 0)" visibility="visible">
      <g transform="matrix(1 0 0 1 335.553 195.314)">
        <line x1="21.1738" x2="0" y1="54.686" y2="0" fill="none" stroke="rgba(128,128,128,1)"/>
      </g>
      <g transform="matrix(1 0 0 1 335.553 250)">
        <line x1="21.1738" x2="0" y1="0" y2="54.686" fill="none" stroke="rgba(128,128,128,1)"/>
      </g>
      <g transform="matrix(1 0 0 1 335.553 195.314)">
        <line x1="21.1738" x2="0" y1="54.686" y2="0" fill="none" stroke="rgba(128,128,128,1)"/>
      </g>
      <g transform="matrix(1 0 0 1 335.553 250)">
        <line x1="21.1738" x2="0" y1="0" y2="54.686" fill="none" stroke="rgba(128,128,128,1)"/>
      </g>
      <g transform="matrix(1 0 0 1 335.553 195.314)">
        <line x1="0" x2="0" y1="0" y2="109.372" fill="none" stroke="rgba(128,128,128,1)"/>
      </g>
      <g transform="matrix(1 0 0 1 356.7269 250)">
        <line x1="0" x2="0" y1="0" y2="0" fill="none" stroke="rgba(128,128,128,1)"/>
      </g>
      <g transform="matrix(1 0 0 1 416.6171 250)">
        <line x1="0" x2="0" y1="0" y2="0" fill="none" stroke="rgba(128,128,128,1)"/>
      </g>
      <g transform="matrix(1 0 0 1 385.1597 180.3112)">
        <line x1="0" x2="0" y1="0" y2="139.3776" fill="none" stroke="rgba(128,128,128,1)"/>
      </g>
      <g transform="matrix(1 0 0 1 385.1597 250)">
        <line x1="31.4573" x2="0" y1="0" y2="69.6888" fill="none" stroke="rgba(128,128,128,1)"/>
      </g>
      <g transform="matrix(1 0 0 1 385.1597 180.3112)">
        <line x1="31.4573" x2="0" y1="69.6888" y2="0" fill="none" stroke="rgba(128,128,128,1)"/>
      </g>
      <g transform="matrix(1 0 0 1 385.1597 250)">
        <line x1="0" x2="31.4573" y1="69.6888" y2="0" fill="none" stroke="rgba(128,128,128,1)"/>
      </g>
      <g transform="matrix(1 0 0 1 385.1597 180.3112)">
        <line x1="31.4573" x2="0" y1="69.6888" y2="0" fill="none" stroke="rgba(128,128,128,1)"/>
      </g>
      <g transform="matrix(1 0 0 1 280.2244 293.1126)">
        <line x1="12.1143" x2="0" y1="27.4499" y2="0" fill="none" stroke="rgba(128,128,128,1)"/>
      </g>
      <g transform="matrix(1 0 0 1 285.723 257.0816)">
        <line x1="6.6157" x2="0" y1="63.4809" y2="0" fill="none" stroke="rgba(128,128,128,1)"/>
      </g>
      <g transform="matrix(1 0 0 1 285.723 257.0816)">
        <line x1="6.6157" x2="0" y1="63.4809" y2="0" fill="none" stroke="rgba(128,128,128,1)"/>
      </g>
      <g transform="matrix(1 0 0 1 280.2244 293.1126)">
        <line x1="12.1143" x2="0" y1="27.4499" y2="0" fill="none" stroke="rgba(128,128,128,1)"/>
      </g>
      <g transform="matrix(1 0 0 1 280.2244 257.0816)">
        <line x1="0" x2="5.4987" y1="36.031" y2="0" fill="none" stroke="rgba(128,128,128,1)"/>
      </g>
      <g transform="matrix(1 0 0 1 292.3387 320.5625)">
        <line x1="0" x2="0" y1="0" y2="0" fill="none" stroke="rgba(128,128,128,1)"/>
      </g>
      <g transform="matrix(1 0 0 1 285.723 179.4375)">
        <line x1="6.6157" x2="0" y1="0" y2="63.4809" fill="none" stroke="rgba(128,128,128,1)"/>
      </g>
      <g transform="matrix(1 0 0 1 280.2244 179.4375)">
        <line x1="12.1143" x2="0" y1="0" y2="27.4499" fill="none" stroke="rgba(128,128,128,1)"/>
      </g>
      <g transform="matrix(1 0 0 1 280.2244 206.8874)">
        <line x1="5.4987" x2="0" y1="36.031" y2="0" fill="none" stroke="rgba(128,128,128,1)"/>
      </g>
      <g transform="matrix(1 0 0 1 292.3387 179.4375)">
        <line x1="0" x2="0" y1="0" y2="0" fill="none" stroke="rgba(128,128,128,1)"/>
      </g>
      <g transform="matrix(1 0 0 1 285.723 179.4375)">
        <line x1="6.6157" x2="0" y1="0" y2="63.4809" fill="none" stroke="rgba(128,128,128,1)"/>
      </g>
      <g transform="matrix(1 0 0 1 280.2244 179.4375)">
        <line x1="12.1143" x2="0" y1="0" y2="27.4499" fill="none" stroke="rgba(128,128,128,1)"/>
      </g>
      <g transform="matrix(1 0 0 1 130.7435 327.7324)">
        <line x1="0" x2="0" y1="0" y2="0" fill="none" stroke="rgba(128,128,128,1)"/>
      </g>
      <g transform="matrix(1 0 0 1 136.7328 257.8012)">
        <line x1="0" x2="31.8683" y1="0" y2="44.1017" fill="none" stroke="rgba(128,128,128,1)"/>
      </g>
      <g transform="matrix(1 0 0 1 130.7435 301.903)">
        <line x1="0" x2="37.8576" y1="25.8294" y2="0" fill="none" stroke="rgba(128,128,128,1)"/>
      </g>
      <g transform="matrix(1 0 0 1 130.7435 257.8012)">
        <line x1="0" x2="5.9893" y1="69.9312" y2="0" fill="none" stroke="rgba(128,128,128,1)"/>
      </g>
      <g transform="matrix(1 0 0 1 130.7435 301.903)">
        <line x1="0" x2="37.8576" y1="25.8294" y2="0" fill="none" stroke="rgba(128,128,128,1)"/>
      </g>
      <g transform="matrix(1 0 0 1 130.7435 257.8012)">
        <line x1="0" x2="5.9893" y1="69.9312" y2="0" fill="none" stroke="rgba(128,128,128,1)"/>
      </g>
      <g transform="matrix(1 0 0 1 130.7435 172.2676)">
        <line x1="0" x2="5.9893" y1="0" y2="69.9312" fill="none" stroke="rgba(128,128,128,1)"/>
      </g>
      <g transform="matrix(1 0 0 1 130.7435 172.2676)">
        <line x1="0" x2="37.8576" y1="0" y2="25.8294" fill="none" stroke="rgba(128,128,128,1)"/>
      </g>
      <g transform="matrix(1 0 0 1 130.7435 172.2676)">
        <line x1="0" x2="5.9893" y1="0" y2="69.9312" fill="none" stroke="rgba(128,128,128,1)"/>
      </g>
      <g transform="matrix(1 0 0 1 130.7435 172.2676)">
        <line x1="37.8576" x2="0" y1="25.8294" y2="0" fill="none" stroke="rgba(128,128,128,1)"/>
      </g>
      <g transform="matrix(1 0 0 1 130.7435 172.2676)">
        <line x1="0" x2="0" y1="0" y2="0" fill="none" stroke="rgba(128,128,128,1)"/>
      </g>
      <g transform="matrix(1 0 0 1 136.7328 198.097)">
        <line x1="0" x2="31.8683" y1="44.1017" y2="0" fill="none" stroke="rgba(128,128,128,1)"/>
      </g>
      <g transform="matrix(1 0 0 1 202.5327 250)">
        <line x1="0" x2="15.5559" y1="0" y2="43.093" fill="none" stroke="rgba(128,128,128,1)"/>
      </g>
      <g transform="matrix(1 0 0 1 202.5327 206.907)">
        <line x1="0" x2="15.5559" y1="43.093" y2="0" fill="none" stroke="rgba(128,128,128,1)"/>
      </g>
      <g transform="matrix(1 0 0 1 202.5327 250)">
        <line x1="0" x2="15.5559" y1="0" y2="43.093" fill="none" stroke="rgba(128,128,128,1)"/>
      </g>
      <g transform="matrix(1 0 0 1 202.5327 206.907)">
        <line x1="0" x2="15.5559" y1="43.093" y2="0" fill="none" stroke="rgba(128,128,128,1)"/>
      </g>
      <g transform="matrix(1 0 0 1 218.0887 206.907)">
        <line x1="0" x2="0" y1="0" y2="86.1859" fill="none" stroke="rgba(128,128,128,1)"/>
      </g>
      <g transform="matrix(1 0 0 1 202.5327 250)">
        <line x1="0" x2="0" y1="0" y2="0" fill="none" stroke="rgba(128,128,128,1)"/>
      </g>
      <g transform="matrix(1 0 0 1 194.5456 191.2202)">
        <line x1="0" x2="0" y1="0" y2="117.5597" fill="none" stroke="rgba(128,128,128,1)"/>
      </g>
      <g transform="matrix(1 0 0 1 173.3304 250)">
        <line x1="0" x2="0" y1="0" y2="0" fill="none" stroke="rgba(128,128,128,1)"/>
      </g>
      <g transform="matrix(1 0 0 1 173.3304 250)">
        <line x1="0" x2="21.2152" y1="0" y2="58.7798" fill="none" stroke="rgba(128,128,128,1)"/>
      </g>
      <g transform="matrix(1 0 0 1 173.3304 191.2202)">
        <line x1="0" x2="21.2152" y1="58.7798" y2="0" fill="none" stroke="rgba(128,128,128,1)"/>
      </g>
      <g transform="matrix(1 0 0 1 173.3304 250)">
        <line x1="21.2152" x2="0" y1="58.7798" y2="0" fill="none" stroke="rgba(128,128,128,1)"/>
      </g>
      <g transform="matrix(1 0 0 1 173.3304 191.2202)">
        <line x1="0" x2="21.2152" y1="58.7798" y2="0" fill="none" stroke="rgba(128,128,128,1)"/>
      </g>
      <g transform="matrix(1 0 0 1 335.553 304.686)">
        <line x1="49.6067" x2="0" y1="15.0028" y2="0" fill="none" stroke="rgba(128,128,128,1)"/>
      </g>
      <g transform="matrix(1 0 0 1 280.2244 242.9184)">
        <line x1="5.4987" x2="0" y1="0" y2="50.1943" fill="none" stroke="rgba(128,128,128,1)"/>
      </g>
      <g transform="matrix(1 0 0 1 335.553 180.3112)">
        <line x1="49.6067" x2="0" y1="0" y2="15.0028" fill="none" stroke="rgba(128,128,128,1)"/>
      </g>
      <g transform="matrix(1 0 0 1 280.2244 206.8874)">
        <line x1="5.4987" x2="0" y1="50.1943" y2="0" fill="none" stroke="rgba(128,128,128,1)"/>
      </g>
      <g transform="matrix(1 0 0 1 136.7328 242.1988)">
        <line x1="0" x2="31.8683" y1="0" y2="59.7041" fill="none" stroke="rgba(128,128,128,1)"/>
      </g>
      <g transform="matrix(1 0 0 1 194.5456 293.093)">
        <line x1="0" x2="23.543" y1="15.6869" y2="0" fill="none" stroke="rgba(128,128,128,1)"/>
      </g>
      <g transform="matrix(1 0 0 1 136.7328 198.097)">
        <line x1="0" x2="31.8683" y1="59.7041" y2="0" fill="none" stroke="rgba(128,128,128,1)"/>
      </g>
      <g transform="matrix(1 0 0 1 194.5456 191.2202)">
        <line x1="0" x2="23.543" y1="0" y2="15.6869" fill="none" stroke="rgba(128,128,128,1)"/>
      </g>
      <g transform="matrix(1 0 0 1 280.2244 293.1126)">
        <line x1="55.3287" x2="0" y1="11.5734" y2="0" fill="none" stroke="rgba(128,128,128,1)"/>
      </g>
      <g transform="matrix(1 0 0 1 168.6011 293.093)">
        <line x1="0" x2="49.4875" y1="8.81" y2="0" fill="none" stroke="rgba(128,128,128,1)"/>
      </g>
      <g transform="matrix(1 0 0 1 280.2244 195.314)">
        <line x1="55.3287" x2="0" y1="0" y2="11.5734" fill="none" stroke="rgba(128,128,128,1)"/>
      </g>
      <g transform="matrix(1 0 0 1 168.6011 198.097)">
        <line x1="0" x2="49.4875" y1="0" y2="8.81" fill="none" stroke="rgba(128,128,128,1)"/>
      </g>
      <g transform="matrix(1 0 0 1 218.0887 293.093)">
        <line x1="0" x2="62.1357" y1="0" y2=".0197" fill="none" stroke="rgba(128,128,128,1)"/>
      </g>
      <g transform="matrix(1 0 0 1 218.0887 206.8874)">
        <line x1="0" x2="62.1357" y1=".0197" y2="0" fill="none" stroke="rgba(128,128,128,1)"/>
      </g>
      <g transform="matrix(1 0 0 1 218.0887 206.907)">
        <line x1="0" x2="0" y1="0" y2="86.1859" fill="none" stroke="rgba(128,128,128,1)"/>
      </g>
      <g transform="matrix(1 0 0 1 280.2244 206.8874)">
        <line x1="0" x2="0" y1="0" y2="86.2253" fill="none" stroke="rgba(128,128,128,1)"/>
      </g>
      <g stroke-width="2" transform="matrix(1 0 0 1 285.723 242.9184)">
        <circle cx="10" cy="10" r="10" fill="rgba(207,226,252,1)" stroke="rgba(118,145,241,1)" transform="translate(-10 -10)"/>
      </g>
      <g stroke-width="2" transform="matrix(1 0 0 1 292.3387 320.5625)">
        <circle cx="10" cy="10" r="10" fill="rgba(207,226,252,1)" stroke="rgba(118,145,241,1)" transform="translate(-10 -10)"/>
      </g>
      <g stroke-width="2" transform="matrix(1 0 0 1 218.0887 293.093)">
        <circle cx="10" cy="10" r="10" fill="rgba(207,226,252,1)" stroke="rgba(118,145,241,1)" transform="translate(-10 -10)"/>
      </g>
      <g stroke-width="2" transform="matrix(1 0 0 1 168.6011 301.903)">
        <circle cx="10" cy="10" r="10" fill="rgba(207,226,252,1)" stroke="rgba(118,145,241,1)" transform="translate(-10 -10)"/>
      </g>
      <g stroke-width="2" transform="matrix(1 0 0 1 194.5456 191.2202)">
        <circle cx="10" cy="10" r="10" fill="rgba(207,226,252,1)" stroke="rgba(118,145,241,1)" transform="translate(-10 -10)"/>
      </g>
      <g stroke-width="2" transform="matrix(1 0 0 1 130.7435 327.7324)">
        <circle cx="10" cy="10" r="10" fill="rgba(207,226,252,1)" stroke="rgba(118,145,241,1)" transform="translate(-10 -10)"/>
      </g>
      <g stroke-width="2" transform="matrix(1 0 0 1 280.2244 206.8874)">
        <circle cx="10" cy="10" r="10" fill="rgba(207,226,252,1)" stroke="rgba(118,145,241,1)" transform="translate(-10 -10)"/>
      </g>
      <g stroke-width="2" transform="matrix(1 0 0 1 285.723 257.0816)">
        <circle cx="10" cy="10" r="10" fill="rgba(207,226,252,1)" stroke="rgba(118,145,241,1)" transform="translate(-10 -10)"/>
      </g>
      <g stroke-width="2" transform="matrix(1 0 0 1 356.7269 250)">
        <circle cx="10" cy="10" r="10" fill="rgba(207,226,252,1)" stroke="rgba(118,145,241,1)" transform="translate(-10 -10)"/>
      </g>
      <g stroke-width="2" transform="matrix(1 0 0 1 218.0887 206.907)">
        <circle cx="10" cy="10" r="10" fill="rgba(207,226,252,1)" stroke="rgba(118,145,241,1)" transform="translate(-10 -10)"/>
      </g>
      <g stroke-width="2" transform="matrix(1 0 0 1 280.2244 293.1126)">
        <circle cx="10" cy="10" r="10" fill="rgba(207,226,252,1)" stroke="rgba(118,145,241,1)" transform="translate(-10 -10)"/>
      </g>
      <g stroke-width="2" transform="matrix(1 0 0 1 130.7435 172.2676)">
        <circle cx="10" cy="10" r="10" fill="rgba(207,226,252,1)" stroke="rgba(118,145,241,1)" transform="translate(-10 -10)"/>
      </g>
      <g stroke-width="2" transform="matrix(1 0 0 1 292.3387 179.4375)">
        <circle cx="10" cy="10" r="10" fill="rgba(207,226,252,1)" stroke="rgba(118,145,241,1)" transform="translate(-10 -10)"/>
      </g>
      <g stroke-width="2" transform="matrix(1 0 0 1 416.6171 250)">
        <circle cx="10" cy="10" r="10" fill="rgba(207,226,252,1)" stroke="rgba(118,145,241,1)" transform="translate(-10 -10)"/>
      </g>
      <g stroke-width="2" transform="matrix(1 0 0 1 194.5456 308.7798)">
        <circle cx="10" cy="10" r="10" fill="rgba(207,226,252,1)" stroke="rgba(118,145,241,1)" transform="translate(-10 -10)"/>
      </g>
      <g stroke-width="2" transform="matrix(1 0 0 1 130.7435 172.2676)">
        <circle cx="10" cy="10" r="10" fill="rgba(207,226,252,1)" stroke="rgba(118,145,241,1)" transform="translate(-10 -10)"/>
      </g>
      <g stroke-width="2" transform="matrix(1 0 0 1 136.7328 242.1988)">
        <circle cx="10" cy="10" r="10" fill="rgba(207,226,252,1)" stroke="rgba(118,145,241,1)" transform="translate(-10 -10)"/>
      </g>
      <g stroke-width="2" transform="matrix(1 0 0 1 416.6171 250)">
        <circle cx="10" cy="10" r="10" fill="rgba(207,226,252,1)" stroke="rgba(118,145,241,1)" transform="translate(-10 -10)"/>
      </g>
      <g stroke-width="2" transform="matrix(1 0 0 1 292.3387 179.4375)">
        <circle cx="10" cy="10" r="10" fill="rgba(207,226,252,1)" stroke="rgba(118,145,241,1)" transform="translate(-10 -10)"/>
      </g>
      <g stroke-width="2" transform="matrix(1 0 0 1 202.5327 250)">
        <circle cx="10" cy="10" r="10" fill="rgba(207,226,252,1)" stroke="rgba(118,145,241,1)" transform="translate(-10 -10)"/>
      </g>
      <g stroke-width="2" transform="matrix(1 0 0 1 292.3387 320.5625)">
        <circle cx="10" cy="10" r="10" fill="rgba(207,226,252,1)" stroke="rgba(118,145,241,1)" transform="translate(-10 -10)"/>
      </g>
      <g stroke-width="2" transform="matrix(1 0 0 1 173.3304 250)">
        <circle cx="10" cy="10" r="10" fill="rgba(207,226,252,1)" stroke="rgba(118,145,241,1)" transform="translate(-10 -10)"/>
      </g>
      <g stroke-width="2" transform="matrix(1 0 0 1 385.1597 319.6888)">
        <circle cx="10" cy="10" r="10" fill="rgba(207,226,252,1)" stroke="rgba(118,145,241,1)" transform="translate(-10 -10)"/>
      </g>
      <g stroke-width="2" transform="matrix(1 0 0 1 335.553 195.314)">
        <circle cx="10" cy="10" r="10" fill="rgba(207,226,252,1)" stroke="rgba(118,145,241,1)" transform="translate(-10 -10)"/>
      </g>
      <g stroke-width="2" transform="matrix(1 0 0 1 356.7269 250)">
        <circle cx="10" cy="10" r="10" fill="rgba(207,226,252,1)" stroke="rgba(118,145,241,1)" transform="translate(-10 -10)"/>
      </g>
      <g stroke-width="2" transform="matrix(1 0 0 1 173.3304 250)">
        <circle cx="10" cy="10" r="10" fill="rgba(207,226,252,1)" stroke="rgba(118,145,241,1)" transform="translate(-10 -10)"/>
      </g>
      <g stroke-width="2" transform="matrix(1 0 0 1 130.7435 327.7324)">
        <circle cx="10" cy="10" r="10" fill="rgba(207,226,252,1)" stroke="rgba(118,145,241,1)" transform="translate(-10 -10)"/>
      </g>
      <g stroke-width="2" transform="matrix(1 0 0 1 385.1597 180.3112)">
        <circle cx="10" cy="10" r="10" fill="rgba(207,226,252,1)" stroke="rgba(118,145,241,1)" transform="translate(-10 -10)"/>
      </g>
      <g stroke-width="2" transform="matrix(1 0 0 1 168.6011 198.097)">
        <circle cx="10" cy="10" r="10" fill="rgba(207,226,252,1)" stroke="rgba(118,145,241,1)" transform="translate(-10 -10)"/>
      </g>
      <g stroke-width="2" transform="matrix(1 0 0 1 136.7328 257.8012)">
        <circle cx="10" cy="10" r="10" fill="rgba(207,226,252,1)" stroke="rgba(118,145,241,1)" transform="translate(-10 -10)"/>
      </g>
      <g stroke-width="2" transform="matrix(1 0 0 1 202.5327 250)">
        <circle cx="10" cy="10" r="10" fill="rgba(207,226,252,1)" stroke="rgba(118,145,241,1)" transform="translate(-10 -10)"/>
      </g>
      <g stroke-width="2" transform="matrix(1 0 0 1 335.553 304.686)">
        <circle cx="10" cy="10" r="10" fill="rgba(207,226,252,1)" stroke="rgba(118,145,241,1)" transform="translate(-10 -10)"/>
      </g>
      <g transform="matrix(1 0 0 1 335.553 195.314)">
        <line x1="21.1738" x2="0" y1="54.686" y2="0" fill="none" stroke="rgba(128,128,128,1)"/>
      </g>
      <g transform="matrix(1 0 0 1 335.553 250)">
        <line x1="21.1738" x2="0" y1="0" y2="54.686" fill="none" stroke="rgba(128,128,128,1)"/>
      </g>
      <g transform="matrix(1 0 0 1 335.553 195.314)">
        <line x1="21.1738" x2="0" y1="54.686" y2="0" fill="none" stroke="rgba(128,128,128,1)"/>
      </g>
      <g transform="matrix(1 0 0 1 335.553 250)">
        <line x1="21.1738" x2="0" y1="0" y2="54.686" fill="none" stroke="rgba(128,128,128,1)"/>
      </g>
      <g transform="matrix(1 0 0 1 335.553 195.314)">
        <line x1="0" x2="0" y1="0" y2="109.372" fill="none" stroke="rgba(128,128,128,1)"/>
      </g>
      <g transform="matrix(1 0 0 1 356.7269 250)">
        <line x1="0" x2="0" y1="0" y2="0" fill="none" stroke="rgba(128,128,128,1)"/>
      </g>
      <g transform="matrix(1 0 0 1 416.6171 250)">
        <line x1="0" x2="0" y1="0" y2="0" fill="none" stroke="rgba(128,128,128,1)"/>
      </g>
      <g transform="matrix(1 0 0 1 385.1597 180.3112)">
        <line x1="0" x2="0" y1="0" y2="139.3776" fill="none" stroke="rgba(128,128,128,1)"/>
      </g>
      <g transform="matrix(1 0 0 1 385.1597 250)">
        <line x1="31.4573" x2="0" y1="0" y2="69.6888" fill="none" stroke="rgba(128,128,128,1)"/>
      </g>
      <g transform="matrix(1 0 0 1 385.1597 180.3112)">
        <line x1="31.4573" x2="0" y1="69.6888" y2="0" fill="none" stroke="rgba(128,128,128,1)"/>
      </g>
      <g transform="matrix(1 0 0 1 385.1597 250)">
        <line x1="0" x2="31.4573" y1="69.6888" y2="0" fill="none" stroke="rgba(128,128,128,1)"/>
      </g>
      <g transform="matrix(1 0 0 1 385.1597 180.3112)">
        <line x1="31.4573" x2="0" y1="69.6888" y2="0" fill="none" stroke="rgba(128,128,128,1)"/>
      </g>
      <g transform="matrix(1 0 0 1 280.2244 293.1126)">
        <line x1="12.1143" x2="0" y1="27.4499" y2="0" fill="none" stroke="rgba(128,128,128,1)"/>
      </g>
      <g transform="matrix(1 0 0 1 285.723 257.0816)">
        <line x1="6.6157" x2="0" y1="63.4809" y2="0" fill="none" stroke="rgba(128,128,128,1)"/>
      </g>
      <g transform="matrix(1 0 0 1 285.723 257.0816)">
        <line x1="6.6157" x2="0" y1="63.4809" y2="0" fill="none" stroke="rgba(128,128,128,1)"/>
      </g>
      <g transform="matrix(1 0 0 1 280.2244 293.1126)">
        <line x1="12.1143" x2="0" y1="27.4499" y2="0" fill="none" stroke="rgba(128,128,128,1)"/>
      </g>
      <g transform="matrix(1 0 0 1 280.2244 257.0816)">
        <line x1="0" x2="5.4987" y1="36.031" y2="0" fill="none" stroke="rgba(128,128,128,1)"/>
      </g>
      <g transform="matrix(1 0 0 1 292.3387 320.5625)">
        <line x1="0" x2="0" y1="0" y2="0" fill="none" stroke="rgba(128,128,128,1)"/>
      </g>
      <g transform="matrix(1 0 0 1 285.723 179.4375)">
        <line x1="6.6157" x2="0" y1="0" y2="63.4809" fill="none" stroke="rgba(128,128,128,1)"/>
      </g>
      <g transform="matrix(1 0 0 1 280.2244 179.4375)">
        <line x1="12.1143" x2="0" y1="0" y2="27.4499" fill="none" stroke="rgba(128,128,128,1)"/>
      </g>
      <g transform="matrix(1 0 0 1 280.2244 206.8874)">
        <line x1="5.4987" x2="0" y1="36.031" y2="0" fill="none" stroke="rgba(128,128,128,1)"/>
      </g>
      <g transform="matrix(1 0 0 1 292.3387 179.4375)">
        <line x1="0" x2="0" y1="0" y2="0" fill="none" stroke="rgba(128,128,128,1)"/>
      </g>
      <g transform="matrix(1 0 0 1 285.723 179.4375)">
        <line x1="6.6157" x2="0" y1="0" y2="63.4809" fill="none" stroke="rgba(128,128,128,1)"/>
      </g>
      <g transform="matrix(1 0 0 1 280.2244 179.4375)">
        <line x1="12.1143" x2="0" y1="0" y2="27.4499" fill="none" stroke="rgba(128,128,128,1)"/>
      </g>
      <g transform="matrix(1 0 0 1 130.7435 327.7324)">
        <line x1="0" x2="0" y1="0" y2="0" fill="none" stroke="rgba(128,128,128,1)"/>
      </g>
      <g transform="matrix(1 0 0 1 136.7328 257.8012)">
        <line x1="0" x2="31.8683" y1="0" y2="44.1017" fill="none" stroke="rgba(128,128,128,1)"/>
      </g>
      <g transform="matrix(1 0 0 1 130.7435 301.903)">
        <line x1="0" x2="37.8576" y1="25.8294" y2="0" fill="none" stroke="rgba(128,128,128,1)"/>
      </g>
      <g transform="matrix(1 0 0 1 130.7435 257.8012)">
        <line x1="0" x2="5.9893" y1="69.9312" y2="0" fill="none" stroke="rgba(128,128,128,1)"/>
      </g>
      <g transform="matrix(1 0 0 1 130.7435 301.903)">
        <line x1="0" x2="37.8576" y1="25.8294" y2="0" fill="none" stroke="rgba(128,128,128,1)"/>
      </g>
      <g transform="matrix(1 0 0 1 130.7435 257.8012)">
        <line x1="0" x2="5.9893" y1="69.9312" y2="0" fill="none" stroke="rgba(128,128,128,1)"/>
      </g>
      <g transform="matrix(1 0 0 1 130.7435 172.2676)">
        <line x1="0" x2="5.9893" y1="0" y2="69.9312" fill="none" stroke="rgba(128,128,128,1)"/>
      </g>
      <g transform="matrix(1 0 0 1 130.7435 172.2676)">
        <line x1="0" x2="37.8576" y1="0" y2="25.8294" fill="none" stroke="rgba(128,128,128,1)"/>
      </g>
      <g transform="matrix(1 0 0 1 130.7435 172.2676)">
        <line x1="0" x2="5.9893" y1="0" y2="69.9312" fill="none" stroke="rgba(128,128,128,1)"/>
      </g>
      <g transform="matrix(1 0 0 1 130.7435 172.2676)">
        <line x1="37.8576" x2="0" y1="25.8294" y2="0" fill="none" stroke="rgba(128,128,128,1)"/>
      </g>
      <g transform="matrix(1 0 0 1 130.7435 172.2676)">
        <line x1="0" x2="0" y1="0" y2="0" fill="none" stroke="rgba(128,128,128,1)"/>
      </g>
      <g transform="matrix(1 0 0 1 136.7328 198.097)">
        <line x1="0" x2="31.8683" y1="44.1017" y2="0" fill="none" stroke="rgba(128,128,128,1)"/>
      </g>
      <g transform="matrix(1 0 0 1 202.5327 250)">
        <line x1="0" x2="15.5559" y1="0" y2="43.093" fill="none" stroke="rgba(128,128,128,1)"/>
      </g>
      <g transform="matrix(1 0 0 1 202.5327 206.907)">
        <line x1="0" x2="15.5559" y1="43.093" y2="0" fill="none" stroke="rgba(128,128,128,1)"/>
      </g>
      <g transform="matrix(1 0 0 1 202.5327 250)">
        <line x1="0" x2="15.5559" y1="0" y2="43.093" fill="none" stroke="rgba(128,128,128,1)"/>
      </g>
      <g transform="matrix(1 0 0 1 202.5327 206.907)">
        <line x1="0" x2="15.5559" y1="43.093" y2="0" fill="none" stroke="rgba(128,128,128,1)"/>
      </g>
      <g transform="matrix(1 0 0 1 218.0887 206.907)">
        <line x1="0" x2="0" y1="0" y2="86.1859" fill="none" stroke="rgba(128,128,128,1)"/>
      </g>
      <g transform="matrix(1 0 0 1 202.5327 250)">
        <line x1="0" x2="0" y1="0" y2="0" fill="none" stroke="rgba(128,128,128,1)"/>
      </g>
      <g transform="matrix(1 0 0 1 194.5456 191.2202)">
        <line x1="0" x2="0" y1="0" y2="117.5597" fill="none" stroke="rgba(128,128,128,1)"/>
      </g>
      <g transform="matrix(1 0 0 1 173.3304 250)">
        <line x1="0" x2="0" y1="0" y2="0" fill="none" stroke="rgba(128,128,128,1)"/>
      </g>
      <g transform="matrix(1 0 0 1 173.3304 250)">
        <line x1="0" x2="21.2152" y1="0" y2="58.7798" fill="none" stroke="rgba(128,128,128,1)"/>
      </g>
      <g transform="matrix(1 0 0 1 173.3304 191.2202)">
        <line x1="0" x2="21.2152" y1="58.7798" y2="0" fill="none" stroke="rgba(128,128,128,1)"/>
      </g>
      <g transform="matrix(1 0 0 1 173.3304 250)">
        <line x1="21.2152" x2="0" y1="58.7798" y2="0" fill="none" stroke="rgba(128,128,128,1)"/>
      </g>
      <g transform="matrix(1 0 0 1 173.3304 191.2202)">
        <line x1="0" x2="21.2152" y1="58.7798" y2="0" fill="none" stroke="rgba(128,128,128,1)"/>
      </g>
      <g transform="matrix(1 0 0 1 335.553 304.686)">
        <line x1="49.6067" x2="0" y1="15.0028" y2="0" fill="none" stroke="rgba(128,128,128,1)"/>
      </g>
      <g transform="matrix(1 0 0 1 280.2244 242.9184)">
        <line x1="5.4987" x2="0" y1="0" y2="50.1943" fill="none" stroke="rgba(128,128,128,1)"/>
      </g>
      <g transform="matrix(1 0 0 1 335.553 180.3112)">
        <line x1="49.6067" x2="0" y1="0" y2="15.0028" fill="none" stroke="rgba(128,128,128,1)"/>
      </g>
      <g transform="matrix(1 0 0 1 280.2244 206.8874)">
        <line x1="5.4987" x2="0" y1="50.1943" y2="0" fill="none" stroke="rgba(128,128,128,1)"/>
      </g>
      <g transform="matrix(1 0 0 1 136.7328 242.1988)">
        <line x1="0" x2="31.8683" y1="0" y2="59.7041" fill="none" stroke="rgba(128,128,128,1)"/>
      </g>
      <g transform="matrix(1 0 0 1 194.5456 293.093)">
        <line x1="0" x2="23.543" y1="15.6869" y2="0" fill="none" stroke="rgba(128,128,128,1)"/>
      </g>
      <g transform="matrix(1 0 0 1 136.7328 198.097)">
        <line x1="0" x2="31.8683" y1="59.7041" y2="0" fill="none" stroke="rgba(128,128,128,1)"/>
      </g>
      <g transform="matrix(1 0 0 1 194.5456 191.2202)">
        <line x1="0" x2="23.543" y1="0" y2="15.6869" fill="none" stroke="rgba(128,128,128,1)"/>
      </g>
      <g transform="matrix(1 0 0 1 280.2244 293.1126)">
        <line x1="55.3287" x2="0" y1="11.5734" y2="0" fill="none" stroke="rgba(128,128,128,1)"/>
      </g>
      <g transform="matrix(1 0 0 1 168.6011 293.093)">
        <line x1="0" x2="49.4875" y1="8.81" y2="0" fill="none" stroke="rgba(128,128,128,1)"/>
      </g>
      <g transform="matrix(1 0 0 1 280.2244 195.314)">
        <line x1="55.3287" x2="0" y1="0" y2="11.5734" fill="none" stroke="rgba(128,128,128,1)"/>
      </g>
      <g transform="matrix(1 0 0 1 168.6011 198.097)">
        <line x1="0" x2="49.4875" y1="0" y2="8.81" fill="none" stroke="rgba(128,128,128,1)"/>
      </g>
      <g transform="matrix(1 0 0 1 218.0887 293.093)">
        <line x1="0" x2="62.1357" y1="0" y2=".0197" fill="none" stroke="rgba(128,128,128,1)"/>
      </g>
      <g transform="matrix(1 0 0 1 218.0887 206.8874)">
        <line x1="0" x2="62.1357" y1=".0197" y2="0" fill="none" stroke="rgba(128,128,128,1)"/>
      </g>
      <g transform="matrix(1 0 0 1 218.0887 206.907)">
        <line x1="0" x2="0" y1="0" y2="86.1859" fill="none" stroke="rgba(128,128,128,1)"/>
      </g>
      <g transform="matrix(1 0 0 1 280.2244 206.8874)">
        <line x1="0" x2="0" y1="0" y2="86.2253" fill="none" stroke="rgba(128,128,128,1)"/>
      </g>
      <g stroke-width="2" transform="matrix(1 0 0 1 285.723 242.9184)">
        <circle cx="10" cy="10" r="10" fill="rgba(207,226,252,1)" stroke="rgba(118,145,241,1)" transform="translate(-10 -10)"/>
      </g>
      <g stroke-width="2" transform="matrix(1 0 0 1 292.3387 320.5625)">
        <circle cx="10" cy="10" r="10" fill="rgba(207,226,252,1)" stroke="rgba(118,145,241,1)" transform="translate(-10 -10)"/>
      </g>
      <g stroke-width="2" transform="matrix(1 0 0 1 218.0887 293.093)">
        <circle cx="10" cy="10" r="10" fill="rgba(207,226,252,1)" stroke="rgba(118,145,241,1)" transform="translate(-10 -10)"/>
      </g>
      <g stroke-width="2" transform="matrix(1 0 0 1 168.6011 301.903)">
        <circle cx="10" cy="10" r="10" fill="rgba(207,226,252,1)" stroke="rgba(118,145,241,1)" transform="translate(-10 -10)"/>
      </g>
      <g stroke-width="2" transform="matrix(1 0 0 1 194.5456 191.2202)">
        <circle cx="10" cy="10" r="10" fill="rgba(207,226,252,1)" stroke="rgba(118,145,241,1)" transform="translate(-10 -10)"/>
      </g>
      <g stroke-width="2" transform="matrix(1 0 0 1 130.7435 327.7324)">
        <circle cx="10" cy="10" r="10" fill="rgba(207,226,252,1)" stroke="rgba(118,145,241,1)" transform="translate(-10 -10)"/>
      </g>
      <g stroke-width="2" transform="matrix(1 0 0 1 280.2244 206.8874)">
        <circle cx="10" cy="10" r="10" fill="rgba(207,226,252,1)" stroke="rgba(118,145,241,1)" transform="translate(-10 -10)"/>
      </g>
      <g stroke-width="2" transform="matrix(1 0 0 1 285.723 257.0816)">
        <circle cx="10" cy="10" r="10" fill="rgba(207,226,252,1)" stroke="rgba(118,145,241,1)" transform="translate(-10 -10)"/>
      </g>
      <g stroke-width="2" transform="matrix(1 0 0 1 356.7269 250)">
        <circle cx="10" cy="10" r="10" fill="rgba(207,226,252,1)" stroke="rgba(118,145,241,1)" transform="translate(-10 -10)"/>
      </g>
      <g stroke-width="2" transform="matrix(1 0 0 1 218.0887 206.907)">
        <circle cx="10" cy="10" r="10" fill="rgba(207,226,252,1)" stroke="rgba(118,145,241,1)" transform="translate(-10 -10)"/>
      </g>
      <g stroke-width="2" transform="matrix(1 0 0 1 280.2244 293.1126)">
        <circle cx="10" cy="10" r="10" fill="rgba(207,226,252,1)" stroke="rgba(118,145,241,1)" transform="translate(-10 -10)"/>
      </g>
      <g stroke-width="2" transform="matrix(1 0 0 1 130.7435 172.2676)">
        <circle cx="10" cy="10" r="10" fill="rgba(207,226,252,1)" stroke="rgba(118,145,241,1)" transform="translate(-10 -10)"/>
      </g>
      <g stroke-width="2" transform="matrix(1 0 0 1 292.3387 179.4375)">
        <circle cx="10" cy="10" r="10" fill="rgba(207,226,252,1)" stroke="rgba(118,145,241,1)" transform="translate(-10 -10)"/>
      </g>
      <g stroke-width="2" transform="matrix(1 0 0 1 416.6171 250)">
        <circle cx="10" cy="10" r="10" fill="rgba(207,226,252,1)" stroke="rgba(118,145,241,1)" transform="translate(-10 -10)"/>
      </g>
      <g stroke-width="2" transform="matrix(1 0 0 1 194.5456 308.7798)">
        <circle cx="10" cy="10" r="10" fill="rgba(207,226,252,1)" stroke="rgba(118,145,241,1)" transform="translate(-10 -10)"/>
      </g>
      <g stroke-width="2" transform="matrix(1 0 0 1 130.7435 172.2676)">
        <circle cx="10" cy="10" r="10" fill="rgba(207,226,252,1)" stroke="rgba(118,145,241,1)" transform="translate(-10 -10)"/>
      </g>
      <g stroke-width="2" transform="matrix(1 0 0 1 136.7328 242.1988)">
        <circle cx="10" cy="10" r="10" fill="rgba(207,226,252,1)" stroke="rgba(118,145,241,1)" transform="translate(-10 -10)"/>
      </g>
      <g stroke-width="2" transform="matrix(1 0 0 1 416.6171 250)">
        <circle cx="10" cy="10" r="10" fill="rgba(207,226,252,1)" stroke="rgba(118,145,241,1)" transform="translate(-10 -10)"/>
      </g>
      <g stroke-width="2" transform="matrix(1 0 0 1 292.3387 179.4375)">
        <circle cx="10" cy="10" r="10" fill="rgba(207,226,252,1)" stroke="rgba(118,145,241,1)" transform="translate(-10 -10)"/>
      </g>
      <g stroke-width="2" transform="matrix(1 0 0 1 202.5327 250)">
        <circle cx="10" cy="10" r="10" fill="rgba(207,226,252,1)" stroke="rgba(118,145,241,1)" transform="translate(-10 -10)"/>
      </g>
      <g stroke-width="2" transform="matrix(1 0 0 1 292.3387 320.5625)">
        <circle cx="10" cy="10" r="10" fill="rgba(207,226,252,1)" stroke="rgba(118,145,241,1)" transform="translate(-10 -10)"/>
      </g>
      <g stroke-width="2" transform="matrix(1 0 0 1 173.3304 250)">
        <circle cx="10" cy="10" r="10" fill="rgba(207,226,252,1)" stroke="rgba(118,145,241,1)" transform="translate(-10 -10)"/>
      </g>
      <g stroke-width="2" transform="matrix(1 0 0 1 385.1597 319.6888)">
        <circle cx="10" cy="10" r="10" fill="rgba(207,226,252,1)" stroke="rgba(118,145,241,1)" transform="translate(-10 -10)"/>
      </g>
      <g stroke-width="2" transform="matrix(1 0 0 1 335.553 195.314)">
        <circle cx="10" cy="10" r="10" fill="rgba(207,226,252,1)" stroke="rgba(118,145,241,1)" transform="translate(-10 -10)"/>
      </g>
      <g stroke-width="2" transform="matrix(1 0 0 1 356.7269 250)">
        <circle cx="10" cy="10" r="10" fill="rgba(207,226,252,1)" stroke="rgba(118,145,241,1)" transform="translate(-10 -10)"/>
      </g>
      <g stroke-width="2" transform="matrix(1 0 0 1 173.3304 250)">
        <circle cx="10" cy="10" r="10" fill="rgba(207,226,252,1)" stroke="rgba(118,145,241,1)" transform="translate(-10 -10)"/>
      </g>
      <g stroke-width="2" transform="matrix(1 0 0 1 130.7435 327.7324)">
        <circle cx="10" cy="10" r="10" fill="rgba(207,226,252,1)" stroke="rgba(118,145,241,1)" transform="translate(-10 -10)"/>
      </g>
      <g stroke-width="2" transform="matrix(1 0 0 1 385.1597 180.3112)">
        <circle cx="10" cy="10" r="10" fill="rgba(207,226,252,1)" stroke="rgba(118,145,241,1)" transform="translate(-10 -10)"/>
      </g>
      <g stroke-width="2" transform="matrix(1 0 0 1 168.6011 198.097)">
        <circle cx="10" cy="10" r="10" fill="rgba(207,226,252,1)" stroke="rgba(118,145,241,1)" transform="translate(-10 -10)"/>
      </g>
      <g stroke-width="2" transform="matrix(1 0 0 1 136.7328 257.8012)">
        <circle cx="10" cy="10" r="10" fill="rgba(207,226,252,1)" stroke="rgba(118,145,241,1)" transform="translate(-10 -10)"/>
      </g>
      <g stroke-width="2" transform="matrix(1 0 0 1 202.5327 250)">
        <circle cx="10" cy="10" r="10" fill="rgba(207,226,252,1)" stroke="rgba(118,145,241,1)" transform="translate(-10 -10)"/>
      </g>
      <g stroke-width="2" transform="matrix(1 0 0 1 335.553 304.686)">
        <circle cx="10" cy="10" r="10" fill="rgba(207,226,252,1)" stroke="rgba(118,145,241,1)" transform="translate(-10 -10)"/>
      </g>
    </g>
  </g>
</svg>
