<svg xmlns="http://www.w3.org/2000/svg" width="500" height="500" color-interpolation-filters="sRGB" style="background: transparent;">
  <g transform="matrix(1 0 0 1 0 0)">
    <g fill="none" stroke="none" stroke-dashoffset="0" font-family="sans-serif" font-size="16" font-style="normal" font-variant="normal" font-weight="normal" text-anchor="left" transform="matrix(1 0 0 1 0 0)" visibility="visible">
      <g transform="matrix(1 0 0 1 86.662 -11.479)">
        <line x1="97.2697" x2="0" y1="10.4822" y2="0" fill="none" stroke="rgba(190,190,190,1)"/>
      </g>
      <g transform="matrix(1 0 0 1 115.4332 -107.5157)">
        <line x1="87.551" x2="0" y1="30.834" y2="0" fill="none" stroke="rgba(190,190,190,1)"/>
      </g>
      <g transform="matrix(1 0 0 1 86.662 -76.6817)">
        <line x1="116.3223" x2="0" y1="0" y2="65.2027" fill="none" stroke="rgba(190,190,190,1)"/>
      </g>
      <g transform="matrix(1 0 0 1 115.4332 -107.5157)">
        <line x1="68.4985" x2="0" y1="106.5189" y2="0" fill="none" stroke="rgba(190,190,190,1)"/>
      </g>
      <g transform="matrix(1 0 0 1 86.662 -107.5157)">
        <line x1="0" x2="28.7712" y1="96.0367" y2="0" fill="none" stroke="rgba(190,190,190,1)"/>
      </g>
      <g transform="matrix(1 0 0 1 183.9317 -76.6817)">
        <line x1="19.0525" x2="0" y1="0" y2="75.6849" fill="none" stroke="rgba(190,190,190,1)"/>
      </g>
      <g transform="matrix(1 0 0 1 -66.8783 -12.2783)">
        <line x1="0" x2="121.7346" y1="0" y2="28.1065" fill="none" stroke="rgba(190,190,190,1)"/>
      </g>
      <g transform="matrix(1 0 0 1 -10.444 -65.8706)">
        <line x1="0" x2="25.8221" y1="126.8054" y2="0" fill="none" stroke="rgba(190,190,190,1)"/>
      </g>
      <g transform="matrix(1 0 0 1 -66.8783 -65.8706)">
        <line x1="0" x2="82.2564" y1="53.5923" y2="0" fill="none" stroke="rgba(190,190,190,1)"/>
      </g>
      <g transform="matrix(1 0 0 1 -10.444 15.8281)">
        <line x1="65.3003" x2="0" y1="0" y2="45.1066" fill="none" stroke="rgba(190,190,190,1)"/>
      </g>
      <g transform="matrix(1 0 0 1 15.3781 -65.8706)">
        <line x1="0" x2="39.4782" y1="0" y2="81.6988" fill="none" stroke="rgba(190,190,190,1)"/>
      </g>
      <g transform="matrix(1 0 0 1 -66.8783 -12.2783)">
        <line x1="0" x2="56.4342" y1="0" y2="73.2131" fill="none" stroke="rgba(190,190,190,1)"/>
      </g>
      <g transform="matrix(1 0 0 1 -76.7406 -113.5198)">
        <line x1="0" x2="66.7505" y1="56.8723" y2="0" fill="none" stroke="rgba(190,190,190,1)"/>
      </g>
      <g transform="matrix(1 0 0 1 -130.4484 -182.0318)">
        <line x1="47.9104" x2="0" y1="0" y2="75.7444" fill="none" stroke="rgba(190,190,190,1)"/>
      </g>
      <g transform="matrix(1 0 0 1 -130.4484 -106.2874)">
        <line x1="53.7078" x2="0" y1="49.6399" y2="0" fill="none" stroke="rgba(190,190,190,1)"/>
      </g>
      <g transform="matrix(1 0 0 1 -82.538 -182.0318)">
        <line x1="0" x2="72.548" y1="0" y2="68.512" fill="none" stroke="rgba(190,190,190,1)"/>
      </g>
      <g transform="matrix(1 0 0 1 -130.4484 -113.5198)">
        <line x1="120.4583" x2="0" y1="0" y2="7.2324" fill="none" stroke="rgba(190,190,190,1)"/>
      </g>
      <g transform="matrix(1 0 0 1 -82.538 -182.0318)">
        <line x1="5.7974" x2="0" y1="125.3844" y2="0" fill="none" stroke="rgba(190,190,190,1)"/>
      </g>
      <g transform="matrix(1 0 0 1 -49.007 -116.7133)">
        <line x1="0" x2="96.0235" y1="0" y2="79.9874" fill="none" stroke="rgba(190,190,190,1)"/>
      </g>
      <g transform="matrix(1 0 0 1 -39.8513 -123.4218)">
        <line x1="76.9828" x2="0" y1="0" y2="101.2595" fill="none" stroke="rgba(190,190,190,1)"/>
      </g>
      <g transform="matrix(1 0 0 1 -39.8513 -36.726)">
        <line x1="86.8678" x2="0" y1="0" y2="14.5636" fill="none" stroke="rgba(190,190,190,1)"/>
      </g>
      <g transform="matrix(1 0 0 1 -49.007 -123.4218)">
        <line x1="0" x2="86.1384" y1="6.7085" y2="0" fill="none" stroke="rgba(190,190,190,1)"/>
      </g>
      <g transform="matrix(1 0 0 1 37.1315 -123.4218)">
        <line x1="0" x2="9.885" y1="0" y2="86.6959" fill="none" stroke="rgba(190,190,190,1)"/>
      </g>
      <g transform="matrix(1 0 0 1 -49.007 -116.7133)">
        <line x1="0" x2="9.1557" y1="0" y2="94.551" fill="none" stroke="rgba(190,190,190,1)"/>
      </g>
      <g transform="matrix(1 0 0 1 135.3235 -6.4189)">
        <line x1="0" x2="66.7819" y1="0" y2="54.7675" fill="none" stroke="rgba(190,190,190,1)"/>
      </g>
      <g transform="matrix(1 0 0 1 67.9108 67.8173)">
        <line x1="76.7942" x2="0" y1="45.6554" y2="0" fill="none" stroke="rgba(190,190,190,1)"/>
      </g>
      <g transform="matrix(1 0 0 1 67.9108 -6.4189)">
        <line x1="67.4127" x2="0" y1="0" y2="74.2362" fill="none" stroke="rgba(190,190,190,1)"/>
      </g>
      <g transform="matrix(1 0 0 1 144.705 48.3487)">
        <line x1="57.4004" x2="0" y1="0" y2="65.1241" fill="none" stroke="rgba(190,190,190,1)"/>
      </g>
      <g transform="matrix(1 0 0 1 67.9108 48.3487)">
        <line x1="134.1946" x2="0" y1="0" y2="19.4687" fill="none" stroke="rgba(190,190,190,1)"/>
      </g>
      <g transform="matrix(1 0 0 1 135.3235 -6.4189)">
        <line x1="0" x2="9.3816" y1="0" y2="119.8916" fill="none" stroke="rgba(190,190,190,1)"/>
      </g>
      <g transform="matrix(1 0 0 1 118.7533 22.0294)">
        <line x1="0" x2="39.3711" y1="74.3958" y2="0" fill="none" stroke="rgba(190,190,190,1)"/>
      </g>
      <g transform="matrix(1 0 0 1 32.1995 -26.668)">
        <line x1="52.3434" x2="0" y1="0" y2="95.4319" fill="none" stroke="rgba(190,190,190,1)"/>
      </g>
      <g transform="matrix(1 0 0 1 84.543 -26.668)">
        <line x1="0" x2="73.5815" y1="0" y2="48.6975" fill="none" stroke="rgba(190,190,190,1)"/>
      </g>
      <g transform="matrix(1 0 0 1 32.1995 68.7639)">
        <line x1="0" x2="86.5538" y1="0" y2="27.6614" fill="none" stroke="rgba(190,190,190,1)"/>
      </g>
      <g transform="matrix(1 0 0 1 84.543 -26.668)">
        <line x1="34.2103" x2="0" y1="123.0933" y2="0" fill="none" stroke="rgba(190,190,190,1)"/>
      </g>
      <g transform="matrix(1 0 0 1 32.1995 22.0294)">
        <line x1="125.9249" x2="0" y1="0" y2="46.7344" fill="none" stroke="rgba(190,190,190,1)"/>
      </g>
      <g transform="matrix(1 0 0 1 -121.6806 35.1332)">
        <line x1="0" x2="52.7775" y1="126.6527" y2="0" fill="none" stroke="rgba(190,190,190,1)"/>
      </g>
      <g transform="matrix(1 0 0 1 -187.5425 70.8057)">
        <line x1="0" x2="84.5234" y1="0" y2="20.9717" fill="none" stroke="rgba(190,190,190,1)"/>
      </g>
      <g transform="matrix(1 0 0 1 -187.5425 35.1332)">
        <line x1="0" x2="118.6393" y1="35.6724" y2="0" fill="none" stroke="rgba(190,190,190,1)"/>
      </g>
      <g transform="matrix(1 0 0 1 -121.6806 91.7773)">
        <line x1="0" x2="18.6616" y1="70.0086" y2="0" fill="none" stroke="rgba(190,190,190,1)"/>
      </g>
      <g transform="matrix(1 0 0 1 -103.019 35.1332)">
        <line x1="0" x2="34.1159" y1="56.6441" y2="0" fill="none" stroke="rgba(190,190,190,1)"/>
      </g>
      <g transform="matrix(1 0 0 1 -187.5425 70.8057)">
        <line x1="65.8619" x2="0" y1="90.9803" y2="0" fill="none" stroke="rgba(190,190,190,1)"/>
      </g>
      <g transform="matrix(1 0 0 1 -182.6638 -4.2464)">
        <line x1="0" x2="5.4145" y1="0" y2="115.8806" fill="none" stroke="rgba(190,190,190,1)"/>
      </g>
      <g transform="matrix(1 0 0 1 -253.153 51.1454)">
        <line x1="126.2008" x2="0" y1="2.6241" y2="0" fill="none" stroke="rgba(190,190,190,1)"/>
      </g>
      <g transform="matrix(1 0 0 1 -253.153 51.1454)">
        <line x1="0" x2="75.9036" y1="0" y2="60.4888" fill="none" stroke="rgba(190,190,190,1)"/>
      </g>
      <g transform="matrix(1 0 0 1 -182.6638 -4.2464)">
        <line x1="55.7117" x2="0" y1="58.0159" y2="0" fill="none" stroke="rgba(190,190,190,1)"/>
      </g>
      <g transform="matrix(1 0 0 1 -177.2493 53.7695)">
        <line x1="0" x2="50.2972" y1="57.8647" y2="0" fill="none" stroke="rgba(190,190,190,1)"/>
      </g>
      <g transform="matrix(1 0 0 1 -253.153 -4.2464)">
        <line x1="0" x2="70.4892" y1="55.3918" y2="0" fill="none" stroke="rgba(190,190,190,1)"/>
      </g>
      <g transform="matrix(1 0 0 1 15.3781 -107.5157)">
        <line x1="0" x2="100.0551" y1="41.6451" y2="0" fill="none" stroke="rgba(190,190,190,1)"/>
      </g>
      <g transform="matrix(1 0 0 1 -9.99 -113.5198)">
        <line x1="57.0066" x2="0" y1="76.7939" y2="0" fill="none" stroke="rgba(190,190,190,1)"/>
      </g>
      <g transform="matrix(1 0 0 1 -10.444 -11.479)">
        <line x1="0" x2="97.106" y1="72.4137" y2="0" fill="none" stroke="rgba(190,190,190,1)"/>
      </g>
      <g transform="matrix(1 0 0 1 -130.4484 -106.2874)">
        <line x1="0" x2="90.5971" y1="0" y2="84.125" fill="none" stroke="rgba(190,190,190,1)"/>
      </g>
      <g transform="matrix(1 0 0 1 67.9108 22.0294)">
        <line x1="90.2137" x2="0" y1="0" y2="45.7879" fill="none" stroke="rgba(190,190,190,1)"/>
      </g>
      <g transform="matrix(1 0 0 1 -177.2493 35.1332)">
        <line x1="0" x2="108.3462" y1="76.5009" y2="0" fill="none" stroke="rgba(190,190,190,1)"/>
      </g>
      <g transform="matrix(1 0 0 1 32.1995 68.7639)">
        <line x1="112.5055" x2="0" y1="44.7089" y2="0" fill="none" stroke="rgba(190,190,190,1)"/>
      </g>
      <g transform="matrix(1 0 0 1 -182.6638 -4.2464)">
        <line x1="0" x2="79.6447" y1="0" y2="96.0237" fill="none" stroke="rgba(190,190,190,1)"/>
      </g>
      <g transform="matrix(1 0 0 1 -9.99 -113.5198)">
        <line x1="125.4233" x2="0" y1="6.0041" y2="0" fill="none" stroke="rgba(190,190,190,1)"/>
      </g>
      <g transform="matrix(1 0 0 1 -68.9031 35.1332)">
        <line x1="136.8139" x2="0" y1="32.6841" y2="0" fill="none" stroke="rgba(190,190,190,1)"/>
      </g>
      <g transform="matrix(1 0 0 1 -39.8513 -22.1624)">
        <line x1="126.5133" x2="0" y1="10.6834" y2="0" fill="none" stroke="rgba(190,190,190,1)"/>
      </g>
      <g transform="matrix(1 0 0 1 -103.019 68.7639)">
        <line x1="135.2186" x2="0" y1="0" y2="23.0135" fill="none" stroke="rgba(190,190,190,1)"/>
      </g>
      <g transform="matrix(1 0 0 1 -68.9031 -113.5198)">
        <line x1="0" x2="58.913" y1="148.6531" y2="0" fill="none" stroke="rgba(190,190,190,1)"/>
      </g>
      <g transform="matrix(1 0 0 1 -103.019 -22.1624)">
        <line x1="0" x2="63.1677" y1="113.9397" y2="0" fill="none" stroke="rgba(190,190,190,1)"/>
      </g>
      <g transform="matrix(1 0 0 1 -103.019 35.1332)">
        <line x1="0" x2="34.1159" y1="56.6441" y2="0" fill="none" stroke="rgba(190,190,190,1)"/>
      </g>
      <g transform="matrix(1 0 0 1 -39.8513 -113.5198)">
        <line x1="0" x2="29.8612" y1="91.3574" y2="0" fill="none" stroke="rgba(190,190,190,1)"/>
      </g>
      <g stroke-width="2" transform="matrix(1 0 0 1 47.0165 -36.726)">
        <circle cx="10" cy="10" r="10" fill="rgba(65,201,226,1)" stroke="rgba(255,255,255,1)" transform="translate(-10 -10)"/>
      </g>
      <g stroke-width="2" transform="matrix(1 0 0 1 -76.7406 -56.6475)">
        <circle cx="10" cy="10" r="10" fill="rgba(65,201,226,1)" stroke="rgba(255,255,255,1)" transform="translate(-10 -10)"/>
      </g>
      <g stroke-width="2" transform="matrix(1 0 0 1 -68.9031 35.1332)">
        <circle cx="10" cy="10" r="10" fill="rgba(65,201,226,1)" stroke="rgba(255,255,255,1)" transform="translate(-10 -10)"/>
      </g>
      <g stroke-width="2" transform="matrix(1 0 0 1 67.9108 67.8173)">
        <circle cx="10" cy="10" r="10" fill="rgba(65,201,226,1)" stroke="rgba(255,255,255,1)" transform="translate(-10 -10)"/>
      </g>
      <g stroke-width="2" transform="matrix(1 0 0 1 -182.6638 -4.2464)">
        <circle cx="10" cy="10" r="10" fill="rgba(65,201,226,1)" stroke="rgba(255,255,255,1)" transform="translate(-10 -10)"/>
      </g>
      <g stroke-width="2" transform="matrix(1 0 0 1 135.3235 -6.4189)">
        <circle cx="10" cy="10" r="10" fill="rgba(65,201,226,1)" stroke="rgba(255,255,255,1)" transform="translate(-10 -10)"/>
      </g>
      <g stroke-width="2" transform="matrix(1 0 0 1 -39.8513 -22.1624)">
        <circle cx="10" cy="10" r="10" fill="rgba(65,201,226,1)" stroke="rgba(255,255,255,1)" transform="translate(-10 -10)"/>
      </g>
      <g stroke-width="2" transform="matrix(1 0 0 1 -130.4484 -106.2874)">
        <circle cx="10" cy="10" r="10" fill="rgba(65,201,226,1)" stroke="rgba(255,255,255,1)" transform="translate(-10 -10)"/>
      </g>
      <g stroke-width="2" transform="matrix(1 0 0 1 202.9843 -76.6817)">
        <circle cx="10" cy="10" r="10" fill="rgba(65,201,226,1)" stroke="rgba(255,255,255,1)" transform="translate(-10 -10)"/>
      </g>
      <g stroke-width="2" transform="matrix(1 0 0 1 -103.019 91.7773)">
        <circle cx="10" cy="10" r="10" fill="rgba(65,201,226,1)" stroke="rgba(255,255,255,1)" transform="translate(-10 -10)"/>
      </g>
      <g stroke-width="2" transform="matrix(1 0 0 1 -9.99 -113.5198)">
        <circle cx="10" cy="10" r="10" fill="rgba(65,201,226,1)" stroke="rgba(255,255,255,1)" transform="translate(-10 -10)"/>
      </g>
      <g stroke-width="2" transform="matrix(1 0 0 1 118.7533 96.4252)">
        <circle cx="10" cy="10" r="10" fill="rgba(65,201,226,1)" stroke="rgba(255,255,255,1)" transform="translate(-10 -10)"/>
      </g>
      <g stroke-width="2" transform="matrix(1 0 0 1 -49.007 -116.7133)">
        <circle cx="10" cy="10" r="10" fill="rgba(65,201,226,1)" stroke="rgba(255,255,255,1)" transform="translate(-10 -10)"/>
      </g>
      <g stroke-width="2" transform="matrix(1 0 0 1 54.8563 15.8281)">
        <circle cx="10" cy="10" r="10" fill="rgba(65,201,226,1)" stroke="rgba(255,255,255,1)" transform="translate(-10 -10)"/>
      </g>
      <g stroke-width="2" transform="matrix(1 0 0 1 -177.2493 111.6342)">
        <circle cx="10" cy="10" r="10" fill="rgba(65,201,226,1)" stroke="rgba(255,255,255,1)" transform="translate(-10 -10)"/>
      </g>
      <g stroke-width="2" transform="matrix(1 0 0 1 84.543 -26.668)">
        <circle cx="10" cy="10" r="10" fill="rgba(65,201,226,1)" stroke="rgba(255,255,255,1)" transform="translate(-10 -10)"/>
      </g>
      <g stroke-width="2" transform="matrix(1 0 0 1 158.1245 22.0294)">
        <circle cx="10" cy="10" r="10" fill="rgba(65,201,226,1)" stroke="rgba(255,255,255,1)" transform="translate(-10 -10)"/>
      </g>
      <g stroke-width="2" transform="matrix(1 0 0 1 -66.8783 -12.2783)">
        <circle cx="10" cy="10" r="10" fill="rgba(65,201,226,1)" stroke="rgba(255,255,255,1)" transform="translate(-10 -10)"/>
      </g>
      <g stroke-width="2" transform="matrix(1 0 0 1 37.1315 -123.4218)">
        <circle cx="10" cy="10" r="10" fill="rgba(65,201,226,1)" stroke="rgba(255,255,255,1)" transform="translate(-10 -10)"/>
      </g>
      <g stroke-width="2" transform="matrix(1 0 0 1 -121.6806 161.786)">
        <circle cx="10" cy="10" r="10" fill="rgba(65,201,226,1)" stroke="rgba(255,255,255,1)" transform="translate(-10 -10)"/>
      </g>
      <g stroke-width="2" transform="matrix(1 0 0 1 -82.538 -182.0318)">
        <circle cx="10" cy="10" r="10" fill="rgba(65,201,226,1)" stroke="rgba(255,255,255,1)" transform="translate(-10 -10)"/>
      </g>
      <g stroke-width="2" transform="matrix(1 0 0 1 -126.9521 53.7695)">
        <circle cx="10" cy="10" r="10" fill="rgba(65,201,226,1)" stroke="rgba(255,255,255,1)" transform="translate(-10 -10)"/>
      </g>
      <g stroke-width="2" transform="matrix(1 0 0 1 15.3781 -65.8706)">
        <circle cx="10" cy="10" r="10" fill="rgba(65,201,226,1)" stroke="rgba(255,255,255,1)" transform="translate(-10 -10)"/>
      </g>
      <g stroke-width="2" transform="matrix(1 0 0 1 86.662 -11.479)">
        <circle cx="10" cy="10" r="10" fill="rgba(65,201,226,1)" stroke="rgba(255,255,255,1)" transform="translate(-10 -10)"/>
      </g>
      <g stroke-width="2" transform="matrix(1 0 0 1 183.9317 -.9968)">
        <circle cx="10" cy="10" r="10" fill="rgba(65,201,226,1)" stroke="rgba(255,255,255,1)" transform="translate(-10 -10)"/>
      </g>
      <g stroke-width="2" transform="matrix(1 0 0 1 -253.153 51.1454)">
        <circle cx="10" cy="10" r="10" fill="rgba(65,201,226,1)" stroke="rgba(255,255,255,1)" transform="translate(-10 -10)"/>
      </g>
      <g stroke-width="2" transform="matrix(1 0 0 1 202.1054 48.3487)">
        <circle cx="10" cy="10" r="10" fill="rgba(65,201,226,1)" stroke="rgba(255,255,255,1)" transform="translate(-10 -10)"/>
      </g>
      <g stroke-width="2" transform="matrix(1 0 0 1 -10.444 60.9348)">
        <circle cx="10" cy="10" r="10" fill="rgba(65,201,226,1)" stroke="rgba(255,255,255,1)" transform="translate(-10 -10)"/>
      </g>
      <g stroke-width="2" transform="matrix(1 0 0 1 32.1995 68.7639)">
        <circle cx="10" cy="10" r="10" fill="rgba(65,201,226,1)" stroke="rgba(255,255,255,1)" transform="translate(-10 -10)"/>
      </g>
      <g stroke-width="2" transform="matrix(1 0 0 1 144.705 113.4728)">
        <circle cx="10" cy="10" r="10" fill="rgba(65,201,226,1)" stroke="rgba(255,255,255,1)" transform="translate(-10 -10)"/>
      </g>
      <g stroke-width="2" transform="matrix(1 0 0 1 -187.5425 70.8057)">
        <circle cx="10" cy="10" r="10" fill="rgba(65,201,226,1)" stroke="rgba(255,255,255,1)" transform="translate(-10 -10)"/>
      </g>
      <g stroke-width="2" transform="matrix(1 0 0 1 115.4332 -107.5157)">
        <circle cx="10" cy="10" r="10" fill="rgba(65,201,226,1)" stroke="rgba(255,255,255,1)" transform="translate(-10 -10)"/>
      </g>
      <g transform="matrix(1 0 0 1 86.662 -11.479)">
        <line x1="97.2697" x2="0" y1="10.4822" y2="0" fill="none" stroke="rgba(190,190,190,1)"/>
      </g>
      <g transform="matrix(1 0 0 1 115.4332 -107.5157)">
        <line x1="87.551" x2="0" y1="30.834" y2="0" fill="none" stroke="rgba(190,190,190,1)"/>
      </g>
      <g transform="matrix(1 0 0 1 86.662 -76.6817)">
        <line x1="116.3223" x2="0" y1="0" y2="65.2027" fill="none" stroke="rgba(190,190,190,1)"/>
      </g>
      <g transform="matrix(1 0 0 1 115.4332 -107.5157)">
        <line x1="68.4985" x2="0" y1="106.5189" y2="0" fill="none" stroke="rgba(190,190,190,1)"/>
      </g>
      <g transform="matrix(1 0 0 1 86.662 -107.5157)">
        <line x1="0" x2="28.7712" y1="96.0367" y2="0" fill="none" stroke="rgba(190,190,190,1)"/>
      </g>
      <g transform="matrix(1 0 0 1 183.9317 -76.6817)">
        <line x1="19.0525" x2="0" y1="0" y2="75.6849" fill="none" stroke="rgba(190,190,190,1)"/>
      </g>
      <g transform="matrix(1 0 0 1 -66.8783 -12.2783)">
        <line x1="0" x2="121.7346" y1="0" y2="28.1065" fill="none" stroke="rgba(190,190,190,1)"/>
      </g>
      <g transform="matrix(1 0 0 1 -10.444 -65.8706)">
        <line x1="0" x2="25.8221" y1="126.8054" y2="0" fill="none" stroke="rgba(190,190,190,1)"/>
      </g>
      <g transform="matrix(1 0 0 1 -66.8783 -65.8706)">
        <line x1="0" x2="82.2564" y1="53.5923" y2="0" fill="none" stroke="rgba(190,190,190,1)"/>
      </g>
      <g transform="matrix(1 0 0 1 -10.444 15.8281)">
        <line x1="65.3003" x2="0" y1="0" y2="45.1066" fill="none" stroke="rgba(190,190,190,1)"/>
      </g>
      <g transform="matrix(1 0 0 1 15.3781 -65.8706)">
        <line x1="0" x2="39.4782" y1="0" y2="81.6988" fill="none" stroke="rgba(190,190,190,1)"/>
      </g>
      <g transform="matrix(1 0 0 1 -66.8783 -12.2783)">
        <line x1="0" x2="56.4342" y1="0" y2="73.2131" fill="none" stroke="rgba(190,190,190,1)"/>
      </g>
      <g transform="matrix(1 0 0 1 -76.7406 -113.5198)">
        <line x1="0" x2="66.7505" y1="56.8723" y2="0" fill="none" stroke="rgba(190,190,190,1)"/>
      </g>
      <g transform="matrix(1 0 0 1 -130.4484 -182.0318)">
        <line x1="47.9104" x2="0" y1="0" y2="75.7444" fill="none" stroke="rgba(190,190,190,1)"/>
      </g>
      <g transform="matrix(1 0 0 1 -130.4484 -106.2874)">
        <line x1="53.7078" x2="0" y1="49.6399" y2="0" fill="none" stroke="rgba(190,190,190,1)"/>
      </g>
      <g transform="matrix(1 0 0 1 -82.538 -182.0318)">
        <line x1="0" x2="72.548" y1="0" y2="68.512" fill="none" stroke="rgba(190,190,190,1)"/>
      </g>
      <g transform="matrix(1 0 0 1 -130.4484 -113.5198)">
        <line x1="120.4583" x2="0" y1="0" y2="7.2324" fill="none" stroke="rgba(190,190,190,1)"/>
      </g>
      <g transform="matrix(1 0 0 1 -82.538 -182.0318)">
        <line x1="5.7974" x2="0" y1="125.3844" y2="0" fill="none" stroke="rgba(190,190,190,1)"/>
      </g>
      <g transform="matrix(1 0 0 1 -49.007 -116.7133)">
        <line x1="0" x2="96.0235" y1="0" y2="79.9874" fill="none" stroke="rgba(190,190,190,1)"/>
      </g>
      <g transform="matrix(1 0 0 1 -39.8513 -123.4218)">
        <line x1="76.9828" x2="0" y1="0" y2="101.2595" fill="none" stroke="rgba(190,190,190,1)"/>
      </g>
      <g transform="matrix(1 0 0 1 -39.8513 -36.726)">
        <line x1="86.8678" x2="0" y1="0" y2="14.5636" fill="none" stroke="rgba(190,190,190,1)"/>
      </g>
      <g transform="matrix(1 0 0 1 -49.007 -123.4218)">
        <line x1="0" x2="86.1384" y1="6.7085" y2="0" fill="none" stroke="rgba(190,190,190,1)"/>
      </g>
      <g transform="matrix(1 0 0 1 37.1315 -123.4218)">
        <line x1="0" x2="9.885" y1="0" y2="86.6959" fill="none" stroke="rgba(190,190,190,1)"/>
      </g>
      <g transform="matrix(1 0 0 1 -49.007 -116.7133)">
        <line x1="0" x2="9.1557" y1="0" y2="94.551" fill="none" stroke="rgba(190,190,190,1)"/>
      </g>
      <g transform="matrix(1 0 0 1 135.3235 -6.4189)">
        <line x1="0" x2="66.7819" y1="0" y2="54.7675" fill="none" stroke="rgba(190,190,190,1)"/>
      </g>
      <g transform="matrix(1 0 0 1 67.9108 67.8173)">
        <line x1="76.7942" x2="0" y1="45.6554" y2="0" fill="none" stroke="rgba(190,190,190,1)"/>
      </g>
      <g transform="matrix(1 0 0 1 67.9108 -6.4189)">
        <line x1="67.4127" x2="0" y1="0" y2="74.2362" fill="none" stroke="rgba(190,190,190,1)"/>
      </g>
      <g transform="matrix(1 0 0 1 144.705 48.3487)">
        <line x1="57.4004" x2="0" y1="0" y2="65.1241" fill="none" stroke="rgba(190,190,190,1)"/>
      </g>
      <g transform="matrix(1 0 0 1 67.9108 48.3487)">
        <line x1="134.1946" x2="0" y1="0" y2="19.4687" fill="none" stroke="rgba(190,190,190,1)"/>
      </g>
      <g transform="matrix(1 0 0 1 135.3235 -6.4189)">
        <line x1="0" x2="9.3816" y1="0" y2="119.8916" fill="none" stroke="rgba(190,190,190,1)"/>
      </g>
      <g transform="matrix(1 0 0 1 118.7533 22.0294)">
        <line x1="0" x2="39.3711" y1="74.3958" y2="0" fill="none" stroke="rgba(190,190,190,1)"/>
      </g>
      <g transform="matrix(1 0 0 1 32.1995 -26.668)">
        <line x1="52.3434" x2="0" y1="0" y2="95.4319" fill="none" stroke="rgba(190,190,190,1)"/>
      </g>
      <g transform="matrix(1 0 0 1 84.543 -26.668)">
        <line x1="0" x2="73.5815" y1="0" y2="48.6975" fill="none" stroke="rgba(190,190,190,1)"/>
      </g>
      <g transform="matrix(1 0 0 1 32.1995 68.7639)">
        <line x1="0" x2="86.5538" y1="0" y2="27.6614" fill="none" stroke="rgba(190,190,190,1)"/>
      </g>
      <g transform="matrix(1 0 0 1 84.543 -26.668)">
        <line x1="34.2103" x2="0" y1="123.0933" y2="0" fill="none" stroke="rgba(190,190,190,1)"/>
      </g>
      <g transform="matrix(1 0 0 1 32.1995 22.0294)">
        <line x1="125.9249" x2="0" y1="0" y2="46.7344" fill="none" stroke="rgba(190,190,190,1)"/>
      </g>
      <g transform="matrix(1 0 0 1 -121.6806 35.1332)">
        <line x1="0" x2="52.7775" y1="126.6527" y2="0" fill="none" stroke="rgba(190,190,190,1)"/>
      </g>
      <g transform="matrix(1 0 0 1 -187.5425 70.8057)">
        <line x1="0" x2="84.5234" y1="0" y2="20.9717" fill="none" stroke="rgba(190,190,190,1)"/>
      </g>
      <g transform="matrix(1 0 0 1 -187.5425 35.1332)">
        <line x1="0" x2="118.6393" y1="35.6724" y2="0" fill="none" stroke="rgba(190,190,190,1)"/>
      </g>
      <g transform="matrix(1 0 0 1 -121.6806 91.7773)">
        <line x1="0" x2="18.6616" y1="70.0086" y2="0" fill="none" stroke="rgba(190,190,190,1)"/>
      </g>
      <g transform="matrix(1 0 0 1 -103.019 35.1332)">
        <line x1="0" x2="34.1159" y1="56.6441" y2="0" fill="none" stroke="rgba(190,190,190,1)"/>
      </g>
      <g transform="matrix(1 0 0 1 -187.5425 70.8057)">
        <line x1="65.8619" x2="0" y1="90.9803" y2="0" fill="none" stroke="rgba(190,190,190,1)"/>
      </g>
      <g transform="matrix(1 0 0 1 -182.6638 -4.2464)">
        <line x1="0" x2="5.4145" y1="0" y2="115.8806" fill="none" stroke="rgba(190,190,190,1)"/>
      </g>
      <g transform="matrix(1 0 0 1 -253.153 51.1454)">
        <line x1="126.2008" x2="0" y1="2.6241" y2="0" fill="none" stroke="rgba(190,190,190,1)"/>
      </g>
      <g transform="matrix(1 0 0 1 -253.153 51.1454)">
        <line x1="0" x2="75.9036" y1="0" y2="60.4888" fill="none" stroke="rgba(190,190,190,1)"/>
      </g>
      <g transform="matrix(1 0 0 1 -182.6638 -4.2464)">
        <line x1="55.7117" x2="0" y1="58.0159" y2="0" fill="none" stroke="rgba(190,190,190,1)"/>
      </g>
      <g transform="matrix(1 0 0 1 -177.2493 53.7695)">
        <line x1="0" x2="50.2972" y1="57.8647" y2="0" fill="none" stroke="rgba(190,190,190,1)"/>
      </g>
      <g transform="matrix(1 0 0 1 -253.153 -4.2464)">
        <line x1="0" x2="70.4892" y1="55.3918" y2="0" fill="none" stroke="rgba(190,190,190,1)"/>
      </g>
      <g transform="matrix(1 0 0 1 15.3781 -107.5157)">
        <line x1="0" x2="100.0551" y1="41.6451" y2="0" fill="none" stroke="rgba(190,190,190,1)"/>
      </g>
      <g transform="matrix(1 0 0 1 -9.99 -113.5198)">
        <line x1="57.0066" x2="0" y1="76.7939" y2="0" fill="none" stroke="rgba(190,190,190,1)"/>
      </g>
      <g transform="matrix(1 0 0 1 -10.444 -11.479)">
        <line x1="0" x2="97.106" y1="72.4137" y2="0" fill="none" stroke="rgba(190,190,190,1)"/>
      </g>
      <g transform="matrix(1 0 0 1 -130.4484 -106.2874)">
        <line x1="0" x2="90.5971" y1="0" y2="84.125" fill="none" stroke="rgba(190,190,190,1)"/>
      </g>
      <g transform="matrix(1 0 0 1 67.9108 22.0294)">
        <line x1="90.2137" x2="0" y1="0" y2="45.7879" fill="none" stroke="rgba(190,190,190,1)"/>
      </g>
      <g transform="matrix(1 0 0 1 -177.2493 35.1332)">
        <line x1="0" x2="108.3462" y1="76.5009" y2="0" fill="none" stroke="rgba(190,190,190,1)"/>
      </g>
      <g transform="matrix(1 0 0 1 32.1995 68.7639)">
        <line x1="112.5055" x2="0" y1="44.7089" y2="0" fill="none" stroke="rgba(190,190,190,1)"/>
      </g>
      <g transform="matrix(1 0 0 1 -182.6638 -4.2464)">
        <line x1="0" x2="79.6447" y1="0" y2="96.0237" fill="none" stroke="rgba(190,190,190,1)"/>
      </g>
      <g transform="matrix(1 0 0 1 -9.99 -113.5198)">
        <line x1="125.4233" x2="0" y1="6.0041" y2="0" fill="none" stroke="rgba(190,190,190,1)"/>
      </g>
      <g transform="matrix(1 0 0 1 -68.9031 35.1332)">
        <line x1="136.8139" x2="0" y1="32.6841" y2="0" fill="none" stroke="rgba(190,190,190,1)"/>
      </g>
      <g transform="matrix(1 0 0 1 -39.8513 -22.1624)">
        <line x1="126.5133" x2="0" y1="10.6834" y2="0" fill="none" stroke="rgba(190,190,190,1)"/>
      </g>
      <g transform="matrix(1 0 0 1 -103.019 68.7639)">
        <line x1="135.2186" x2="0" y1="0" y2="23.0135" fill="none" stroke="rgba(190,190,190,1)"/>
      </g>
      <g transform="matrix(1 0 0 1 -68.9031 -113.5198)">
        <line x1="0" x2="58.913" y1="148.6531" y2="0" fill="none" stroke="rgba(190,190,190,1)"/>
      </g>
      <g transform="matrix(1 0 0 1 -103.019 -22.1624)">
        <line x1="0" x2="63.1677" y1="113.9397" y2="0" fill="none" stroke="rgba(190,190,190,1)"/>
      </g>
      <g transform="matrix(1 0 0 1 -103.019 35.1332)">
        <line x1="0" x2="34.1159" y1="56.6441" y2="0" fill="none" stroke="rgba(190,190,190,1)"/>
      </g>
      <g transform="matrix(1 0 0 1 -39.8513 -113.5198)">
        <line x1="0" x2="29.8612" y1="91.3574" y2="0" fill="none" stroke="rgba(190,190,190,1)"/>
      </g>
      <g stroke-width="2" transform="matrix(1 0 0 1 47.0165 -36.726)">
        <circle cx="10" cy="10" r="10" fill="rgba(65,201,226,1)" stroke="rgba(255,255,255,1)" transform="translate(-10 -10)"/>
      </g>
      <g stroke-width="2" transform="matrix(1 0 0 1 -76.7406 -56.6475)">
        <circle cx="10" cy="10" r="10" fill="rgba(65,201,226,1)" stroke="rgba(255,255,255,1)" transform="translate(-10 -10)"/>
      </g>
      <g stroke-width="2" transform="matrix(1 0 0 1 -68.9031 35.1332)">
        <circle cx="10" cy="10" r="10" fill="rgba(65,201,226,1)" stroke="rgba(255,255,255,1)" transform="translate(-10 -10)"/>
      </g>
      <g stroke-width="2" transform="matrix(1 0 0 1 67.9108 67.8173)">
        <circle cx="10" cy="10" r="10" fill="rgba(65,201,226,1)" stroke="rgba(255,255,255,1)" transform="translate(-10 -10)"/>
      </g>
      <g stroke-width="2" transform="matrix(1 0 0 1 -182.6638 -4.2464)">
        <circle cx="10" cy="10" r="10" fill="rgba(65,201,226,1)" stroke="rgba(255,255,255,1)" transform="translate(-10 -10)"/>
      </g>
      <g stroke-width="2" transform="matrix(1 0 0 1 135.3235 -6.4189)">
        <circle cx="10" cy="10" r="10" fill="rgba(65,201,226,1)" stroke="rgba(255,255,255,1)" transform="translate(-10 -10)"/>
      </g>
      <g stroke-width="2" transform="matrix(1 0 0 1 -39.8513 -22.1624)">
        <circle cx="10" cy="10" r="10" fill="rgba(65,201,226,1)" stroke="rgba(255,255,255,1)" transform="translate(-10 -10)"/>
      </g>
      <g stroke-width="2" transform="matrix(1 0 0 1 -130.4484 -106.2874)">
        <circle cx="10" cy="10" r="10" fill="rgba(65,201,226,1)" stroke="rgba(255,255,255,1)" transform="translate(-10 -10)"/>
      </g>
      <g stroke-width="2" transform="matrix(1 0 0 1 202.9843 -76.6817)">
        <circle cx="10" cy="10" r="10" fill="rgba(65,201,226,1)" stroke="rgba(255,255,255,1)" transform="translate(-10 -10)"/>
      </g>
      <g stroke-width="2" transform="matrix(1 0 0 1 -103.019 91.7773)">
        <circle cx="10" cy="10" r="10" fill="rgba(65,201,226,1)" stroke="rgba(255,255,255,1)" transform="translate(-10 -10)"/>
      </g>
      <g stroke-width="2" transform="matrix(1 0 0 1 -9.99 -113.5198)">
        <circle cx="10" cy="10" r="10" fill="rgba(65,201,226,1)" stroke="rgba(255,255,255,1)" transform="translate(-10 -10)"/>
      </g>
      <g stroke-width="2" transform="matrix(1 0 0 1 118.7533 96.4252)">
        <circle cx="10" cy="10" r="10" fill="rgba(65,201,226,1)" stroke="rgba(255,255,255,1)" transform="translate(-10 -10)"/>
      </g>
      <g stroke-width="2" transform="matrix(1 0 0 1 -49.007 -116.7133)">
        <circle cx="10" cy="10" r="10" fill="rgba(65,201,226,1)" stroke="rgba(255,255,255,1)" transform="translate(-10 -10)"/>
      </g>
      <g stroke-width="2" transform="matrix(1 0 0 1 54.8563 15.8281)">
        <circle cx="10" cy="10" r="10" fill="rgba(65,201,226,1)" stroke="rgba(255,255,255,1)" transform="translate(-10 -10)"/>
      </g>
      <g stroke-width="2" transform="matrix(1 0 0 1 -177.2493 111.6342)">
        <circle cx="10" cy="10" r="10" fill="rgba(65,201,226,1)" stroke="rgba(255,255,255,1)" transform="translate(-10 -10)"/>
      </g>
      <g stroke-width="2" transform="matrix(1 0 0 1 84.543 -26.668)">
        <circle cx="10" cy="10" r="10" fill="rgba(65,201,226,1)" stroke="rgba(255,255,255,1)" transform="translate(-10 -10)"/>
      </g>
      <g stroke-width="2" transform="matrix(1 0 0 1 158.1245 22.0294)">
        <circle cx="10" cy="10" r="10" fill="rgba(65,201,226,1)" stroke="rgba(255,255,255,1)" transform="translate(-10 -10)"/>
      </g>
      <g stroke-width="2" transform="matrix(1 0 0 1 -66.8783 -12.2783)">
        <circle cx="10" cy="10" r="10" fill="rgba(65,201,226,1)" stroke="rgba(255,255,255,1)" transform="translate(-10 -10)"/>
      </g>
      <g stroke-width="2" transform="matrix(1 0 0 1 37.1315 -123.4218)">
        <circle cx="10" cy="10" r="10" fill="rgba(65,201,226,1)" stroke="rgba(255,255,255,1)" transform="translate(-10 -10)"/>
      </g>
      <g stroke-width="2" transform="matrix(1 0 0 1 -121.6806 161.786)">
        <circle cx="10" cy="10" r="10" fill="rgba(65,201,226,1)" stroke="rgba(255,255,255,1)" transform="translate(-10 -10)"/>
      </g>
      <g stroke-width="2" transform="matrix(1 0 0 1 -82.538 -182.0318)">
        <circle cx="10" cy="10" r="10" fill="rgba(65,201,226,1)" stroke="rgba(255,255,255,1)" transform="translate(-10 -10)"/>
      </g>
      <g stroke-width="2" transform="matrix(1 0 0 1 -126.9521 53.7695)">
        <circle cx="10" cy="10" r="10" fill="rgba(65,201,226,1)" stroke="rgba(255,255,255,1)" transform="translate(-10 -10)"/>
      </g>
      <g stroke-width="2" transform="matrix(1 0 0 1 15.3781 -65.8706)">
        <circle cx="10" cy="10" r="10" fill="rgba(65,201,226,1)" stroke="rgba(255,255,255,1)" transform="translate(-10 -10)"/>
      </g>
      <g stroke-width="2" transform="matrix(1 0 0 1 86.662 -11.479)">
        <circle cx="10" cy="10" r="10" fill="rgba(65,201,226,1)" stroke="rgba(255,255,255,1)" transform="translate(-10 -10)"/>
      </g>
      <g stroke-width="2" transform="matrix(1 0 0 1 183.9317 -.9968)">
        <circle cx="10" cy="10" r="10" fill="rgba(65,201,226,1)" stroke="rgba(255,255,255,1)" transform="translate(-10 -10)"/>
      </g>
      <g stroke-width="2" transform="matrix(1 0 0 1 -253.153 51.1454)">
        <circle cx="10" cy="10" r="10" fill="rgba(65,201,226,1)" stroke="rgba(255,255,255,1)" transform="translate(-10 -10)"/>
      </g>
      <g stroke-width="2" transform="matrix(1 0 0 1 202.1054 48.3487)">
        <circle cx="10" cy="10" r="10" fill="rgba(65,201,226,1)" stroke="rgba(255,255,255,1)" transform="translate(-10 -10)"/>
      </g>
      <g stroke-width="2" transform="matrix(1 0 0 1 -10.444 60.9348)">
        <circle cx="10" cy="10" r="10" fill="rgba(65,201,226,1)" stroke="rgba(255,255,255,1)" transform="translate(-10 -10)"/>
      </g>
      <g stroke-width="2" transform="matrix(1 0 0 1 32.1995 68.7639)">
        <circle cx="10" cy="10" r="10" fill="rgba(65,201,226,1)" stroke="rgba(255,255,255,1)" transform="translate(-10 -10)"/>
      </g>
      <g stroke-width="2" transform="matrix(1 0 0 1 144.705 113.4728)">
        <circle cx="10" cy="10" r="10" fill="rgba(65,201,226,1)" stroke="rgba(255,255,255,1)" transform="translate(-10 -10)"/>
      </g>
      <g stroke-width="2" transform="matrix(1 0 0 1 -187.5425 70.8057)">
        <circle cx="10" cy="10" r="10" fill="rgba(65,201,226,1)" stroke="rgba(255,255,255,1)" transform="translate(-10 -10)"/>
      </g>
      <g stroke-width="2" transform="matrix(1 0 0 1 115.4332 -107.5157)">
        <circle cx="10" cy="10" r="10" fill="rgba(65,201,226,1)" stroke="rgba(255,255,255,1)" transform="translate(-10 -10)"/>
      </g>
    </g>
  </g>
</svg>
