<svg xmlns="http://www.w3.org/2000/svg" width="1000" height="1000" color-interpolation-filters="sRGB" style="background: transparent;">
  <g transform="matrix(1 0 0 1 0 0)">
    <g fill="none" stroke="none" stroke-dashoffset="0" font-family="sans-serif" font-size="16" font-style="normal" font-variant="normal" font-weight="normal" text-anchor="left" transform="matrix(1 0 0 1 0 0)" visibility="visible">
      <g transform="matrix(1 0 0 1 525.6221 440.3848)">
        <line x1="154.021" x2="0" y1="0" y2="311.388" fill="none" stroke="rgba(128,128,128,1)"/>
      </g>
      <g transform="matrix(1 0 0 1 501.5881 487.532)">
        <line x1="218.4176" x2="0" y1="187.1073" y2="0" fill="none" stroke="rgba(128,128,128,1)"/>
      </g>
      <g transform="matrix(1 0 0 1 525.6221 674.6393)">
        <line x1="194.3836" x2="0" y1="0" y2="77.1335" fill="none" stroke="rgba(128,128,128,1)"/>
      </g>
      <g transform="matrix(1 0 0 1 501.5881 440.3848)">
        <line x1="178.055" x2="0" y1="0" y2="47.1472" fill="none" stroke="rgba(128,128,128,1)"/>
      </g>
      <g transform="matrix(1 0 0 1 501.5881 487.532)">
        <line x1="24.034" x2="0" y1="264.2407" y2="0" fill="none" stroke="rgba(128,128,128,1)"/>
      </g>
      <g transform="matrix(1 0 0 1 679.6431 440.3848)">
        <line x1="40.3626" x2="0" y1="234.2545" y2="0" fill="none" stroke="rgba(128,128,128,1)"/>
      </g>
      <g transform="matrix(1 0 0 1 364.4483 415.0672)">
        <line x1="0" x2="186.4768" y1="0" y2="148.0096" fill="none" stroke="rgba(128,128,128,1)"/>
      </g>
      <g transform="matrix(1 0 0 1 369.9067 610.8229)">
        <line x1="246.0769" x2="0" y1="77.8323" y2="0" fill="none" stroke="rgba(128,128,128,1)"/>
      </g>
      <g transform="matrix(1 0 0 1 364.4483 415.0672)">
        <line x1="0" x2="5.4583" y1="0" y2="195.7557" fill="none" stroke="rgba(128,128,128,1)"/>
      </g>
      <g transform="matrix(1 0 0 1 550.9252 563.0768)">
        <line x1="0" x2="65.0584" y1="0" y2="125.5784" fill="none" stroke="rgba(128,128,128,1)"/>
      </g>
      <g transform="matrix(1 0 0 1 369.9067 563.0768)">
        <line x1="0" x2="181.0185" y1="47.746" y2="0" fill="none" stroke="rgba(128,128,128,1)"/>
      </g>
      <g transform="matrix(1 0 0 1 364.4483 415.0672)">
        <line x1="0" x2="251.5352" y1="0" y2="273.588" fill="none" stroke="rgba(128,128,128,1)"/>
      </g>
      <g transform="matrix(1 0 0 1 449.4133 600.4271)">
        <line x1="334.1352" x2="0" y1="0" y2="111.4103" fill="none" stroke="rgba(128,128,128,1)"/>
      </g>
      <g transform="matrix(1 0 0 1 637.3333 597.3717)">
        <line x1="39.3437" x2="0" y1="214.9153" y2="0" fill="none" stroke="rgba(128,128,128,1)"/>
      </g>
      <g transform="matrix(1 0 0 1 637.3333 597.3717)">
        <line x1="146.2153" x2="0" y1="3.0555" y2="0" fill="none" stroke="rgba(128,128,128,1)"/>
      </g>
      <g transform="matrix(1 0 0 1 449.4133 711.8375)">
        <line x1="227.2636" x2="0" y1="100.4495" y2="0" fill="none" stroke="rgba(128,128,128,1)"/>
      </g>
      <g transform="matrix(1 0 0 1 449.4133 597.3717)">
        <line x1="0" x2="187.9199" y1="114.4658" y2="0" fill="none" stroke="rgba(128,128,128,1)"/>
      </g>
      <g transform="matrix(1 0 0 1 676.677 600.4271)">
        <line x1="106.8716" x2="0" y1="0" y2="211.8599" fill="none" stroke="rgba(128,128,128,1)"/>
      </g>
      <g transform="matrix(1 0 0 1 645.89 308.576)">
        <line x1="41.6454" x2="0" y1="0" y2="197.4606" fill="none" stroke="rgba(128,128,128,1)"/>
      </g>
      <g transform="matrix(1 0 0 1 432.6374 262.6494)">
        <line x1="99.8448" x2="0" y1="0" y2="231.0276" fill="none" stroke="rgba(128,128,128,1)"/>
      </g>
      <g transform="matrix(1 0 0 1 432.6374 493.677)">
        <line x1="213.2526" x2="0" y1="12.3597" y2="0" fill="none" stroke="rgba(128,128,128,1)"/>
      </g>
      <g transform="matrix(1 0 0 1 532.4822 262.6494)">
        <line x1="155.0532" x2="0" y1="45.9267" y2="0" fill="none" stroke="rgba(128,128,128,1)"/>
      </g>
      <g transform="matrix(1 0 0 1 532.4822 262.6494)">
        <line x1="0" x2="113.4078" y1="0" y2="243.3873" fill="none" stroke="rgba(128,128,128,1)"/>
      </g>
      <g transform="matrix(1 0 0 1 432.6374 308.576)">
        <line x1="254.898" x2="0" y1="0" y2="185.1009" fill="none" stroke="rgba(128,128,128,1)"/>
      </g>
      <g transform="matrix(1 0 0 1 288.9232 522.6744)">
        <line x1="0" x2="165.9825" y1="0" y2="122.5481" fill="none" stroke="rgba(128,128,128,1)"/>
      </g>
      <g transform="matrix(1 0 0 1 215.8974 734.9642)">
        <line x1="130.6274" x2="0" y1="82.3173" y2="0" fill="none" stroke="rgba(128,128,128,1)"/>
      </g>
      <g transform="matrix(1 0 0 1 215.8974 522.6744)">
        <line x1="73.0258" x2="0" y1="0" y2="212.2898" fill="none" stroke="rgba(128,128,128,1)"/>
      </g>
      <g transform="matrix(1 0 0 1 346.5248 645.2225)">
        <line x1="108.3808" x2="0" y1="0" y2="172.0591" fill="none" stroke="rgba(128,128,128,1)"/>
      </g>
      <g transform="matrix(1 0 0 1 215.8974 645.2225)">
        <line x1="239.0082" x2="0" y1="0" y2="89.7417" fill="none" stroke="rgba(128,128,128,1)"/>
      </g>
      <g transform="matrix(1 0 0 1 288.9232 522.6744)">
        <line x1="0" x2="57.6016" y1="0" y2="294.6071" fill="none" stroke="rgba(128,128,128,1)"/>
      </g>
      <g transform="matrix(1 0 0 1 167.4647 374.8435)">
        <line x1="0" x2="133.1512" y1="0" y2="298.8744" fill="none" stroke="rgba(128,128,128,1)"/>
      </g>
      <g transform="matrix(1 0 0 1 120.9333 447.655)">
        <line x1="126.9265" x2="0" y1="0" y2="220.8088" fill="none" stroke="rgba(128,128,128,1)"/>
      </g>
      <g transform="matrix(1 0 0 1 247.8599 447.655)">
        <line x1="0" x2="52.7561" y1="0" y2="226.0628" fill="none" stroke="rgba(128,128,128,1)"/>
      </g>
      <g transform="matrix(1 0 0 1 120.9333 374.8435)">
        <line x1="0" x2="46.5314" y1="293.6204" y2="0" fill="none" stroke="rgba(128,128,128,1)"/>
      </g>
      <g transform="matrix(1 0 0 1 167.4647 374.8435)">
        <line x1="0" x2="80.3952" y1="0" y2="72.8116" fill="none" stroke="rgba(128,128,128,1)"/>
      </g>
      <g transform="matrix(1 0 0 1 120.9333 668.464)">
        <line x1="179.6826" x2="0" y1="5.254" y2="0" fill="none" stroke="rgba(128,128,128,1)"/>
      </g>
      <g transform="matrix(1 0 0 1 193.361 510.7129)">
        <line x1="245.4761" x2="0" y1="59.9213" y2="0" fill="none" stroke="rgba(128,128,128,1)"/>
      </g>
      <g transform="matrix(1 0 0 1 279.0453 376.7303)">
        <line x1="149.3357" x2="0" y1="0" y2="219.0987" fill="none" stroke="rgba(128,128,128,1)"/>
      </g>
      <g transform="matrix(1 0 0 1 193.361 376.7303)">
        <line x1="235.0201" x2="0" y1="0" y2="133.9825" fill="none" stroke="rgba(128,128,128,1)"/>
      </g>
      <g transform="matrix(1 0 0 1 279.0453 570.6342)">
        <line x1="159.7918" x2="0" y1="0" y2="25.1948" fill="none" stroke="rgba(128,128,128,1)"/>
      </g>
      <g transform="matrix(1 0 0 1 193.361 510.7129)">
        <line x1="85.6843" x2="0" y1="85.1162" y2="0" fill="none" stroke="rgba(128,128,128,1)"/>
      </g>
      <g transform="matrix(1 0 0 1 428.381 376.7303)">
        <line x1="10.4561" x2="0" y1="193.9039" y2="0" fill="none" stroke="rgba(128,128,128,1)"/>
      </g>
      <g transform="matrix(1 0 0 1 442.5812 278.6392)">
        <line x1="0" x2="112.6916" y1="0" y2="162.9494" fill="none" stroke="rgba(128,128,128,1)"/>
      </g>
      <g transform="matrix(1 0 0 1 638.8957 197.656)">
        <line x1="120.1299" x2="0" y1="184.9956" y2="0" fill="none" stroke="rgba(128,128,128,1)"/>
      </g>
      <g transform="matrix(1 0 0 1 555.2728 197.656)">
        <line x1="83.6229" x2="0" y1="0" y2="243.9326" fill="none" stroke="rgba(128,128,128,1)"/>
      </g>
      <g transform="matrix(1 0 0 1 442.5812 278.6392)">
        <line x1="316.4444" x2="0" y1="104.0124" y2="0" fill="none" stroke="rgba(128,128,128,1)"/>
      </g>
      <g transform="matrix(1 0 0 1 555.2728 382.6515)">
        <line x1="0" x2="203.7528" y1="58.937" y2="0" fill="none" stroke="rgba(128,128,128,1)"/>
      </g>
      <g transform="matrix(1 0 0 1 442.5812 197.656)">
        <line x1="196.3145" x2="0" y1="0" y2="80.9832" fill="none" stroke="rgba(128,128,128,1)"/>
      </g>
      <g transform="matrix(1 0 0 1 369.9067 487.532)">
        <line x1="0" x2="131.6815" y1="123.2909" y2="0" fill="none" stroke="rgba(128,128,128,1)"/>
      </g>
      <g transform="matrix(1 0 0 1 449.4133 506.0366)">
        <line x1="196.4767" x2="0" y1="0" y2="205.8008" fill="none" stroke="rgba(128,128,128,1)"/>
      </g>
      <g transform="matrix(1 0 0 1 525.6221 688.6552)">
        <line x1="90.3615" x2="0" y1="0" y2="63.1176" fill="none" stroke="rgba(128,128,128,1)"/>
      </g>
      <g transform="matrix(1 0 0 1 432.6374 493.677)">
        <line x1="204.6958" x2="0" y1="103.6947" y2="0" fill="none" stroke="rgba(128,128,128,1)"/>
      </g>
      <g transform="matrix(1 0 0 1 215.8974 673.7179)">
        <line x1="84.7185" x2="0" y1="0" y2="61.2464" fill="none" stroke="rgba(128,128,128,1)"/>
      </g>
      <g transform="matrix(1 0 0 1 193.361 441.5886)">
        <line x1="361.9118" x2="0" y1="0" y2="69.1243" fill="none" stroke="rgba(128,128,128,1)"/>
      </g>
      <g transform="matrix(1 0 0 1 120.9333 668.464)">
        <line x1="225.5915" x2="0" y1="148.8177" y2="0" fill="none" stroke="rgba(128,128,128,1)"/>
      </g>
      <g transform="matrix(1 0 0 1 279.0453 278.6392)">
        <line x1="163.5359" x2="0" y1="0" y2="317.1899" fill="none" stroke="rgba(128,128,128,1)"/>
      </g>
      <g transform="matrix(1 0 0 1 449.4133 487.532)">
        <line x1="52.1748" x2="0" y1="0" y2="224.3054" fill="none" stroke="rgba(128,128,128,1)"/>
      </g>
      <g transform="matrix(1 0 0 1 193.361 510.7129)">
        <line x1="22.5364" x2="0" y1="224.2514" y2="0" fill="none" stroke="rgba(128,128,128,1)"/>
      </g>
      <g transform="matrix(1 0 0 1 432.6374 493.677)">
        <line x1="92.9847" x2="0" y1="258.0958" y2="0" fill="none" stroke="rgba(128,128,128,1)"/>
      </g>
      <g transform="matrix(1 0 0 1 120.9333 595.829)">
        <line x1="0" x2="158.112" y1="72.6349" y2="0" fill="none" stroke="rgba(128,128,128,1)"/>
      </g>
      <g transform="matrix(1 0 0 1 193.361 510.7129)">
        <line x1="0" x2="256.0523" y1="0" y2="201.1246" fill="none" stroke="rgba(128,128,128,1)"/>
      </g>
      <g transform="matrix(1 0 0 1 279.0453 493.677)">
        <line x1="0" x2="153.5921" y1="102.152" y2="0" fill="none" stroke="rgba(128,128,128,1)"/>
      </g>
      <g transform="matrix(1 0 0 1 193.361 510.7129)">
        <line x1="85.6843" x2="0" y1="85.1162" y2="0" fill="none" stroke="rgba(128,128,128,1)"/>
      </g>
      <g transform="matrix(1 0 0 1 432.6374 493.677)">
        <line x1="0" x2="16.7759" y1="0" y2="218.1605" fill="none" stroke="rgba(128,128,128,1)"/>
      </g>
      <g stroke-width="2" transform="matrix(1 0 0 1 645.89 506.0366)">
        <circle cx="10" cy="10" r="10" fill="rgba(207,226,252,1)" stroke="rgba(118,145,241,1)" transform="translate(-10 -10)"/>
      </g>
      <g stroke-width="2" transform="matrix(1 0 0 1 783.5485 600.4271)">
        <circle cx="10" cy="10" r="10" fill="rgba(207,226,252,1)" stroke="rgba(118,145,241,1)" transform="translate(-10 -10)"/>
      </g>
      <g stroke-width="2" transform="matrix(1 0 0 1 193.361 510.7129)">
        <circle cx="10" cy="10" r="10" fill="rgba(207,226,252,1)" stroke="rgba(118,145,241,1)" transform="translate(-10 -10)"/>
      </g>
      <g stroke-width="2" transform="matrix(1 0 0 1 215.8974 734.9642)">
        <circle cx="10" cy="10" r="10" fill="rgba(207,226,252,1)" stroke="rgba(118,145,241,1)" transform="translate(-10 -10)"/>
      </g>
      <g stroke-width="2" transform="matrix(1 0 0 1 442.5812 278.6392)">
        <circle cx="10" cy="10" r="10" fill="rgba(207,226,252,1)" stroke="rgba(118,145,241,1)" transform="translate(-10 -10)"/>
      </g>
      <g stroke-width="2" transform="matrix(1 0 0 1 288.9232 522.6744)">
        <circle cx="10" cy="10" r="10" fill="rgba(207,226,252,1)" stroke="rgba(118,145,241,1)" transform="translate(-10 -10)"/>
      </g>
      <g stroke-width="2" transform="matrix(1 0 0 1 432.6374 493.677)">
        <circle cx="10" cy="10" r="10" fill="rgba(207,226,252,1)" stroke="rgba(118,145,241,1)" transform="translate(-10 -10)"/>
      </g>
      <g stroke-width="2" transform="matrix(1 0 0 1 637.3333 597.3717)">
        <circle cx="10" cy="10" r="10" fill="rgba(207,226,252,1)" stroke="rgba(118,145,241,1)" transform="translate(-10 -10)"/>
      </g>
      <g stroke-width="2" transform="matrix(1 0 0 1 720.0057 674.6393)">
        <circle cx="10" cy="10" r="10" fill="rgba(207,226,252,1)" stroke="rgba(118,145,241,1)" transform="translate(-10 -10)"/>
      </g>
      <g stroke-width="2" transform="matrix(1 0 0 1 279.0453 595.829)">
        <circle cx="10" cy="10" r="10" fill="rgba(207,226,252,1)" stroke="rgba(118,145,241,1)" transform="translate(-10 -10)"/>
      </g>
      <g stroke-width="2" transform="matrix(1 0 0 1 449.4133 711.8375)">
        <circle cx="10" cy="10" r="10" fill="rgba(207,226,252,1)" stroke="rgba(118,145,241,1)" transform="translate(-10 -10)"/>
      </g>
      <g stroke-width="2" transform="matrix(1 0 0 1 167.4647 374.8435)">
        <circle cx="10" cy="10" r="10" fill="rgba(207,226,252,1)" stroke="rgba(118,145,241,1)" transform="translate(-10 -10)"/>
      </g>
      <g stroke-width="2" transform="matrix(1 0 0 1 687.5354 308.576)">
        <circle cx="10" cy="10" r="10" fill="rgba(207,226,252,1)" stroke="rgba(118,145,241,1)" transform="translate(-10 -10)"/>
      </g>
      <g stroke-width="2" transform="matrix(1 0 0 1 550.9252 563.0768)">
        <circle cx="10" cy="10" r="10" fill="rgba(207,226,252,1)" stroke="rgba(118,145,241,1)" transform="translate(-10 -10)"/>
      </g>
      <g stroke-width="2" transform="matrix(1 0 0 1 555.2728 441.5886)">
        <circle cx="10" cy="10" r="10" fill="rgba(207,226,252,1)" stroke="rgba(118,145,241,1)" transform="translate(-10 -10)"/>
      </g>
      <g stroke-width="2" transform="matrix(1 0 0 1 247.8599 447.655)">
        <circle cx="10" cy="10" r="10" fill="rgba(207,226,252,1)" stroke="rgba(118,145,241,1)" transform="translate(-10 -10)"/>
      </g>
      <g stroke-width="2" transform="matrix(1 0 0 1 300.616 673.7179)">
        <circle cx="10" cy="10" r="10" fill="rgba(207,226,252,1)" stroke="rgba(118,145,241,1)" transform="translate(-10 -10)"/>
      </g>
      <g stroke-width="2" transform="matrix(1 0 0 1 364.4483 415.0672)">
        <circle cx="10" cy="10" r="10" fill="rgba(207,226,252,1)" stroke="rgba(118,145,241,1)" transform="translate(-10 -10)"/>
      </g>
      <g stroke-width="2" transform="matrix(1 0 0 1 532.4822 262.6494)">
        <circle cx="10" cy="10" r="10" fill="rgba(207,226,252,1)" stroke="rgba(118,145,241,1)" transform="translate(-10 -10)"/>
      </g>
      <g stroke-width="2" transform="matrix(1 0 0 1 438.8372 570.6342)">
        <circle cx="10" cy="10" r="10" fill="rgba(207,226,252,1)" stroke="rgba(118,145,241,1)" transform="translate(-10 -10)"/>
      </g>
      <g stroke-width="2" transform="matrix(1 0 0 1 676.677 812.287)">
        <circle cx="10" cy="10" r="10" fill="rgba(207,226,252,1)" stroke="rgba(118,145,241,1)" transform="translate(-10 -10)"/>
      </g>
      <g stroke-width="2" transform="matrix(1 0 0 1 759.0256 382.6515)">
        <circle cx="10" cy="10" r="10" fill="rgba(207,226,252,1)" stroke="rgba(118,145,241,1)" transform="translate(-10 -10)"/>
      </g>
      <g stroke-width="2" transform="matrix(1 0 0 1 369.9067 610.8229)">
        <circle cx="10" cy="10" r="10" fill="rgba(207,226,252,1)" stroke="rgba(118,145,241,1)" transform="translate(-10 -10)"/>
      </g>
      <g stroke-width="2" transform="matrix(1 0 0 1 525.6221 751.7728)">
        <circle cx="10" cy="10" r="10" fill="rgba(207,226,252,1)" stroke="rgba(118,145,241,1)" transform="translate(-10 -10)"/>
      </g>
      <g stroke-width="2" transform="matrix(1 0 0 1 679.6431 440.3848)">
        <circle cx="10" cy="10" r="10" fill="rgba(207,226,252,1)" stroke="rgba(118,145,241,1)" transform="translate(-10 -10)"/>
      </g>
      <g stroke-width="2" transform="matrix(1 0 0 1 638.8957 197.656)">
        <circle cx="10" cy="10" r="10" fill="rgba(207,226,252,1)" stroke="rgba(118,145,241,1)" transform="translate(-10 -10)"/>
      </g>
      <g stroke-width="2" transform="matrix(1 0 0 1 454.9056 645.2225)">
        <circle cx="10" cy="10" r="10" fill="rgba(207,226,252,1)" stroke="rgba(118,145,241,1)" transform="translate(-10 -10)"/>
      </g>
      <g stroke-width="2" transform="matrix(1 0 0 1 615.9836 688.6552)">
        <circle cx="10" cy="10" r="10" fill="rgba(207,226,252,1)" stroke="rgba(118,145,241,1)" transform="translate(-10 -10)"/>
      </g>
      <g stroke-width="2" transform="matrix(1 0 0 1 120.9333 668.464)">
        <circle cx="10" cy="10" r="10" fill="rgba(207,226,252,1)" stroke="rgba(118,145,241,1)" transform="translate(-10 -10)"/>
      </g>
      <g stroke-width="2" transform="matrix(1 0 0 1 346.5248 817.2816)">
        <circle cx="10" cy="10" r="10" fill="rgba(207,226,252,1)" stroke="rgba(118,145,241,1)" transform="translate(-10 -10)"/>
      </g>
      <g stroke-width="2" transform="matrix(1 0 0 1 428.381 376.7303)">
        <circle cx="10" cy="10" r="10" fill="rgba(207,226,252,1)" stroke="rgba(118,145,241,1)" transform="translate(-10 -10)"/>
      </g>
      <g stroke-width="2" transform="matrix(1 0 0 1 501.5881 487.532)">
        <circle cx="10" cy="10" r="10" fill="rgba(207,226,252,1)" stroke="rgba(118,145,241,1)" transform="translate(-10 -10)"/>
      </g>
      <g transform="matrix(1 0 0 1 525.6221 440.3848)">
        <line x1="154.021" x2="0" y1="0" y2="311.388" fill="none" stroke="rgba(128,128,128,1)"/>
      </g>
      <g transform="matrix(1 0 0 1 501.5881 487.532)">
        <line x1="218.4176" x2="0" y1="187.1073" y2="0" fill="none" stroke="rgba(128,128,128,1)"/>
      </g>
      <g transform="matrix(1 0 0 1 525.6221 674.6393)">
        <line x1="194.3836" x2="0" y1="0" y2="77.1335" fill="none" stroke="rgba(128,128,128,1)"/>
      </g>
      <g transform="matrix(1 0 0 1 501.5881 440.3848)">
        <line x1="178.055" x2="0" y1="0" y2="47.1472" fill="none" stroke="rgba(128,128,128,1)"/>
      </g>
      <g transform="matrix(1 0 0 1 501.5881 487.532)">
        <line x1="24.034" x2="0" y1="264.2407" y2="0" fill="none" stroke="rgba(128,128,128,1)"/>
      </g>
      <g transform="matrix(1 0 0 1 679.6431 440.3848)">
        <line x1="40.3626" x2="0" y1="234.2545" y2="0" fill="none" stroke="rgba(128,128,128,1)"/>
      </g>
      <g transform="matrix(1 0 0 1 364.4483 415.0672)">
        <line x1="0" x2="186.4768" y1="0" y2="148.0096" fill="none" stroke="rgba(128,128,128,1)"/>
      </g>
      <g transform="matrix(1 0 0 1 369.9067 610.8229)">
        <line x1="246.0769" x2="0" y1="77.8323" y2="0" fill="none" stroke="rgba(128,128,128,1)"/>
      </g>
      <g transform="matrix(1 0 0 1 364.4483 415.0672)">
        <line x1="0" x2="5.4583" y1="0" y2="195.7557" fill="none" stroke="rgba(128,128,128,1)"/>
      </g>
      <g transform="matrix(1 0 0 1 550.9252 563.0768)">
        <line x1="0" x2="65.0584" y1="0" y2="125.5784" fill="none" stroke="rgba(128,128,128,1)"/>
      </g>
      <g transform="matrix(1 0 0 1 369.9067 563.0768)">
        <line x1="0" x2="181.0185" y1="47.746" y2="0" fill="none" stroke="rgba(128,128,128,1)"/>
      </g>
      <g transform="matrix(1 0 0 1 364.4483 415.0672)">
        <line x1="0" x2="251.5352" y1="0" y2="273.588" fill="none" stroke="rgba(128,128,128,1)"/>
      </g>
      <g transform="matrix(1 0 0 1 449.4133 600.4271)">
        <line x1="334.1352" x2="0" y1="0" y2="111.4103" fill="none" stroke="rgba(128,128,128,1)"/>
      </g>
      <g transform="matrix(1 0 0 1 637.3333 597.3717)">
        <line x1="39.3437" x2="0" y1="214.9153" y2="0" fill="none" stroke="rgba(128,128,128,1)"/>
      </g>
      <g transform="matrix(1 0 0 1 637.3333 597.3717)">
        <line x1="146.2153" x2="0" y1="3.0555" y2="0" fill="none" stroke="rgba(128,128,128,1)"/>
      </g>
      <g transform="matrix(1 0 0 1 449.4133 711.8375)">
        <line x1="227.2636" x2="0" y1="100.4495" y2="0" fill="none" stroke="rgba(128,128,128,1)"/>
      </g>
      <g transform="matrix(1 0 0 1 449.4133 597.3717)">
        <line x1="0" x2="187.9199" y1="114.4658" y2="0" fill="none" stroke="rgba(128,128,128,1)"/>
      </g>
      <g transform="matrix(1 0 0 1 676.677 600.4271)">
        <line x1="106.8716" x2="0" y1="0" y2="211.8599" fill="none" stroke="rgba(128,128,128,1)"/>
      </g>
      <g transform="matrix(1 0 0 1 645.89 308.576)">
        <line x1="41.6454" x2="0" y1="0" y2="197.4606" fill="none" stroke="rgba(128,128,128,1)"/>
      </g>
      <g transform="matrix(1 0 0 1 432.6374 262.6494)">
        <line x1="99.8448" x2="0" y1="0" y2="231.0276" fill="none" stroke="rgba(128,128,128,1)"/>
      </g>
      <g transform="matrix(1 0 0 1 432.6374 493.677)">
        <line x1="213.2526" x2="0" y1="12.3597" y2="0" fill="none" stroke="rgba(128,128,128,1)"/>
      </g>
      <g transform="matrix(1 0 0 1 532.4822 262.6494)">
        <line x1="155.0532" x2="0" y1="45.9267" y2="0" fill="none" stroke="rgba(128,128,128,1)"/>
      </g>
      <g transform="matrix(1 0 0 1 532.4822 262.6494)">
        <line x1="0" x2="113.4078" y1="0" y2="243.3873" fill="none" stroke="rgba(128,128,128,1)"/>
      </g>
      <g transform="matrix(1 0 0 1 432.6374 308.576)">
        <line x1="254.898" x2="0" y1="0" y2="185.1009" fill="none" stroke="rgba(128,128,128,1)"/>
      </g>
      <g transform="matrix(1 0 0 1 288.9232 522.6744)">
        <line x1="0" x2="165.9825" y1="0" y2="122.5481" fill="none" stroke="rgba(128,128,128,1)"/>
      </g>
      <g transform="matrix(1 0 0 1 215.8974 734.9642)">
        <line x1="130.6274" x2="0" y1="82.3173" y2="0" fill="none" stroke="rgba(128,128,128,1)"/>
      </g>
      <g transform="matrix(1 0 0 1 215.8974 522.6744)">
        <line x1="73.0258" x2="0" y1="0" y2="212.2898" fill="none" stroke="rgba(128,128,128,1)"/>
      </g>
      <g transform="matrix(1 0 0 1 346.5248 645.2225)">
        <line x1="108.3808" x2="0" y1="0" y2="172.0591" fill="none" stroke="rgba(128,128,128,1)"/>
      </g>
      <g transform="matrix(1 0 0 1 215.8974 645.2225)">
        <line x1="239.0082" x2="0" y1="0" y2="89.7417" fill="none" stroke="rgba(128,128,128,1)"/>
      </g>
      <g transform="matrix(1 0 0 1 288.9232 522.6744)">
        <line x1="0" x2="57.6016" y1="0" y2="294.6071" fill="none" stroke="rgba(128,128,128,1)"/>
      </g>
      <g transform="matrix(1 0 0 1 167.4647 374.8435)">
        <line x1="0" x2="133.1512" y1="0" y2="298.8744" fill="none" stroke="rgba(128,128,128,1)"/>
      </g>
      <g transform="matrix(1 0 0 1 120.9333 447.655)">
        <line x1="126.9265" x2="0" y1="0" y2="220.8088" fill="none" stroke="rgba(128,128,128,1)"/>
      </g>
      <g transform="matrix(1 0 0 1 247.8599 447.655)">
        <line x1="0" x2="52.7561" y1="0" y2="226.0628" fill="none" stroke="rgba(128,128,128,1)"/>
      </g>
      <g transform="matrix(1 0 0 1 120.9333 374.8435)">
        <line x1="0" x2="46.5314" y1="293.6204" y2="0" fill="none" stroke="rgba(128,128,128,1)"/>
      </g>
      <g transform="matrix(1 0 0 1 167.4647 374.8435)">
        <line x1="0" x2="80.3952" y1="0" y2="72.8116" fill="none" stroke="rgba(128,128,128,1)"/>
      </g>
      <g transform="matrix(1 0 0 1 120.9333 668.464)">
        <line x1="179.6826" x2="0" y1="5.254" y2="0" fill="none" stroke="rgba(128,128,128,1)"/>
      </g>
      <g transform="matrix(1 0 0 1 193.361 510.7129)">
        <line x1="245.4761" x2="0" y1="59.9213" y2="0" fill="none" stroke="rgba(128,128,128,1)"/>
      </g>
      <g transform="matrix(1 0 0 1 279.0453 376.7303)">
        <line x1="149.3357" x2="0" y1="0" y2="219.0987" fill="none" stroke="rgba(128,128,128,1)"/>
      </g>
      <g transform="matrix(1 0 0 1 193.361 376.7303)">
        <line x1="235.0201" x2="0" y1="0" y2="133.9825" fill="none" stroke="rgba(128,128,128,1)"/>
      </g>
      <g transform="matrix(1 0 0 1 279.0453 570.6342)">
        <line x1="159.7918" x2="0" y1="0" y2="25.1948" fill="none" stroke="rgba(128,128,128,1)"/>
      </g>
      <g transform="matrix(1 0 0 1 193.361 510.7129)">
        <line x1="85.6843" x2="0" y1="85.1162" y2="0" fill="none" stroke="rgba(128,128,128,1)"/>
      </g>
      <g transform="matrix(1 0 0 1 428.381 376.7303)">
        <line x1="10.4561" x2="0" y1="193.9039" y2="0" fill="none" stroke="rgba(128,128,128,1)"/>
      </g>
      <g transform="matrix(1 0 0 1 442.5812 278.6392)">
        <line x1="0" x2="112.6916" y1="0" y2="162.9494" fill="none" stroke="rgba(128,128,128,1)"/>
      </g>
      <g transform="matrix(1 0 0 1 638.8957 197.656)">
        <line x1="120.1299" x2="0" y1="184.9956" y2="0" fill="none" stroke="rgba(128,128,128,1)"/>
      </g>
      <g transform="matrix(1 0 0 1 555.2728 197.656)">
        <line x1="83.6229" x2="0" y1="0" y2="243.9326" fill="none" stroke="rgba(128,128,128,1)"/>
      </g>
      <g transform="matrix(1 0 0 1 442.5812 278.6392)">
        <line x1="316.4444" x2="0" y1="104.0124" y2="0" fill="none" stroke="rgba(128,128,128,1)"/>
      </g>
      <g transform="matrix(1 0 0 1 555.2728 382.6515)">
        <line x1="0" x2="203.7528" y1="58.937" y2="0" fill="none" stroke="rgba(128,128,128,1)"/>
      </g>
      <g transform="matrix(1 0 0 1 442.5812 197.656)">
        <line x1="196.3145" x2="0" y1="0" y2="80.9832" fill="none" stroke="rgba(128,128,128,1)"/>
      </g>
      <g transform="matrix(1 0 0 1 369.9067 487.532)">
        <line x1="0" x2="131.6815" y1="123.2909" y2="0" fill="none" stroke="rgba(128,128,128,1)"/>
      </g>
      <g transform="matrix(1 0 0 1 449.4133 506.0366)">
        <line x1="196.4767" x2="0" y1="0" y2="205.8008" fill="none" stroke="rgba(128,128,128,1)"/>
      </g>
      <g transform="matrix(1 0 0 1 525.6221 688.6552)">
        <line x1="90.3615" x2="0" y1="0" y2="63.1176" fill="none" stroke="rgba(128,128,128,1)"/>
      </g>
      <g transform="matrix(1 0 0 1 432.6374 493.677)">
        <line x1="204.6958" x2="0" y1="103.6947" y2="0" fill="none" stroke="rgba(128,128,128,1)"/>
      </g>
      <g transform="matrix(1 0 0 1 215.8974 673.7179)">
        <line x1="84.7185" x2="0" y1="0" y2="61.2464" fill="none" stroke="rgba(128,128,128,1)"/>
      </g>
      <g transform="matrix(1 0 0 1 193.361 441.5886)">
        <line x1="361.9118" x2="0" y1="0" y2="69.1243" fill="none" stroke="rgba(128,128,128,1)"/>
      </g>
      <g transform="matrix(1 0 0 1 120.9333 668.464)">
        <line x1="225.5915" x2="0" y1="148.8177" y2="0" fill="none" stroke="rgba(128,128,128,1)"/>
      </g>
      <g transform="matrix(1 0 0 1 279.0453 278.6392)">
        <line x1="163.5359" x2="0" y1="0" y2="317.1899" fill="none" stroke="rgba(128,128,128,1)"/>
      </g>
      <g transform="matrix(1 0 0 1 449.4133 487.532)">
        <line x1="52.1748" x2="0" y1="0" y2="224.3054" fill="none" stroke="rgba(128,128,128,1)"/>
      </g>
      <g transform="matrix(1 0 0 1 193.361 510.7129)">
        <line x1="22.5364" x2="0" y1="224.2514" y2="0" fill="none" stroke="rgba(128,128,128,1)"/>
      </g>
      <g transform="matrix(1 0 0 1 432.6374 493.677)">
        <line x1="92.9847" x2="0" y1="258.0958" y2="0" fill="none" stroke="rgba(128,128,128,1)"/>
      </g>
      <g transform="matrix(1 0 0 1 120.9333 595.829)">
        <line x1="0" x2="158.112" y1="72.6349" y2="0" fill="none" stroke="rgba(128,128,128,1)"/>
      </g>
      <g transform="matrix(1 0 0 1 193.361 510.7129)">
        <line x1="0" x2="256.0523" y1="0" y2="201.1246" fill="none" stroke="rgba(128,128,128,1)"/>
      </g>
      <g transform="matrix(1 0 0 1 279.0453 493.677)">
        <line x1="0" x2="153.5921" y1="102.152" y2="0" fill="none" stroke="rgba(128,128,128,1)"/>
      </g>
      <g transform="matrix(1 0 0 1 193.361 510.7129)">
        <line x1="85.6843" x2="0" y1="85.1162" y2="0" fill="none" stroke="rgba(128,128,128,1)"/>
      </g>
      <g transform="matrix(1 0 0 1 432.6374 493.677)">
        <line x1="0" x2="16.7759" y1="0" y2="218.1605" fill="none" stroke="rgba(128,128,128,1)"/>
      </g>
      <g stroke-width="2" transform="matrix(1 0 0 1 645.89 506.0366)">
        <circle cx="10" cy="10" r="10" fill="rgba(207,226,252,1)" stroke="rgba(118,145,241,1)" transform="translate(-10 -10)"/>
      </g>
      <g stroke-width="2" transform="matrix(1 0 0 1 783.5485 600.4271)">
        <circle cx="10" cy="10" r="10" fill="rgba(207,226,252,1)" stroke="rgba(118,145,241,1)" transform="translate(-10 -10)"/>
      </g>
      <g stroke-width="2" transform="matrix(1 0 0 1 193.361 510.7129)">
        <circle cx="10" cy="10" r="10" fill="rgba(207,226,252,1)" stroke="rgba(118,145,241,1)" transform="translate(-10 -10)"/>
      </g>
      <g stroke-width="2" transform="matrix(1 0 0 1 215.8974 734.9642)">
        <circle cx="10" cy="10" r="10" fill="rgba(207,226,252,1)" stroke="rgba(118,145,241,1)" transform="translate(-10 -10)"/>
      </g>
      <g stroke-width="2" transform="matrix(1 0 0 1 442.5812 278.6392)">
        <circle cx="10" cy="10" r="10" fill="rgba(207,226,252,1)" stroke="rgba(118,145,241,1)" transform="translate(-10 -10)"/>
      </g>
      <g stroke-width="2" transform="matrix(1 0 0 1 288.9232 522.6744)">
        <circle cx="10" cy="10" r="10" fill="rgba(207,226,252,1)" stroke="rgba(118,145,241,1)" transform="translate(-10 -10)"/>
      </g>
      <g stroke-width="2" transform="matrix(1 0 0 1 432.6374 493.677)">
        <circle cx="10" cy="10" r="10" fill="rgba(207,226,252,1)" stroke="rgba(118,145,241,1)" transform="translate(-10 -10)"/>
      </g>
      <g stroke-width="2" transform="matrix(1 0 0 1 637.3333 597.3717)">
        <circle cx="10" cy="10" r="10" fill="rgba(207,226,252,1)" stroke="rgba(118,145,241,1)" transform="translate(-10 -10)"/>
      </g>
      <g stroke-width="2" transform="matrix(1 0 0 1 720.0057 674.6393)">
        <circle cx="10" cy="10" r="10" fill="rgba(207,226,252,1)" stroke="rgba(118,145,241,1)" transform="translate(-10 -10)"/>
      </g>
      <g stroke-width="2" transform="matrix(1 0 0 1 279.0453 595.829)">
        <circle cx="10" cy="10" r="10" fill="rgba(207,226,252,1)" stroke="rgba(118,145,241,1)" transform="translate(-10 -10)"/>
      </g>
      <g stroke-width="2" transform="matrix(1 0 0 1 449.4133 711.8375)">
        <circle cx="10" cy="10" r="10" fill="rgba(207,226,252,1)" stroke="rgba(118,145,241,1)" transform="translate(-10 -10)"/>
      </g>
      <g stroke-width="2" transform="matrix(1 0 0 1 167.4647 374.8435)">
        <circle cx="10" cy="10" r="10" fill="rgba(207,226,252,1)" stroke="rgba(118,145,241,1)" transform="translate(-10 -10)"/>
      </g>
      <g stroke-width="2" transform="matrix(1 0 0 1 687.5354 308.576)">
        <circle cx="10" cy="10" r="10" fill="rgba(207,226,252,1)" stroke="rgba(118,145,241,1)" transform="translate(-10 -10)"/>
      </g>
      <g stroke-width="2" transform="matrix(1 0 0 1 550.9252 563.0768)">
        <circle cx="10" cy="10" r="10" fill="rgba(207,226,252,1)" stroke="rgba(118,145,241,1)" transform="translate(-10 -10)"/>
      </g>
      <g stroke-width="2" transform="matrix(1 0 0 1 555.2728 441.5886)">
        <circle cx="10" cy="10" r="10" fill="rgba(207,226,252,1)" stroke="rgba(118,145,241,1)" transform="translate(-10 -10)"/>
      </g>
      <g stroke-width="2" transform="matrix(1 0 0 1 247.8599 447.655)">
        <circle cx="10" cy="10" r="10" fill="rgba(207,226,252,1)" stroke="rgba(118,145,241,1)" transform="translate(-10 -10)"/>
      </g>
      <g stroke-width="2" transform="matrix(1 0 0 1 300.616 673.7179)">
        <circle cx="10" cy="10" r="10" fill="rgba(207,226,252,1)" stroke="rgba(118,145,241,1)" transform="translate(-10 -10)"/>
      </g>
      <g stroke-width="2" transform="matrix(1 0 0 1 364.4483 415.0672)">
        <circle cx="10" cy="10" r="10" fill="rgba(207,226,252,1)" stroke="rgba(118,145,241,1)" transform="translate(-10 -10)"/>
      </g>
      <g stroke-width="2" transform="matrix(1 0 0 1 532.4822 262.6494)">
        <circle cx="10" cy="10" r="10" fill="rgba(207,226,252,1)" stroke="rgba(118,145,241,1)" transform="translate(-10 -10)"/>
      </g>
      <g stroke-width="2" transform="matrix(1 0 0 1 438.8372 570.6342)">
        <circle cx="10" cy="10" r="10" fill="rgba(207,226,252,1)" stroke="rgba(118,145,241,1)" transform="translate(-10 -10)"/>
      </g>
      <g stroke-width="2" transform="matrix(1 0 0 1 676.677 812.287)">
        <circle cx="10" cy="10" r="10" fill="rgba(207,226,252,1)" stroke="rgba(118,145,241,1)" transform="translate(-10 -10)"/>
      </g>
      <g stroke-width="2" transform="matrix(1 0 0 1 759.0256 382.6515)">
        <circle cx="10" cy="10" r="10" fill="rgba(207,226,252,1)" stroke="rgba(118,145,241,1)" transform="translate(-10 -10)"/>
      </g>
      <g stroke-width="2" transform="matrix(1 0 0 1 369.9067 610.8229)">
        <circle cx="10" cy="10" r="10" fill="rgba(207,226,252,1)" stroke="rgba(118,145,241,1)" transform="translate(-10 -10)"/>
      </g>
      <g stroke-width="2" transform="matrix(1 0 0 1 525.6221 751.7728)">
        <circle cx="10" cy="10" r="10" fill="rgba(207,226,252,1)" stroke="rgba(118,145,241,1)" transform="translate(-10 -10)"/>
      </g>
      <g stroke-width="2" transform="matrix(1 0 0 1 679.6431 440.3848)">
        <circle cx="10" cy="10" r="10" fill="rgba(207,226,252,1)" stroke="rgba(118,145,241,1)" transform="translate(-10 -10)"/>
      </g>
      <g stroke-width="2" transform="matrix(1 0 0 1 638.8957 197.656)">
        <circle cx="10" cy="10" r="10" fill="rgba(207,226,252,1)" stroke="rgba(118,145,241,1)" transform="translate(-10 -10)"/>
      </g>
      <g stroke-width="2" transform="matrix(1 0 0 1 454.9056 645.2225)">
        <circle cx="10" cy="10" r="10" fill="rgba(207,226,252,1)" stroke="rgba(118,145,241,1)" transform="translate(-10 -10)"/>
      </g>
      <g stroke-width="2" transform="matrix(1 0 0 1 615.9836 688.6552)">
        <circle cx="10" cy="10" r="10" fill="rgba(207,226,252,1)" stroke="rgba(118,145,241,1)" transform="translate(-10 -10)"/>
      </g>
      <g stroke-width="2" transform="matrix(1 0 0 1 120.9333 668.464)">
        <circle cx="10" cy="10" r="10" fill="rgba(207,226,252,1)" stroke="rgba(118,145,241,1)" transform="translate(-10 -10)"/>
      </g>
      <g stroke-width="2" transform="matrix(1 0 0 1 346.5248 817.2816)">
        <circle cx="10" cy="10" r="10" fill="rgba(207,226,252,1)" stroke="rgba(118,145,241,1)" transform="translate(-10 -10)"/>
      </g>
      <g stroke-width="2" transform="matrix(1 0 0 1 428.381 376.7303)">
        <circle cx="10" cy="10" r="10" fill="rgba(207,226,252,1)" stroke="rgba(118,145,241,1)" transform="translate(-10 -10)"/>
      </g>
      <g stroke-width="2" transform="matrix(1 0 0 1 501.5881 487.532)">
        <circle cx="10" cy="10" r="10" fill="rgba(207,226,252,1)" stroke="rgba(118,145,241,1)" transform="translate(-10 -10)"/>
      </g>
    </g>
  </g>
</svg>
